<svg width="443" height="432" viewBox="0 0 443 432" fill="none" xmlns="http://www.w3.org/2000/svg">
<g clip-path="url(#clip0_127_12)">
<g style="mix-blend-mode:lighten">
<path d="M221.488 275.691C220.142 275.722 218.81 275.409 217.619 274.78L130.508 224.514C130.007 224.276 129.579 223.907 129.272 223.445C128.964 222.984 128.788 222.447 128.762 221.892C128.834 221.196 129.087 220.531 129.495 219.962C129.904 219.394 130.454 218.942 131.09 218.652L217.037 169.004C218.37 168.254 219.864 167.832 221.394 167.775C222.923 167.718 224.444 168.027 225.83 168.677L312.928 218.931C313.43 219.171 313.857 219.543 314.165 220.007C314.472 220.471 314.649 221.009 314.675 221.565C314.604 222.26 314.352 222.924 313.943 223.491C313.534 224.058 312.984 224.507 312.346 224.793L226.4 274.441C224.896 275.271 223.205 275.701 221.488 275.691ZM218.322 273.615C219.509 274.131 220.798 274.369 222.091 274.31C223.384 274.251 224.646 273.897 225.782 273.276L311.716 223.628C312.142 223.447 312.516 223.162 312.804 222.8C313.092 222.437 313.285 222.009 313.365 221.552C313.328 221.24 313.211 220.942 313.023 220.688C312.836 220.435 312.586 220.235 312.298 220.108L225.151 169.781C223.965 169.267 222.679 169.03 221.388 169.089C220.097 169.148 218.837 169.501 217.704 170.121L131.757 219.769C131.334 219.949 130.961 220.232 130.673 220.592C130.385 220.952 130.191 221.378 130.108 221.832C130.145 222.146 130.263 222.445 130.45 222.7C130.637 222.956 130.887 223.158 131.175 223.288L218.322 273.615Z" fill="#8686F2"/>
</g>
<path opacity="0.5" d="M119.24 281.479C119.106 281.464 118.979 281.409 118.876 281.322C118.772 281.234 118.698 281.117 118.661 280.987C118.625 280.856 118.628 280.718 118.671 280.59C118.713 280.461 118.793 280.348 118.901 280.265L173.93 248.47C174.091 248.379 174.281 248.357 174.458 248.407C174.636 248.457 174.786 248.576 174.876 248.737C174.966 248.897 174.989 249.088 174.939 249.265C174.888 249.443 174.77 249.593 174.609 249.683L119.58 281.382C119.476 281.442 119.36 281.475 119.24 281.479Z" fill="url(#paint0_linear_127_12)"/>
<path opacity="0.5" d="M324.087 281.297C323.967 281.295 323.85 281.261 323.748 281.2L269.034 249.647C268.954 249.603 268.884 249.544 268.827 249.473C268.77 249.402 268.728 249.321 268.702 249.233C268.677 249.146 268.669 249.054 268.679 248.964C268.689 248.874 268.717 248.786 268.761 248.706C268.804 248.627 268.864 248.556 268.934 248.5C269.005 248.443 269.087 248.4 269.174 248.375C269.261 248.35 269.353 248.342 269.443 248.352C269.534 248.362 269.621 248.39 269.701 248.433L324.427 280.047C324.58 280.138 324.691 280.286 324.737 280.459C324.782 280.631 324.758 280.815 324.669 280.97C324.61 281.071 324.524 281.154 324.422 281.212C324.32 281.269 324.204 281.299 324.087 281.297Z" fill="url(#paint1_linear_127_12)"/>
<path opacity="0.5" d="M221.5 387.474C219.247 387.477 217.032 386.883 215.084 385.75C192.657 372.741 117.955 329.537 116.172 328.712C116.088 328.689 116.009 328.648 115.941 328.593C115.873 328.539 115.817 328.471 115.776 328.393C115.735 328.316 115.71 328.231 115.703 328.144C115.696 328.057 115.707 327.97 115.735 327.887C115.793 327.715 115.915 327.573 116.076 327.49C116.236 327.406 116.422 327.387 116.596 327.438C117.809 327.777 214.841 383.991 215.763 384.561C217.509 385.569 219.49 386.099 221.506 386.099C223.522 386.099 225.503 385.569 227.249 384.561L325.919 327.341C325.998 327.296 326.086 327.268 326.177 327.257C326.267 327.246 326.359 327.253 326.447 327.278C326.535 327.303 326.617 327.345 326.689 327.401C326.76 327.458 326.82 327.528 326.865 327.608C326.909 327.687 326.938 327.775 326.949 327.866C326.959 327.956 326.952 328.048 326.927 328.136C326.902 328.224 326.861 328.306 326.804 328.378C326.748 328.45 326.678 328.51 326.598 328.554L227.928 385.775C225.972 386.897 223.755 387.484 221.5 387.474Z" fill="url(#paint2_linear_127_12)"/>
<path d="M314.008 184.866V195.57L221.5 249.004L128.98 195.57V184.866H314.008Z" fill="url(#paint3_linear_127_12)"/>
<path d="M221.5 238.312L128.98 184.866L221.5 131.432L314.008 184.866L221.5 238.312Z" fill="#BCBEFF"/>
<path d="M221.5 237.062L130.059 184.247L128.98 184.866L221.5 238.312L314.008 184.866L312.928 184.247L221.5 237.062Z" fill="white"/>
<path d="M221.5 225.982L150.339 184.878L221.5 143.773L292.649 184.878L221.5 225.982Z" fill="#0F054C"/>
<path opacity="0.5" d="M221.5 225.982L150.339 184.878L221.5 143.773L292.649 184.878L221.5 225.982Z" fill="url(#paint4_linear_127_12)"/>
<path opacity="0.5" d="M221.5 133.41L292.649 174.514V184.878L221.5 143.774V133.41Z" fill="url(#paint5_linear_127_12)"/>
<path opacity="0.5" d="M221.5 143.774L150.339 184.878V174.514L221.5 133.41V143.774Z" fill="url(#paint6_linear_127_12)"/>
<path opacity="0.5" d="M221.5 215.618L150.339 174.514L221.5 133.41L292.649 174.514L221.5 215.618Z" fill="url(#paint7_linear_127_12)"/>
<path opacity="0.5" d="M221.5 190.946L193.07 174.514L221.5 158.094L249.93 174.514L221.5 190.946Z" fill="#42E8E0"/>
<path opacity="0.5" d="M221.5 159.599L248.62 175.278L249.93 174.514L221.5 158.094L193.07 174.514L194.367 175.278L221.5 159.599Z" fill="#42E8E0"/>
<path opacity="0.5" d="M221.5 215.618V225.982L292.649 184.878V174.514L221.5 215.618Z" fill="url(#paint8_linear_127_12)"/>
<path opacity="0.5" d="M150.339 174.514V184.878L221.5 225.982V215.618L150.339 174.514Z" fill="url(#paint9_linear_127_12)"/>
<path opacity="0.8" d="M221.5 214.489L151.322 173.956L150.339 174.514L221.5 215.618L292.649 174.514L291.678 173.956L221.5 214.489Z" fill="#42E8E0"/>
<g opacity="0.11">
<path opacity="0.11" d="M84.6362 260.812C82.8067 259.756 80.732 259.201 78.6202 259.201C76.5084 259.201 74.4337 259.756 72.6042 260.812L0.849001 302.183C0.592244 302.332 0.379183 302.547 0.231093 302.804C0.0830024 303.062 0.00506592 303.354 0.00506592 303.651C0.00506592 303.949 0.0830024 304.241 0.231093 304.498C0.379183 304.756 0.592244 304.97 0.849001 305.12L73.1986 346.916C74.8125 347.852 76.6452 348.346 78.5111 348.346C80.3769 348.346 82.2096 347.852 83.8236 346.916L156.282 305.156C156.542 305.009 156.758 304.796 156.909 304.538C157.059 304.28 157.138 303.986 157.138 303.688C157.138 303.389 157.059 303.096 156.909 302.838C156.758 302.58 156.542 302.366 156.282 302.219L84.6362 260.812Z" fill="url(#paint10_linear_127_12)"/>
</g>
<g opacity="0.11">
<path opacity="0.11" d="M84.6362 248.713C82.8067 247.657 80.732 247.102 78.6202 247.102C76.5084 247.102 74.4337 247.657 72.6042 248.713L0.849001 290.047C0.592244 290.197 0.379183 290.411 0.231093 290.669C0.0830024 290.926 0.00506592 291.218 0.00506592 291.516C0.00506592 291.813 0.0830024 292.105 0.231093 292.363C0.379183 292.62 0.592244 292.835 0.849001 292.984L73.1986 334.78C74.8146 335.711 76.6465 336.201 78.5111 336.201C80.3756 336.201 82.2076 335.711 83.8236 334.78L156.282 293.021C156.542 292.874 156.758 292.66 156.909 292.402C157.059 292.144 157.138 291.851 157.138 291.552C157.138 291.253 157.059 290.96 156.909 290.702C156.758 290.444 156.542 290.231 156.282 290.084L84.6362 248.713Z" fill="url(#paint11_linear_127_12)"/>
</g>
<g opacity="0.11">
<path opacity="0.11" d="M84.6362 236.649C82.8075 235.592 80.7325 235.035 78.6202 235.035C76.5079 235.035 74.4329 235.592 72.6042 236.649L0.849001 277.972C0.592244 278.122 0.379183 278.336 0.231093 278.594C0.0830024 278.851 0.00506592 279.143 0.00506592 279.44C0.00506592 279.738 0.0830024 280.03 0.231093 280.287C0.379183 280.545 0.592244 280.759 0.849001 280.909L73.1986 322.705C74.8146 323.635 76.6465 324.125 78.5111 324.125C80.3756 324.125 82.2076 323.635 83.8236 322.705L156.282 280.945C156.542 280.798 156.758 280.585 156.909 280.327C157.059 280.069 157.138 279.776 157.138 279.477C157.138 279.178 157.059 278.885 156.909 278.627C156.758 278.369 156.542 278.155 156.282 278.008L84.6362 236.649Z" fill="url(#paint12_linear_127_12)"/>
</g>
<g opacity="0.11">
<path opacity="0.11" d="M84.6362 224.513C82.8067 223.458 80.732 222.902 78.6202 222.902C76.5084 222.902 74.4337 223.458 72.6042 224.513L0.849001 265.872C0.592244 266.022 0.379183 266.236 0.231093 266.494C0.0830024 266.751 0.00506592 267.044 0.00506592 267.341C0.00506592 267.638 0.0830024 267.93 0.231093 268.188C0.379183 268.445 0.592244 268.66 0.849001 268.809L73.1986 310.605C74.8125 311.542 76.6452 312.035 78.5111 312.035C80.3769 312.035 82.2096 311.542 83.8236 310.605L156.282 268.858C156.542 268.711 156.758 268.497 156.909 268.239C157.059 267.981 157.138 267.688 157.138 267.389C157.138 267.091 157.059 266.797 156.909 266.539C156.758 266.281 156.542 266.068 156.282 265.921L84.6362 224.513Z" fill="url(#paint13_linear_127_12)"/>
</g>
<path opacity="0.5" d="M156.282 265.921L84.6362 224.513C82.8067 223.458 80.732 222.902 78.6202 222.902C76.5084 222.902 74.4337 223.458 72.6042 224.513L0.849007 265.872C0.589629 266.019 0.374177 266.233 0.224916 266.491C0.0756545 266.749 -0.00200054 267.043 -2.42336e-05 267.341V291.612C-0.00200054 291.911 0.0756545 292.204 0.224916 292.462C0.374177 292.72 0.589629 292.934 0.849007 293.081L73.1986 334.95C74.8125 335.886 76.6452 336.38 78.5111 336.38C80.3769 336.38 82.2096 335.886 83.8236 334.95L156.282 293.19C156.542 293.043 156.757 292.83 156.906 292.571C157.056 292.313 157.133 292.02 157.131 291.722V267.45C157.146 267.141 157.074 266.835 156.924 266.565C156.774 266.295 156.552 266.072 156.282 265.921Z" fill="url(#paint14_linear_127_12)"/>
<g opacity="0.11">
<path opacity="0.11" d="M84.6362 224.513C82.8067 223.458 80.732 222.902 78.6202 222.902C76.5084 222.902 74.4337 223.458 72.6042 224.513L0.849001 265.872C0.592244 266.022 0.379183 266.236 0.231093 266.494C0.0830024 266.751 0.00506592 267.044 0.00506592 267.341C0.00506592 267.638 0.0830024 267.93 0.231093 268.188C0.379183 268.445 0.592244 268.66 0.849001 268.809L73.1986 310.605C74.8125 311.542 76.6452 312.035 78.5111 312.035C80.3769 312.035 82.2096 311.542 83.8236 310.605L156.282 268.858C156.542 268.711 156.758 268.497 156.909 268.239C157.059 267.981 157.138 267.688 157.138 267.389C157.138 267.091 157.059 266.797 156.909 266.539C156.758 266.281 156.542 266.068 156.282 265.921L84.6362 224.513Z" fill="url(#paint15_linear_127_12)"/>
</g>
<g opacity="0.5">
<path opacity="0.5" d="M81.143 248.239C80.3672 247.789 79.4865 247.553 78.5899 247.553C77.6933 247.553 76.8126 247.789 76.0367 248.239L43.8948 266.771C43.7788 266.836 43.6822 266.931 43.615 267.046C43.5477 267.162 43.5123 267.293 43.5123 267.426C43.5123 267.559 43.5477 267.69 43.615 267.805C43.6822 267.921 43.7788 268.016 43.8948 268.081L76.1701 286.722C76.8907 287.14 77.7086 287.36 78.5414 287.36C79.3741 287.36 80.1921 287.14 80.9126 286.722L113.249 268.093C113.362 268.025 113.455 267.929 113.52 267.814C113.585 267.7 113.619 267.57 113.619 267.438C113.619 267.306 113.585 267.176 113.52 267.062C113.455 266.947 113.362 266.851 113.249 266.783L81.143 248.239Z" fill="#42E8E0"/>
</g>
<path d="M43.8949 267.923L76.0367 249.392C76.8134 248.945 77.6938 248.709 78.5899 248.709C79.486 248.709 80.3664 248.945 81.1431 249.392L113.249 267.936C113.249 267.936 113.249 267.996 113.321 268.008C113.418 267.936 113.495 267.841 113.545 267.732C113.596 267.622 113.619 267.502 113.611 267.382C113.604 267.262 113.567 267.145 113.504 267.043C113.441 266.94 113.353 266.855 113.249 266.795L81.1431 248.239C80.3672 247.789 79.4865 247.553 78.5899 247.553C77.6933 247.553 76.8126 247.789 76.0367 248.239L43.8949 266.771C43.7929 266.833 43.7075 266.919 43.646 267.021C43.5845 267.123 43.5486 267.239 43.5414 267.358C43.5343 267.478 43.5561 267.597 43.6049 267.706C43.6538 267.815 43.7283 267.91 43.8221 267.984C43.8221 267.984 43.8585 267.936 43.8949 267.923Z" fill="#42E8E0"/>
<path d="M156.282 267.183L83.8236 308.943C82.2076 309.873 80.3757 310.363 78.5111 310.363C76.6465 310.363 74.8146 309.873 73.1986 308.943L0.84901 267.147C0.59032 266.991 0.373745 266.774 0.218302 266.516C-0.000772247 266.904 -0.0574069 267.363 0.0607723 267.793C0.178952 268.222 0.462337 268.588 0.84901 268.809L73.1986 310.605C74.8126 311.542 76.6452 312.035 78.5111 312.035C80.3769 312.035 82.2096 311.542 83.8236 310.605L156.282 268.858C156.475 268.748 156.645 268.602 156.781 268.426C156.917 268.251 157.018 268.05 157.076 267.836C157.135 267.622 157.151 267.398 157.123 267.178C157.095 266.957 157.023 266.745 156.913 266.552C156.764 266.816 156.546 267.034 156.282 267.183Z" fill="url(#paint16_linear_127_12)"/>
<g opacity="0.11">
<path opacity="0.11" d="M370.505 260.812C368.671 259.763 366.595 259.21 364.483 259.21C362.37 259.21 360.295 259.763 358.461 260.812L286.706 302.183C286.449 302.333 286.236 302.547 286.088 302.805C285.94 303.062 285.862 303.354 285.862 303.652C285.862 303.949 285.94 304.241 286.088 304.498C286.236 304.756 286.449 304.97 286.706 305.12L359.019 346.892C360.633 347.828 362.465 348.322 364.331 348.322C366.197 348.322 368.03 347.828 369.644 346.892L442.115 305.132C442.371 304.983 442.584 304.768 442.732 304.511C442.881 304.253 442.959 303.961 442.959 303.664C442.959 303.366 442.881 303.074 442.732 302.817C442.584 302.559 442.371 302.345 442.115 302.195L370.505 260.812Z" fill="url(#paint17_linear_127_12)"/>
</g>
<g opacity="0.11">
<path opacity="0.11" d="M370.505 248.712C368.671 247.663 366.595 247.111 364.483 247.111C362.37 247.111 360.295 247.663 358.461 248.712L286.706 290.047C286.449 290.197 286.236 290.411 286.088 290.669C285.94 290.926 285.862 291.218 285.862 291.516C285.862 291.813 285.94 292.105 286.088 292.362C286.236 292.62 286.449 292.834 286.706 292.984L359.019 334.804C360.635 335.735 362.467 336.225 364.331 336.225C366.196 336.225 368.028 335.735 369.644 334.804L442.115 293.045C442.371 292.895 442.584 292.681 442.732 292.423C442.881 292.165 442.959 291.873 442.959 291.576C442.959 291.279 442.881 290.987 442.732 290.729C442.584 290.472 442.371 290.257 442.115 290.108L370.505 248.712Z" fill="url(#paint18_linear_127_12)"/>
</g>
<g opacity="0.11">
<path opacity="0.11" d="M370.505 236.649C368.674 235.59 366.597 235.033 364.483 235.033C362.368 235.033 360.291 235.59 358.461 236.649L286.706 278.008C286.449 278.158 286.236 278.372 286.088 278.63C285.94 278.887 285.862 279.179 285.862 279.477C285.862 279.774 285.94 280.066 286.088 280.323C286.236 280.581 286.449 280.795 286.706 280.945L359.019 322.704C360.635 323.635 362.467 324.125 364.331 324.125C366.196 324.125 368.028 323.635 369.644 322.704L442.115 280.945C442.371 280.795 442.584 280.581 442.732 280.323C442.881 280.066 442.959 279.774 442.959 279.477C442.959 279.179 442.881 278.887 442.732 278.63C442.584 278.372 442.371 278.158 442.115 278.008L370.505 236.649Z" fill="url(#paint19_linear_127_12)"/>
</g>
<g opacity="0.11">
<path opacity="0.11" d="M370.505 224.514C368.671 223.464 366.595 222.912 364.483 222.912C362.37 222.912 360.295 223.464 358.461 224.514L286.706 265.86C286.449 266.01 286.236 266.224 286.088 266.482C285.94 266.74 285.862 267.032 285.862 267.329C285.862 267.626 285.94 267.918 286.088 268.176C286.236 268.434 286.449 268.648 286.706 268.797L359.019 310.605C360.633 311.542 362.465 312.035 364.331 312.035C366.197 312.035 368.03 311.542 369.644 310.605L442.115 268.858C442.371 268.708 442.584 268.494 442.732 268.237C442.881 267.979 442.959 267.687 442.959 267.39C442.959 267.092 442.881 266.8 442.732 266.543C442.584 266.285 442.371 266.071 442.115 265.921L370.505 224.514Z" fill="url(#paint20_linear_127_12)"/>
</g>
<path opacity="0.5" d="M442.151 265.921L370.505 224.514C368.671 223.464 366.595 222.912 364.483 222.912C362.37 222.912 360.295 223.464 358.461 224.514L286.706 265.86C286.448 266.009 286.234 266.223 286.085 266.481C285.936 266.739 285.857 267.031 285.857 267.329V291.601C285.857 291.898 285.936 292.191 286.085 292.448C286.234 292.706 286.448 292.92 286.706 293.069L359.019 334.95C360.633 335.887 362.465 336.38 364.331 336.38C366.197 336.38 368.03 335.887 369.644 334.95L442.115 293.19C442.372 293.042 442.586 292.827 442.735 292.57C442.884 292.312 442.963 292.02 442.964 291.722V267.45C442.979 267.146 442.911 266.843 442.768 266.573C442.625 266.304 442.412 266.079 442.151 265.921Z" fill="url(#paint21_linear_127_12)"/>
<g opacity="0.11">
<path opacity="0.11" d="M370.505 224.514C368.671 223.464 366.595 222.912 364.483 222.912C362.37 222.912 360.295 223.464 358.461 224.514L286.706 265.86C286.449 266.01 286.236 266.224 286.088 266.482C285.94 266.74 285.862 267.032 285.862 267.329C285.862 267.626 285.94 267.918 286.088 268.176C286.236 268.434 286.449 268.648 286.706 268.797L359.019 310.605C360.633 311.542 362.465 312.035 364.331 312.035C366.197 312.035 368.03 311.542 369.644 310.605L442.115 268.858C442.371 268.708 442.584 268.494 442.732 268.237C442.881 267.979 442.959 267.687 442.959 267.39C442.959 267.092 442.881 266.8 442.732 266.543C442.584 266.285 442.371 266.071 442.115 265.921L370.505 224.514Z" fill="url(#paint22_linear_127_12)"/>
</g>
<g opacity="0.5">
<path opacity="0.5" d="M367 248.239C366.226 247.789 365.347 247.552 364.453 247.552C363.558 247.552 362.679 247.789 361.905 248.239L329.751 266.77C329.635 266.836 329.539 266.931 329.472 267.046C329.404 267.161 329.369 267.292 329.369 267.426C329.369 267.559 329.404 267.69 329.472 267.805C329.539 267.92 329.635 268.015 329.751 268.081L362.027 286.734C362.747 287.152 363.565 287.371 364.398 287.371C365.231 287.371 366.049 287.152 366.769 286.734L399.105 268.105C399.221 268.04 399.318 267.945 399.385 267.829C399.452 267.714 399.488 267.583 399.488 267.45C399.488 267.317 399.452 267.186 399.385 267.07C399.318 266.955 399.221 266.86 399.105 266.795L367 248.239Z" fill="#42E8E0"/>
</g>
<path d="M329.751 267.923L361.905 249.392C362.68 248.945 363.558 248.709 364.453 248.709C365.347 248.709 366.225 248.945 367 249.392L399.105 267.935C399.105 267.935 399.105 267.996 399.178 268.008C399.274 267.936 399.351 267.841 399.402 267.732C399.453 267.622 399.475 267.502 399.468 267.382C399.461 267.262 399.424 267.145 399.361 267.042C399.297 266.94 399.209 266.855 399.105 266.795L367 248.251C366.226 247.801 365.347 247.564 364.453 247.564C363.558 247.564 362.679 247.801 361.905 248.251L329.751 266.783C329.649 266.845 329.564 266.931 329.503 267.033C329.441 267.135 329.405 267.251 329.398 267.37C329.391 267.49 329.413 267.609 329.461 267.718C329.51 267.827 329.585 267.922 329.679 267.996C329.679 267.996 329.715 267.935 329.751 267.923Z" fill="#42E8E0"/>
<path d="M442.151 267.183L369.68 308.943C368.064 309.873 366.232 310.363 364.368 310.363C362.503 310.363 360.671 309.873 359.055 308.943L286.706 267.147C286.447 266.991 286.23 266.774 286.075 266.516C285.856 266.904 285.799 267.363 285.917 267.793C286.036 268.222 286.319 268.588 286.706 268.809L359.019 310.605C360.633 311.542 362.465 312.035 364.331 312.035C366.197 312.035 368.03 311.542 369.644 310.605L442.115 268.858C442.5 268.632 442.781 268.264 442.899 267.833C443.017 267.403 442.962 266.943 442.745 266.552C442.603 266.809 442.399 267.026 442.151 267.183Z" fill="url(#paint23_linear_127_12)"/>
<path opacity="0.5" d="M423.533 166.019V123.021C422.538 108.361 416.741 94.393 407.013 81.6261V124.623C416.716 137.402 422.538 151.322 423.533 166.019ZM402.04 118.592V75.5824C398.496 71.585 394.696 67.8231 390.663 64.3203V107.366C394.695 110.857 398.495 114.607 402.04 118.592ZM383.616 101.602V58.6407C378.962 55.0955 374.123 51.7981 369.122 48.7622V91.7595C374.123 94.7954 378.962 98.0929 383.616 101.638V101.602ZM359.358 98.8954V30.522C398.947 51.5291 423.642 81.5896 423.642 114.842V183.252C423.642 149.999 398.923 119.939 359.358 98.9197V98.8954Z" fill="#42E8E0"/>
<path opacity="0.5" d="M286.972 66.092V53.7377C283.956 53.1552 280.904 52.6172 277.815 52.1237V64.478C280.896 64.9715 283.948 65.5095 286.972 66.092ZM270.477 50.9708V40.0485C267.348 39.6197 264.186 39.2152 260.992 38.8349V49.7572C264.186 50.1132 267.348 50.5177 270.477 50.9708ZM302.801 57.16V42.3058C299.906 41.5938 296.975 40.9142 294.007 40.2669V55.1698C296.967 55.817 299.898 56.4966 302.801 57.2086V57.16ZM253.496 49.114V27.1117C250.262 26.8285 247.028 26.5939 243.793 26.4078V48.4222C247.068 48.6043 250.319 48.847 253.496 49.114ZM218.104 47.9004V25.8738C214.797 25.9224 211.502 26.0194 208.219 26.1651V48.1674C211.494 48.0217 214.789 47.9247 218.104 47.8761V47.9004ZM200.493 48.5436V20.9103C197.254 21.1166 194.04 21.3836 190.789 21.6748V49.3567C194.024 49.0573 197.258 48.8025 200.493 48.5921V48.5436ZM235.934 48.0096V16.3957C232.974 16.2986 229.99 16.2258 226.994 16.2015H225.939V47.8518H226.994C229.99 47.8518 232.974 47.9489 235.934 48.0582V48.0096ZM183.354 50.097V10.5462C180.201 10.9103 177.071 11.3148 173.966 11.7598V51.3834C177.071 50.9303 180.201 50.5258 183.354 50.1698V50.097ZM153.808 7.14819C177.87 2.10308 202.411 -0.293844 226.994 0.000175243C261.368 0.352115 293.558 5.64335 321.601 14.6846V83.1065C293.522 74.0289 261.368 68.7741 226.994 68.4343C202.412 68.13 177.87 70.5229 153.808 75.5701V7.14819Z" fill="#42E8E0"/>
<path opacity="0.5" d="M37.4786 99.951V86.1646C33.4893 91.8549 30.2295 98.0236 27.7754 104.526V145.315C30.2297 138.816 33.4896 132.651 37.4786 126.965V113.203C38.6673 111.496 39.9206 109.809 41.2386 108.143V115.57C43.8037 112.343 46.5492 109.263 49.4621 106.347V98.9194C62.3674 85.9219 79.542 74.5385 99.8824 65.3638V52.1114C96.2599 53.7295 92.7425 55.4326 89.3302 57.2206C87.6159 58.1106 85.934 59.0127 84.2845 59.9269C72.0187 66.5828 60.6988 74.8521 50.6265 84.5141L49.4136 85.7277V78.2399C46.5202 81.1607 43.7911 84.2399 41.2386 87.4632V94.8903C39.9125 96.565 38.6592 98.2519 37.4786 99.951ZM25.0949 99.5141C32.8696 66.1405 65.5573 37.3785 111.927 19.4902V87.9C65.5573 105.8 32.8696 134.55 25.0949 167.936V99.5141Z" fill="#42E8E0"/>
<path opacity="0.75" d="M49.4621 85.6671L50.675 84.4536V97.7545C58.0121 90.6515 66.0642 84.3274 74.7026 78.8832C77.7833 76.9172 80.9773 75.0159 84.2845 73.1793V59.927C85.9017 59.0047 87.5836 58.1026 89.3302 57.2207V70.4609C92.7344 68.6891 96.2518 66.9901 99.8824 65.3639C79.542 74.5386 62.3674 85.922 49.4621 98.9195V85.6671ZM37.4786 99.951C38.6673 98.252 39.9206 96.5651 41.2386 94.8904V108.143C39.9125 109.809 38.6592 111.496 37.4786 113.203V99.951Z" fill="#42E8E0"/>
<path opacity="0.88" d="M89.3301 57.2205C92.7343 55.4487 96.2518 53.7456 99.8824 52.1113V65.3637C96.2598 66.9818 92.7424 68.6808 89.3301 70.4607V57.2205Z" fill="#42E8E0"/>
<path opacity="0.88" d="M50.6265 84.5142C57.9777 77.4001 66.0461 71.0678 74.7025 65.6187V78.8831C66.0473 84.3246 57.9788 90.6488 50.6265 97.7544V84.5142Z" fill="#42E8E0"/>
<path opacity="0.97" d="M74.7026 65.619C77.7833 63.653 80.9773 61.7557 84.2845 59.9272V73.1675C80.9854 75.0121 77.7914 76.9134 74.7026 78.8713V65.619Z" fill="#42E8E0"/>
<path opacity="0.75" d="M27.7633 104.538C30.2202 98.0309 33.4842 91.858 37.4786 86.1646V99.9509C33.4893 105.641 30.2295 111.81 27.7754 118.312V131.553C30.2297 125.054 33.4896 118.889 37.4786 113.203V126.977C33.4896 132.664 30.2297 138.828 27.7754 145.327V104.538H27.7633Z" fill="#42E8E0"/>
<path opacity="0.88" d="M27.7633 118.313C30.2173 111.81 33.4772 105.641 37.4665 99.9512V113.204C33.4774 118.89 30.2176 125.054 27.7633 131.553V118.313Z" fill="#42E8E0"/>
<path opacity="0.75" d="M41.2386 108.143C43.8036 104.916 46.5492 101.836 49.4621 98.9195V106.347C46.5492 109.263 43.8036 112.343 41.2386 115.57V108.143ZM41.2386 87.5118C43.8067 84.2872 46.5521 81.2081 49.4621 78.2886V85.7157C46.5535 88.6195 43.8081 91.6824 41.2386 94.8904V87.4633V87.5118Z" fill="#42E8E0"/>
<path opacity="0.88" d="M41.2386 94.8902C43.8067 91.6657 46.5521 88.5865 49.4621 85.667V98.9194C46.5492 101.836 43.8036 104.915 41.2386 108.143V94.8902Z" fill="#42E8E0"/>
<path opacity="0.75" d="M407.013 81.626C416.716 94.3929 422.538 108.325 423.533 123.021V166.019C422.538 151.371 416.741 137.402 407.013 124.623V81.626Z" fill="#42E8E0"/>
<path d="M390.663 64.3203C394.695 67.8074 398.495 71.5532 402.04 75.5338V118.592C398.495 114.607 394.695 110.857 390.663 107.366V64.3203Z" fill="#42E8E0"/>
<path opacity="0.75" d="M369.122 48.7622C374.124 51.7982 378.962 55.0956 383.616 58.6408V101.638C378.962 98.0929 374.124 94.7955 369.122 91.7595V48.7622Z" fill="#42E8E0"/>
<path opacity="0.75" d="M294.031 40.2671C296.991 40.9143 299.922 41.5939 302.825 42.3059V57.2087C299.93 56.4887 296.999 55.8091 294.031 55.1699V40.2671Z" fill="#42E8E0"/>
<path opacity="0.75" d="M277.815 52.1846C280.896 52.6781 283.948 53.2161 286.972 53.7986V66.0923C283.956 65.5097 280.904 64.9717 277.815 64.4782V52.1846Z" fill="#42E8E0"/>
<path opacity="0.75" d="M261.016 38.9199C264.21 39.2678 267.372 39.6723 270.501 40.1335V51.0558C267.372 50.6351 264.21 50.2305 261.016 49.8422V38.9199Z" fill="#42E8E0"/>
<path opacity="0.75" d="M243.708 26.4077C246.943 26.6019 250.177 26.8365 253.411 27.1116V49.1139C250.185 48.8469 246.934 48.6042 243.708 48.4222V26.4077Z" fill="#42E8E0"/>
<path opacity="0.75" d="M225.939 16.1895H226.994C229.99 16.1895 232.974 16.2865 235.934 16.3836V48.0582C232.974 47.949 229.99 47.8883 226.994 47.8519H225.939V16.1895Z" fill="#42E8E0"/>
<path d="M208.182 26.1653C211.457 26.0197 214.752 25.9226 218.067 25.874V47.8763C214.76 47.9249 211.465 48.0219 208.182 48.1676V26.1653Z" fill="#42E8E0"/>
<path opacity="0.75" d="M190.838 21.6747C194.04 21.3835 197.254 21.1165 200.541 20.9102V48.5435C197.307 48.7539 194.072 49.0087 190.838 49.3081V21.6747Z" fill="#42E8E0"/>
<path d="M173.966 11.7722C177.071 11.3272 180.201 10.9227 183.354 10.5586V50.1458C180.201 50.526 177.071 50.9305 173.966 51.3593V11.7722Z" fill="#42E8E0"/>
<g opacity="0.11">
<path opacity="0.11" d="M215.484 349.731C217.205 348.739 219.156 348.216 221.142 348.216C223.128 348.216 225.08 348.739 226.8 349.731L294.262 388.566C294.504 388.706 294.705 388.906 294.844 389.148C294.984 389.39 295.057 389.664 295.057 389.944C295.057 390.223 294.984 390.497 294.844 390.739C294.705 390.981 294.504 391.182 294.262 391.321L226.242 430.617C224.725 431.499 223.001 431.964 221.245 431.964C219.49 431.964 217.766 431.499 216.248 430.617L148.119 391.357C147.878 391.218 147.677 391.017 147.537 390.775C147.398 390.534 147.324 390.259 147.324 389.98C147.324 389.701 147.398 389.426 147.537 389.185C147.677 388.943 147.878 388.742 148.119 388.603L215.484 349.731Z" fill="url(#paint24_linear_127_12)"/>
</g>
<g opacity="0.11">
<path opacity="0.11" d="M215.484 338.36C217.205 337.367 219.156 336.845 221.142 336.845C223.128 336.845 225.08 337.367 226.8 338.36L294.262 377.195C294.504 377.334 294.705 377.535 294.844 377.777C294.984 378.018 295.057 378.293 295.057 378.572C295.057 378.851 294.984 379.126 294.844 379.367C294.705 379.609 294.504 379.81 294.262 379.949L226.242 419.245C224.725 420.128 223.001 420.593 221.245 420.593C219.49 420.593 217.766 420.128 216.248 419.245L148.119 379.986C147.878 379.846 147.677 379.646 147.537 379.404C147.398 379.162 147.324 378.888 147.324 378.608C147.324 378.329 147.398 378.055 147.537 377.813C147.677 377.571 147.878 377.37 148.119 377.231L215.484 338.36Z" fill="url(#paint25_linear_127_12)"/>
</g>
<g opacity="0.11">
<path opacity="0.11" d="M215.484 326.989C217.205 325.996 219.156 325.474 221.142 325.474C223.128 325.474 225.08 325.996 226.8 326.989L294.262 365.823C294.504 365.963 294.705 366.164 294.844 366.405C294.984 366.647 295.057 366.922 295.057 367.201C295.057 367.48 294.984 367.754 294.844 367.996C294.705 368.238 294.504 368.439 294.262 368.578L226.242 407.874C224.725 408.757 223.001 409.221 221.245 409.221C219.49 409.221 217.766 408.757 216.248 407.874L148.119 368.627C147.878 368.486 147.677 368.284 147.538 368.041C147.399 367.798 147.326 367.523 147.326 367.243C147.326 366.963 147.399 366.688 147.538 366.446C147.677 366.203 147.878 366.001 148.119 365.86L215.484 326.989Z" fill="url(#paint26_linear_127_12)"/>
</g>
<g opacity="0.11">
<path opacity="0.11" d="M215.484 315.617C217.205 314.625 219.156 314.102 221.142 314.102C223.128 314.102 225.08 314.625 226.8 315.617L294.262 354.452C294.504 354.591 294.705 354.792 294.844 355.034C294.984 355.276 295.057 355.55 295.057 355.829C295.057 356.109 294.984 356.383 294.844 356.625C294.705 356.867 294.504 357.067 294.262 357.207L226.242 396.503C224.725 397.385 223.001 397.85 221.245 397.85C219.49 397.85 217.766 397.385 216.248 396.503L148.119 357.255C147.878 357.114 147.677 356.912 147.538 356.669C147.399 356.427 147.326 356.152 147.326 355.872C147.326 355.592 147.399 355.317 147.538 355.074C147.677 354.831 147.878 354.629 148.119 354.488L215.484 315.617Z" fill="url(#paint27_linear_127_12)"/>
</g>
<path opacity="0.11" d="M148.119 354.525L215.484 315.617C217.205 314.625 219.156 314.102 221.142 314.102C223.128 314.102 225.08 314.625 226.8 315.617L294.262 354.452C294.506 354.59 294.71 354.791 294.85 355.035C294.991 355.278 295.064 355.554 295.062 355.835V389.949C295.063 390.228 294.99 390.503 294.849 390.744C294.708 390.985 294.505 391.184 294.262 391.321L226.242 430.616C224.723 431.493 222.999 431.954 221.245 431.954C219.491 431.954 217.768 431.493 216.248 430.616L148.119 391.357C147.879 391.218 147.679 391.018 147.541 390.777C147.403 390.537 147.33 390.263 147.331 389.986V355.908C147.329 355.629 147.401 355.353 147.54 355.111C147.678 354.868 147.878 354.666 148.119 354.525Z" fill="url(#paint28_linear_127_12)"/>
<g opacity="0.11">
<path opacity="0.11" d="M214.271 287.729C216.359 286.525 218.726 285.891 221.136 285.891C223.546 285.891 225.914 286.525 228.001 287.729L309.799 334.865C310.091 335.036 310.333 335.281 310.501 335.575C310.669 335.868 310.758 336.201 310.758 336.54C310.758 336.878 310.669 337.211 310.501 337.505C310.333 337.798 310.091 338.043 309.799 338.214L227.322 385.86C225.478 386.925 223.386 387.486 221.257 387.486C219.128 387.486 217.037 386.925 215.193 385.86L132.582 338.263C132.29 338.092 132.048 337.847 131.88 337.553C131.712 337.259 131.624 336.927 131.624 336.588C131.624 336.25 131.712 335.917 131.88 335.623C132.048 335.329 132.29 335.085 132.582 334.913L214.271 287.729Z" fill="url(#paint29_linear_127_12)"/>
</g>
<g opacity="0.11">
<path opacity="0.11" d="M214.271 273.943C216.36 272.741 218.727 272.108 221.136 272.108C223.546 272.108 225.913 272.741 228.001 273.943L309.799 321.091C310.091 321.262 310.333 321.507 310.501 321.8C310.669 322.094 310.758 322.427 310.758 322.765C310.758 323.104 310.669 323.437 310.501 323.73C310.333 324.024 310.091 324.269 309.799 324.44L227.322 372.085C225.478 373.151 223.386 373.711 221.257 373.711C219.128 373.711 217.037 373.151 215.193 372.085L132.582 324.489C132.29 324.317 132.048 324.073 131.88 323.779C131.712 323.485 131.624 323.152 131.624 322.814C131.624 322.475 131.712 322.143 131.88 321.849C132.048 321.555 132.29 321.31 132.582 321.139L214.271 273.943Z" fill="url(#paint30_linear_127_12)"/>
</g>
<g opacity="0.11">
<path opacity="0.11" d="M214.271 260.157C216.36 258.954 218.727 258.322 221.136 258.322C223.545 258.322 225.913 258.954 228.001 260.157L309.799 307.304C310.091 307.476 310.333 307.72 310.501 308.014C310.669 308.308 310.758 308.641 310.758 308.979C310.758 309.318 310.669 309.65 310.501 309.944C310.333 310.238 310.091 310.483 309.799 310.654L227.322 358.299C225.478 359.364 223.386 359.925 221.257 359.925C219.128 359.925 217.037 359.364 215.193 358.299L132.594 310.678C132.302 310.507 132.06 310.262 131.892 309.968C131.724 309.675 131.636 309.342 131.636 309.003C131.636 308.665 131.724 308.332 131.892 308.039C132.06 307.745 132.302 307.5 132.594 307.329L214.271 260.157Z" fill="url(#paint31_linear_127_12)"/>
</g>
<g opacity="0.11">
<path opacity="0.11" d="M214.271 246.358C216.362 245.149 218.734 244.512 221.148 244.512C223.563 244.512 225.935 245.149 228.025 246.358L309.823 293.506C310.115 293.677 310.357 293.922 310.525 294.215C310.693 294.509 310.782 294.842 310.782 295.18C310.782 295.519 310.693 295.852 310.525 296.145C310.357 296.439 310.115 296.684 309.823 296.855L227.346 344.501C225.502 345.566 223.411 346.126 221.282 346.126C219.153 346.126 217.061 345.566 215.217 344.501L132.606 296.904C132.315 296.732 132.073 296.488 131.905 296.194C131.736 295.9 131.648 295.568 131.648 295.229C131.648 294.89 131.736 294.558 131.905 294.264C132.073 293.97 132.315 293.726 132.606 293.554L214.271 246.358Z" fill="url(#paint32_linear_127_12)"/>
</g>
<path opacity="0.5" d="M132.594 293.554L214.271 246.358C216.362 245.149 218.734 244.512 221.148 244.512C223.563 244.512 225.935 245.149 228.025 246.358L309.823 293.506C310.118 293.674 310.362 293.918 310.53 294.213C310.699 294.507 310.785 294.841 310.782 295.18V336.539C310.787 336.879 310.7 337.213 310.532 337.508C310.363 337.803 310.119 338.047 309.823 338.214L227.346 385.86C225.502 386.925 223.411 387.485 221.282 387.485C219.153 387.485 217.061 386.925 215.217 385.86L132.606 338.263C132.311 338.095 132.065 337.851 131.895 337.557C131.724 337.263 131.635 336.928 131.636 336.588V295.229C131.632 294.89 131.719 294.556 131.888 294.261C132.056 293.967 132.3 293.723 132.594 293.554Z" fill="url(#paint33_linear_127_12)"/>
<g opacity="0.11">
<path opacity="0.11" d="M214.271 246.358C216.362 245.149 218.734 244.512 221.148 244.512C223.563 244.512 225.935 245.149 228.025 246.358L309.823 293.506C310.115 293.677 310.357 293.922 310.525 294.215C310.693 294.509 310.782 294.842 310.782 295.18C310.782 295.519 310.693 295.852 310.525 296.145C310.357 296.439 310.115 296.684 309.823 296.855L227.346 344.501C225.502 345.566 223.411 346.126 221.282 346.126C219.153 346.126 217.061 345.566 215.217 344.501L132.606 296.904C132.315 296.732 132.073 296.488 131.905 296.194C131.736 295.9 131.648 295.568 131.648 295.229C131.648 294.89 131.736 294.558 131.905 294.264C132.073 293.97 132.315 293.726 132.606 293.554L214.271 246.358Z" fill="url(#paint34_linear_127_12)"/>
</g>
<path d="M132.594 294.998L215.205 342.595C217.049 343.66 219.14 344.221 221.27 344.221C223.399 344.221 225.49 343.66 227.334 342.595L309.811 294.95C310.113 294.778 310.361 294.526 310.527 294.222C310.778 294.667 310.843 295.192 310.709 295.685C310.576 296.178 310.253 296.599 309.811 296.855L227.334 344.501C225.49 345.566 223.399 346.126 221.27 346.126C219.14 346.126 217.049 345.566 215.205 344.501L132.594 296.904C132.153 296.647 131.83 296.227 131.696 295.734C131.562 295.241 131.628 294.715 131.879 294.27C132.049 294.572 132.295 294.823 132.594 294.998Z" fill="url(#paint35_linear_127_12)"/>
<path opacity="0.2" d="M221.197 321.346C246.069 321.346 266.232 309.696 266.232 295.326C266.232 280.956 246.069 269.307 221.197 269.307C196.325 269.307 176.162 280.956 176.162 295.326C176.162 309.696 196.325 321.346 221.197 321.346Z" fill="#180D5B"/>
<path d="M238.335 273.263C238.335 273.263 239.427 274.404 240.567 275.751C242.297 277.315 244.202 278.675 246.243 279.804C247.577 280.642 253.727 285.302 255.012 289.889C256.298 294.477 251.907 295.096 247.407 294.295C242.908 293.494 238.723 289.343 237.498 287.851C234.274 284.694 230.563 282.076 226.509 280.096C220.991 277.244 224.326 273.397 224.326 273.397L238.335 273.263Z" fill="#160A5B"/>
<path d="M197.4 286.904C196.771 288.411 196.362 290.001 196.187 291.625C195.92 294.282 195.556 300.035 195.411 301.722C195.125 305.188 196.113 308.64 198.188 311.43C201.148 315.374 202.676 316.928 206.618 315.374C210.56 313.821 210.463 307.219 209.759 303.821C209.116 299.913 208.711 295.97 208.546 292.013C208.597 291.564 208.521 291.11 208.328 290.702L197.4 286.904Z" fill="#160A5B"/>
<path d="M251.92 195.278C251.92 195.278 251.095 225.618 244.024 241.686C240.729 251.721 238.803 262.154 238.299 272.705C238.62 273.562 238.744 274.482 238.66 275.394C238.576 276.306 238.286 277.187 237.814 277.972C236.164 280.326 225.794 282.486 224.083 274.744C222.373 267.001 223.028 252.487 224.908 246.431C226.788 240.375 224.241 223.712 224.241 223.712C224.241 223.712 221.403 225.533 217.691 237.499C213.98 249.465 211.251 254.052 209.965 257.353C208.68 260.654 207.539 280.969 208.328 290.872C208.328 290.872 199.935 292.086 197.509 288.057C195.083 284.028 194.27 263.263 194.877 256.649C195.483 250.035 198.261 228.809 197.885 222.244C197.509 215.678 196.138 210.351 197.642 203.797C199.146 197.244 243.429 182.669 243.429 182.669L251.92 195.278Z" fill="#24126A"/>
<path d="M197.885 222.244C197.509 215.679 196.138 210.351 197.642 203.798C198.2 201.37 204.81 197.73 212.84 194.21C226.4 192.997 243.587 191.528 244.776 191.71C246.891 192.28 248.962 193.002 250.974 193.87L251.92 195.278C251.92 195.278 251.92 197.123 251.689 200.133C248.523 201.079 242.447 200.133 242.447 200.133C241.586 202.268 236.31 209.841 229.736 213.081C223.162 216.322 203.937 215.229 202.833 216.467C201.73 217.705 201.524 234.307 201.621 236.419C201.718 238.53 199.801 251.807 197.982 263.554C196.223 275.108 198.904 289.161 198.989 289.61C198.365 289.231 197.837 288.711 197.448 288.093C195.022 284.076 194.21 263.3 194.816 256.686C195.423 250.072 198.261 228.81 197.885 222.244Z" fill="#160A5B"/>
<path d="M237.098 96.1282C237.098 96.1282 246.922 98.3733 250.221 99.15C250.494 99.2067 250.747 99.3308 250.959 99.511C251.171 99.6912 251.335 99.9218 251.434 100.182C252.393 102.609 254.782 110.109 252.975 121.079C251.658 128.519 251.153 136.079 251.471 143.628L256.007 167.305C256.007 167.305 261.72 189.841 261.235 190.46C260.749 191.079 248.075 200.727 244.121 199.368C240.167 198.009 241.464 195.727 241.464 195.727C241.464 195.727 238.25 212.062 224.059 211.916C209.868 211.771 198.273 211.795 195.859 206.055C193.446 200.314 196.526 176.188 199.025 166.637C201.523 157.087 207.515 138.033 207.515 138.033L186.726 114.975L204.495 101.395C204.495 101.395 208.74 93.5068 210.475 92.4996C212.209 91.4923 213.131 92.3539 213.131 92.3539L237.098 96.1282Z" fill="#453C9E"/>
<path d="M243.866 194.174C243.866 194.999 244.327 196.213 246.874 197.086C249.627 198.033 256.383 193.931 260.81 190.836C258.603 192.681 247.723 200.618 244.108 199.332C243.474 199.126 242.873 198.828 242.325 198.446C242.944 197.062 243.459 195.634 243.866 194.174Z" fill="url(#paint36_linear_127_12)"/>
<path d="M195.956 204.186C198.503 210.254 210.729 210.193 225.709 210.351C229.016 210.442 232.271 209.505 235.024 207.669C233.572 209.08 231.854 210.186 229.968 210.921C228.083 211.657 226.07 212.008 224.047 211.953C209.856 211.795 198.261 211.831 195.847 206.091C195.059 204.21 194.865 200.339 195.034 195.654C194.998 199.465 195.277 202.535 195.956 204.186Z" fill="url(#paint37_linear_127_12)"/>
<path d="M210.814 92.3785C210.814 92.3785 207.176 96.7717 212.403 102.706C217.436 108.881 221.94 115.47 225.866 122.403C228.802 127.512 231.531 130.23 233.071 134.623C233.071 134.623 233.289 129.405 233.496 121.359C233.69 113.762 233.787 105.874 233.496 103.883C232.756 99.7935 214.829 90.3883 210.814 92.3785Z" fill="#F0F6FF"/>
<path d="M224.387 105.582C224.387 105.582 226.242 106.796 226.885 106.65C227.881 106.082 228.792 105.375 229.59 104.551C229.59 104.551 234.745 104.454 235.303 102.245C235.674 100.356 236.16 98.4918 236.758 96.6625C237.28 95.5217 239.499 90.012 239.524 87.7669C239.548 85.5218 239.451 81.5412 240.421 79.4296C241.392 77.3179 242.677 56.153 222.228 56.7476C201.778 57.3423 208.158 78.5922 208.158 78.5922C208.158 78.5922 206.666 79.2232 207.564 81.9538C208.461 84.6844 208.667 84.9635 209.128 86.3227C209.41 87.6189 210.109 88.7869 211.118 89.648L211.457 92.1601C210.953 94.7959 211.516 97.5242 213.022 99.745C215.593 103.459 224.387 105.582 224.387 105.582Z" fill="#FCD1C5"/>
<path d="M250.791 99.3926C250.791 99.3926 252.963 99.7202 260.034 117.499C263.976 127.414 270.052 137.693 271.338 145.072C272.624 152.451 271.908 160.327 270.453 160.849C268.997 161.37 243.672 170.885 235.727 173.895C235.624 173.932 235.514 173.945 235.404 173.935C235.295 173.925 235.189 173.891 235.094 173.835C234.999 173.78 234.918 173.704 234.855 173.614C234.793 173.523 234.751 173.42 234.733 173.312L232.537 161.055L248.305 154.987C249.94 152.984 251.91 151.28 254.127 149.951C254.127 149.951 250.961 144.125 251.167 142.536C251.374 140.946 250.889 124.502 252.732 117.803C254.576 111.104 250.791 99.3926 250.791 99.3926Z" fill="#24126A"/>
<path d="M241.561 146.383C241.561 146.383 243.732 144.926 244.266 144.72C244.8 144.514 247.711 143.506 248.257 143.264C249.235 143.132 250.226 143.132 251.204 143.264C251.355 143.277 251.5 143.327 251.627 143.409C251.754 143.492 251.858 143.604 251.932 143.737C252.599 144.951 254.467 148.591 254.248 149.987C254.248 149.987 249.009 153.3 248.426 154.841L247.589 155.023C247.589 155.023 244.072 147.475 241.561 146.383Z" fill="#FCD1C5"/>
<path d="M199.013 166.674C199.619 164.368 200.42 161.516 201.281 158.519L233.18 172.196C229.876 175.852 225.809 178.738 221.267 180.648C216.725 182.559 211.82 183.447 206.897 183.251C203.224 183.045 199.662 181.918 196.538 179.975C197.128 175.501 197.954 171.061 199.013 166.674Z" fill="#24126A"/>
<path d="M186.678 115.048C186.678 115.048 195.083 116.261 201.887 126.99C206.415 134.414 210.342 142.19 213.628 150.242L213.871 151.637C214.013 152.493 214.349 153.305 214.853 154.011C215.357 154.717 216.017 155.298 216.78 155.709C217.544 156.121 218.391 156.351 219.258 156.384C220.124 156.416 220.987 156.25 221.779 155.897C228.947 152.681 239.584 147.839 241.561 146.383C243.635 147.708 245.42 149.437 246.81 151.468C248.2 153.499 249.166 155.79 249.651 158.203C251.034 164.829 250.682 164.841 250.682 164.841C250.682 164.841 222.361 178.069 211.421 177.948C200.48 177.827 186.605 141.832 185.077 134.392C183.548 126.953 181.862 117.147 186.678 115.048Z" fill="#24126A"/>
<path d="M186.678 115.048C186.678 115.048 195.083 116.261 201.887 126.99C206.415 134.414 210.342 142.19 213.628 150.242L213.871 151.637C214.013 152.493 214.349 153.305 214.853 154.011C215.357 154.717 216.017 155.298 216.78 155.709C217.544 156.121 218.391 156.351 219.258 156.384C220.124 156.416 220.987 156.25 221.779 155.897C228.947 152.681 239.584 147.839 241.561 146.383C243.635 147.708 245.42 149.437 246.81 151.468C248.2 153.499 249.166 155.79 249.651 158.203C251.034 164.829 250.682 164.841 250.682 164.841C250.682 164.841 222.361 178.069 211.421 177.948C200.48 177.827 186.605 141.832 185.077 134.392C183.548 126.953 181.862 117.147 186.678 115.048Z" fill="#4846A5"/>
<path d="M217.704 157.572C217.704 157.572 214.138 160.909 212.585 159.077C211.033 157.244 211.481 157.05 211.481 157.05C211.481 157.05 208.267 157.05 207.843 154.999C207.418 152.948 205.866 154.053 205.769 151.807C205.672 149.562 208.376 150.023 208.376 150.023L217.704 157.572Z" fill="#453C9E"/>
<path d="M222.022 155.776C222.022 155.776 221.039 154.866 219.778 153.786C218.516 152.706 216.454 148.276 216.139 147.888C215.824 147.499 211.518 144.247 209.456 144.162C207.394 144.077 208.922 146.407 209.456 146.735C209.99 147.062 211.882 148.058 211.882 148.058C211.882 148.058 213.956 149.805 214.186 150.06C214.417 150.315 208.437 149.647 207.491 150.23C207.296 150.375 207.136 150.563 207.024 150.779C206.912 150.995 206.851 151.234 206.845 151.477C206.839 151.721 206.889 151.962 206.99 152.183C207.092 152.404 207.242 152.6 207.43 152.754C207.788 153.003 208.208 153.146 208.643 153.167C208.46 153.667 208.475 154.218 208.684 154.708C208.894 155.197 209.283 155.588 209.771 155.8C211.566 156.638 211.979 156.176 211.979 156.176C211.979 156.176 212.136 159.283 215.108 158.676L222.022 155.776Z" fill="#FCD1C5"/>
<path d="M240.882 68.6283C240.882 68.6283 243.538 77.1234 236.528 74.6962C229.517 72.269 223.186 68.2399 220.966 69.8419C219.28 71.0555 219.365 74.5991 219.499 76.2496C219.536 76.8118 219.387 77.3706 219.074 77.8394L216.988 80.8612C216.749 81.2227 216.61 81.6418 216.588 82.0748L216.442 84.1743C216.425 84.4314 216.314 84.6732 216.131 84.8542C215.948 85.0353 215.705 85.1431 215.448 85.1573H214.975C214.715 85.1731 214.459 85.0926 214.256 84.9314C214.052 84.7702 213.915 84.5395 213.871 84.2835L213.325 81.201C213.325 81.201 211.675 77.0384 208.194 78.6768C208.194 78.6768 205.854 75.5336 206.63 68.8225C207.406 62.1113 210.414 55.1332 223.61 54.0167C236.807 52.9002 240.882 68.6283 240.882 68.6283Z" fill="#AA8383"/>
<path d="M220.748 113.07L222.713 111.541C223.746 112.412 224.606 113.47 225.248 114.66C225.951 116.262 225.248 121.371 225.248 121.371L225.854 122.402L226.594 121.055L227.213 114.987C227.213 114.987 226.546 110.521 226.485 110.412C225.21 110.478 223.939 110.607 222.676 110.8C221.895 111.427 221.24 112.197 220.748 113.07Z" fill="#C4CCD6"/>
<path d="M230.233 107.062C231.312 107.124 232.36 107.444 233.289 107.997C233.289 107.997 231.082 108.106 230.73 108.143C230.378 108.179 230.233 107.062 230.233 107.062Z" fill="#C4CCD6"/>
<path d="M226.23 107.536L222.689 110.837C224.485 111.696 225.899 113.193 226.655 115.036C226.655 115.036 230.5 115.764 230.851 114.369C231.203 112.973 230.851 109.514 231.3 107.912C231.749 106.311 226.23 107.536 226.23 107.536Z" fill="#24126A"/>
<path d="M230.706 114.283C231.011 115.694 231.475 117.067 232.089 118.373C232.804 119.587 233.532 120.909 233.532 120.909L233.447 137.9C233.447 137.9 227.213 125.048 225.866 122.451C225.866 122.451 226.073 116.261 226.655 115.084C227.237 113.907 230.706 114.283 230.706 114.283Z" fill="#24126A"/>
<path d="M213.98 89.2349C218.067 101.055 229.59 104.562 229.59 104.562C228.792 105.387 227.882 106.094 226.885 106.662C226.242 106.795 224.387 105.582 224.387 105.582C224.387 105.582 215.593 103.446 213.058 99.7202C211.552 97.4995 210.989 94.7712 211.494 92.1353L211.154 89.6232C211.617 89.8176 212.123 89.8841 212.62 89.8158C213.117 89.7475 213.587 89.5469 213.98 89.2349Z" fill="#E2B1A6"/>
<path d="M204.616 103.07C204.616 103.07 206.23 108.652 206.436 108.859C207.794 108.887 209.153 108.806 210.499 108.616L208.619 112.172C208.619 112.172 228.025 132.973 232.016 144.162C224.472 133.089 216.004 122.675 206.703 113.033L208.983 109.575L205.017 110.351L204.616 103.07Z" fill="#24126A"/>
<path d="M236.516 98.1431L237.547 99.3567L236.334 100.485L239.972 103.726C239.972 103.726 241.064 126.48 236.685 141.553C236.685 141.553 242.629 127.73 241.282 103.107L237.401 100.473L238.675 99.2596L236.516 98.1431Z" fill="#24126A"/>
<path d="M224.241 223.712L224.108 223.822L229.129 218.47C226.812 221.746 229.481 236.674 229.76 240.156C230.039 243.639 227.079 250.666 225.963 258.955C224.848 267.244 227.176 279.076 227.176 279.113C226.382 278.648 225.698 278.017 225.17 277.263C224.643 276.509 224.284 275.649 224.12 274.744C222.41 266.989 223.065 252.487 224.945 246.431C226.825 240.375 224.241 223.712 224.241 223.712Z" fill="#160A5B"/>
<path d="M211.421 177.948C200.505 177.815 186.605 141.832 185.077 134.393C184.822 133.179 184.567 131.844 184.325 130.509C184.325 130.619 187.199 138.398 189.94 145.279C192.681 152.16 207.309 173.191 214.781 174.611C221.512 175.825 245.746 164.526 250.44 162.293C250.864 164.829 250.682 164.842 250.682 164.842C250.682 164.842 222.361 178.07 211.421 177.948Z" fill="url(#paint38_linear_127_12)"/>
<path d="M214.975 85.0602C214.715 85.0759 214.46 84.9955 214.256 84.8343C214.052 84.6731 213.915 84.4424 213.871 84.1864L213.325 81.1039C213.325 81.1039 211.675 76.9413 208.194 78.5796C208.194 78.5796 205.987 75.5942 206.581 69.2593C210.463 75.0845 219.074 77.7544 219.074 77.7544L216.988 80.7762C216.749 81.1377 216.61 81.5567 216.588 81.9898L216.442 84.0893C216.425 84.3463 216.314 84.5882 216.131 84.7692C215.948 84.9503 215.705 85.0581 215.448 85.0723L214.975 85.0602Z" fill="#936D6D"/>
<path opacity="0.5" d="M86.8801 257.123V245.569C89.2008 246.807 91.57 248.021 93.9877 249.21V260.763C91.5619 259.55 89.1967 258.336 86.8801 257.123ZM64.1382 242.717V221.383C66.0546 222.827 68.0316 224.259 70.0693 225.642V246.953C68.0316 245.553 66.0546 244.129 64.1382 242.681V242.717ZM74.9815 250.217V225.096C77.1001 226.447 79.2792 227.766 81.5191 229.052V254.174C79.2873 252.887 77.1081 251.568 74.9815 250.217ZM45.8719 226.225V198.312C47.3395 199.939 48.892 201.54 50.4931 203.167V231.079C48.892 229.501 47.3395 227.9 45.8719 226.225ZM54.3622 234.72V204.465C56.0764 206.019 57.8432 207.536 59.6626 209.016V239.222C57.8432 237.726 56.0764 236.209 54.3622 234.671V234.72ZM32.6149 208.021V175.254C33.5933 177.026 34.6485 178.778 35.7806 180.509V213.276C34.6566 211.536 33.6014 209.785 32.6149 208.021ZM38.5581 217.329V174.732C39.7953 176.431 41.1012 178.114 42.4758 179.781V222.378C41.1012 220.711 39.7953 219.028 38.5581 217.329ZM28.0786 198.349V150.182C28.7942 152.026 29.5826 153.822 30.4438 155.643V203.749C29.5786 201.953 28.7902 200.133 28.0786 198.288V198.349ZM108.53 209.028C62.8283 190.533 31.2322 161.407 24.6097 128.021V196.443C31.2322 229.817 62.8282 258.943 108.579 277.39V208.968L108.53 209.028Z" fill="#42E8E0"/>
<path opacity="0.5" d="M242.714 284.962V269.538C250.581 269.101 258.312 268.413 265.904 267.475V282.911C258.328 283.842 250.598 284.525 242.714 284.962ZM205.72 285.035V256.916C210.434 257.143 215.197 257.285 220.008 257.341C223.291 257.341 226.558 257.341 229.808 257.341V285.436C226.574 285.5 223.307 285.5 220.008 285.436C215.205 285.387 210.442 285.241 205.72 284.999V285.035ZM170.073 281.394V238.349C177.52 239.562 185.161 240.472 192.948 241.152V284.149C185.161 283.47 177.52 282.535 170.073 281.346V281.394ZM278.094 281.212V235.751C285.493 234.554 292.713 233.118 299.756 231.443V276.856C292.722 278.522 285.501 279.958 278.094 281.164V281.212ZM317.998 216.237C288.889 225.218 255.425 230.157 220.008 229.805C196.48 229.635 173.037 226.966 150.072 221.844V290.266C173.038 295.378 196.481 298.043 220.008 298.215C255.425 298.579 288.852 293.627 317.998 284.659V216.188V216.237Z" fill="#42E8E0"/>
<path opacity="0.5" d="M367.121 235.763V222.511C399.032 203.664 419.797 178.518 423.193 150.557V163.834C419.797 191.747 399.032 216.928 367.121 235.788V235.763ZM423.654 185.302V116.893C422.635 150.351 396.788 180.23 356.362 200.824V269.234C396.788 248.603 422.635 218.773 423.654 185.302Z" fill="#42E8E0"/>
<path opacity="0.75" d="M423.193 150.558C419.797 178.47 399.032 203.664 367.121 222.511V235.763C399.044 216.904 419.797 191.747 423.193 163.834V150.558Z" fill="#42E8E0"/>
<path d="M192.948 241.152C185.161 240.472 177.52 239.525 170.073 238.348V281.345C177.52 282.559 185.161 283.469 192.948 284.149V241.152Z" fill="#42E8E0"/>
<path d="M265.904 267.475C258.328 268.405 250.597 269.093 242.714 269.538V284.962C250.581 284.542 258.312 283.858 265.904 282.911V267.475Z" fill="#42E8E0"/>
<path d="M299.756 231.443C292.722 233.11 285.501 234.546 278.094 235.751V281.163C285.493 279.958 292.713 278.522 299.756 276.855V231.443Z" fill="#42E8E0"/>
<path opacity="0.75" d="M229.808 257.28C226.574 257.337 223.307 257.337 220.008 257.28C215.205 257.232 210.442 257.09 205.72 256.855V284.974C210.434 285.217 215.197 285.363 220.008 285.411C223.291 285.411 226.558 285.411 229.808 285.411V257.28Z" fill="#42E8E0"/>
<path d="M30.4923 155.642C29.6311 153.834 28.8427 152.002 28.1271 150.181V198.288C28.8468 200.132 29.6352 201.953 30.4923 203.749V155.642Z" fill="#42E8E0"/>
<path d="M35.8291 180.473C34.7051 178.733 33.6499 176.982 32.6634 175.218V207.985C33.6418 209.756 34.697 211.508 35.8291 213.239V180.473Z" fill="#42E8E0"/>
<path opacity="0.75" d="M42.5243 179.72C41.1497 178.053 39.8438 176.37 38.6066 174.671V217.232C39.8438 218.931 41.1497 220.614 42.5243 222.28V179.683V179.72Z" fill="#42E8E0"/>
<path d="M50.5052 203.118C48.9041 201.54 47.3516 199.938 45.884 198.264V226.176C47.3516 227.802 48.9041 229.404 50.5052 231.03V203.118Z" fill="#42E8E0"/>
<path opacity="0.75" d="M59.7111 209.016C57.8917 207.535 56.1249 206.018 54.4107 204.465V234.671C56.1249 236.208 57.8917 237.725 59.7111 239.222V209.016Z" fill="#42E8E0"/>
<path opacity="0.75" d="M70.0693 225.642C68.0316 224.259 66.0546 222.826 64.1382 221.382V242.717C66.0546 244.173 68.0316 245.597 70.0693 246.989V225.642Z" fill="#42E8E0"/>
<path opacity="0.75" d="M81.519 229.016C79.2873 227.729 77.1081 226.411 74.9815 225.06V250.181C77.1 251.524 79.2792 252.843 81.519 254.137V229.016Z" fill="#42E8E0"/>
<path opacity="0.75" d="M93.9877 249.198C91.5619 248.017 89.1927 246.803 86.8801 245.557V257.11C89.1967 258.324 91.5619 259.538 93.9877 260.751V249.198Z" fill="#42E8E0"/>
</g>
<defs>
<linearGradient id="paint0_linear_127_12" x1="118.561" y1="264.901" x2="174.949" y2="264.901" gradientUnits="userSpaceOnUse">
<stop stop-color="#5761D7"/>
<stop offset="0.07" stop-color="#5472D8"/>
<stop offset="0.28" stop-color="#4E9CDB"/>
<stop offset="0.48" stop-color="#49BDDD"/>
<stop offset="0.67" stop-color="#45D5DF"/>
<stop offset="0.85" stop-color="#43E3E0"/>
<stop offset="1" stop-color="#42E8E0"/>
</linearGradient>
<linearGradient id="paint1_linear_127_12" x1="268.694" y1="264.817" x2="324.754" y2="264.817" gradientUnits="userSpaceOnUse">
<stop stop-color="#42E8E0"/>
<stop offset="0.15" stop-color="#43E3E0"/>
<stop offset="0.33" stop-color="#45D5DF"/>
<stop offset="0.52" stop-color="#49BDDD"/>
<stop offset="0.72" stop-color="#4E9CDB"/>
<stop offset="0.93" stop-color="#5472D8"/>
<stop offset="1" stop-color="#5761D7"/>
</linearGradient>
<linearGradient id="paint2_linear_127_12" x1="20269.1" y1="18061.4" x2="57058.7" y2="18061.4" gradientUnits="userSpaceOnUse">
<stop stop-color="#5761D7"/>
<stop offset="0.07" stop-color="#5472D8"/>
<stop offset="0.28" stop-color="#4E9CDB"/>
<stop offset="0.48" stop-color="#49BDDD"/>
<stop offset="0.67" stop-color="#45D5DF"/>
<stop offset="0.85" stop-color="#43E3E0"/>
<stop offset="1" stop-color="#42E8E0"/>
</linearGradient>
<linearGradient id="paint3_linear_127_12" x1="83.2413" y1="216.941" x2="320.339" y2="216.941" gradientUnits="userSpaceOnUse">
<stop stop-color="#5761D7"/>
<stop offset="0.16" stop-color="#5E67DA"/>
<stop offset="0.41" stop-color="#727AE2"/>
<stop offset="0.69" stop-color="#9297EE"/>
<stop offset="1" stop-color="#BCBEFF"/>
</linearGradient>
<linearGradient id="paint4_linear_127_12" x1="17789.6" y1="12667.4" x2="34486.8" y2="12667.4" gradientUnits="userSpaceOnUse">
<stop stop-color="#42E8E0"/>
<stop offset="0.15" stop-color="#43E3E0"/>
<stop offset="0.33" stop-color="#45D5DF"/>
<stop offset="0.52" stop-color="#49BDDD"/>
<stop offset="0.72" stop-color="#4E9CDB"/>
<stop offset="0.93" stop-color="#5472D8"/>
<stop offset="1" stop-color="#5761D7"/>
</linearGradient>
<linearGradient id="paint5_linear_127_12" x1="13214.7" y1="6882.94" x2="17388.3" y2="6882.94" gradientUnits="userSpaceOnUse">
<stop stop-color="#42E8E0"/>
<stop offset="0.15" stop-color="#43E3E0"/>
<stop offset="0.33" stop-color="#45D5DF"/>
<stop offset="0.52" stop-color="#49BDDD"/>
<stop offset="0.72" stop-color="#4E9CDB"/>
<stop offset="0.93" stop-color="#5472D8"/>
<stop offset="1" stop-color="#5761D7"/>
</linearGradient>
<linearGradient id="paint6_linear_127_12" x1="8970.73" y1="6882.94" x2="13145.7" y2="6882.94" gradientUnits="userSpaceOnUse">
<stop stop-color="#42E8E0"/>
<stop offset="0.15" stop-color="#43E3E0"/>
<stop offset="0.33" stop-color="#45D5DF"/>
<stop offset="0.52" stop-color="#49BDDD"/>
<stop offset="0.72" stop-color="#4E9CDB"/>
<stop offset="0.93" stop-color="#5472D8"/>
<stop offset="1" stop-color="#5761D7"/>
</linearGradient>
<linearGradient id="paint7_linear_127_12" x1="17789.6" y1="11955" x2="34486.8" y2="11955" gradientUnits="userSpaceOnUse">
<stop stop-color="#42E8E0"/>
<stop offset="0.15" stop-color="#43E3E0"/>
<stop offset="0.33" stop-color="#45D5DF"/>
<stop offset="0.52" stop-color="#49BDDD"/>
<stop offset="0.72" stop-color="#4E9CDB"/>
<stop offset="0.93" stop-color="#5472D8"/>
<stop offset="1" stop-color="#5761D7"/>
</linearGradient>
<linearGradient id="paint8_linear_127_12" x1="13214.7" y1="8667.27" x2="17388.3" y2="8667.27" gradientUnits="userSpaceOnUse">
<stop stop-color="#42E8E0"/>
<stop offset="0.15" stop-color="#43E3E0"/>
<stop offset="0.33" stop-color="#45D5DF"/>
<stop offset="0.52" stop-color="#49BDDD"/>
<stop offset="0.72" stop-color="#4E9CDB"/>
<stop offset="0.93" stop-color="#5472D8"/>
<stop offset="1" stop-color="#5761D7"/>
</linearGradient>
<linearGradient id="paint9_linear_127_12" x1="8970.73" y1="8667.27" x2="13145.7" y2="8667.27" gradientUnits="userSpaceOnUse">
<stop stop-color="#42E8E0"/>
<stop offset="0.15" stop-color="#43E3E0"/>
<stop offset="0.33" stop-color="#45D5DF"/>
<stop offset="0.52" stop-color="#49BDDD"/>
<stop offset="0.72" stop-color="#4E9CDB"/>
<stop offset="0.93" stop-color="#5472D8"/>
<stop offset="1" stop-color="#5761D7"/>
</linearGradient>
<linearGradient id="paint10_linear_127_12" x1="0.00506592" y1="22572.2" x2="20356.6" y2="22572.2" gradientUnits="userSpaceOnUse">
<stop stop-color="#5761D7"/>
<stop offset="0.07" stop-color="#5472D8"/>
<stop offset="0.28" stop-color="#4E9CDB"/>
<stop offset="0.48" stop-color="#49BDDD"/>
<stop offset="0.67" stop-color="#45D5DF"/>
<stop offset="0.85" stop-color="#43E3E0"/>
<stop offset="1" stop-color="#42E8E0"/>
</linearGradient>
<linearGradient id="paint11_linear_127_12" x1="0.00506592" y1="21660.3" x2="20356.6" y2="21660.3" gradientUnits="userSpaceOnUse">
<stop stop-color="#5761D7"/>
<stop offset="0.07" stop-color="#5472D8"/>
<stop offset="0.28" stop-color="#4E9CDB"/>
<stop offset="0.48" stop-color="#49BDDD"/>
<stop offset="0.67" stop-color="#45D5DF"/>
<stop offset="0.85" stop-color="#43E3E0"/>
<stop offset="1" stop-color="#42E8E0"/>
</linearGradient>
<linearGradient id="paint12_linear_127_12" x1="0.00506592" y1="20758" x2="20356.6" y2="20758" gradientUnits="userSpaceOnUse">
<stop stop-color="#5761D7"/>
<stop offset="0.07" stop-color="#5472D8"/>
<stop offset="0.28" stop-color="#4E9CDB"/>
<stop offset="0.48" stop-color="#49BDDD"/>
<stop offset="0.67" stop-color="#45D5DF"/>
<stop offset="0.85" stop-color="#43E3E0"/>
<stop offset="1" stop-color="#42E8E0"/>
</linearGradient>
<linearGradient id="paint13_linear_127_12" x1="0.00506592" y1="19867.8" x2="20356.6" y2="19867.8" gradientUnits="userSpaceOnUse">
<stop stop-color="#5761D7"/>
<stop offset="0.07" stop-color="#5472D8"/>
<stop offset="0.28" stop-color="#4E9CDB"/>
<stop offset="0.48" stop-color="#49BDDD"/>
<stop offset="0.67" stop-color="#45D5DF"/>
<stop offset="0.85" stop-color="#43E3E0"/>
<stop offset="1" stop-color="#42E8E0"/>
</linearGradient>
<linearGradient id="paint14_linear_127_12" x1="-6.10352e-05" y1="26370.3" x2="20356.6" y2="26370.3" gradientUnits="userSpaceOnUse">
<stop stop-color="#5761D7"/>
<stop offset="0.07" stop-color="#5472D8"/>
<stop offset="0.28" stop-color="#4E9CDB"/>
<stop offset="0.48" stop-color="#49BDDD"/>
<stop offset="0.67" stop-color="#45D5DF"/>
<stop offset="0.85" stop-color="#43E3E0"/>
<stop offset="1" stop-color="#42E8E0"/>
</linearGradient>
<linearGradient id="paint15_linear_127_12" x1="0.00506592" y1="19867.8" x2="20356.6" y2="19867.8" gradientUnits="userSpaceOnUse">
<stop stop-color="#5761D7"/>
<stop offset="0.07" stop-color="#5472D8"/>
<stop offset="0.28" stop-color="#4E9CDB"/>
<stop offset="0.48" stop-color="#49BDDD"/>
<stop offset="0.67" stop-color="#45D5DF"/>
<stop offset="0.85" stop-color="#43E3E0"/>
<stop offset="1" stop-color="#42E8E0"/>
</linearGradient>
<linearGradient id="paint16_linear_127_12" x1="0.000366211" y1="11116.5" x2="20356.9" y2="11116.5" gradientUnits="userSpaceOnUse">
<stop stop-color="#5761D7"/>
<stop offset="0.07" stop-color="#5472D8"/>
<stop offset="0.28" stop-color="#4E9CDB"/>
<stop offset="0.48" stop-color="#49BDDD"/>
<stop offset="0.67" stop-color="#45D5DF"/>
<stop offset="0.85" stop-color="#43E3E0"/>
<stop offset="1" stop-color="#42E8E0"/>
</linearGradient>
<linearGradient id="paint17_linear_127_12" x1="37310.5" y1="22563.7" x2="57663.9" y2="22563.7" gradientUnits="userSpaceOnUse">
<stop stop-color="#5761D7"/>
<stop offset="0.07" stop-color="#5472D8"/>
<stop offset="0.28" stop-color="#4E9CDB"/>
<stop offset="0.48" stop-color="#49BDDD"/>
<stop offset="0.67" stop-color="#45D5DF"/>
<stop offset="0.85" stop-color="#43E3E0"/>
<stop offset="1" stop-color="#42E8E0"/>
</linearGradient>
<linearGradient id="paint18_linear_127_12" x1="37310.5" y1="21663.8" x2="57663.9" y2="21663.8" gradientUnits="userSpaceOnUse">
<stop stop-color="#5761D7"/>
<stop offset="0.07" stop-color="#5472D8"/>
<stop offset="0.28" stop-color="#4E9CDB"/>
<stop offset="0.48" stop-color="#49BDDD"/>
<stop offset="0.67" stop-color="#45D5DF"/>
<stop offset="0.85" stop-color="#43E3E0"/>
<stop offset="1" stop-color="#42E8E0"/>
</linearGradient>
<linearGradient id="paint19_linear_127_12" x1="37310.5" y1="20758.3" x2="57663.9" y2="20758.3" gradientUnits="userSpaceOnUse">
<stop stop-color="#5761D7"/>
<stop offset="0.07" stop-color="#5472D8"/>
<stop offset="0.28" stop-color="#4E9CDB"/>
<stop offset="0.48" stop-color="#49BDDD"/>
<stop offset="0.67" stop-color="#45D5DF"/>
<stop offset="0.85" stop-color="#43E3E0"/>
<stop offset="1" stop-color="#42E8E0"/>
</linearGradient>
<linearGradient id="paint20_linear_127_12" x1="37310.5" y1="19865.7" x2="57663.9" y2="19865.7" gradientUnits="userSpaceOnUse">
<stop stop-color="#5761D7"/>
<stop offset="0.07" stop-color="#5472D8"/>
<stop offset="0.28" stop-color="#4E9CDB"/>
<stop offset="0.48" stop-color="#49BDDD"/>
<stop offset="0.67" stop-color="#45D5DF"/>
<stop offset="0.85" stop-color="#43E3E0"/>
<stop offset="1" stop-color="#42E8E0"/>
</linearGradient>
<linearGradient id="paint21_linear_127_12" x1="37313.4" y1="26368.1" x2="57668.4" y2="26368.1" gradientUnits="userSpaceOnUse">
<stop stop-color="#5761D7"/>
<stop offset="0.07" stop-color="#5472D8"/>
<stop offset="0.28" stop-color="#4E9CDB"/>
<stop offset="0.48" stop-color="#49BDDD"/>
<stop offset="0.67" stop-color="#45D5DF"/>
<stop offset="0.85" stop-color="#43E3E0"/>
<stop offset="1" stop-color="#42E8E0"/>
</linearGradient>
<linearGradient id="paint22_linear_127_12" x1="37310.5" y1="19865.7" x2="57663.9" y2="19865.7" gradientUnits="userSpaceOnUse">
<stop stop-color="#5761D7"/>
<stop offset="0.07" stop-color="#5472D8"/>
<stop offset="0.28" stop-color="#4E9CDB"/>
<stop offset="0.48" stop-color="#49BDDD"/>
<stop offset="0.67" stop-color="#45D5DF"/>
<stop offset="0.85" stop-color="#43E3E0"/>
<stop offset="1" stop-color="#42E8E0"/>
</linearGradient>
<linearGradient id="paint23_linear_127_12" x1="37311.9" y1="11116.5" x2="57666.1" y2="11116.5" gradientUnits="userSpaceOnUse">
<stop stop-color="#5761D7"/>
<stop offset="0.07" stop-color="#5472D8"/>
<stop offset="0.28" stop-color="#4E9CDB"/>
<stop offset="0.48" stop-color="#49BDDD"/>
<stop offset="0.67" stop-color="#45D5DF"/>
<stop offset="0.85" stop-color="#43E3E0"/>
<stop offset="1" stop-color="#42E8E0"/>
</linearGradient>
<linearGradient id="paint24_linear_127_12" x1="171701" y1="27269" x2="153707" y2="27269" gradientUnits="userSpaceOnUse">
<stop stop-color="#5761D7"/>
<stop offset="0.07" stop-color="#5472D8"/>
<stop offset="0.28" stop-color="#4E9CDB"/>
<stop offset="0.48" stop-color="#49BDDD"/>
<stop offset="0.67" stop-color="#45D5DF"/>
<stop offset="0.85" stop-color="#43E3E0"/>
<stop offset="1" stop-color="#42E8E0"/>
</linearGradient>
<linearGradient id="paint25_linear_127_12" x1="171701" y1="26472.9" x2="153707" y2="26472.9" gradientUnits="userSpaceOnUse">
<stop stop-color="#5761D7"/>
<stop offset="0.07" stop-color="#5472D8"/>
<stop offset="0.28" stop-color="#4E9CDB"/>
<stop offset="0.48" stop-color="#49BDDD"/>
<stop offset="0.67" stop-color="#45D5DF"/>
<stop offset="0.85" stop-color="#43E3E0"/>
<stop offset="1" stop-color="#42E8E0"/>
</linearGradient>
<linearGradient id="paint26_linear_127_12" x1="171700" y1="25676.8" x2="153706" y2="25676.8" gradientUnits="userSpaceOnUse">
<stop stop-color="#5761D7"/>
<stop offset="0.07" stop-color="#5472D8"/>
<stop offset="0.28" stop-color="#4E9CDB"/>
<stop offset="0.48" stop-color="#49BDDD"/>
<stop offset="0.67" stop-color="#45D5DF"/>
<stop offset="0.85" stop-color="#43E3E0"/>
<stop offset="1" stop-color="#42E8E0"/>
</linearGradient>
<linearGradient id="paint27_linear_127_12" x1="171700" y1="24880.7" x2="153706" y2="24880.7" gradientUnits="userSpaceOnUse">
<stop stop-color="#5761D7"/>
<stop offset="0.07" stop-color="#5472D8"/>
<stop offset="0.28" stop-color="#4E9CDB"/>
<stop offset="0.48" stop-color="#49BDDD"/>
<stop offset="0.67" stop-color="#45D5DF"/>
<stop offset="0.85" stop-color="#43E3E0"/>
<stop offset="1" stop-color="#42E8E0"/>
</linearGradient>
<linearGradient id="paint28_linear_127_12" x1="171699" y1="36540.7" x2="153705" y2="36540.7" gradientUnits="userSpaceOnUse">
<stop stop-color="#5761D7"/>
<stop offset="0.07" stop-color="#5472D8"/>
<stop offset="0.28" stop-color="#4E9CDB"/>
<stop offset="0.48" stop-color="#49BDDD"/>
<stop offset="0.67" stop-color="#45D5DF"/>
<stop offset="0.85" stop-color="#43E3E0"/>
<stop offset="1" stop-color="#42E8E0"/>
</linearGradient>
<linearGradient id="paint29_linear_127_12" x1="210802" y1="28471.4" x2="184346" y2="28471.4" gradientUnits="userSpaceOnUse">
<stop stop-color="#5761D7"/>
<stop offset="0.07" stop-color="#5472D8"/>
<stop offset="0.28" stop-color="#4E9CDB"/>
<stop offset="0.48" stop-color="#49BDDD"/>
<stop offset="0.67" stop-color="#45D5DF"/>
<stop offset="0.85" stop-color="#43E3E0"/>
<stop offset="1" stop-color="#42E8E0"/>
</linearGradient>
<linearGradient id="paint30_linear_127_12" x1="210802" y1="27305.7" x2="184346" y2="27305.7" gradientUnits="userSpaceOnUse">
<stop stop-color="#5761D7"/>
<stop offset="0.07" stop-color="#5472D8"/>
<stop offset="0.28" stop-color="#4E9CDB"/>
<stop offset="0.48" stop-color="#49BDDD"/>
<stop offset="0.67" stop-color="#45D5DF"/>
<stop offset="0.85" stop-color="#43E3E0"/>
<stop offset="1" stop-color="#42E8E0"/>
</linearGradient>
<linearGradient id="paint31_linear_127_12" x1="210788" y1="26137.7" x2="184333" y2="26137.7" gradientUnits="userSpaceOnUse">
<stop stop-color="#5761D7"/>
<stop offset="0.07" stop-color="#5472D8"/>
<stop offset="0.28" stop-color="#4E9CDB"/>
<stop offset="0.48" stop-color="#49BDDD"/>
<stop offset="0.67" stop-color="#45D5DF"/>
<stop offset="0.85" stop-color="#43E3E0"/>
<stop offset="1" stop-color="#42E8E0"/>
</linearGradient>
<linearGradient id="paint32_linear_127_12" x1="210802" y1="24972.3" x2="184346" y2="24972.3" gradientUnits="userSpaceOnUse">
<stop stop-color="#5761D7"/>
<stop offset="0.07" stop-color="#5472D8"/>
<stop offset="0.28" stop-color="#4E9CDB"/>
<stop offset="0.48" stop-color="#49BDDD"/>
<stop offset="0.67" stop-color="#45D5DF"/>
<stop offset="0.85" stop-color="#43E3E0"/>
<stop offset="1" stop-color="#42E8E0"/>
</linearGradient>
<linearGradient id="paint33_linear_127_12" x1="210816" y1="37473.3" x2="184358" y2="37473.3" gradientUnits="userSpaceOnUse">
<stop stop-color="#5761D7"/>
<stop offset="0.07" stop-color="#5472D8"/>
<stop offset="0.28" stop-color="#4E9CDB"/>
<stop offset="0.48" stop-color="#49BDDD"/>
<stop offset="0.67" stop-color="#45D5DF"/>
<stop offset="0.85" stop-color="#43E3E0"/>
<stop offset="1" stop-color="#42E8E0"/>
</linearGradient>
<linearGradient id="paint34_linear_127_12" x1="210802" y1="24972.3" x2="184346" y2="24972.3" gradientUnits="userSpaceOnUse">
<stop stop-color="#5761D7"/>
<stop offset="0.07" stop-color="#5472D8"/>
<stop offset="0.28" stop-color="#4E9CDB"/>
<stop offset="0.48" stop-color="#49BDDD"/>
<stop offset="0.67" stop-color="#45D5DF"/>
<stop offset="0.85" stop-color="#43E3E0"/>
<stop offset="1" stop-color="#42E8E0"/>
</linearGradient>
<linearGradient id="paint35_linear_127_12" x1="210820" y1="13988.3" x2="184362" y2="13988.3" gradientUnits="userSpaceOnUse">
<stop stop-color="#5761D7"/>
<stop offset="0.07" stop-color="#5472D8"/>
<stop offset="0.28" stop-color="#4E9CDB"/>
<stop offset="0.48" stop-color="#49BDDD"/>
<stop offset="0.67" stop-color="#45D5DF"/>
<stop offset="0.85" stop-color="#43E3E0"/>
<stop offset="1" stop-color="#42E8E0"/>
</linearGradient>
<linearGradient id="paint36_linear_127_12" x1="20250.6" y1="974.266" x2="19962.5" y2="991.547" gradientUnits="userSpaceOnUse">
<stop stop-color="#5761D7"/>
<stop offset="0.07" stop-color="#5472D8"/>
<stop offset="0.28" stop-color="#4E9CDB"/>
<stop offset="0.48" stop-color="#49BDDD"/>
<stop offset="0.67" stop-color="#45D5DF"/>
<stop offset="0.85" stop-color="#43E3E0"/>
<stop offset="1" stop-color="#42E8E0"/>
</linearGradient>
<linearGradient id="paint37_linear_127_12" x1="44636.9" y1="1447.69" x2="43331" y2="1526" gradientUnits="userSpaceOnUse">
<stop stop-color="#5761D7"/>
<stop offset="0.07" stop-color="#5472D8"/>
<stop offset="0.28" stop-color="#4E9CDB"/>
<stop offset="0.48" stop-color="#49BDDD"/>
<stop offset="0.67" stop-color="#45D5DF"/>
<stop offset="0.85" stop-color="#43E3E0"/>
<stop offset="1" stop-color="#42E8E0"/>
</linearGradient>
<linearGradient id="paint38_linear_127_12" x1="76079.8" y1="5195.31" x2="72558.7" y2="5406.45" gradientUnits="userSpaceOnUse">
<stop stop-color="#5761D7"/>
<stop offset="0.07" stop-color="#5472D8"/>
<stop offset="0.28" stop-color="#4E9CDB"/>
<stop offset="0.48" stop-color="#49BDDD"/>
<stop offset="0.67" stop-color="#45D5DF"/>
<stop offset="0.85" stop-color="#43E3E0"/>
<stop offset="1" stop-color="#42E8E0"/>
</linearGradient>
<clipPath id="clip0_127_12">
<rect width="443" height="432" fill="white"/>
</clipPath>
</defs>
</svg>
