<svg width="16" height="17" viewBox="0 0 16 17" fill="none" xmlns="http://www.w3.org/2000/svg">
<path d="M6.95312 2.59064L7.64687 1.89689C7.94062 1.60314 8.41563 1.60314 8.70625 1.89689L14.7812 7.96876C15.075 8.26251 15.075 8.73751 14.7812 9.02814L8.70625 15.1031C8.4125 15.3969 7.9375 15.3969 7.64687 15.1031L6.95312 14.4094C6.65625 14.1125 6.6625 13.6281 6.96562 13.3375L10.7312 9.75001H1.75C1.33437 9.75001 1 9.41564 1 9.00001V8.00001C1 7.58439 1.33437 7.25001 1.75 7.25001H10.7312L6.96562 3.66251C6.65937 3.37189 6.65312 2.88751 6.95312 2.59064Z" fill="white"/>
</svg>
