<svg width="21" height="16" viewBox="0 0 21 16" fill="none" xmlns="http://www.w3.org/2000/svg">
<path d="M20.7425 8.62179L13.6218 15.7424C13.2784 16.0859 12.7216 16.0859 12.3782 15.7424L11.5477 14.9119C11.2049 14.5691 11.2042 14.0134 11.5463 13.6698L17.1895 7.99998L11.5463 2.33019C11.2042 1.98655 11.2049 1.43091 11.5477 1.08808L12.3782 0.257567C12.7217 -0.0858555 13.2784 -0.0858555 13.6218 0.257567L20.7425 7.37817C21.0859 7.72159 21.0859 8.27837 20.7425 8.62179Z" fill="#05C7F2"/>
<path opacity="0.5" d="M9.48681 8.62179L2.36614 15.7424C2.02271 16.0859 1.46594 16.0859 1.12255 15.7424L0.292043 14.9119C-0.0507929 14.5691 -0.0514527 14.0134 0.290578 13.6698L5.93384 7.99998L0.290578 2.33019C-0.0514526 1.98655 -0.0507928 1.43091 0.292044 1.08808L1.12255 0.257567C1.46597 -0.0858555 2.02275 -0.0858555 2.36614 0.257567L9.48681 7.37817C9.8302 7.72159 9.8302 8.27837 9.48681 8.62179Z" fill="#05C7F2"/>
</svg>
