<svg width="21" height="16" viewBox="0 0 21 16" fill="none" xmlns="http://www.w3.org/2000/svg">
<path d="M0.257631 7.37821L7.37831 0.257567C7.72173 -0.0858557 8.27851 -0.0858557 8.62189 0.257567L9.4524 1.08808C9.79524 1.43091 9.7959 1.98655 9.45387 2.33019L3.81061 8.00002L9.45387 13.6698C9.7959 14.0134 9.79524 14.5691 9.4524 14.9119L8.62189 15.7424C8.27847 16.0859 7.7217 16.0859 7.37831 15.7424L0.257631 8.62183C-0.0857557 8.2784 -0.0857557 7.72163 0.257631 7.37821Z" fill="#05C7F2"/>
<path opacity="0.5" d="M11.5132 7.37821L18.6339 0.257567C18.9773 -0.0858557 19.5341 -0.0858557 19.8775 0.257567L20.708 1.08808C21.0509 1.43091 21.0515 1.98655 20.7095 2.33019L15.0662 8.00002L20.7095 13.6698C21.0515 14.0134 21.0509 14.5691 20.708 14.9119L19.8775 15.7424C19.5341 16.0859 18.9773 16.0859 18.6339 15.7424L11.5132 8.62183C11.1699 8.2784 11.1699 7.72163 11.5132 7.37821Z" fill="#05C7F2"/>
</svg>
