<svg width="1202" height="326" viewBox="0 0 1202 326" fill="none" xmlns="http://www.w3.org/2000/svg">
<path opacity="0.3" d="M971.447 23.5681L1198.78 165.168L967.57 299.763L971.447 23.5681Z" stroke="#05C7F2"/>
<g opacity="0.3">
<mask id="path-2-inside-1_165_3" fill="white">
<path d="M236.027 11.2903L293.297 190.259L147.846 302.388L0.681213 192.719L55.1802 12.8105L236.027 11.2903Z"/>
</mask>
<path d="M236.027 11.2903L236.503 11.138L236.391 10.7873L236.023 10.7904L236.027 11.2903ZM293.297 190.259L293.603 190.655L293.881 190.441L293.774 190.107L293.297 190.259ZM147.846 302.388L147.547 302.789L147.851 303.016L148.151 302.784L147.846 302.388ZM0.681213 192.719L0.202687 192.574L0.100887 192.91L0.382442 193.12L0.681213 192.719ZM55.1802 12.8105L55.176 12.3105L54.8083 12.3136L54.7017 12.6655L55.1802 12.8105ZM236.023 10.7904L230.999 10.8326L231.008 11.8326L236.031 11.7903L236.023 10.7904ZM220.952 10.917L210.905 11.0015L210.914 12.0015L220.961 11.917L220.952 10.917ZM200.858 11.0859L190.811 11.1704L190.819 12.1704L200.867 12.0859L200.858 11.0859ZM180.764 11.2548L170.717 11.3393L170.725 12.3393L180.772 12.2548L180.764 11.2548ZM160.67 11.4237L150.623 11.5082L150.631 12.5082L160.678 12.4237L160.67 11.4237ZM140.576 11.5926L130.529 11.6771L130.537 12.6771L140.584 12.5926L140.576 11.5926ZM120.482 11.7616L110.435 11.846L110.443 12.846L120.49 12.7615L120.482 11.7616ZM100.388 11.9305L90.3406 12.0149L90.3491 13.0149L100.396 12.9304L100.388 11.9305ZM80.2936 12.0994L70.2466 12.1838L70.255 13.1838L80.302 13.0993L80.2936 12.0994ZM60.1995 12.2683L55.176 12.3105L55.1844 13.3104L60.2079 13.2682L60.1995 12.2683ZM54.7017 12.6655L53.1878 17.663L54.1449 17.9529L55.6587 12.9554L54.7017 12.6655ZM50.1601 27.6579L47.1324 37.6528L48.0894 37.9427L51.1171 27.9478L50.1601 27.6579ZM44.1046 47.6477L41.0769 57.6426L42.034 57.9325L45.0617 47.9376L44.1046 47.6477ZM38.0492 67.6375L35.0215 77.6324L35.9785 77.9223L39.0063 67.9274L38.0492 67.6375ZM31.9938 87.6273L28.966 97.6222L29.9231 97.9121L32.9508 87.9172L31.9938 87.6273ZM25.9383 107.617L22.9106 117.612L23.8676 117.902L26.8954 107.907L25.9383 107.617ZM19.8829 127.607L16.8552 137.602L17.8122 137.892L20.8399 127.897L19.8829 127.607ZM13.8274 147.597L10.7997 157.592L11.7568 157.882L14.7845 147.887L13.8274 147.597ZM7.77198 167.587L4.74427 177.582L5.70132 177.871L8.72904 167.877L7.77198 167.587ZM1.71654 187.576L0.202687 192.574L1.15974 192.864L2.67359 187.866L1.71654 187.576ZM0.382442 193.12L4.47035 196.166L5.06789 195.364L0.979984 192.318L0.382442 193.12ZM12.6462 202.259L20.822 208.352L21.4195 207.55L13.2437 201.457L12.6462 202.259ZM28.9978 214.444L37.1736 220.537L37.7711 219.735L29.5953 213.643L28.9978 214.444ZM45.3494 226.63L53.5252 232.723L54.1227 231.921L45.9469 225.828L45.3494 226.63ZM61.701 238.815L69.8768 244.908L70.4744 244.106L62.2986 238.013L61.701 238.815ZM78.0526 251.001L86.2284 257.094L86.826 256.292L78.6502 250.199L78.0526 251.001ZM94.4042 263.186L102.58 269.279L103.178 268.477L95.0018 262.384L94.4042 263.186ZM110.756 275.372L118.932 281.465L119.529 280.663L111.353 274.57L110.756 275.372ZM127.107 287.557L135.283 293.65L135.881 292.848L127.705 286.755L127.107 287.557ZM143.459 299.743L147.547 302.789L148.145 301.987L144.057 298.941L143.459 299.743ZM148.151 302.784L152.191 299.67L151.581 298.878L147.541 301.992L148.151 302.784ZM160.272 293.44L168.353 287.211L167.742 286.419L159.661 292.648L160.272 293.44ZM176.433 280.981L184.514 274.752L183.903 273.96L175.823 280.189L176.433 280.981ZM192.595 268.523L200.675 262.293L200.065 261.501L191.984 267.731L192.595 268.523ZM208.756 256.064L216.837 249.834L216.226 249.042L208.145 255.272L208.756 256.064ZM224.917 243.605L232.998 237.376L232.387 236.584L224.307 242.813L224.917 243.605ZM241.079 231.146L249.159 224.917L248.549 224.125L240.468 230.354L241.079 231.146ZM257.24 218.687L265.32 212.458L264.71 211.666L256.629 217.895L257.24 218.687ZM273.401 206.229L281.482 199.999L280.871 199.207L272.791 205.437L273.401 206.229ZM289.562 193.77L293.603 190.655L292.992 189.863L288.952 192.978L289.562 193.77ZM293.774 190.107L292.183 185.135L291.23 185.44L292.821 190.412L293.774 190.107ZM289.001 175.193L285.819 165.25L284.867 165.555L288.049 175.498L289.001 175.193ZM282.638 155.307L279.456 145.365L278.504 145.669L281.685 155.612L282.638 155.307ZM276.274 135.422L273.093 125.479L272.14 125.784L275.322 135.727L276.274 135.422ZM269.911 115.536L266.729 105.594L265.777 105.899L268.959 115.841L269.911 115.536ZM263.548 95.651L260.366 85.7083L259.413 86.0131L262.595 95.9558L263.548 95.651ZM257.184 75.7656L254.003 65.8229L253.05 66.1277L256.232 76.0704L257.184 75.7656ZM250.821 55.8802L247.639 45.9375L246.687 46.2422L249.868 56.185L250.821 55.8802ZM244.457 35.9947L241.276 26.052L240.323 26.3568L243.505 36.2995L244.457 35.9947ZM238.094 16.1093L236.503 11.138L235.551 11.4427L237.142 16.4141L238.094 16.1093ZM236.027 11.2903L236.979 10.9856L236.755 10.2842L236.019 10.2904L236.027 11.2903ZM293.297 190.259L293.908 191.051L294.464 190.623L294.25 189.954L293.297 190.259ZM147.846 302.388L147.248 303.19L147.856 303.643L148.456 303.18L147.846 302.388ZM0.681213 192.719L-0.275839 192.429L-0.47944 193.101L0.0836712 193.521L0.681213 192.719ZM55.1802 12.8105L55.1718 11.8105L54.4364 11.8167L54.2231 12.5205L55.1802 12.8105ZM236.019 10.2904L230.995 10.3326L231.012 12.3325L236.035 12.2903L236.019 10.2904ZM220.948 10.4171L210.901 10.5015L210.918 12.5014L220.965 12.417L220.948 10.4171ZM200.854 10.586L190.807 10.6704L190.824 12.6703L200.871 12.5859L200.854 10.586ZM180.76 10.7549L170.713 10.8393L170.73 12.8392L180.777 12.7548L180.76 10.7549ZM160.666 10.9238L150.619 11.0082L150.636 13.0081L160.683 12.9237L160.666 10.9238ZM140.572 11.0927L130.525 11.1771L130.541 13.177L140.588 13.0926L140.572 11.0927ZM120.478 11.2616L110.431 11.346L110.447 13.3459L120.494 13.2615L120.478 11.2616ZM100.383 11.4305L90.3364 11.5149L90.3533 13.5149L100.4 13.4304L100.383 11.4305ZM80.2894 11.5994L70.2424 11.6838L70.2592 13.6838L80.3062 13.5993L80.2894 11.5994ZM60.1953 11.7683L55.1718 11.8105L55.1886 13.8104L60.2121 13.7682L60.1953 11.7683ZM54.2231 12.5205L52.7093 17.518L54.6234 18.0978L56.1373 13.1004L54.2231 12.5205ZM49.6816 27.5129L46.6538 37.5078L48.5679 38.0877L51.5957 28.0927L49.6816 27.5129ZM43.6261 47.5027L40.5984 57.4976L42.5125 58.0775L45.5402 48.0826L43.6261 47.5027ZM37.5707 67.4925L34.543 77.4875L36.4571 78.0673L39.4848 68.0724L37.5707 67.4925ZM31.5152 87.4824L28.4875 97.4773L30.4016 98.0571L33.4293 88.0622L31.5152 87.4824ZM25.4598 107.472L22.4321 117.467L24.3462 118.047L27.3739 108.052L25.4598 107.472ZM19.4044 127.462L16.3766 137.457L18.2907 138.037L21.3185 128.042L19.4044 127.462ZM13.3489 147.452L10.3212 157.447L12.2353 158.027L15.263 148.032L13.3489 147.452ZM7.29346 167.442L4.26574 177.437L6.17984 178.016L9.20756 168.021L7.29346 167.442ZM1.23802 187.431L-0.275839 192.429L1.63827 193.009L3.15212 188.011L1.23802 187.431ZM0.0836712 193.521L4.17158 196.567L5.36666 194.963L1.27876 191.917L0.0836712 193.521ZM12.3474 202.66L20.5232 208.753L21.7183 207.149L13.5425 201.056L12.3474 202.66ZM28.699 214.845L36.8748 220.938L38.0699 219.334L29.8941 213.242L28.699 214.845ZM45.0506 227.031L53.2264 233.124L54.4215 231.52L46.2457 225.427L45.0506 227.031ZM61.4022 239.216L69.5781 245.309L70.7731 243.705L62.5973 237.613L61.4022 239.216ZM77.7539 251.402L85.9297 257.494L87.1248 255.891L78.9489 249.798L77.7539 251.402ZM94.1055 263.587L102.281 269.68L103.476 268.076L95.3006 261.984L94.1055 263.587ZM110.457 275.773L118.633 281.865L119.828 280.262L111.652 274.169L110.457 275.773ZM126.809 287.958L134.985 294.051L136.18 292.447L128.004 286.355L126.809 287.958ZM143.16 300.144L147.248 303.19L148.443 301.586L144.355 298.54L143.16 300.144ZM148.456 303.18L152.497 300.066L151.276 298.482L147.235 301.596L148.456 303.18ZM160.577 293.836L168.658 287.607L167.437 286.023L159.356 292.252L160.577 293.836ZM176.739 281.377L184.819 275.148L183.598 273.564L175.518 279.793L176.739 281.377ZM192.9 268.919L200.981 262.689L199.759 261.105L191.679 267.335L192.9 268.919ZM209.061 256.46L217.142 250.23L215.921 248.646L207.84 254.876L209.061 256.46ZM225.223 244.001L233.303 237.772L232.082 236.188L224.001 242.417L225.223 244.001ZM241.384 231.542L249.464 225.313L248.243 223.729L240.163 229.958L241.384 231.542ZM257.545 219.083L265.626 212.854L264.405 211.27L256.324 217.499L257.545 219.083ZM273.706 206.625L281.787 200.395L280.566 198.811L272.485 205.041L273.706 206.625ZM289.868 194.166L293.908 191.051L292.687 189.467L288.647 192.582L289.868 194.166ZM294.25 189.954L292.659 184.983L290.754 185.593L292.345 190.564L294.25 189.954ZM289.477 175.04L286.296 165.098L284.391 165.707L287.573 175.65L289.477 175.04ZM283.114 155.155L279.932 145.212L278.027 145.822L281.209 155.765L283.114 155.155ZM276.751 135.27L273.569 125.327L271.664 125.936L274.846 135.879L276.751 135.27ZM270.387 115.384L267.206 105.441L265.301 106.051L268.482 115.994L270.387 115.384ZM264.024 95.4987L260.842 85.556L258.937 86.1655L262.119 96.1082L264.024 95.4987ZM257.66 75.6132L254.479 65.6705L252.574 66.2801L255.756 76.2228L257.66 75.6132ZM251.297 55.7278L248.115 45.7851L246.211 46.3946L249.392 56.3374L251.297 55.7278ZM244.934 35.8424L241.752 25.8996L239.847 26.5092L243.029 36.4519L244.934 35.8424ZM238.57 15.9569L236.979 10.9856L235.075 11.5951L236.665 16.5665L238.57 15.9569Z" fill="#05C7F2" mask="url(#path-2-inside-1_165_3)"/>
</g>
</svg>
