<svg width="40" height="41" viewBox="0 0 40 41" fill="none" xmlns="http://www.w3.org/2000/svg">
<path d="M31.6666 11.3332H26.6666V9.6665C26.6666 8.34042 26.1399 7.06865 25.2022 6.13097C24.2645 5.19329 22.9927 4.6665 21.6666 4.6665H18.3333C17.0072 4.6665 15.7355 5.19329 14.7978 6.13097C13.8601 7.06865 13.3333 8.34042 13.3333 9.6665V11.3332H8.33331C7.00723 11.3332 5.73546 11.86 4.79778 12.7976C3.8601 13.7353 3.33331 15.0071 3.33331 16.3332V31.3332C3.33331 32.6593 3.8601 33.931 4.79778 34.8687C5.73546 35.8064 7.00723 36.3332 8.33331 36.3332H31.6666C32.9927 36.3332 34.2645 35.8064 35.2022 34.8687C36.1399 33.931 36.6666 32.6593 36.6666 31.3332V16.3332C36.6666 15.0071 36.1399 13.7353 35.2022 12.7976C34.2645 11.86 32.9927 11.3332 31.6666 11.3332ZM16.6666 9.6665C16.6666 9.22448 16.8422 8.80055 17.1548 8.48799C17.4674 8.17543 17.8913 7.99984 18.3333 7.99984H21.6666C22.1087 7.99984 22.5326 8.17543 22.8452 8.48799C23.1577 8.80055 23.3333 9.22448 23.3333 9.6665V11.3332H16.6666V9.6665ZM33.3333 31.3332C33.3333 31.7752 33.1577 32.1991 32.8452 32.5117C32.5326 32.8242 32.1087 32.9998 31.6666 32.9998H8.33331C7.89129 32.9998 7.46736 32.8242 7.1548 32.5117C6.84224 32.1991 6.66665 31.7752 6.66665 31.3332V22.1665C8.29239 22.8113 9.96362 23.335 11.6666 23.7332V24.7165C11.6666 25.1585 11.8422 25.5825 12.1548 25.895C12.4674 26.2076 12.8913 26.3832 13.3333 26.3832C13.7753 26.3832 14.1993 26.2076 14.5118 25.895C14.8244 25.5825 15 25.1585 15 24.7165V24.3665C16.6572 24.5921 18.3275 24.709 20 24.7165C21.6725 24.709 23.3427 24.5921 25 24.3665V24.7165C25 25.1585 25.1756 25.5825 25.4881 25.895C25.8007 26.2076 26.2246 26.3832 26.6666 26.3832C27.1087 26.3832 27.5326 26.2076 27.8452 25.895C28.1577 25.5825 28.3333 25.1585 28.3333 24.7165V23.7332C30.0363 23.335 31.7076 22.8113 33.3333 22.1665V31.3332ZM33.3333 18.5165C31.7123 19.2007 30.0406 19.7579 28.3333 20.1832V19.6665C28.3333 19.2245 28.1577 18.8006 27.8452 18.488C27.5326 18.1754 27.1087 17.9998 26.6666 17.9998C26.2246 17.9998 25.8007 18.1754 25.4881 18.488C25.1756 18.8006 25 19.2245 25 19.6665V20.8998C21.6854 21.3999 18.3146 21.3999 15 20.8998V19.6665C15 19.2245 14.8244 18.8006 14.5118 18.488C14.1993 18.1754 13.7753 17.9998 13.3333 17.9998C12.8913 17.9998 12.4674 18.1754 12.1548 18.488C11.8422 18.8006 11.6666 19.2245 11.6666 19.6665V20.2165C9.95935 19.7912 8.28765 19.234 6.66665 18.5498V16.3332C6.66665 15.8911 6.84224 15.4672 7.1548 15.1547C7.46736 14.8421 7.89129 14.6665 8.33331 14.6665H31.6666C32.1087 14.6665 32.5326 14.8421 32.8452 15.1547C33.1577 15.4672 33.3333 15.8911 33.3333 16.3332V18.5165Z" fill="white"/>
</svg>
