<svg width="40" height="41" viewBox="0 0 40 41" fill="none" xmlns="http://www.w3.org/2000/svg">
<path d="M24.3 19.3335C25.0575 18.3867 25.4743 17.2126 25.4833 16.0002C25.4833 14.5459 24.9056 13.1512 23.8773 12.1229C22.849 11.0945 21.4543 10.5168 20 10.5168C18.5457 10.5168 17.151 11.0945 16.1227 12.1229C15.0944 13.1512 14.5167 14.5459 14.5167 16.0002C14.5257 17.2126 14.9425 18.3867 15.7 19.3335C14.2144 20.2376 13.0488 21.5838 12.3667 23.1835C12.2712 23.3865 12.2177 23.6066 12.2093 23.8308C12.2009 24.0549 12.2379 24.2784 12.318 24.488C12.3981 24.6975 12.5196 24.8887 12.6753 25.0501C12.8311 25.2115 13.0178 25.3399 13.2243 25.4274C13.4308 25.515 13.6529 25.5599 13.8772 25.5596C14.1015 25.5593 14.3234 25.5137 14.5297 25.4255C14.736 25.3374 14.9223 25.2085 15.0776 25.0467C15.2329 24.8848 15.3539 24.6932 15.4333 24.4835C15.8164 23.5881 16.4526 22.824 17.2639 22.2851C18.0751 21.7463 19.0261 21.4561 20 21.4502C20.9767 21.4528 21.9313 21.7415 22.7458 22.2806C23.5604 22.8197 24.1992 23.5855 24.5833 24.4835C24.7109 24.7847 24.9243 25.0418 25.197 25.2226C25.4697 25.4034 25.7895 25.4999 26.1167 25.5002C26.3397 25.496 26.56 25.4508 26.7667 25.3668C27.1731 25.1942 27.4944 24.8673 27.66 24.4579C27.8257 24.0486 27.822 23.5902 27.65 23.1835C26.9634 21.5814 25.7918 20.2349 24.3 19.3335ZM20 18.1168C19.5741 18.1168 19.1577 17.9903 18.8038 17.7533C18.4499 17.5163 18.1743 17.1795 18.0121 16.7857C17.8499 16.3919 17.8083 15.9587 17.8926 15.5412C17.9769 15.1237 18.1834 14.7407 18.4857 14.4406C18.7881 14.1406 19.1727 13.9372 19.5909 13.8561C20.009 13.7751 20.4418 13.82 20.8344 13.9853C21.2269 14.1506 21.5616 14.4288 21.7958 14.7845C22.03 15.1403 22.1533 15.5576 22.15 15.9835C22.1456 16.5508 21.9171 17.0934 21.5144 17.493C21.1117 17.8926 20.5673 18.1168 20 18.1168ZM30 3.8335H10C8.67392 3.8335 7.40215 4.36028 6.46447 5.29796C5.52678 6.23564 5 7.50741 5 8.8335V27.1668C5 28.4929 5.52678 29.7647 6.46447 30.7024C7.40215 31.64 8.67392 32.1668 10 32.1668H14.3167L18.8167 36.6835C18.9724 36.838 19.1571 36.9602 19.3602 37.0431C19.5632 37.1261 19.7807 37.1681 20 37.1668C20.3972 37.1669 20.7814 37.025 21.0833 36.7668L26.45 32.1668H30C31.3261 32.1668 32.5979 31.64 33.5355 30.7024C34.4732 29.7647 35 28.4929 35 27.1668V8.8335C35 7.50741 34.4732 6.23564 33.5355 5.29796C32.5979 4.36028 31.3261 3.8335 30 3.8335ZM31.6667 27.1668C31.6667 27.6089 31.4911 28.0328 31.1785 28.3453C30.866 28.6579 30.442 28.8335 30 28.8335H25.8333C25.4361 28.8335 25.0519 28.9753 24.75 29.2335L20.0833 33.2335L16.1833 29.3168C16.0276 29.1624 15.8429 29.0402 15.6398 28.9572C15.4368 28.8743 15.2193 28.8322 15 28.8335H10C9.55797 28.8335 9.13405 28.6579 8.82149 28.3453C8.50893 28.0328 8.33333 27.6089 8.33333 27.1668V8.8335C8.33333 8.39147 8.50893 7.96755 8.82149 7.65499C9.13405 7.34242 9.55797 7.16683 10 7.16683H30C30.442 7.16683 30.866 7.34242 31.1785 7.65499C31.4911 7.96755 31.6667 8.39147 31.6667 8.8335V27.1668Z" fill="white"/>
</svg>
