<svg width="40" height="41" viewBox="0 0 40 41" fill="none" xmlns="http://www.w3.org/2000/svg">
<path d="M31.6667 7.1665H8.33337C7.00729 7.1665 5.73552 7.69329 4.79784 8.63097C3.86016 9.56865 3.33337 10.8404 3.33337 12.1665V28.8332C3.33337 30.1593 3.86016 31.431 4.79784 32.3687C5.73552 33.3064 7.00729 33.8332 8.33337 33.8332H31.6667C32.9928 33.8332 34.2646 33.3064 35.2022 32.3687C36.1399 31.431 36.6667 30.1593 36.6667 28.8332V12.1665C36.6667 10.8404 36.1399 9.56865 35.2022 8.63097C34.2646 7.69329 32.9928 7.1665 31.6667 7.1665ZM30.9834 10.4998L21.1834 20.2998C21.0284 20.456 20.8441 20.58 20.641 20.6647C20.4379 20.7493 20.2201 20.7928 20 20.7928C19.78 20.7928 19.5622 20.7493 19.3591 20.6647C19.156 20.58 18.9716 20.456 18.8167 20.2998L9.01671 10.4998H30.9834ZM33.3334 28.8332C33.3334 29.2752 33.1578 29.6991 32.8452 30.0117C32.5327 30.3242 32.1087 30.4998 31.6667 30.4998H8.33337C7.89135 30.4998 7.46742 30.3242 7.15486 30.0117C6.8423 29.6991 6.66671 29.2752 6.66671 28.8332V12.8498L16.4667 22.6498C17.4042 23.5862 18.675 24.1121 20 24.1121C21.325 24.1121 22.5959 23.5862 23.5334 22.6498L33.3334 12.8498V28.8332Z" fill="white"/>
</svg>
