<svg width="40" height="41" viewBox="0 0 40 41" fill="none" xmlns="http://www.w3.org/2000/svg">
<path d="M33.45 10.6833C31.6362 8.17894 29.152 6.23777 26.2834 5.0833C23.7544 4.05391 21.0112 3.66163 18.295 3.94096C15.5789 4.22029 12.973 5.16266 10.7064 6.68523C8.43983 8.20779 6.58206 10.2639 5.29642 12.6728C4.01079 15.0816 3.33669 17.7695 3.33337 20.5V21.4333C3.47881 24.0402 4.23835 26.5758 5.55004 28.8333C7.69213 32.593 11.2125 35.3723 15.3667 36.5833C16.8766 36.9919 18.436 37.1882 20 37.1666C21.0519 37.1715 22.1016 37.071 23.1334 36.8666C26.5378 36.2076 29.6519 34.5032 32.0418 31.9908C34.4318 29.4783 35.9785 26.283 36.4667 22.85C36.5919 22.0727 36.6588 21.2872 36.6667 20.5C36.6812 16.9665 35.5528 13.523 33.45 10.6833ZM30.1167 11.9666L28.3334 16.7333L25.6334 17.4666L21.6667 14.65V11.5666L25.8167 8.54997C27.5007 9.36205 28.9901 10.5274 30.1834 11.9666H30.1167ZM23.3334 19.95L22.0334 23.8333H17.95L16.6667 19.95L20 17.5666L23.3334 19.95ZM20 7.16664C20.6194 7.1736 21.2376 7.22372 21.85 7.31664L20 8.64997L18.15 7.31664C18.7625 7.22372 19.3806 7.1736 20 7.16664ZM8.13337 14.45L8.80004 16.65L6.91671 17.9666C7.1533 16.7426 7.56296 15.5585 8.13337 14.45ZM10.4167 29.7333L12.7167 29.8166L13.3334 32.0333C12.2624 31.4009 11.2814 30.6273 10.4167 29.7333ZM13.3334 26.5L8.08337 26.3166C7.42097 25.0158 6.98154 23.6129 6.78337 22.1666L10.9334 19.2666L13.3334 20.3L14.8167 24.9L13.3334 26.5ZM14.7667 17.2833L12.1667 16.1166L10.65 11.1166C11.6723 10.0726 12.8607 9.20525 14.1667 8.54997L18.3334 11.5666V14.65L14.7667 17.2833ZM21.6667 33.7166C20.2045 33.8901 18.7237 33.8225 17.2834 33.5166L15.9 28.65L17.2834 27.1666H22.4L23.5167 28.8333L21.6667 33.7166ZM25.6834 32.55L26.45 30.5L28.7167 30.6166C27.7843 31.4019 26.7464 32.0527 25.6334 32.55H25.6834ZM31.45 27.35L26.2667 27.1666L25.0834 25.3333L26.5667 20.7333L29.0834 20.05L33.0167 23.3833C32.6997 24.7855 32.1535 26.1257 31.4 27.35H31.45ZM31.5334 17.6333L32.3334 15.5C32.8027 16.6328 33.1004 17.8293 33.2167 19.05L31.5334 17.6333Z" fill="white"/>
</svg>
