<svg width="48" height="48" viewBox="0 0 48 48" fill="none" xmlns="http://www.w3.org/2000/svg">
<path d="M42 20.0002C42.5304 20.0002 43.0391 19.7895 43.4142 19.4144C43.7893 19.0394 44 18.5307 44 18.0002V12.0002C44 11.5806 43.8678 11.1716 43.6223 10.8312C43.3767 10.4909 43.0303 10.2365 42.632 10.1042L24.632 4.10422C24.2217 3.96786 23.7783 3.96786 23.368 4.10422L5.368 10.1042C4.96975 10.2365 4.62327 10.4909 4.37772 10.8312C4.13217 11.1716 4.00002 11.5806 4 12.0002V18.0002C4 18.5307 4.21071 19.0394 4.58579 19.4144C4.96086 19.7895 5.46957 20.0002 6 20.0002H8V34.3682C6.83338 34.7791 5.82256 35.5411 5.10635 36.5495C4.39015 37.5579 4.00367 38.7633 4 40.0002V44.0002C4 44.5307 4.21071 45.0394 4.58579 45.4144C4.96086 45.7895 5.46957 46.0002 6 46.0002H42C42.5304 46.0002 43.0391 45.7895 43.4142 45.4144C43.7893 45.0394 44 44.5307 44 44.0002V40.0002C43.9963 38.7633 43.6099 37.5579 42.8936 36.5495C42.1774 35.5411 41.1666 34.7791 40 34.3682V20.0002H42ZM40 42.0002H8V40.0002C8.00053 39.4699 8.21141 38.9615 8.58637 38.5866C8.96133 38.2116 9.46973 38.0007 10 38.0002H38C38.5303 38.0007 39.0387 38.2116 39.4136 38.5866C39.7886 38.9615 39.9995 39.4699 40 40.0002V42.0002ZM12 34.0002V20.0002H16V34.0002H12ZM20 34.0002V20.0002H28V34.0002H20ZM32 34.0002V20.0002H36V34.0002H32ZM8 16.0002V13.4402L24 8.10822L40 13.4422V16.0002H8Z" fill="url(#paint0_linear_76_14)"/>
<defs>
<linearGradient id="paint0_linear_76_14" x1="44.7432" y1="20.9103" x2="3.96017" y2="21.0695" gradientUnits="userSpaceOnUse">
<stop stop-color="#05C7F2"/>
<stop offset="1" stop-color="#0477BF"/>
</linearGradient>
</defs>
</svg>
