<svg width="40" height="41" viewBox="0 0 40 41" fill="none" xmlns="http://www.w3.org/2000/svg">
<path d="M36.1 17.5833L21.1 4.25001C20.7959 3.98281 20.4049 3.83545 20 3.83545C19.5952 3.83545 19.2042 3.98281 18.9 4.25001L3.90004 17.5833C3.6451 17.8089 3.46532 18.107 3.38487 18.4378C3.30442 18.7685 3.32716 19.1159 3.45004 19.4333C3.5709 19.7466 3.78354 20.016 4.06012 20.2063C4.33669 20.3967 4.6643 20.499 5.00004 20.5H6.6667V35.5C6.6667 35.942 6.8423 36.366 7.15486 36.6785C7.46742 36.9911 7.89134 37.1667 8.33337 37.1667H31.6667C32.1087 37.1667 32.5327 36.9911 32.8452 36.6785C33.1578 36.366 33.3334 35.942 33.3334 35.5V20.5H35C35.3358 20.499 35.6634 20.3967 35.94 20.2063C36.2165 20.016 36.4292 19.7466 36.55 19.4333C36.6729 19.1159 36.6957 18.7685 36.6152 18.4378C36.5348 18.107 36.355 17.8089 36.1 17.5833ZM21.6667 33.8333H18.3334V28.8333C18.3334 28.3913 18.509 27.9674 18.8215 27.6548C19.1341 27.3423 19.558 27.1667 20 27.1667C20.4421 27.1667 20.866 27.3423 21.1785 27.6548C21.4911 27.9674 21.6667 28.3913 21.6667 28.8333V33.8333ZM30 33.8333H25V28.8333C25 27.5073 24.4733 26.2355 23.5356 25.2978C22.5979 24.3601 21.3261 23.8333 20 23.8333C18.674 23.8333 17.4022 24.3601 16.4645 25.2978C15.5268 26.2355 15 27.5073 15 28.8333V33.8333H10V20.5H30V33.8333ZM9.38337 17.1667L20 7.73334L30.6167 17.1667H9.38337Z" fill="white"/>
</svg>
