<svg width="520" height="456" viewBox="0 0 520 456" fill="none" xmlns="http://www.w3.org/2000/svg">
<path opacity="0.4" d="M309.75 353.942L396.7 303.841L396.079 95.3745H388.659L389.276 299.919L302.615 349.824L261.073 326.02L194.144 365.027L131.185 327.934L274.889 245.121L271.187 238.692L123.835 323.606L79.6692 297.589L75.9618 304.014L194.294 373.679L261.222 334.672L449.299 443.152L452.903 436.666L309.75 353.942Z" fill="url(#paint0_linear_57_190)"/>
<path d="M191.408 74.5872L333.021 156.341L333.016 269.546L191.408 187.788V74.5872Z" fill="white"/>
<path d="M253.906 190.262L275.552 202.757V246.27C275.551 248.339 275.005 250.371 273.97 252.163C272.935 253.954 271.447 255.442 269.655 256.477L251.445 266.973L229.547 254.329L247.789 243.902C249.586 242.876 251.08 241.394 252.122 239.607C253.164 237.819 253.716 235.788 253.724 233.719L253.906 190.262Z" fill="url(#paint1_linear_57_190)"/>
<path d="M251.599 189.385L273.241 201.88V245.387C273.241 247.456 272.697 249.489 271.662 251.28C270.628 253.072 269.14 254.56 267.349 255.594L251.473 264.769L229.556 252.139L245.487 243.034C247.285 242.008 248.781 240.525 249.823 238.737C250.866 236.948 251.419 234.916 251.426 232.846L251.599 189.385Z" fill="url(#paint2_linear_57_190)"/>
<path d="M229.556 252.13V254.329L251.454 266.973V264.769L229.556 252.13Z" fill="url(#paint3_linear_57_190)"/>
<path d="M187.141 77.1599L328.753 158.918L328.749 272.118L187.141 190.365V77.1599Z" fill="url(#paint4_linear_57_190)"/>
<path d="M187.141 77.1599L328.753 158.918L328.749 259.479L187.145 177.721L187.141 77.1599Z" fill="#1D1D1B"/>
<path d="M189.471 82.623L325.317 161.052L325.312 253.414L189.471 174.985V82.623Z" fill="url(#paint5_linear_57_190)"/>
<path d="M328.749 272.119L333.016 269.546L333.021 156.341L328.753 158.918L328.749 272.119Z" fill="url(#paint6_linear_57_190)"/>
<path d="M187.141 77.1599L191.408 74.5872L333.021 156.341L328.753 158.918L187.141 77.1599Z" fill="url(#paint7_linear_57_190)"/>
<path opacity="0.2" d="M272.629 227.079L234.907 104.736L328.753 158.918L328.749 259.479L272.629 227.079Z" fill="url(#paint8_linear_57_190)"/>
<path opacity="0.2" d="M226.848 100.081L244.395 210.774L222.398 198.074L203.348 86.5171L226.848 100.081Z" fill="url(#paint9_linear_57_190)"/>
<path d="M249.647 220.43C249.647 218.563 250.955 217.825 252.552 218.749C253.397 219.302 254.1 220.046 254.606 220.92C255.111 221.794 255.404 222.775 255.461 223.783C255.461 225.651 254.153 226.384 252.552 225.464C251.708 224.91 251.005 224.167 250.501 223.293C249.997 222.418 249.704 221.438 249.647 220.43Z" fill="url(#paint10_linear_57_190)"/>
<path d="M66.5767 193.559C66.6475 193.559 66.717 193.54 66.7775 193.503L93.0372 178.365C93.0835 178.339 93.1242 178.303 93.1568 178.261C93.1894 178.218 93.2133 178.17 93.2272 178.118C93.2411 178.067 93.2447 178.013 93.2377 177.96C93.2307 177.907 93.2134 177.856 93.1866 177.81C93.132 177.716 93.0423 177.647 92.9373 177.619C92.8323 177.591 92.7205 177.606 92.6263 177.66L66.3713 192.821C66.3249 192.848 66.2843 192.883 66.2517 192.926C66.219 192.968 66.1951 193.016 66.1812 193.068C66.1674 193.119 66.1638 193.173 66.1708 193.226C66.1777 193.279 66.1951 193.33 66.2219 193.377C66.2607 193.435 66.3136 193.482 66.3757 193.514C66.4378 193.546 66.507 193.561 66.5767 193.559Z" fill="url(#paint11_linear_57_190)"/>
<path opacity="0.4" d="M520 315.505L410.736 252.419L410.74 157.797L520 220.879V315.505Z" fill="url(#paint12_linear_57_190)"/>
<path opacity="0.4" d="M410.736 142.025L410.74 157.797L520 220.878V205.106L410.736 142.025Z" fill="url(#paint13_linear_57_190)"/>
<g opacity="0.4">
<path opacity="0.4" d="M508.537 283.698C508.44 283.698 508.345 283.673 508.262 283.624L495.052 275.999C494.98 275.969 494.915 275.924 494.861 275.867C494.808 275.81 494.767 275.742 494.742 275.668C494.717 275.594 494.708 275.516 494.716 275.438C494.724 275.36 494.749 275.285 494.788 275.217C494.828 275.15 494.881 275.092 494.945 275.047C495.009 275.002 495.082 274.971 495.159 274.956C495.235 274.942 495.315 274.944 495.39 274.963C495.466 274.982 495.537 275.016 495.599 275.065L508.808 282.69C508.913 282.749 508.996 282.842 509.043 282.953C509.091 283.065 509.099 283.189 509.068 283.306C509.037 283.423 508.968 283.526 508.872 283.6C508.776 283.673 508.658 283.713 508.537 283.712V283.698Z" fill="url(#paint14_linear_57_190)"/>
</g>
<g opacity="0.4">
<path opacity="0.4" d="M508.537 286.976C508.441 286.975 508.346 286.951 508.262 286.906L495.052 279.276C494.98 279.247 494.915 279.202 494.861 279.145C494.808 279.088 494.767 279.02 494.742 278.946C494.717 278.872 494.708 278.793 494.716 278.716C494.724 278.638 494.749 278.563 494.788 278.495C494.828 278.428 494.881 278.369 494.945 278.324C495.009 278.279 495.082 278.248 495.159 278.234C495.235 278.22 495.315 278.222 495.39 278.24C495.466 278.259 495.537 278.294 495.599 278.342L508.808 285.972C508.911 286.032 508.992 286.125 509.037 286.235C509.083 286.346 509.091 286.469 509.06 286.584C509.029 286.7 508.962 286.802 508.867 286.875C508.773 286.949 508.657 286.989 508.537 286.99V286.976Z" fill="url(#paint15_linear_57_190)"/>
</g>
<g opacity="0.4">
<path opacity="0.4" d="M508.537 290.259C508.44 290.259 508.345 290.233 508.262 290.184L495.052 282.559C494.98 282.529 494.915 282.485 494.861 282.428C494.808 282.371 494.767 282.303 494.742 282.229C494.717 282.155 494.708 282.076 494.716 281.998C494.724 281.92 494.749 281.845 494.788 281.778C494.828 281.71 494.881 281.652 494.945 281.607C495.009 281.562 495.082 281.531 495.159 281.517C495.235 281.502 495.315 281.504 495.39 281.523C495.466 281.542 495.537 281.577 495.599 281.625L508.808 289.25C508.913 289.309 508.996 289.402 509.043 289.514C509.091 289.625 509.099 289.749 509.068 289.866C509.037 289.983 508.968 290.087 508.872 290.16C508.776 290.234 508.658 290.273 508.537 290.273V290.259Z" fill="url(#paint16_linear_57_190)"/>
</g>
<g opacity="0.4">
<path opacity="0.4" d="M508.537 293.541C508.441 293.539 508.346 293.513 508.262 293.466L495.052 285.837C494.99 285.801 494.935 285.753 494.892 285.696C494.848 285.639 494.816 285.574 494.797 285.505C494.778 285.435 494.774 285.363 494.783 285.292C494.792 285.22 494.816 285.152 494.852 285.09C494.887 285.027 494.935 284.972 494.992 284.929C495.049 284.885 495.115 284.853 495.184 284.835C495.254 284.817 495.326 284.812 495.397 284.822C495.469 284.833 495.537 284.857 495.599 284.893L508.808 292.518C508.913 292.578 508.996 292.67 509.043 292.782C509.091 292.893 509.099 293.017 509.068 293.134C509.037 293.251 508.968 293.355 508.872 293.428C508.776 293.502 508.658 293.542 508.537 293.541Z" fill="url(#paint17_linear_57_190)"/>
</g>
<g opacity="0.4">
<path opacity="0.4" d="M503.807 294.05C503.712 294.051 503.618 294.025 503.536 293.975L495.066 289.119C494.963 289.038 494.893 288.921 494.869 288.792C494.844 288.662 494.867 288.529 494.934 288.415C495 288.301 495.106 288.216 495.23 288.173C495.355 288.131 495.491 288.135 495.613 288.185L504.083 293.041C504.189 293.101 504.272 293.194 504.319 293.306C504.366 293.418 504.374 293.543 504.343 293.66C504.311 293.777 504.241 293.881 504.144 293.954C504.047 294.027 503.929 294.066 503.807 294.064V294.05Z" fill="url(#paint18_linear_57_190)"/>
</g>
<path opacity="0.4" d="M494.777 266.996C494.777 266.371 495.22 266.119 495.757 266.431L504.741 271.61C505.026 271.796 505.263 272.046 505.433 272.34C505.603 272.635 505.702 272.965 505.721 273.305V277.353C505.721 277.974 505.255 278.226 504.741 277.918L495.771 272.74C495.487 272.553 495.25 272.303 495.08 272.008C494.91 271.714 494.811 271.384 494.791 271.045L494.777 266.996Z" fill="url(#paint19_linear_57_190)"/>
<g opacity="0.7">
<path opacity="0.7" d="M457.087 259.017C455.6 258.992 454.132 258.674 452.768 258.083C444.793 254.815 442.496 242.796 440.315 231.165C438.541 221.77 436.701 212.059 431.91 210.121C431.361 209.854 430.751 209.736 430.141 209.779C429.532 209.822 428.944 210.023 428.437 210.364C422.409 214.276 420.41 235.031 420.149 242.693C420.137 243.049 419.984 243.385 419.725 243.628C419.465 243.871 419.12 244.001 418.764 243.989C418.409 243.977 418.073 243.825 417.83 243.565C417.587 243.305 417.457 242.96 417.469 242.605C417.571 239.64 418.697 213.492 426.975 208.113C427.847 207.544 428.848 207.204 429.885 207.122C430.923 207.041 431.964 207.221 432.914 207.646C439.05 210.13 440.936 220.113 442.939 230.679C445.003 241.605 447.141 252.905 453.767 255.613C459.655 258.022 462.555 254.002 465.907 249.352C469.26 244.701 473.462 238.893 481.292 243.562C483.08 244.631 484.64 244.963 486.064 244.57C489.262 243.697 491.695 239.229 494.044 234.905C496.616 230.18 499.049 225.716 502.873 224.721C504.708 224.255 506.655 224.651 508.672 225.926C508.973 226.117 509.185 226.419 509.262 226.766C509.34 227.113 509.276 227.477 509.086 227.777C508.895 228.078 508.593 228.29 508.246 228.367C507.898 228.445 507.535 228.381 507.234 228.191C505.834 227.318 504.648 227.028 503.55 227.318C500.847 228.018 498.587 232.169 496.402 236.189C493.778 241.003 491.069 245.994 486.769 247.157C484.64 247.741 482.333 247.306 479.919 245.864C474.461 242.595 471.982 245.513 468.078 250.92C465.435 254.604 462.251 259.017 457.087 259.017Z" fill="#E57FC8"/>
</g>
<path opacity="0.4" d="M420.779 202.823C420.779 195.819 425.738 192.952 431.803 196.454C437.868 199.956 442.827 208.547 442.827 215.546C442.827 222.546 437.864 225.412 431.803 221.915C425.742 218.418 420.779 209.822 420.779 202.823Z" fill="#E57FC8"/>
<path opacity="0.6" d="M425.635 205.624C425.635 201.707 428.409 200.105 431.803 202.062C435.198 204.018 437.971 208.827 437.971 212.745C437.971 216.662 435.198 218.264 431.803 216.307C428.409 214.351 425.635 209.542 425.635 205.624Z" fill="#E57FC8"/>
<path d="M428.791 207.445C428.791 205.531 430.145 204.751 431.803 205.704C432.679 206.277 433.408 207.048 433.931 207.955C434.454 208.862 434.757 209.879 434.815 210.924C434.815 212.838 433.461 213.618 431.803 212.661C430.927 212.089 430.198 211.318 429.675 210.412C429.152 209.506 428.849 208.49 428.791 207.445Z" fill="url(#paint20_linear_57_190)"/>
<path opacity="0.4" d="M56.4165 165.884L127.51 124.842V63.2737L56.4165 104.316V165.884Z" fill="url(#paint21_linear_57_190)"/>
<g opacity="0.4">
<path opacity="0.4" d="M120.067 85.4338V124.258L110.402 129.838V90.7614L120.067 85.4338Z" fill="url(#paint22_linear_57_190)"/>
<path opacity="0.4" d="M105.565 108.14V132.934L95.8948 138.215V113.725L105.565 108.14Z" fill="url(#paint23_linear_57_190)"/>
<path opacity="0.4" d="M91.2909 107.258V141.058L81.621 146.339V112.842L91.2909 107.258Z" fill="url(#paint24_linear_57_190)"/>
<path opacity="0.4" d="M76.4942 104.713V149.318L66.8896 154.963L66.8242 110.293L76.4942 104.713Z" fill="url(#paint25_linear_57_190)"/>
</g>
<path opacity="0.4" d="M127.51 53.0107V63.2737L56.4165 104.316V94.0579L127.51 53.0107Z" fill="url(#paint26_linear_57_190)"/>
<path d="M349.363 12.6827C349.723 12.8881 350.082 13.1123 350.442 13.3364C354 0.262577 365.995 -4.00509 380.143 4.16138C396.555 13.6399 410.077 36.5611 410.89 55.8543C413.635 55.9664 416.689 56.9002 419.901 58.7539C431.775 65.613 441.492 82.4969 441.492 96.2804C441.492 96.6446 441.492 97.0041 441.464 97.3543C447.65 103.541 452.096 113.01 452.096 121.06C452.096 125.687 450.625 129.077 448.206 130.945C447.683 131.348 447.11 131.682 446.502 131.939L430.795 141.124L428.166 127.471L429.053 126.369L349.349 80.1062C333.381 70.8378 320.279 48.0941 320.279 29.5619C320.279 11.0298 333.381 3.44232 349.363 12.6827Z" fill="url(#paint27_linear_57_190)"/>
<path d="M333.124 22.1052C333.488 22.3153 333.843 22.5395 334.202 22.7589C337.76 9.6851 349.756 5.41743 363.903 13.5886C380.32 23.0671 393.838 45.9836 394.645 65.2815C397.391 65.3936 400.445 66.3274 403.657 68.1811C415.531 75.0402 425.247 91.9241 425.247 105.708C425.247 106.072 425.247 106.427 425.247 106.782C431.43 112.964 435.879 122.437 435.879 130.487C435.879 140.759 428.633 144.962 419.78 139.826L333.124 89.5474C317.127 80.265 304.039 57.5119 304.039 38.9891C304.039 20.4663 317.127 12.8695 333.124 22.1052Z" fill="url(#paint28_linear_57_190)"/>
<path d="M403.862 416.453L438.032 436.181V455.908L403.862 436.181V416.453Z" fill="url(#paint29_linear_57_190)"/>
<path d="M472.201 416.453L438.032 436.181V455.908L472.206 436.181L472.201 416.453Z" fill="url(#paint30_linear_57_190)"/>
<path d="M403.862 416.454L438.032 396.726L472.201 416.454L438.032 436.181L403.862 416.454Z" fill="url(#paint31_linear_57_190)"/>
<path d="M415.68 416.454L438.032 403.548L460.388 416.454L438.032 429.359L415.68 416.454Z" fill="url(#paint32_linear_57_190)"/>
<path d="M420.209 419.068L438.032 408.782L455.854 419.068L438.032 429.359L420.209 419.068Z" fill="url(#paint33_linear_57_190)"/>
<path d="M408.494 396.726L438.032 413.783V430.835L408.494 413.778V396.726Z" fill="url(#paint34_linear_57_190)"/>
<path d="M467.569 396.726L438.032 413.783V430.835L467.569 413.778V396.726Z" fill="url(#paint35_linear_57_190)"/>
<path d="M403.862 396.726L438.032 416.454V426.637L403.862 406.91V396.726Z" fill="url(#paint36_linear_57_190)"/>
<path d="M472.201 396.726L438.032 416.454V426.637L472.206 406.91L472.201 396.726Z" fill="url(#paint37_linear_57_190)"/>
<path d="M403.862 396.726L438.032 376.999L472.201 396.726L438.032 416.453L403.862 396.726Z" fill="url(#paint38_linear_57_190)"/>
<path d="M415.68 396.726L438.032 383.821L460.388 396.726L438.032 409.632L415.68 396.726Z" fill="url(#paint39_linear_57_190)"/>
<path d="M420.209 399.341L438.032 389.054L455.854 399.341L438.032 409.632L420.209 399.341Z" fill="url(#paint40_linear_57_190)"/>
<path d="M408.494 376.999L438.032 394.051V411.103L408.494 394.051V376.999Z" fill="url(#paint41_linear_57_190)"/>
<path d="M467.569 376.999L438.032 394.051V411.103L467.569 394.051V376.999Z" fill="url(#paint42_linear_57_190)"/>
<path d="M403.862 376.999L438.032 396.726V406.91L403.862 387.182V376.999Z" fill="url(#paint43_linear_57_190)"/>
<path d="M472.201 376.999L438.032 396.726V406.91L472.206 387.182L472.201 376.999Z" fill="url(#paint44_linear_57_190)"/>
<path d="M403.862 376.999L438.032 357.271L472.201 376.999L438.032 396.726L403.862 376.999Z" fill="url(#paint45_linear_57_190)"/>
<path d="M415.68 376.999L438.032 364.093L460.388 376.999L438.032 389.904L415.68 376.999Z" fill="url(#paint46_linear_57_190)"/>
<path d="M420.209 379.613L438.032 369.327L455.854 379.613L438.032 389.904L420.209 379.613Z" fill="url(#paint47_linear_57_190)"/>
<path d="M438.032 364.093V369.327L420.209 379.613L415.68 376.999L438.032 364.093Z" fill="url(#paint48_linear_57_190)"/>
<path d="M408.494 357.271L438.032 374.323V391.375L408.494 374.323V357.271Z" fill="url(#paint49_linear_57_190)"/>
<path d="M467.569 357.271L438.032 374.323V391.375L467.569 374.323V357.271Z" fill="url(#paint50_linear_57_190)"/>
<path d="M403.862 347.41L438.032 367.137V386.86L403.862 367.132V347.41Z" fill="url(#paint51_linear_57_190)"/>
<path d="M472.201 347.41L438.032 367.137V386.86L472.206 367.132L472.201 347.41Z" fill="url(#paint52_linear_57_190)"/>
<path d="M403.862 347.41L438.032 327.677L472.201 347.41L438.032 367.137L403.862 347.41Z" fill="url(#paint53_linear_57_190)"/>
<path d="M415.68 347.41L438.032 334.504L460.388 347.41L438.032 360.315L415.68 347.41Z" fill="url(#paint54_linear_57_190)"/>
<path d="M420.209 350.024L438.032 339.733L455.854 350.024L438.032 360.315L420.209 350.024Z" fill="url(#paint55_linear_57_190)"/>
<path d="M438.032 334.504V339.733L420.209 350.024L415.68 347.41L438.032 334.504Z" fill="url(#paint56_linear_57_190)"/>
<path d="M464.1 388.055L467.345 386.183L466.551 385.721L464.1 387.135V388.055Z" fill="url(#paint57_linear_57_190)"/>
<path d="M467.345 383.821V386.183L466.551 385.721V384.306L467.345 383.821Z" fill="url(#paint58_linear_57_190)"/>
<path d="M464.1 387.135V385.721L466.551 384.306V385.721L464.1 387.135Z" fill="url(#paint59_linear_57_190)"/>
<path d="M459.137 390.777L462.377 388.905L461.583 388.443L459.137 389.857V390.777Z" fill="url(#paint60_linear_57_190)"/>
<path d="M462.377 386.547V388.905L461.583 388.443V387.028L462.377 386.547Z" fill="url(#paint61_linear_57_190)"/>
<path d="M459.137 389.857V388.443L461.583 387.028V388.443L459.137 389.857Z" fill="url(#paint62_linear_57_190)"/>
<path d="M447.856 417.476L451.101 415.603L450.307 415.141L447.856 416.556V417.476Z" fill="url(#paint63_linear_57_190)"/>
<path d="M451.101 413.241V415.604L450.307 415.141V413.727L451.101 413.241Z" fill="url(#paint64_linear_57_190)"/>
<path d="M447.856 416.556V415.141L450.307 413.727V415.141L447.856 416.556Z" fill="url(#paint65_linear_57_190)"/>
<path d="M442.892 420.198L446.138 418.326L445.339 417.864L442.892 419.279V420.198Z" fill="url(#paint66_linear_57_190)"/>
<path d="M446.138 415.963V418.326L445.339 417.864V416.449L446.138 415.963Z" fill="url(#paint67_linear_57_190)"/>
<path d="M442.892 419.278V417.863L445.339 416.449V417.863L442.892 419.278Z" fill="url(#paint68_linear_57_190)"/>
<path d="M411.964 388.653L408.723 386.78L409.517 386.318L411.964 387.733V388.653Z" fill="url(#paint69_linear_57_190)"/>
<path d="M408.723 384.418V386.781L409.517 386.318V384.904L408.723 384.418Z" fill="url(#paint70_linear_57_190)"/>
<path d="M411.964 387.733V386.318L409.517 384.904V386.318L411.964 387.733Z" fill="url(#paint71_linear_57_190)"/>
<path d="M416.932 391.375L413.687 389.503L414.48 389.041L416.932 390.455V391.375Z" fill="url(#paint72_linear_57_190)"/>
<path d="M413.687 387.14V389.503L414.48 389.041V387.626L413.687 387.14Z" fill="url(#paint73_linear_57_190)"/>
<path d="M416.932 390.455V389.041L414.48 387.626V389.041L416.932 390.455Z" fill="url(#paint74_linear_57_190)"/>
<path d="M428.208 418.074L424.963 416.201L425.761 415.739L428.208 417.154V418.074Z" fill="url(#paint75_linear_57_190)"/>
<path d="M424.963 413.839V416.201L425.761 415.739V414.324L424.963 413.839Z" fill="url(#paint76_linear_57_190)"/>
<path d="M428.208 417.154V415.739L425.761 414.324V415.739L428.208 417.154Z" fill="url(#paint77_linear_57_190)"/>
<path d="M433.176 420.796L429.931 418.924L430.724 418.461L433.176 419.876V420.796Z" fill="url(#paint78_linear_57_190)"/>
<path d="M429.931 416.561V418.923L430.724 418.461V417.046L429.931 416.561Z" fill="url(#paint79_linear_57_190)"/>
<path d="M433.176 419.876V418.461L430.724 417.046V418.461L433.176 419.876Z" fill="url(#paint80_linear_57_190)"/>
<path opacity="0.7" d="M415.68 347.41L404.866 293.158H471.197L460.388 347.41L438.032 360.316L415.68 347.41Z" fill="url(#paint81_linear_57_190)"/>
<path d="M55.7208 191.729L96.9641 167.916C97.6925 167.495 98.3648 167.505 98.7804 167.864L102.264 170.563L99.3173 180.042V285.099C99.2734 285.914 99.0394 286.707 98.634 287.414C98.2286 288.122 97.6631 288.725 96.9827 289.175L58.5037 311.396L57.2056 315.598L54.1987 313.264C53.6897 313.058 53.3676 312.503 53.3676 311.681V195.805C53.4136 194.989 53.6505 194.195 54.0592 193.487C54.4679 192.779 55.037 192.177 55.7208 191.729Z" fill="url(#paint82_linear_57_190)"/>
<path d="M56.7293 198.392V314.24C56.7293 315.734 57.7846 316.345 59.0639 315.598L84.9127 300.657L89.9415 297.753L93.1772 295.885L100.307 291.767C100.987 291.318 101.553 290.715 101.958 290.008C102.364 289.301 102.598 288.509 102.642 287.695V171.861C102.642 170.367 101.582 169.755 100.307 170.502L70.1393 187.919L59.0639 194.315C58.3828 194.765 57.8167 195.367 57.4112 196.075C57.0057 196.783 56.7722 197.577 56.7293 198.392Z" fill="url(#paint83_linear_57_190)"/>
<path d="M98.0519 177.898C99.3453 177.151 100.387 177.763 100.387 179.257V275.859C100.343 276.672 100.109 277.465 99.7031 278.172C99.2977 278.879 98.7321 279.481 98.0519 279.93L61.3192 301.138C60.0258 301.885 58.9846 301.273 58.9846 299.779V203.182C59.0285 202.368 59.2625 201.575 59.6679 200.867C60.0733 200.159 60.6388 199.556 61.3192 199.106L98.0519 177.898Z" fill="url(#paint84_linear_57_190)"/>
<path opacity="0.2" d="M56.7293 198.392V230.329L93.1959 295.894L100.326 291.776C101.006 291.327 101.572 290.725 101.977 290.018C102.382 289.311 102.616 288.518 102.66 287.705V270.895L70.158 187.919L59.0826 194.316C58.398 194.763 57.8283 195.365 57.4195 196.073C57.0107 196.781 56.7742 197.575 56.7293 198.392Z" fill="url(#paint85_linear_57_190)"/>
<path style="mix-blend-mode:multiply" opacity="0.5" d="M377.794 363.864C394.984 363.864 408.919 360.168 408.919 355.609C408.919 351.049 394.984 347.354 377.794 347.354C360.604 347.354 346.669 351.049 346.669 355.609C346.669 360.168 360.604 363.864 377.794 363.864Z" fill="url(#paint86_linear_57_190)"/>
<path d="M383.761 355.609L374.306 349.74L375.31 339.154L382.8 260.301L374.446 257.401L374.213 265.465L372.07 339.822L371.776 349.987L371.692 352.901L383.761 355.609Z" fill="url(#paint87_linear_57_190)"/>
<path d="M372.07 339.822L375.31 339.154L377.804 338.646L384.242 257.448L374.213 265.465L372.07 339.822Z" fill="#1D1D1B"/>
<path d="M371.776 349.987L371.692 352.901L383.761 355.609L374.306 349.74L371.776 349.987Z" fill="#1D1D1B"/>
<path d="M371.206 357.85L361.751 351.981L362.755 341.396L370.244 262.537L361.891 259.642L361.657 267.706L359.514 342.063L359.22 352.228L359.136 355.142L371.206 357.85Z" fill="url(#paint88_linear_57_190)"/>
<path d="M359.514 342.059L362.755 341.396L365.248 340.887L371.691 259.689L361.657 267.706L359.514 342.059Z" fill="#1D1D1B"/>
<path d="M359.22 352.228L359.136 355.142L371.206 357.85L361.751 351.981L359.22 352.228Z" fill="#1D1D1B"/>
<path d="M387.651 213.529L400.225 226.748L415.241 205.629L421.437 204.583L425.705 207.674L418.393 210.265C418.393 210.265 408.279 266.147 381.198 224.432L387.651 213.529Z" fill="url(#paint89_linear_57_190)"/>
<path d="M394.188 220.402L389.5 234.83L377.888 227.546L387.651 213.529L394.188 220.402Z" fill="url(#paint90_linear_57_190)"/>
<path d="M378.537 210.004L371.201 211.321C368.234 211.855 365.547 213.412 363.607 215.721C361.668 218.03 360.598 220.945 360.583 223.96L358.179 271.633C362.102 273.573 366.543 274.206 370.852 273.437C375.16 272.668 379.109 270.538 382.118 267.361L389.411 259.694L389.584 219.875C389.681 218.449 389.451 217.02 388.912 215.697C388.373 214.373 387.539 213.19 386.474 212.238C385.408 211.286 384.139 210.59 382.764 210.203C381.388 209.815 379.942 209.747 378.537 210.004Z" fill="url(#paint91_linear_57_190)"/>
<path d="M379.839 228.77L372.271 254.137L389.393 259.694L397.708 235.204L379.839 228.77Z" fill="url(#paint92_linear_57_190)"/>
<path d="M373.923 206.792C373.923 206.792 374.204 211.545 374.913 212.044C375.623 212.544 379.321 216.494 377.43 208.631C375.539 200.768 373.923 206.792 373.923 206.792Z" fill="url(#paint93_linear_57_190)"/>
<path d="M377.995 210.065C380.548 210.065 382.617 207.995 382.617 205.442C382.617 202.889 380.548 200.82 377.995 200.82C375.442 200.82 373.372 202.889 373.372 205.442C373.372 207.995 375.442 210.065 377.995 210.065Z" fill="url(#paint94_linear_57_190)"/>
<path d="M377.976 249.846L379.05 252.573L382.604 244.668L363.324 244.346L367.606 231.081L363.464 215.915C359.341 220.584 356.19 225.973 354.868 230.063C343.662 264.75 364.86 253.241 373.344 248.249C373.746 248.013 374.194 247.867 374.657 247.82C375.12 247.774 375.588 247.828 376.028 247.98C376.469 248.132 376.871 248.377 377.207 248.7C377.543 249.022 377.806 249.413 377.976 249.846Z" fill="url(#paint95_linear_57_190)"/>
<path d="M354.453 228.625L365.692 236.731L369.011 226.925C369.189 226.15 369.436 225.398 369.66 224.637C370.678 221.191 367.186 215.219 363.464 215.92C359.341 220.57 356.414 224.801 354.453 228.625Z" fill="url(#paint96_linear_57_190)"/>
<path d="M386.951 196.412C386.966 198.254 386.583 200.078 385.826 201.758C385.069 203.438 383.957 204.934 382.566 206.142C382.61 205.781 382.62 205.417 382.599 205.054L379.279 205.124C379.279 205.124 378.714 206.39 378 206.315C377.285 206.24 377.155 207.566 377.155 207.566C377.155 207.566 376.067 204.391 375.618 206.726C375.546 207.069 375.56 207.426 375.659 207.762C375.759 208.099 375.941 208.405 376.188 208.654C375.984 208.9 375.728 209.097 375.438 209.231C375.148 209.364 374.831 209.43 374.512 209.425C367.639 209.425 362.073 203.275 362.073 196.412C362.073 193.113 363.384 189.949 365.716 187.616C368.049 185.283 371.213 183.973 374.512 183.973C377.811 183.973 380.975 185.283 383.307 187.616C385.64 189.949 386.951 193.113 386.951 196.412Z" fill="#1D1D1B"/>
<path style="mix-blend-mode:multiply" opacity="0.5" d="M163.575 300.801C180.765 300.801 194.7 297.105 194.7 292.546C194.7 287.987 180.765 284.291 163.575 284.291C146.385 284.291 132.45 287.987 132.45 292.546C132.45 297.105 146.385 300.801 163.575 300.801Z" fill="url(#paint97_linear_57_190)"/>
<path d="M133.949 164.825L147.686 162.289L152.14 182.969L138.898 186.695L133.949 164.825Z" fill="url(#paint98_linear_57_190)"/>
<path d="M177.144 165.109L177.994 182.381L172.526 202.823L170.63 204.877L175.267 183.389L173.362 164.521L177.144 165.109Z" fill="url(#paint99_linear_57_190)"/>
<path d="M174.865 205.209L172.419 247.078L174.865 293.457L167.203 291.585L172.89 289.722L167.74 246.092L166.302 205.209H174.865Z" fill="url(#paint100_linear_57_190)"/>
<path d="M174.739 291.033L172.89 289.721L167.203 291.584L174.865 293.457L174.739 291.033Z" fill="#1D1D1B"/>
<path d="M169.342 209.383L163.855 251.252L166.302 297.626L158.64 295.754L164.327 293.891L159.177 250.266L161.04 209.383H169.342Z" fill="url(#paint101_linear_57_190)"/>
<path d="M166.176 295.208L164.327 293.891L158.64 295.754L166.302 297.626L166.176 295.208Z" fill="#1D1D1B"/>
<path d="M180.113 210.373C179.105 215.308 177.134 214.832 177.494 219.856L177.531 224.707L174.081 226.318C173.282 226.689 172.407 226.864 171.528 226.828C170.648 226.792 169.79 226.547 169.024 226.113L166.764 224.805C160.185 220.995 155.493 226.883 156.025 219.3L158.925 176.376C156.59 173.948 154.816 169.713 157.057 167.173L162.067 160.51C163.112 159.118 164.533 158.053 166.162 157.441C167.792 156.829 169.562 156.695 171.265 157.055L174.067 157.643C174.067 157.643 178.409 159.702 176.934 169.419C175.757 177.175 170.201 179.691 174.132 187.891C177.802 195.604 181.033 205.914 180.113 210.373Z" fill="url(#paint102_linear_57_190)"/>
<path d="M168.048 154.566C170.519 154.566 172.521 152.564 172.521 150.093C172.521 147.623 170.519 145.62 168.048 145.62C165.578 145.62 163.575 147.623 163.575 150.093C163.575 152.564 165.578 154.566 168.048 154.566Z" fill="url(#paint103_linear_57_190)"/>
<path d="M165.055 143.696C164.755 143.791 164.48 143.951 164.25 144.166C164.019 144.38 163.839 144.642 163.723 144.935C163.606 145.227 163.556 145.541 163.575 145.855C163.595 146.169 163.684 146.475 163.837 146.75C164.901 148.706 166.932 152.745 166.974 155.057C167.045 156.517 166.945 157.981 166.675 159.418C166.579 159.752 166.605 160.109 166.75 160.426C166.895 160.742 167.149 160.995 167.465 161.141C170.873 162.658 178.493 165.548 178.493 160.963C178.493 158.661 176.467 152.787 176.023 150.093C175.206 145.158 172.722 143.836 167.983 143.449C167 143.345 166.007 143.429 165.055 143.696Z" fill="#1D1D1B"/>
<path d="M167.633 170.171L160.76 187.904L136.722 180.662L133.949 177.819L136.143 174.616L137.096 177.856L139.869 177.301L137.801 179.602L159.027 184.169L163.332 166.473L167.633 170.171Z" fill="url(#paint104_linear_57_190)"/>
<path d="M163.818 162.051C162.711 163.078 161.595 164.908 161.6 168.121L168.3 171.856C168.3 171.856 173.763 165.319 167.964 161.729C167.332 161.324 166.585 161.137 165.837 161.195C165.089 161.253 164.38 161.554 163.818 162.051Z" fill="url(#paint105_linear_57_190)"/>
<path opacity="0.5" d="M337.317 422.369C354.507 422.369 368.442 418.673 368.442 414.114C368.442 409.555 354.507 405.859 337.317 405.859C320.127 405.859 306.192 409.555 306.192 414.114C306.192 418.673 320.127 422.369 337.317 422.369Z" fill="url(#paint106_linear_57_190)"/>
<path d="M344.479 342.334L343.676 414.114H350.745L341.617 417.658L338.601 331.931L344.479 342.334Z" fill="url(#paint107_linear_57_190)"/>
<path d="M338.017 340.312L337.55 373.492L326.615 409.529L331.349 417.285L324.168 411.588L333.535 372.189L330.686 344.664L338.017 340.312Z" fill="url(#paint108_linear_57_190)"/>
<path d="M355.592 340.312L357.138 346.509C357.346 347.344 357.362 348.215 357.186 349.058C357.009 349.9 356.645 350.692 356.12 351.374L354.033 350.687L353.164 347.274L355.592 340.312Z" fill="url(#paint109_linear_57_190)"/>
<path d="M342.822 274.976L346.487 284.996C345.815 288.596 345.642 310.63 346.585 314.17L350.475 328.714C350.475 328.714 348.78 353.956 345.805 353.989H345.586C329.575 354.11 318.35 337.912 324.159 322.994C325.462 319.651 326.96 316.733 328.632 314.664C333.927 308.165 330.939 299.489 328.02 293.98C324.43 287.2 327.773 278.599 335.174 276.578C335.468 276.498 335.767 276.424 336.065 276.363L342.822 274.976Z" fill="url(#paint110_linear_57_190)"/>
<path d="M351.488 288.162L348.322 311.205L357.063 346.285L344.61 313.703L344.568 286.248L346.482 284.996C347.006 284.661 347.614 284.482 348.236 284.48C348.858 284.478 349.467 284.654 349.993 284.986C350.518 285.318 350.938 285.794 351.203 286.356C351.468 286.919 351.567 287.545 351.488 288.162Z" fill="url(#paint111_linear_57_190)"/>
<path d="M351.203 290.235L344.587 297.052V286.248L342.836 274.976L348.201 278.385C349.474 279.194 350.488 280.352 351.123 281.721C351.758 283.09 351.986 284.613 351.782 286.108L351.203 290.235Z" fill="url(#paint112_linear_57_190)"/>
<path d="M341.79 272.623C344.26 272.623 346.263 270.62 346.263 268.15C346.263 265.679 344.26 263.677 341.79 263.677C339.319 263.677 337.317 265.679 337.317 268.15C337.317 270.62 339.319 272.623 341.79 272.623Z" fill="url(#paint113_linear_57_190)"/>
<path d="M345.693 265.096C343.774 266.964 342.57 269.499 342.892 272.161C343.043 273.573 343.56 274.921 344.391 276.073C347.384 280.098 349.195 286.995 344.708 288.148C340.221 289.301 337.704 285.192 335.099 288.279C332.493 291.365 325.76 286.827 330.005 279.305C334.249 271.782 334.842 260.161 342.514 261.94C346.735 262.93 346.637 264.176 345.693 265.096Z" fill="#1D1D1B"/>
<g style="mix-blend-mode:multiply">
<path d="M350.745 414.114H343.676L341.542 415.571L341.617 417.658L350.745 414.114Z" fill="#1D1D1B"/>
</g>
<path d="M324.616 409.702L326.615 409.529L331.349 417.285L324.168 411.588L324.616 409.702Z" fill="#1D1D1B"/>
<path style="mix-blend-mode:multiply" opacity="0.5" d="M186.931 448.573C202.834 448.573 215.726 445.155 215.726 440.939C215.726 436.723 202.834 433.305 186.931 433.305C171.027 433.305 158.135 436.723 158.135 440.939C158.135 445.155 171.027 448.573 186.931 448.573Z" fill="url(#paint114_linear_57_190)"/>
<path d="M181.407 440.939L190.157 435.509L189.228 425.717L182.299 352.77L190.026 350.09L190.246 357.551L192.225 426.334L192.496 435.737L192.576 438.431L181.407 440.939Z" fill="url(#paint115_linear_57_190)"/>
<path d="M192.225 426.333L189.228 425.717L186.921 425.25L180.963 350.136L190.246 357.547L192.225 426.333Z" fill="#1D1D1B"/>
<path d="M192.496 435.737L192.576 438.431L181.407 440.939L190.157 435.509L192.496 435.737Z" fill="#1D1D1B"/>
<path d="M193.024 443.012L201.769 437.582L200.84 427.79L193.911 354.843L201.643 352.163L201.858 359.625L203.838 428.407L204.113 437.811L204.188 440.505L193.024 443.012Z" fill="url(#paint116_linear_57_190)"/>
<path d="M203.838 428.406L200.84 427.79L198.534 427.319L192.576 352.209L201.858 359.62L203.838 428.406Z" fill="#1D1D1B"/>
<path d="M204.113 437.81L204.188 440.504L193.024 443.012L201.769 437.582L204.113 437.81Z" fill="#1D1D1B"/>
<path d="M177.812 309.509L166.181 321.733L152.29 302.197L146.556 301.231L142.61 304.093L149.376 306.489C149.376 306.489 158.714 358.167 183.783 319.59L177.812 309.509Z" fill="url(#paint117_linear_57_190)"/>
<path d="M171.765 315.864L176.103 329.214L186.842 322.476L177.812 309.51L171.765 315.864Z" fill="url(#paint118_linear_57_190)"/>
<path d="M186.244 306.246L193.024 307.465C195.763 307.962 198.242 309.401 200.032 311.532C201.823 313.664 202.812 316.354 202.829 319.138L205.07 363.266C201.441 365.06 197.332 365.644 193.347 364.932C189.361 364.221 185.708 362.251 182.924 359.312L176.201 352.224L176.028 315.379C175.939 314.061 176.153 312.74 176.651 311.516C177.15 310.293 177.921 309.199 178.906 308.318C179.891 307.438 181.064 306.793 182.336 306.434C183.607 306.075 184.944 306.011 186.244 306.246Z" fill="url(#paint119_linear_57_190)"/>
<path d="M185.039 323.606L192.039 347.073L176.205 352.214L168.506 329.559L185.039 323.606Z" fill="url(#paint120_linear_57_190)"/>
<path d="M190.502 303.271C190.502 303.271 190.246 307.67 189.569 308.137C188.892 308.604 185.492 312.25 187.234 304.976C188.976 297.701 190.502 303.271 190.502 303.271Z" fill="url(#paint121_linear_57_190)"/>
<path d="M186.744 306.307C189.106 306.307 191.021 304.392 191.021 302.03C191.021 299.668 189.106 297.753 186.744 297.753C184.382 297.753 182.467 299.668 182.467 302.03C182.467 304.392 184.382 306.307 186.744 306.307Z" fill="url(#paint122_linear_57_190)"/>
<path d="M182.817 300.33C182.817 300.33 166.942 292.392 169.645 285.463C172.349 278.534 192.057 300.816 192.057 300.816L190.46 304.173C190.46 304.173 190.685 301.371 189.527 302.016C188.369 302.66 188.653 304.817 188.653 304.817L187.888 302.016L182.817 300.33Z" fill="#1D1D1B"/>
<path d="M186.767 343.1L185.777 345.626L182.509 338.304L200.308 338.006L196.348 325.735L200.182 311.727C203.997 316.046 206.91 321.033 208.119 324.801C218.485 356.888 198.874 346.237 191.03 341.61C190.659 341.397 190.246 341.265 189.819 341.226C189.392 341.186 188.962 341.238 188.558 341.38C188.153 341.521 187.784 341.748 187.475 342.045C187.166 342.341 186.925 342.701 186.767 343.1Z" fill="url(#paint123_linear_57_190)"/>
<path d="M208.521 323.47L198.123 330.969L195.055 321.883C194.892 321.169 194.658 320.482 194.453 319.768C193.519 316.583 196.741 311.055 200.186 311.704C204.001 316.023 206.709 319.931 208.521 323.47Z" fill="url(#paint124_linear_57_190)"/>
<path opacity="0.4" d="M162.198 341.41L112.587 312.769L112.592 269.807L162.198 298.448V341.41Z" fill="url(#paint125_linear_57_190)"/>
<path opacity="0.4" d="M112.587 262.645L112.592 269.807L162.198 298.448V291.286L112.587 262.645Z" fill="url(#paint126_linear_57_190)"/>
<g opacity="0.4">
<path opacity="0.4" d="M156.174 301.455C156.034 301.454 155.896 301.417 155.773 301.348L136.354 290.142C136.262 290.089 136.181 290.018 136.116 289.934C136.052 289.85 136.004 289.753 135.977 289.651C135.949 289.548 135.942 289.441 135.956 289.336C135.97 289.231 136.004 289.129 136.057 289.037C136.11 288.945 136.181 288.865 136.265 288.8C136.349 288.735 136.445 288.688 136.548 288.66C136.65 288.633 136.757 288.626 136.863 288.64C136.968 288.653 137.069 288.688 137.161 288.741L156.576 299.947C156.728 300.037 156.846 300.174 156.913 300.337C156.98 300.5 156.992 300.681 156.946 300.851C156.9 301.022 156.8 301.173 156.661 301.281C156.522 301.389 156.351 301.449 156.174 301.451V301.455Z" fill="url(#paint127_linear_57_190)"/>
</g>
<g opacity="0.4">
<path opacity="0.4" d="M156.174 306.274C156.033 306.275 155.895 306.238 155.773 306.166L136.34 294.956C136.248 294.903 136.167 294.832 136.102 294.748C136.038 294.664 135.99 294.567 135.963 294.465C135.935 294.362 135.928 294.255 135.942 294.15C135.956 294.045 135.99 293.943 136.043 293.851C136.096 293.759 136.167 293.679 136.251 293.614C136.335 293.549 136.431 293.502 136.534 293.474C136.636 293.447 136.743 293.44 136.849 293.454C136.954 293.467 137.055 293.502 137.147 293.555L156.562 304.761C156.715 304.849 156.835 304.986 156.903 305.149C156.97 305.313 156.982 305.494 156.936 305.665C156.891 305.835 156.79 305.986 156.65 306.094C156.509 306.202 156.337 306.26 156.16 306.26L156.174 306.274Z" fill="url(#paint128_linear_57_190)"/>
</g>
<g opacity="0.4">
<path opacity="0.4" d="M156.174 311.097C156.033 311.098 155.895 311.061 155.773 310.99L136.34 299.765C136.248 299.712 136.167 299.641 136.102 299.557C136.038 299.473 135.99 299.377 135.963 299.274C135.935 299.172 135.928 299.065 135.942 298.959C135.956 298.854 135.99 298.753 136.043 298.661C136.096 298.569 136.167 298.488 136.251 298.423C136.335 298.359 136.431 298.311 136.534 298.284C136.636 298.256 136.743 298.249 136.849 298.263C136.954 298.277 137.055 298.311 137.147 298.364L156.562 309.57C156.715 309.659 156.835 309.795 156.903 309.959C156.97 310.122 156.982 310.303 156.936 310.474C156.891 310.645 156.79 310.796 156.65 310.903C156.509 311.011 156.337 311.069 156.16 311.069L156.174 311.097Z" fill="url(#paint129_linear_57_190)"/>
</g>
<g opacity="0.4">
<path opacity="0.4" d="M156.174 315.921C156.034 315.919 155.896 315.882 155.773 315.813L136.354 304.607C136.262 304.554 136.181 304.483 136.116 304.399C136.052 304.315 136.004 304.219 135.977 304.116C135.949 304.014 135.942 303.907 135.956 303.802C135.97 303.696 136.004 303.595 136.057 303.503C136.11 303.411 136.181 303.33 136.265 303.265C136.349 303.201 136.445 303.153 136.548 303.126C136.65 303.098 136.757 303.091 136.863 303.105C136.968 303.119 137.069 303.153 137.161 303.206L156.576 314.412C156.729 314.501 156.849 314.637 156.917 314.801C156.984 314.964 156.996 315.145 156.951 315.316C156.905 315.487 156.804 315.638 156.664 315.745C156.523 315.853 156.351 315.911 156.174 315.911V315.921Z" fill="url(#paint130_linear_57_190)"/>
</g>
<g opacity="0.4">
<path opacity="0.4" d="M149.208 316.668C149.067 316.669 148.928 316.632 148.806 316.56L136.34 309.426C136.154 309.319 136.018 309.142 135.963 308.935C135.907 308.728 135.936 308.507 136.043 308.322C136.15 308.136 136.327 308 136.534 307.945C136.741 307.889 136.962 307.918 137.147 308.025L149.609 315.174C149.763 315.262 149.882 315.398 149.95 315.562C150.018 315.725 150.03 315.906 149.984 316.077C149.938 316.248 149.837 316.399 149.697 316.507C149.557 316.614 149.385 316.673 149.208 316.673V316.668Z" fill="url(#paint131_linear_57_190)"/>
</g>
<path opacity="0.4" d="M117.037 277.217C117.037 276.377 117.63 276.031 118.354 276.451L130.456 283.455C130.841 283.706 131.161 284.044 131.391 284.441C131.62 284.839 131.753 285.285 131.778 285.743V318.685C131.778 319.525 131.185 319.866 130.456 319.45L118.354 312.446C117.971 312.195 117.652 311.856 117.423 311.459C117.195 311.062 117.062 310.616 117.037 310.159V277.217Z" fill="url(#paint132_linear_57_190)"/>
<path style="mix-blend-mode:multiply" opacity="0.5" d="M23.9701 340.569C31.451 340.569 37.5155 337.17 37.5155 332.977C37.5155 328.784 31.451 325.385 23.9701 325.385C16.4892 325.385 10.4247 328.784 10.4247 332.977C10.4247 337.17 16.4892 340.569 23.9701 340.569Z" fill="url(#paint133_linear_57_190)"/>
<path d="M6.20367 291.767L6.71729 292.672C9.91532 298.307 10.9997 304.898 9.77563 311.261L7.46903 323.237C7.07851 325.263 7.33073 327.361 8.19046 329.237C9.05019 331.113 10.4745 332.674 12.2643 333.701H12.3017C13.8044 334.566 15.5079 335.021 17.2417 335.021C18.9756 335.021 20.679 334.566 22.1817 333.701C23.9652 332.672 25.3833 331.112 26.2386 329.239C27.094 327.366 27.3439 325.273 26.9537 323.251L24.6611 311.345C23.4282 304.93 24.5401 298.285 27.7941 292.621L28.2891 291.767H6.20367Z" fill="url(#paint134_linear_57_190)"/>
<path d="M28.2891 291.767C28.2891 292.808 26.5942 293.732 23.9654 294.321C21.7558 294.781 19.5033 295.003 17.2464 294.984C14.9895 295.003 12.737 294.781 10.5274 294.321C7.8986 293.732 6.20367 292.808 6.20367 291.767C6.20367 289.988 11.1484 288.545 17.2464 288.545C23.3444 288.545 28.2891 289.988 28.2891 291.767Z" fill="url(#paint135_linear_57_190)"/>
<path d="M23.97 294.293C23.9722 294.302 23.9722 294.311 23.97 294.321C21.7604 294.781 19.5079 295.003 17.251 294.984C14.9941 295.003 12.7417 294.781 10.532 294.321C10.5298 294.311 10.5298 294.302 10.532 294.293C10.532 293.205 13.5437 292.332 17.2557 292.332C20.9677 292.332 23.97 293.228 23.97 294.293Z" fill="url(#paint136_linear_57_190)"/>
<path d="M19.7258 293.97C19.7258 293.97 25.8798 213.716 15.0472 211.984C4.21466 210.251 16.3406 293.928 16.3406 293.928L19.7258 293.97Z" fill="url(#paint137_linear_57_190)"/>
<path d="M13.2262 293.971C13.2262 293.971 -7.43975 233.598 2.89323 230.595C13.2262 227.593 17.8347 293.971 17.8347 293.971H13.2262Z" fill="url(#paint138_linear_57_190)"/>
<path d="M19.7258 293.971C19.7258 293.971 33.1078 254.875 26.4168 252.933C19.7258 250.99 16.7328 293.971 16.7328 293.971H19.7258Z" fill="url(#paint139_linear_57_190)"/>
<path style="mix-blend-mode:multiply" opacity="0.5" d="M505.203 411.705C512.684 411.705 518.749 408.306 518.749 404.113C518.749 399.92 512.684 396.521 505.203 396.521C497.722 396.521 491.658 399.92 491.658 404.113C491.658 408.306 497.722 411.705 505.203 411.705Z" fill="url(#paint140_linear_57_190)"/>
<path d="M487.465 362.902L487.978 363.803C491.173 369.441 492.255 376.033 491.032 382.396L488.726 394.373C488.337 396.395 488.588 398.488 489.444 400.361C490.301 402.233 491.719 403.793 493.502 404.822H493.54C495.041 405.687 496.744 406.143 498.477 406.143C500.21 406.143 501.913 405.687 503.415 404.822C505.199 403.794 506.617 402.234 507.474 400.361C508.33 398.488 508.581 396.395 508.192 394.373L505.899 382.462C504.661 376.047 505.773 369.401 509.032 363.738L509.499 362.884L487.465 362.902Z" fill="url(#paint141_linear_57_190)"/>
<path d="M509.522 362.902C509.522 363.943 507.832 364.868 505.203 365.456C500.766 366.34 496.198 366.34 491.761 365.456C489.136 364.868 487.442 363.943 487.442 362.902C487.442 361.123 492.382 359.68 498.484 359.68C504.587 359.68 509.522 361.123 509.522 362.902Z" fill="url(#paint142_linear_57_190)"/>
<path d="M505.208 365.424V365.456C500.771 366.34 496.202 366.34 491.765 365.456V365.424C491.765 364.34 494.772 363.467 498.489 363.467C502.206 363.467 505.208 364.34 505.208 365.424Z" fill="url(#paint143_linear_57_190)"/>
<path d="M500.959 365.106C500.959 365.106 507.118 284.847 496.29 283.138C485.462 281.429 497.597 365.064 497.597 365.064L500.959 365.106Z" fill="url(#paint144_linear_57_190)"/>
<path d="M494.469 365.106C494.469 365.106 473.803 304.733 484.136 301.731C494.469 298.728 499.077 365.106 499.077 365.106H494.469Z" fill="url(#paint145_linear_57_190)"/>
<path d="M500.959 365.106C500.959 365.106 514.341 326.011 507.65 324.068C500.959 322.126 497.966 365.106 497.966 365.106H500.959Z" fill="url(#paint146_linear_57_190)"/>
<defs>
<linearGradient id="paint0_linear_57_190" x1="240.5" y1="226.58" x2="283.747" y2="486.057" gradientUnits="userSpaceOnUse">
<stop stop-color="#3494E6"/>
<stop offset="1" stop-color="#DB61A4"/>
</linearGradient>
<linearGradient id="paint1_linear_57_190" x1="250.707" y1="266.025" x2="252.426" y2="251.723" gradientUnits="userSpaceOnUse">
<stop stop-color="#F6F6F6"/>
<stop offset="1" stop-color="#C9D6FF"/>
</linearGradient>
<linearGradient id="paint2_linear_57_190" x1="22995.7" y1="41250.6" x2="26470.6" y2="37511.2" gradientUnits="userSpaceOnUse">
<stop stop-color="#F6F6F6"/>
<stop offset="1" stop-color="#C9D6FF"/>
</linearGradient>
<linearGradient id="paint3_linear_57_190" x1="10789.1" y1="8503.17" x2="11816.1" y2="8503.17" gradientUnits="userSpaceOnUse">
<stop stop-color="#F6F6F6"/>
<stop offset="1" stop-color="#C9D6FF"/>
</linearGradient>
<linearGradient id="paint4_linear_57_190" x1="73563.8" y1="96185.9" x2="78486.2" y2="83784.7" gradientUnits="userSpaceOnUse">
<stop stop-color="#F6F6F6"/>
<stop offset="1" stop-color="#C9D6FF"/>
</linearGradient>
<linearGradient id="paint5_linear_57_190" x1="222.389" y1="75.1383" x2="286.735" y2="245.868" gradientUnits="userSpaceOnUse">
<stop stop-color="#3494E6"/>
<stop offset="1" stop-color="#EC6EAD"/>
</linearGradient>
<linearGradient id="paint6_linear_57_190" x1="3489.24" y1="43585.8" x2="1140.35" y2="43819.1" gradientUnits="userSpaceOnUse">
<stop stop-color="#F6F6F6"/>
<stop offset="1" stop-color="#C9D6FF"/>
</linearGradient>
<linearGradient id="paint7_linear_57_190" x1="58656" y1="21160.7" x2="104233" y2="21160.7" gradientUnits="userSpaceOnUse">
<stop stop-color="#F6F6F6"/>
<stop offset="1" stop-color="#C9D6FF"/>
</linearGradient>
<linearGradient id="paint8_linear_57_190" x1="51214.3" y1="2627.04" x2="79603.3" y2="78490.2" gradientUnits="userSpaceOnUse">
<stop stop-color="#F6F6F6"/>
<stop offset="1" stop-color="#C9D6FF"/>
</linearGradient>
<linearGradient id="paint9_linear_57_190" x1="17334.4" y1="4869.18" x2="41928.6" y2="40668" gradientUnits="userSpaceOnUse">
<stop stop-color="#F6F6F6"/>
<stop offset="1" stop-color="#C9D6FF"/>
</linearGradient>
<linearGradient id="paint10_linear_57_190" x1="3602.52" y1="3866.79" x2="3558.28" y2="3857" gradientUnits="userSpaceOnUse">
<stop stop-color="#F6F6F6"/>
<stop offset="1" stop-color="#C9D6FF"/>
</linearGradient>
<linearGradient id="paint11_linear_57_190" x1="273772" y1="6284.4" x2="273867" y2="6515.97" gradientUnits="userSpaceOnUse">
<stop stop-color="#F6F6F6"/>
<stop offset="1" stop-color="#C9D6FF"/>
</linearGradient>
<linearGradient id="paint12_linear_57_190" x1="1.49234e+06" y1="73816.7" x2="1.46336e+06" y2="82009.3" gradientUnits="userSpaceOnUse">
<stop stop-color="#3494E6"/>
<stop offset="1" stop-color="#DB61A4"/>
</linearGradient>
<linearGradient id="paint13_linear_57_190" x1="1.48282e+06" y1="22851.1" x2="1.48263e+06" y2="25498.2" gradientUnits="userSpaceOnUse">
<stop stop-color="#3494E6"/>
<stop offset="1" stop-color="#DB61A4"/>
</linearGradient>
<linearGradient id="paint14_linear_57_190" x1="190495" y1="5467.41" x2="190480" y2="5573.4" gradientUnits="userSpaceOnUse">
<stop stop-color="#3494E6"/>
<stop offset="1" stop-color="#DB61A4"/>
</linearGradient>
<linearGradient id="paint15_linear_57_190" x1="190383" y1="5532.31" x2="190368" y2="5638.22" gradientUnits="userSpaceOnUse">
<stop stop-color="#3494E6"/>
<stop offset="1" stop-color="#DB61A4"/>
</linearGradient>
<linearGradient id="paint16_linear_57_190" x1="190495" y1="5597.21" x2="190480" y2="5703.12" gradientUnits="userSpaceOnUse">
<stop stop-color="#3494E6"/>
<stop offset="1" stop-color="#DB61A4"/>
</linearGradient>
<linearGradient id="paint17_linear_57_190" x1="189606" y1="5636.52" x2="189591" y2="5741.93" gradientUnits="userSpaceOnUse">
<stop stop-color="#3494E6"/>
<stop offset="1" stop-color="#DB61A4"/>
</linearGradient>
<linearGradient id="paint18_linear_57_190" x1="123722" y1="3953.83" x2="123715" y2="4004.23" gradientUnits="userSpaceOnUse">
<stop stop-color="#3494E6"/>
<stop offset="1" stop-color="#DB61A4"/>
</linearGradient>
<linearGradient id="paint19_linear_57_190" x1="143562" y1="6855.29" x2="143156" y2="7928.84" gradientUnits="userSpaceOnUse">
<stop stop-color="#3494E6"/>
<stop offset="1" stop-color="#DB61A4"/>
</linearGradient>
<linearGradient id="paint20_linear_57_190" x1="1143.05" y1="3608.13" x2="1093.82" y2="3760.64" gradientUnits="userSpaceOnUse">
<stop stop-color="#F6F6F6"/>
<stop offset="1" stop-color="#C9D6FF"/>
</linearGradient>
<linearGradient id="paint21_linear_57_190" x1="-252990" y1="22588.4" x2="-240722" y2="26056.3" gradientUnits="userSpaceOnUse">
<stop stop-color="#3494E6"/>
<stop offset="1" stop-color="#DB61A4"/>
</linearGradient>
<linearGradient id="paint22_linear_57_190" x1="90081.4" y1="8512.47" x2="90339.3" y2="8466.56" gradientUnits="userSpaceOnUse">
<stop stop-color="#3494E6"/>
<stop offset="1" stop-color="#DB61A4"/>
</linearGradient>
<linearGradient id="paint23_linear_57_190" x1="90181.8" y1="5968.46" x2="90430.8" y2="5902.89" gradientUnits="userSpaceOnUse">
<stop stop-color="#3494E6"/>
<stop offset="1" stop-color="#DB61A4"/>
</linearGradient>
<linearGradient id="paint24_linear_57_190" x1="90114.4" y1="7318.54" x2="90370.1" y2="7266.78" gradientUnits="userSpaceOnUse">
<stop stop-color="#3494E6"/>
<stop offset="1" stop-color="#DB61A4"/>
</linearGradient>
<linearGradient id="paint25_linear_57_190" x1="90035.2" y1="8780.39" x2="90294.9" y2="8739.5" gradientUnits="userSpaceOnUse">
<stop stop-color="#3494E6"/>
<stop offset="1" stop-color="#DB61A4"/>
</linearGradient>
<linearGradient id="paint26_linear_57_190" x1="-248963" y1="5337.47" x2="-248880" y2="6458.54" gradientUnits="userSpaceOnUse">
<stop stop-color="#3494E6"/>
<stop offset="1" stop-color="#DB61A4"/>
</linearGradient>
<linearGradient id="paint27_linear_57_190" x1="1.31768e+06" y1="-6442.29" x2="1.31841e+06" y2="-1116.33" gradientUnits="userSpaceOnUse">
<stop stop-color="#F6F6F6"/>
<stop offset="1" stop-color="#C9D6FF"/>
</linearGradient>
<linearGradient id="paint28_linear_57_190" x1="1.32444e+06" y1="12966.5" x2="1.31099e+06" y2="31500.6" gradientUnits="userSpaceOnUse">
<stop stop-color="#F6F6F6"/>
<stop offset="1" stop-color="#C9D6FF"/>
</linearGradient>
<linearGradient id="paint29_linear_57_190" x1="30142.8" y1="35958.6" x2="32541.3" y2="38177.8" gradientUnits="userSpaceOnUse">
<stop stop-color="#F6F6F6"/>
<stop offset="1" stop-color="#C9D6FF"/>
</linearGradient>
<linearGradient id="paint30_linear_57_190" x1="32547.9" y1="36744.2" x2="34559.6" y2="37410" gradientUnits="userSpaceOnUse">
<stop stop-color="#F6F6F6"/>
<stop offset="1" stop-color="#C9D6FF"/>
</linearGradient>
<linearGradient id="paint31_linear_57_190" x1="64519.2" y1="35556.2" x2="64416.5" y2="37739" gradientUnits="userSpaceOnUse">
<stop stop-color="#F6F6F6"/>
<stop offset="1" stop-color="#C9D6FF"/>
</linearGradient>
<linearGradient id="paint32_linear_57_190" x1="41333.1" y1="24202.2" x2="42097.2" y2="22462.9" gradientUnits="userSpaceOnUse">
<stop stop-color="#F6F6F6"/>
<stop offset="1" stop-color="#C9D6FF"/>
</linearGradient>
<linearGradient id="paint33_linear_57_190" x1="34493.1" y1="18617.2" x2="33878.7" y2="19374.2" gradientUnits="userSpaceOnUse">
<stop stop-color="#F6F6F6"/>
<stop offset="1" stop-color="#C9D6FF"/>
</linearGradient>
<linearGradient id="paint34_linear_57_190" x1="28964.2" y1="30454.7" x2="26363.8" y2="30639.4" gradientUnits="userSpaceOnUse">
<stop stop-color="#3494E6"/>
<stop offset="1" stop-color="#DB61A4"/>
</linearGradient>
<linearGradient id="paint35_linear_57_190" x1="31590" y1="28008.7" x2="28297.9" y2="30582.8" gradientUnits="userSpaceOnUse">
<stop stop-color="#3494E6"/>
<stop offset="1" stop-color="#DB61A4"/>
</linearGradient>
<linearGradient id="paint36_linear_57_190" x1="30285.3" y1="25905.1" x2="31834.5" y2="27796.1" gradientUnits="userSpaceOnUse">
<stop stop-color="#F6F6F6"/>
<stop offset="1" stop-color="#C9D6FF"/>
</linearGradient>
<linearGradient id="paint37_linear_57_190" x1="32676.1" y1="26410.3" x2="34350.8" y2="27141.3" gradientUnits="userSpaceOnUse">
<stop stop-color="#F6F6F6"/>
<stop offset="1" stop-color="#C9D6FF"/>
</linearGradient>
<linearGradient id="paint38_linear_57_190" x1="64519.2" y1="33869.5" x2="64416.5" y2="36051.9" gradientUnits="userSpaceOnUse">
<stop stop-color="#F6F6F6"/>
<stop offset="1" stop-color="#C9D6FF"/>
</linearGradient>
<linearGradient id="paint39_linear_57_190" x1="41333.1" y1="23091.9" x2="42097.2" y2="21352.7" gradientUnits="userSpaceOnUse">
<stop stop-color="#F6F6F6"/>
<stop offset="1" stop-color="#C9D6FF"/>
</linearGradient>
<linearGradient id="paint40_linear_57_190" x1="34493.1" y1="17728.1" x2="33878.6" y2="18484.9" gradientUnits="userSpaceOnUse">
<stop stop-color="#F6F6F6"/>
<stop offset="1" stop-color="#C9D6FF"/>
</linearGradient>
<linearGradient id="paint41_linear_57_190" x1="28862.5" y1="28999.8" x2="26262.2" y2="29184.3" gradientUnits="userSpaceOnUse">
<stop stop-color="#3494E6"/>
<stop offset="1" stop-color="#DB61A4"/>
</linearGradient>
<linearGradient id="paint42_linear_57_190" x1="30969.2" y1="27191.3" x2="27677.3" y2="29765.7" gradientUnits="userSpaceOnUse">
<stop stop-color="#3494E6"/>
<stop offset="1" stop-color="#DB61A4"/>
</linearGradient>
<linearGradient id="paint43_linear_57_190" x1="30285.3" y1="24621.7" x2="31834.5" y2="26512.3" gradientUnits="userSpaceOnUse">
<stop stop-color="#F6F6F6"/>
<stop offset="1" stop-color="#C9D6FF"/>
</linearGradient>
<linearGradient id="paint44_linear_57_190" x1="32676.1" y1="25126.9" x2="34350.8" y2="25857.9" gradientUnits="userSpaceOnUse">
<stop stop-color="#F6F6F6"/>
<stop offset="1" stop-color="#C9D6FF"/>
</linearGradient>
<linearGradient id="paint45_linear_57_190" x1="64519.2" y1="32182.8" x2="64416.5" y2="34365.2" gradientUnits="userSpaceOnUse">
<stop stop-color="#F6F6F6"/>
<stop offset="1" stop-color="#C9D6FF"/>
</linearGradient>
<linearGradient id="paint46_linear_57_190" x1="41333.1" y1="21981.7" x2="42097.2" y2="20242.4" gradientUnits="userSpaceOnUse">
<stop stop-color="#F6F6F6"/>
<stop offset="1" stop-color="#C9D6FF"/>
</linearGradient>
<linearGradient id="paint47_linear_57_190" x1="34493.1" y1="16838.9" x2="33878.6" y2="17595.7" gradientUnits="userSpaceOnUse">
<stop stop-color="#F6F6F6"/>
<stop offset="1" stop-color="#C9D6FF"/>
</linearGradient>
<linearGradient id="paint48_linear_57_190" x1="21178.5" y1="12824.4" x2="20898.5" y2="12571.3" gradientUnits="userSpaceOnUse">
<stop stop-color="#F6F6F6"/>
<stop offset="1" stop-color="#C9D6FF"/>
</linearGradient>
<linearGradient id="paint49_linear_57_190" x1="28760.9" y1="27548.7" x2="26160.6" y2="27733.2" gradientUnits="userSpaceOnUse">
<stop stop-color="#3494E6"/>
<stop offset="1" stop-color="#DB61A4"/>
</linearGradient>
<linearGradient id="paint50_linear_57_190" x1="30348.6" y1="26377.9" x2="27056.8" y2="28952.1" gradientUnits="userSpaceOnUse">
<stop stop-color="#3494E6"/>
<stop offset="1" stop-color="#DB61A4"/>
</linearGradient>
<linearGradient id="paint51_linear_57_190" x1="30142.8" y1="30051.5" x2="32541" y2="32270.7" gradientUnits="userSpaceOnUse">
<stop stop-color="#F6F6F6"/>
<stop offset="1" stop-color="#C9D6FF"/>
</linearGradient>
<linearGradient id="paint52_linear_57_190" x1="32547.9" y1="30837.3" x2="34559.5" y2="31503" gradientUnits="userSpaceOnUse">
<stop stop-color="#F6F6F6"/>
<stop offset="1" stop-color="#C9D6FF"/>
</linearGradient>
<linearGradient id="paint53_linear_57_190" x1="64519.2" y1="29656" x2="64416.5" y2="31839" gradientUnits="userSpaceOnUse">
<stop stop-color="#F6F6F6"/>
<stop offset="1" stop-color="#C9D6FF"/>
</linearGradient>
<linearGradient id="paint54_linear_57_190" x1="41333.1" y1="20316.4" x2="42097.2" y2="18577" gradientUnits="userSpaceOnUse">
<stop stop-color="#F6F6F6"/>
<stop offset="1" stop-color="#C9D6FF"/>
</linearGradient>
<linearGradient id="paint55_linear_57_190" x1="33900.7" y1="15282.4" x2="33874.8" y2="16203.3" gradientUnits="userSpaceOnUse">
<stop stop-color="#3494E6"/>
<stop offset="1" stop-color="#DB61A4"/>
</linearGradient>
<linearGradient id="paint56_linear_57_190" x1="21178.5" y1="11811.3" x2="20898.5" y2="11558.2" gradientUnits="userSpaceOnUse">
<stop stop-color="#F6F6F6"/>
<stop offset="1" stop-color="#C9D6FF"/>
</linearGradient>
<linearGradient id="paint57_linear_57_190" x1="3702.89" y1="2309.25" x2="3700.95" y2="2327.12" gradientUnits="userSpaceOnUse">
<stop stop-color="#3494E6"/>
<stop offset="1" stop-color="#DB61A4"/>
</linearGradient>
<linearGradient id="paint58_linear_57_190" x1="4441.28" y1="-1232.59" x2="4446.29" y2="-1234.62" gradientUnits="userSpaceOnUse">
<stop stop-color="#3494E6"/>
<stop offset="1" stop-color="#DB61A4"/>
</linearGradient>
<linearGradient id="paint59_linear_57_190" x1="2907.06" y1="2701.53" x2="2907.06" y2="2713.98" gradientUnits="userSpaceOnUse">
<stop stop-color="#3494E6"/>
<stop offset="1" stop-color="#DB61A4"/>
</linearGradient>
<linearGradient id="paint60_linear_57_190" x1="3658.84" y1="2325.61" x2="3656.91" y2="2343.45" gradientUnits="userSpaceOnUse">
<stop stop-color="#3494E6"/>
<stop offset="1" stop-color="#DB61A4"/>
</linearGradient>
<linearGradient id="paint61_linear_57_190" x1="4437.96" y1="-1218.53" x2="4442.96" y2="-1220.57" gradientUnits="userSpaceOnUse">
<stop stop-color="#3494E6"/>
<stop offset="1" stop-color="#DB61A4"/>
</linearGradient>
<linearGradient id="paint62_linear_57_190" x1="2871.43" y1="2704.26" x2="2871.43" y2="2716.71" gradientUnits="userSpaceOnUse">
<stop stop-color="#3494E6"/>
<stop offset="1" stop-color="#DB61A4"/>
</linearGradient>
<linearGradient id="paint63_linear_57_190" x1="3573.81" y1="2485.78" x2="3571.87" y2="2503.64" gradientUnits="userSpaceOnUse">
<stop stop-color="#3494E6"/>
<stop offset="1" stop-color="#DB61A4"/>
</linearGradient>
<linearGradient id="paint64_linear_57_190" x1="4430.05" y1="-1113.15" x2="4435.06" y2="-1115.17" gradientUnits="userSpaceOnUse">
<stop stop-color="#3494E6"/>
<stop offset="1" stop-color="#DB61A4"/>
</linearGradient>
<linearGradient id="paint65_linear_57_190" x1="2805.56" y1="2909.24" x2="2805.56" y2="2921.69" gradientUnits="userSpaceOnUse">
<stop stop-color="#3494E6"/>
<stop offset="1" stop-color="#DB61A4"/>
</linearGradient>
<linearGradient id="paint66_linear_57_190" x1="3534.32" y1="2502.11" x2="3532.38" y2="2519.97" gradientUnits="userSpaceOnUse">
<stop stop-color="#3494E6"/>
<stop offset="1" stop-color="#DB61A4"/>
</linearGradient>
<linearGradient id="paint67_linear_57_190" x1="4489.7" y1="-1102.09" x2="4494.73" y2="-1104.14" gradientUnits="userSpaceOnUse">
<stop stop-color="#3494E6"/>
<stop offset="1" stop-color="#DB61A4"/>
</linearGradient>
<linearGradient id="paint68_linear_57_190" x1="2770.09" y1="2911.97" x2="2770.09" y2="2924.42" gradientUnits="userSpaceOnUse">
<stop stop-color="#3494E6"/>
<stop offset="1" stop-color="#DB61A4"/>
</linearGradient>
<linearGradient id="paint69_linear_57_190" x1="37521.3" y1="2312.84" x2="37523.2" y2="2330.7" gradientUnits="userSpaceOnUse">
<stop stop-color="#3494E6"/>
<stop offset="1" stop-color="#DB61A4"/>
</linearGradient>
<linearGradient id="paint70_linear_57_190" x1="1124.6" y1="-1230.17" x2="1119.59" y2="-1232.19" gradientUnits="userSpaceOnUse">
<stop stop-color="#3494E6"/>
<stop offset="1" stop-color="#DB61A4"/>
</linearGradient>
<linearGradient id="paint71_linear_57_190" x1="26786" y1="2705.75" x2="26786" y2="2718.2" gradientUnits="userSpaceOnUse">
<stop stop-color="#3494E6"/>
<stop offset="1" stop-color="#DB61A4"/>
</linearGradient>
<linearGradient id="paint72_linear_57_190" x1="37614" y1="2329.19" x2="37616" y2="2347.04" gradientUnits="userSpaceOnUse">
<stop stop-color="#3494E6"/>
<stop offset="1" stop-color="#DB61A4"/>
</linearGradient>
<linearGradient id="paint73_linear_57_190" x1="1138.01" y1="-1219.12" x2="1133" y2="-1221.14" gradientUnits="userSpaceOnUse">
<stop stop-color="#3494E6"/>
<stop offset="1" stop-color="#DB61A4"/>
</linearGradient>
<linearGradient id="paint74_linear_57_190" x1="26870.3" y1="2708.48" x2="26870.3" y2="2720.93" gradientUnits="userSpaceOnUse">
<stop stop-color="#3494E6"/>
<stop offset="1" stop-color="#DB61A4"/>
</linearGradient>
<linearGradient id="paint75_linear_57_190" x1="37681.1" y1="2489.36" x2="37683.1" y2="2507.23" gradientUnits="userSpaceOnUse">
<stop stop-color="#3494E6"/>
<stop offset="1" stop-color="#DB61A4"/>
</linearGradient>
<linearGradient id="paint76_linear_57_190" x1="1172.97" y1="-1110.72" x2="1167.94" y2="-1112.77" gradientUnits="userSpaceOnUse">
<stop stop-color="#3494E6"/>
<stop offset="1" stop-color="#DB61A4"/>
</linearGradient>
<linearGradient id="paint77_linear_57_190" x1="26855.2" y1="2913.46" x2="26855.2" y2="2925.91" gradientUnits="userSpaceOnUse">
<stop stop-color="#3494E6"/>
<stop offset="1" stop-color="#DB61A4"/>
</linearGradient>
<linearGradient id="paint78_linear_57_190" x1="37710.4" y1="2505.7" x2="37712.3" y2="2523.56" gradientUnits="userSpaceOnUse">
<stop stop-color="#3494E6"/>
<stop offset="1" stop-color="#DB61A4"/>
</linearGradient>
<linearGradient id="paint79_linear_57_190" x1="1181.83" y1="-1099.67" x2="1176.82" y2="-1101.7" gradientUnits="userSpaceOnUse">
<stop stop-color="#3494E6"/>
<stop offset="1" stop-color="#DB61A4"/>
</linearGradient>
<linearGradient id="paint80_linear_57_190" x1="26939.4" y1="2916.19" x2="26939.4" y2="2928.64" gradientUnits="userSpaceOnUse">
<stop stop-color="#3494E6"/>
<stop offset="1" stop-color="#DB61A4"/>
</linearGradient>
<linearGradient id="paint81_linear_57_190" x1="438.438" y1="368.323" x2="438.102" y2="305.756" gradientUnits="userSpaceOnUse">
<stop stop-color="#3494E6"/>
<stop offset="0.52" stop-color="#DB61A4"/>
<stop offset="1" stop-color="#DB61A4" stop-opacity="0"/>
</linearGradient>
<linearGradient id="paint82_linear_57_190" x1="499400" y1="50560.5" x2="496387" y2="59621.4" gradientUnits="userSpaceOnUse">
<stop stop-color="#F6F6F6"/>
<stop offset="1" stop-color="#C9D6FF"/>
</linearGradient>
<linearGradient id="paint83_linear_57_190" x1="465373" y1="71658.3" x2="475271" y2="73243.5" gradientUnits="userSpaceOnUse">
<stop stop-color="#F6F6F6"/>
<stop offset="1" stop-color="#C9D6FF"/>
</linearGradient>
<linearGradient id="paint84_linear_57_190" x1="420912" y1="53204.3" x2="433197" y2="73456.1" gradientUnits="userSpaceOnUse">
<stop stop-color="#3494E6"/>
<stop offset="1" stop-color="#DB61A4"/>
</linearGradient>
<linearGradient id="paint85_linear_57_190" x1="456332" y1="14135.1" x2="513225" y2="49756.3" gradientUnits="userSpaceOnUse">
<stop stop-color="#F6F6F6"/>
<stop offset="1" stop-color="#C9D6FF"/>
</linearGradient>
<linearGradient id="paint86_linear_57_190" x1="50714.4" y1="11042.8" x2="50714.4" y2="12307.5" gradientUnits="userSpaceOnUse">
<stop stop-color="#F6F6F6"/>
<stop offset="1" stop-color="#C9D6FF"/>
</linearGradient>
<linearGradient id="paint87_linear_57_190" x1="380.264" y1="325.17" x2="378.994" y2="288.363" gradientUnits="userSpaceOnUse">
<stop stop-color="#FAD6C7"/>
<stop offset="1" stop-color="#E4857F"/>
</linearGradient>
<linearGradient id="paint88_linear_57_190" x1="-132562" y1="71766.6" x2="-130544" y2="64582" gradientUnits="userSpaceOnUse">
<stop stop-color="#FAD6C7"/>
<stop offset="1" stop-color="#E4857F"/>
</linearGradient>
<linearGradient id="paint89_linear_57_190" x1="-493240" y1="14943" x2="-493423" y2="24110.1" gradientUnits="userSpaceOnUse">
<stop stop-color="#FAD6C7"/>
<stop offset="1" stop-color="#E4857F"/>
</linearGradient>
<linearGradient id="paint90_linear_57_190" x1="175025" y1="9437.13" x2="175136" y2="12818.2" gradientUnits="userSpaceOnUse">
<stop stop-color="#3494E6"/>
<stop offset="1" stop-color="#DB61A4"/>
</linearGradient>
<linearGradient id="paint91_linear_57_190" x1="341491" y1="34739.2" x2="341050" y2="27071.4" gradientUnits="userSpaceOnUse">
<stop stop-color="#F6F6F6"/>
<stop offset="1" stop-color="#C9D6FF"/>
</linearGradient>
<linearGradient id="paint92_linear_57_190" x1="21918.7" y1="14671.9" x2="20753.1" y2="16977.5" gradientUnits="userSpaceOnUse">
<stop stop-color="#3494E6"/>
<stop offset="1" stop-color="#DB61A4"/>
</linearGradient>
<linearGradient id="paint93_linear_57_190" x1="-44187.2" y1="4011.17" x2="-44187.2" y2="3939.96" gradientUnits="userSpaceOnUse">
<stop stop-color="#FAD6C7"/>
<stop offset="1" stop-color="#E4857F"/>
</linearGradient>
<linearGradient id="paint94_linear_57_190" x1="7860.94" y1="4306.09" x2="7851.51" y2="4196.17" gradientUnits="userSpaceOnUse">
<stop stop-color="#FAD6C7"/>
<stop offset="1" stop-color="#E4857F"/>
</linearGradient>
<linearGradient id="paint95_linear_57_190" x1="-340278" y1="17099.2" x2="-340615" y2="27944.2" gradientUnits="userSpaceOnUse">
<stop stop-color="#FAD6C7"/>
<stop offset="1" stop-color="#E4857F"/>
</linearGradient>
<linearGradient id="paint96_linear_57_190" x1="164163" y1="9358.87" x2="164274" y2="12605.8" gradientUnits="userSpaceOnUse">
<stop stop-color="#3494E6"/>
<stop offset="1" stop-color="#DB61A4"/>
</linearGradient>
<linearGradient id="paint97_linear_57_190" x1="44952.2" y1="8749.81" x2="44952.2" y2="10014.5" gradientUnits="userSpaceOnUse">
<stop stop-color="#F6F6F6"/>
<stop offset="1" stop-color="#C9D6FF"/>
</linearGradient>
<linearGradient id="paint98_linear_57_190" x1="234995" y1="7946.6" x2="235835" y2="9494.64" gradientUnits="userSpaceOnUse">
<stop stop-color="#3494E6"/>
<stop offset="1" stop-color="#DB61A4"/>
</linearGradient>
<linearGradient id="paint99_linear_57_190" x1="92139.1" y1="-10520.9" x2="91064.8" y2="-11859.7" gradientUnits="userSpaceOnUse">
<stop stop-color="#FAD6C7"/>
<stop offset="1" stop-color="#E4857F"/>
</linearGradient>
<linearGradient id="paint100_linear_57_190" x1="108024" y1="50042.5" x2="103454" y2="41024.5" gradientUnits="userSpaceOnUse">
<stop stop-color="#FAD6C7"/>
<stop offset="1" stop-color="#E4857F"/>
</linearGradient>
<linearGradient id="paint101_linear_57_190" x1="136379" y1="45574.5" x2="135180" y2="36992" gradientUnits="userSpaceOnUse">
<stop stop-color="#FAD6C7"/>
<stop offset="1" stop-color="#E4857F"/>
</linearGradient>
<linearGradient id="paint102_linear_57_190" x1="317645" y1="34330.7" x2="317178" y2="23409.7" gradientUnits="userSpaceOnUse">
<stop stop-color="#F6F6F6"/>
<stop offset="1" stop-color="#C9D6FF"/>
</linearGradient>
<linearGradient id="paint103_linear_57_190" x1="6690.26" y1="-1121.25" x2="6755.78" y2="-1574.07" gradientUnits="userSpaceOnUse">
<stop stop-color="#FAD6C7"/>
<stop offset="1" stop-color="#E4857F"/>
</linearGradient>
<linearGradient id="paint104_linear_57_190" x1="403241" y1="87831.1" x2="403467" y2="87021" gradientUnits="userSpaceOnUse">
<stop stop-color="#FAD6C7"/>
<stop offset="1" stop-color="#E4857F"/>
</linearGradient>
<linearGradient id="paint105_linear_57_190" x1="114169" y1="4064.02" x2="114165" y2="3853.92" gradientUnits="userSpaceOnUse">
<stop stop-color="#F6F6F6"/>
<stop offset="1" stop-color="#C9D6FF"/>
</linearGradient>
<linearGradient id="paint106_linear_57_190" x1="823204" y1="13170" x2="823204" y2="14434.6" gradientUnits="userSpaceOnUse">
<stop stop-color="#F6F6F6"/>
<stop offset="1" stop-color="#C9D6FF"/>
</linearGradient>
<linearGradient id="paint107_linear_57_190" x1="155779" y1="69300.9" x2="152925" y2="58516.7" gradientUnits="userSpaceOnUse">
<stop stop-color="#FAD6C7"/>
<stop offset="1" stop-color="#E4857F"/>
</linearGradient>
<linearGradient id="paint108_linear_57_190" x1="178123" y1="62045" x2="175959" y2="51670.2" gradientUnits="userSpaceOnUse">
<stop stop-color="#FAD6C7"/>
<stop offset="1" stop-color="#E4857F"/>
</linearGradient>
<linearGradient id="paint109_linear_57_190" x1="29571.2" y1="23254.4" x2="29734.4" y2="23079.7" gradientUnits="userSpaceOnUse">
<stop stop-color="#FAD6C7"/>
<stop offset="1" stop-color="#E4857F"/>
</linearGradient>
<linearGradient id="paint110_linear_57_190" x1="365081" y1="58582.8" x2="364147" y2="48167.9" gradientUnits="userSpaceOnUse">
<stop stop-color="#F6F6F6"/>
<stop offset="1" stop-color="#C9D6FF"/>
</linearGradient>
<linearGradient id="paint111_linear_57_190" x1="167003" y1="77336.4" x2="164453" y2="75310.7" gradientUnits="userSpaceOnUse">
<stop stop-color="#FAD6C7"/>
<stop offset="1" stop-color="#E4857F"/>
</linearGradient>
<linearGradient id="paint112_linear_57_190" x1="114171" y1="16547.5" x2="113945" y2="13631.9" gradientUnits="userSpaceOnUse">
<stop stop-color="#F6F6F6"/>
<stop offset="1" stop-color="#C9D6FF"/>
</linearGradient>
<linearGradient id="paint113_linear_57_190" x1="112295" y1="1570.06" x2="112230" y2="1117.25" gradientUnits="userSpaceOnUse">
<stop stop-color="#FAD6C7"/>
<stop offset="1" stop-color="#E4857F"/>
</linearGradient>
<linearGradient id="paint114_linear_57_190" x1="77869.5" y1="13244.7" x2="77869.5" y2="14326.6" gradientUnits="userSpaceOnUse">
<stop stop-color="#F6F6F6"/>
<stop offset="1" stop-color="#C9D6FF"/>
</linearGradient>
<linearGradient id="paint115_linear_57_190" x1="-94132.7" y1="84167.3" x2="-92434.8" y2="78011.1" gradientUnits="userSpaceOnUse">
<stop stop-color="#FAD6C7"/>
<stop offset="1" stop-color="#E4857F"/>
</linearGradient>
<linearGradient id="paint116_linear_57_190" x1="-93800.1" y1="84582.1" x2="-92101.6" y2="78427.2" gradientUnits="userSpaceOnUse">
<stop stop-color="#FAD6C7"/>
<stop offset="1" stop-color="#E4857F"/>
</linearGradient>
<linearGradient id="paint117_linear_57_190" x1="-362526" y1="22805.8" x2="-362644" y2="30649.8" gradientUnits="userSpaceOnUse">
<stop stop-color="#FAD6C7"/>
<stop offset="1" stop-color="#E4857F"/>
</linearGradient>
<linearGradient id="paint118_linear_57_190" x1="-129344" y1="13749.2" x2="-129426" y2="16642.7" gradientUnits="userSpaceOnUse">
<stop stop-color="#3494E6"/>
<stop offset="1" stop-color="#DB61A4"/>
</linearGradient>
<linearGradient id="paint119_linear_57_190" x1="-252747" y1="45799.6" x2="-252401" y2="39236" gradientUnits="userSpaceOnUse">
<stop stop-color="#F6F6F6"/>
<stop offset="1" stop-color="#C9D6FF"/>
</linearGradient>
<linearGradient id="paint120_linear_57_190" x1="30624.9" y1="19545" x2="31622.3" y2="21517.8" gradientUnits="userSpaceOnUse">
<stop stop-color="#3494E6"/>
<stop offset="1" stop-color="#DB61A4"/>
</linearGradient>
<linearGradient id="paint121_linear_57_190" x1="-28776.2" y1="5754.48" x2="-28776.5" y2="5693.5" gradientUnits="userSpaceOnUse">
<stop stop-color="#FAD6C7"/>
<stop offset="1" stop-color="#E4857F"/>
</linearGradient>
<linearGradient id="paint122_linear_57_190" x1="11018.4" y1="5862.99" x2="11026.4" y2="5768.9" gradientUnits="userSpaceOnUse">
<stop stop-color="#FAD6C7"/>
<stop offset="1" stop-color="#E4857F"/>
</linearGradient>
<linearGradient id="paint123_linear_57_190" x1="-248005" y1="24754.2" x2="-248248" y2="34031" gradientUnits="userSpaceOnUse">
<stop stop-color="#FAD6C7"/>
<stop offset="1" stop-color="#E4857F"/>
</linearGradient>
<linearGradient id="paint124_linear_57_190" x1="-121144" y1="13552.2" x2="-121225" y2="16333.1" gradientUnits="userSpaceOnUse">
<stop stop-color="#3494E6"/>
<stop offset="1" stop-color="#DB61A4"/>
</linearGradient>
<linearGradient id="paint125_linear_57_190" x1="81639" y1="45841.9" x2="75665" y2="47530.9" gradientUnits="userSpaceOnUse">
<stop stop-color="#3494E6"/>
<stop offset="1" stop-color="#DB61A4"/>
</linearGradient>
<linearGradient id="paint126_linear_57_190" x1="79678.4" y1="20139.4" x2="79637.6" y2="20684.9" gradientUnits="userSpaceOnUse">
<stop stop-color="#3494E6"/>
<stop offset="1" stop-color="#DB61A4"/>
</linearGradient>
<linearGradient id="paint127_linear_57_190" x1="33673.3" y1="8280.57" x2="33641.7" y2="8508.39" gradientUnits="userSpaceOnUse">
<stop stop-color="#3494E6"/>
<stop offset="1" stop-color="#DB61A4"/>
</linearGradient>
<linearGradient id="paint128_linear_57_190" x1="33680.7" y1="8420.82" x2="33649.1" y2="8648.71" gradientUnits="userSpaceOnUse">
<stop stop-color="#3494E6"/>
<stop offset="1" stop-color="#DB61A4"/>
</linearGradient>
<linearGradient id="paint129_linear_57_190" x1="33680.7" y1="8567.16" x2="33649" y2="8795.17" gradientUnits="userSpaceOnUse">
<stop stop-color="#3494E6"/>
<stop offset="1" stop-color="#DB61A4"/>
</linearGradient>
<linearGradient id="paint130_linear_57_190" x1="33680.6" y1="8692.28" x2="33649.1" y2="8920.09" gradientUnits="userSpaceOnUse">
<stop stop-color="#3494E6"/>
<stop offset="1" stop-color="#DB61A4"/>
</linearGradient>
<linearGradient id="paint131_linear_57_190" x1="22183.2" y1="6110.81" x2="22167.7" y2="6220.4" gradientUnits="userSpaceOnUse">
<stop stop-color="#3494E6"/>
<stop offset="1" stop-color="#DB61A4"/>
</linearGradient>
<linearGradient id="paint132_linear_57_190" x1="23211.8" y1="23476.3" x2="12738.5" y2="33596.6" gradientUnits="userSpaceOnUse">
<stop stop-color="#3494E6"/>
<stop offset="1" stop-color="#DB61A4"/>
</linearGradient>
<linearGradient id="paint133_linear_57_190" x1="1455.72" y1="11510.3" x2="1450.25" y2="11396.2" gradientUnits="userSpaceOnUse">
<stop stop-color="#F6F6F6"/>
<stop offset="1" stop-color="#C9D6FF"/>
</linearGradient>
<linearGradient id="paint134_linear_57_190" x1="969.348" y1="28051.5" x2="-1514.73" y2="31381.2" gradientUnits="userSpaceOnUse">
<stop stop-color="#F6F6F6"/>
<stop offset="1" stop-color="#C9D6FF"/>
</linearGradient>
<linearGradient id="paint135_linear_57_190" x1="299.719" y1="4312.72" x2="1344.36" y2="4312.72" gradientUnits="userSpaceOnUse">
<stop stop-color="#F6F6F6"/>
<stop offset="1" stop-color="#C9D6FF"/>
</linearGradient>
<linearGradient id="paint136_linear_57_190" x1="517.267" y1="1928.99" x2="516.616" y2="1987.2" gradientUnits="userSpaceOnUse">
<stop stop-color="#3494E6"/>
<stop offset="1" stop-color="#EC6EAD"/>
</linearGradient>
<linearGradient id="paint137_linear_57_190" x1="477.928" y1="37694.5" x2="-4769.2" y2="44287.6" gradientUnits="userSpaceOnUse">
<stop stop-color="#3494E6"/>
<stop offset="1" stop-color="#EC6EAD"/>
</linearGradient>
<linearGradient id="paint138_linear_57_190" x1="305.687" y1="33268.2" x2="1282.19" y2="40267.2" gradientUnits="userSpaceOnUse">
<stop stop-color="#3494E6"/>
<stop offset="1" stop-color="#EC6EAD"/>
</linearGradient>
<linearGradient id="paint139_linear_57_190" x1="497.407" y1="23629.9" x2="2069.83" y2="24966.8" gradientUnits="userSpaceOnUse">
<stop stop-color="#3494E6"/>
<stop offset="1" stop-color="#EC6EAD"/>
</linearGradient>
<linearGradient id="paint140_linear_57_190" x1="29858.1" y1="13894.8" x2="29852.6" y2="13780.6" gradientUnits="userSpaceOnUse">
<stop stop-color="#F6F6F6"/>
<stop offset="1" stop-color="#C9D6FF"/>
</linearGradient>
<linearGradient id="paint141_linear_57_190" x1="24157.9" y1="34716.2" x2="21671.9" y2="38040.5" gradientUnits="userSpaceOnUse">
<stop stop-color="#F6F6F6"/>
<stop offset="1" stop-color="#C9D6FF"/>
</linearGradient>
<linearGradient id="paint142_linear_57_190" x1="23538.6" y1="5364.11" x2="24582.8" y2="5364.11" gradientUnits="userSpaceOnUse">
<stop stop-color="#F6F6F6"/>
<stop offset="1" stop-color="#C9D6FF"/>
</linearGradient>
<linearGradient id="paint143_linear_57_190" x1="14853.3" y1="2403.48" x2="14852.6" y2="2461.66" gradientUnits="userSpaceOnUse">
<stop stop-color="#3494E6"/>
<stop offset="1" stop-color="#EC6EAD"/>
</linearGradient>
<linearGradient id="paint144_linear_57_190" x1="12201.9" y1="50248.6" x2="6955.98" y2="56839.6" gradientUnits="userSpaceOnUse">
<stop stop-color="#3494E6"/>
<stop offset="1" stop-color="#EC6EAD"/>
</linearGradient>
<linearGradient id="paint145_linear_57_190" x1="19168.3" y1="43009.6" x2="20146.9" y2="50008.1" gradientUnits="userSpaceOnUse">
<stop stop-color="#3494E6"/>
<stop offset="1" stop-color="#EC6EAD"/>
</linearGradient>
<linearGradient id="paint146_linear_57_190" x1="12890.4" y1="29962.8" x2="14462.9" y2="31299.8" gradientUnits="userSpaceOnUse">
<stop stop-color="#3494E6"/>
<stop offset="1" stop-color="#EC6EAD"/>
</linearGradient>
</defs>
</svg>
