<svg width="520" height="370" viewBox="0 0 520 370" fill="none" xmlns="http://www.w3.org/2000/svg">
<g clip-path="url(#clip0_59_19)">
<path style="mix-blend-mode:multiply" opacity="0.5" d="M259.058 210.572C265.05 210.572 269.907 207.85 269.907 204.492C269.907 201.134 265.05 198.412 259.058 198.412C253.066 198.412 248.208 201.134 248.208 204.492C248.208 207.85 253.066 210.572 259.058 210.572Z" fill="url(#paint0_linear_59_19)"/>
<path d="M244.829 171.474L245.248 172.199C247.81 176.713 248.678 181.992 247.697 187.089L245.847 196.686C245.539 198.309 245.744 199.986 246.433 201.487C247.122 202.988 248.26 204.237 249.691 205.061H249.72C250.924 205.755 252.288 206.12 253.677 206.12C255.066 206.12 256.431 205.755 257.634 205.061C259.062 204.234 260.197 202.984 260.882 201.484C261.568 199.983 261.771 198.307 261.461 196.686L259.619 187.177C258.631 182.036 259.523 176.712 262.131 172.173L262.525 171.491L244.829 171.474Z" fill="url(#paint1_linear_59_19)"/>
<path d="M262.521 171.474C262.521 172.312 261.164 173.049 259.058 173.518C255.503 174.232 251.842 174.232 248.288 173.518C246.194 173.049 244.829 172.308 244.829 171.474C244.829 170.05 248.786 168.895 253.673 168.895C258.56 168.895 262.521 170.05 262.521 171.474Z" fill="url(#paint2_linear_59_19)"/>
<path d="M259.058 173.497V173.517C255.503 174.232 251.842 174.232 248.288 173.517V173.497C248.288 172.626 250.7 171.926 253.673 171.926C256.646 171.926 259.058 172.626 259.058 173.497Z" fill="url(#paint3_linear_59_19)"/>
<path d="M255.658 173.241C255.658 173.241 260.59 108.94 251.91 107.57C243.229 106.201 252.957 173.208 252.957 173.208L255.658 173.241Z" fill="url(#paint4_linear_59_19)"/>
<path d="M250.453 173.241C250.453 173.241 233.896 124.868 242.174 122.465C250.453 120.061 254.175 173.241 254.175 173.241H250.453Z" fill="url(#paint5_linear_59_19)"/>
<path d="M255.658 173.241C255.658 173.241 266.382 141.92 261.018 140.362C255.653 138.804 253.262 173.241 253.262 173.241H255.658Z" fill="url(#paint6_linear_59_19)"/>
<path style="mix-blend-mode:multiply" opacity="0.5" d="M488.042 330.306C488.042 330.306 484.231 352.684 469.244 350.871L421.625 322.941C415.83 319.792 416.697 314.193 422.308 310.722L428.17 307.104L488.042 330.306Z" fill="url(#paint7_linear_59_19)"/>
<path d="M439.451 288.512V282.646L424.209 291.443L429.334 294.4L439.451 288.512Z" fill="url(#paint8_linear_59_19)"/>
<path d="M424.209 302.427V291.443L475.015 320.755V338.342L429.937 312.318C428.201 311.314 426.758 309.873 425.753 308.137C424.748 306.401 424.215 304.433 424.209 302.427Z" fill="url(#paint9_linear_59_19)"/>
<path d="M484.704 332.777L475.015 338.376V320.789L490.253 311.995V323.188C490.25 325.132 489.735 327.042 488.761 328.725C487.788 330.408 486.389 331.805 484.704 332.777Z" fill="url(#paint10_linear_59_19)"/>
<path d="M490.253 311.974L439.451 282.646V288.512L485.173 314.909L490.253 311.974Z" fill="url(#paint11_linear_59_19)"/>
<path d="M429.334 294.399L439.451 288.512L485.173 314.909L475.015 320.776L429.334 294.399Z" fill="url(#paint12_linear_59_19)"/>
<path d="M439.451 296.887C439.451 296.887 443.538 285.43 452.085 288.985C460.631 292.54 449.853 301.351 461.489 295.379C473.126 289.408 470.392 314.474 470.392 314.474L439.451 296.887Z" fill="url(#paint13_linear_59_19)"/>
<path d="M435.699 294.743C435.699 294.743 436.143 279.668 443.019 280.439C449.895 281.209 440.465 304.659 450.062 294.638C459.66 284.618 456.954 306.103 466.539 303.469C476.124 300.836 482.418 285.736 483.013 302.012C483.607 318.289 475.057 317.125 475.057 317.125L435.699 294.743Z" fill="url(#paint14_linear_59_19)"/>
<path style="mix-blend-mode:multiply" opacity="0.5" d="M358.463 256.872C358.463 256.872 354.652 279.249 339.661 277.436L292.042 249.51C286.247 246.357 287.118 240.759 292.725 237.287L298.562 233.657L358.463 256.872Z" fill="url(#paint15_linear_59_19)"/>
<path d="M309.868 215.077V209.211L294.63 218.009L299.751 220.969L309.868 215.077Z" fill="url(#paint16_linear_59_19)"/>
<path d="M294.63 228.992V218.009L345.431 247.321V264.908L300.358 238.916C298.616 237.911 297.17 236.464 296.164 234.722C295.159 232.98 294.629 231.004 294.63 228.992Z" fill="url(#paint17_linear_59_19)"/>
<path d="M355.125 259.343L345.431 264.941V247.354L360.674 238.561V249.753C360.67 251.698 360.156 253.607 359.182 255.29C358.208 256.973 356.809 258.371 355.125 259.343Z" fill="url(#paint18_linear_59_19)"/>
<path d="M360.674 238.539L309.868 209.211V215.077L355.594 241.475L360.674 238.539Z" fill="url(#paint19_linear_59_19)"/>
<path d="M299.751 220.969L309.868 215.078L355.594 241.475L345.431 247.342L299.751 220.969Z" fill="url(#paint20_linear_59_19)"/>
<path d="M309.868 223.44C309.868 223.44 313.959 211.983 322.501 215.538C331.043 219.093 320.273 227.904 331.91 221.937C343.547 215.97 340.813 241.035 340.813 241.035L309.868 223.44Z" fill="url(#paint21_linear_59_19)"/>
<path d="M306.12 221.308C306.12 221.308 306.56 206.234 313.436 207.004C320.311 207.775 310.885 231.224 320.483 221.204C330.08 211.183 327.371 232.669 336.956 230.035C346.541 227.401 352.839 212.301 353.417 228.578C353.995 244.854 345.461 243.69 345.461 243.69L306.12 221.308Z" fill="url(#paint22_linear_59_19)"/>
<path d="M142.715 179.61L190.954 207.461V235.311L142.715 207.461V179.61Z" fill="url(#paint23_linear_59_19)"/>
<path d="M239.193 179.61L190.954 207.461V235.311L239.193 207.461V179.61Z" fill="url(#paint24_linear_59_19)"/>
<path d="M142.715 179.61L190.954 151.76L239.193 179.61L190.954 207.461L142.715 179.61Z" fill="url(#paint25_linear_59_19)"/>
<path d="M159.398 179.61L190.954 161.391L222.51 179.61L190.954 197.83L159.398 179.61Z" fill="url(#paint26_linear_59_19)"/>
<path d="M165.792 183.303L190.954 168.773L216.116 183.303L190.954 197.83L165.792 183.303Z" fill="url(#paint27_linear_59_19)"/>
<path d="M149.252 151.76L190.954 175.833V199.907L149.252 175.833V151.76Z" fill="url(#paint28_linear_59_19)"/>
<path d="M232.652 151.76L190.954 175.833V199.907L232.656 175.833L232.652 151.76Z" fill="url(#paint29_linear_59_19)"/>
<path d="M142.715 151.76L190.954 179.61V193.981L142.715 166.131V151.76Z" fill="url(#paint30_linear_59_19)"/>
<path d="M239.193 151.76L190.954 179.61V193.981L239.193 166.131V151.76Z" fill="url(#paint31_linear_59_19)"/>
<path d="M142.715 151.76L190.954 123.909L239.193 151.76L190.954 179.61L142.715 151.76Z" fill="url(#paint32_linear_59_19)"/>
<path d="M159.398 151.76L190.954 133.541L222.51 151.76L190.954 169.979L159.398 151.76Z" fill="url(#paint33_linear_59_19)"/>
<path d="M165.792 155.453L190.954 140.923L216.116 155.453L190.954 169.979L165.792 155.453Z" fill="url(#paint34_linear_59_19)"/>
<path d="M149.252 123.909L190.954 147.983V172.056L149.252 147.983V123.909Z" fill="url(#paint35_linear_59_19)"/>
<path d="M232.652 123.909L190.954 147.983V172.056L232.656 147.983L232.652 123.909Z" fill="url(#paint36_linear_59_19)"/>
<path d="M142.715 123.909L190.954 151.76V166.131L142.715 138.281V123.909Z" fill="url(#paint37_linear_59_19)"/>
<path d="M239.193 123.909L190.954 151.76V166.131L239.193 138.281V123.909Z" fill="url(#paint38_linear_59_19)"/>
<path d="M142.715 123.909L190.954 96.0591L239.193 123.909L190.954 151.76L142.715 123.909Z" fill="url(#paint39_linear_59_19)"/>
<path d="M159.398 123.909L190.954 105.69L222.51 123.909L190.954 142.129L159.398 123.909Z" fill="url(#paint40_linear_59_19)"/>
<path d="M165.792 127.603L190.954 113.073L216.116 127.603L190.954 142.129L165.792 127.603Z" fill="url(#paint41_linear_59_19)"/>
<path d="M190.954 105.69V113.072L165.792 127.603L159.398 123.909L190.954 105.69Z" fill="url(#paint42_linear_59_19)"/>
<path d="M149.252 96.0591L190.954 120.132V144.206L149.252 120.132V96.0591Z" fill="url(#paint43_linear_59_19)"/>
<path d="M232.652 96.0591L190.954 120.132V144.206L232.656 120.132L232.652 96.0591Z" fill="url(#paint44_linear_59_19)"/>
<path d="M142.715 82.1318L190.954 109.982V137.833L142.715 109.982V82.1318Z" fill="url(#paint45_linear_59_19)"/>
<path d="M239.193 82.1318L190.954 109.982V137.833L239.193 109.982V82.1318Z" fill="url(#paint46_linear_59_19)"/>
<path d="M142.715 82.1317L190.954 54.2812L239.193 82.1317L190.954 109.982L142.715 82.1317Z" fill="url(#paint47_linear_59_19)"/>
<path d="M159.398 82.1317L190.954 63.9124L222.51 82.1317L190.954 100.355L159.398 82.1317Z" fill="url(#paint48_linear_59_19)"/>
<path d="M165.792 85.8249L190.954 71.2988L216.116 85.8249L190.954 100.355L165.792 85.8249Z" fill="url(#paint49_linear_59_19)"/>
<path d="M190.954 63.9124V71.2989L165.792 85.825L159.398 82.1317L190.954 63.9124Z" fill="url(#paint50_linear_59_19)"/>
<path d="M227.753 139.516L232.334 136.874L231.212 136.22L227.753 138.218V139.516Z" fill="url(#paint51_linear_59_19)"/>
<path d="M232.334 133.541V136.874L231.212 136.22V134.227L232.334 133.541Z" fill="url(#paint52_linear_59_19)"/>
<path d="M227.753 138.218V136.22L231.212 134.227V136.22L227.753 138.218Z" fill="url(#paint53_linear_59_19)"/>
<path d="M220.743 143.36L225.324 140.718L224.202 140.069L220.743 142.062V143.36Z" fill="url(#paint54_linear_59_19)"/>
<path d="M225.324 137.385V140.718L224.202 140.069V138.071L225.324 137.385Z" fill="url(#paint55_linear_59_19)"/>
<path d="M220.743 142.062V140.069L224.202 138.071V140.069L220.743 142.062Z" fill="url(#paint56_linear_59_19)"/>
<path d="M204.823 181.051L209.404 178.409L208.281 177.755L204.823 179.753V181.051Z" fill="url(#paint57_linear_59_19)"/>
<path d="M209.404 175.075V178.408L208.281 177.755V175.758L209.404 175.075Z" fill="url(#paint58_linear_59_19)"/>
<path d="M204.823 179.753V177.755L208.281 175.758V177.755L204.823 179.753Z" fill="url(#paint59_linear_59_19)"/>
<path d="M197.813 184.895L202.394 182.253L201.272 181.599L197.813 183.597V184.895Z" fill="url(#paint60_linear_59_19)"/>
<path d="M202.394 178.919V182.253L201.272 181.599V179.602L202.394 178.919Z" fill="url(#paint61_linear_59_19)"/>
<path d="M197.813 183.597V181.599L201.272 179.602V181.599L197.813 183.597Z" fill="url(#paint62_linear_59_19)"/>
<path d="M154.151 140.362L149.574 137.715L150.696 137.066L154.151 139.064V140.362Z" fill="url(#paint63_linear_59_19)"/>
<path d="M149.574 134.382V137.715L150.696 137.066V135.069L149.574 134.382Z" fill="url(#paint64_linear_59_19)"/>
<path d="M154.151 139.064V137.066L150.696 135.069V137.066L154.151 139.064Z" fill="url(#paint65_linear_59_19)"/>
<path d="M161.161 144.206L156.584 141.564L157.706 140.91L161.161 142.908V144.206Z" fill="url(#paint66_linear_59_19)"/>
<path d="M156.584 138.226V141.563L157.706 140.91V138.913L156.584 138.226Z" fill="url(#paint67_linear_59_19)"/>
<path d="M161.161 142.908V140.91L157.706 138.913V140.91L161.161 142.908Z" fill="url(#paint68_linear_59_19)"/>
<path d="M177.081 181.892L172.504 179.25L173.627 178.601L177.081 180.594V181.892Z" fill="url(#paint69_linear_59_19)"/>
<path d="M172.504 175.917V179.25L173.626 178.601V176.604L172.504 175.917Z" fill="url(#paint70_linear_59_19)"/>
<path d="M177.081 180.594V178.601L173.626 176.604V178.601L177.081 180.594Z" fill="url(#paint71_linear_59_19)"/>
<path d="M184.091 185.741L179.514 183.094L180.636 182.445L184.091 184.442V185.741Z" fill="url(#paint72_linear_59_19)"/>
<path d="M179.514 179.761V183.094L180.636 182.445V180.448L179.514 179.761Z" fill="url(#paint73_linear_59_19)"/>
<path d="M184.091 184.443V182.445L180.636 180.448V182.445L184.091 184.443Z" fill="url(#paint74_linear_59_19)"/>
<path d="M300.651 0L520 126.64V301.987L300.651 175.347V0Z" fill="white"/>
<path d="M397.46 179.183L430.984 198.533V265.95C430.984 269.156 430.14 272.305 428.537 275.08C426.934 277.856 424.628 280.16 421.851 281.762L393.658 298.001L359.74 278.42L387.992 262.27C390.778 260.68 393.097 258.384 394.714 255.613C396.331 252.843 397.19 249.695 397.204 246.487L397.46 179.183Z" fill="url(#paint75_linear_59_19)"/>
<path d="M393.884 177.818L427.408 197.172V264.564C427.409 267.769 426.565 270.918 424.963 273.694C423.36 276.469 421.055 278.774 418.28 280.376L393.658 294.588L359.74 275.008L384.404 260.905C387.19 259.316 389.509 257.021 391.126 254.251C392.744 251.481 393.602 248.334 393.616 245.126L393.884 177.818Z" fill="url(#paint76_linear_59_19)"/>
<path d="M359.74 275.008V278.42L393.662 298.001V294.588L359.74 275.008Z" fill="url(#paint77_linear_59_19)"/>
<path d="M294.039 3.98633L513.388 130.626V305.973L294.039 179.334V3.98633Z" fill="url(#paint78_linear_59_19)"/>
<path d="M294.039 3.98633L513.388 130.626V286.393L294.044 159.754L294.039 3.98633Z" fill="#1D1D1B"/>
<path d="M297.649 12.4492L508.066 133.93V277.001L297.649 155.516V12.4492Z" fill="url(#paint79_linear_59_19)"/>
<path d="M513.388 305.974L520 301.987V126.64L513.388 130.626V305.974Z" fill="url(#paint80_linear_59_19)"/>
<path d="M294.039 3.98641L300.651 0L520 126.64L513.388 130.626L294.039 3.98641Z" fill="url(#paint81_linear_59_19)"/>
<path d="M390.861 225.906C390.861 223.046 392.887 221.874 395.362 223.306C397.837 224.738 399.863 228.243 399.863 231.103C399.863 233.963 397.837 235.131 395.362 233.703C392.887 232.275 390.861 228.762 390.861 225.906Z" fill="url(#paint82_linear_59_19)"/>
<path d="M365.887 147.175C365.913 149.351 366.361 151.501 367.206 153.506C367.496 154.198 367.855 154.858 368.278 155.478C368.658 156.067 369.145 156.58 369.714 156.99C369.948 157.154 370.207 157.28 370.48 157.363C371.318 157.597 372.026 157.262 372.574 156.471L396.409 199.157C396.305 199.794 396.256 200.438 396.262 201.083C396.262 205.074 397.992 209.479 400.09 210.899C400.325 211.064 400.585 211.19 400.86 211.271C402.585 211.765 403.883 209.73 403.867 206.246C403.864 205.511 403.81 204.776 403.703 204.048L427.571 194.086C428.258 195.849 429.209 197.294 430.251 198.001C430.485 198.163 430.742 198.287 431.014 198.37C431.193 198.424 431.379 198.448 431.566 198.441C431.969 198.429 432.354 198.271 432.651 197.997C433.488 197.248 434.041 195.598 434.033 193.337C434.033 189.752 432.634 185.833 430.833 184.045L430.72 148.812C432.592 149.352 433.882 147.313 433.873 143.821C433.847 141.561 433.365 139.331 432.454 137.263C432.157 136.589 431.792 135.946 431.365 135.345C431.007 134.826 430.56 134.372 430.046 134.005C429.812 133.841 429.554 133.715 429.28 133.633C428.442 133.394 427.701 133.75 427.186 134.583L403.318 92.2904C403.483 91.51 403.562 90.7138 403.553 89.9162C403.553 85.9256 401.823 81.5414 399.725 80.1009C399.492 79.9358 399.233 79.81 398.959 79.7282C397.23 79.2341 395.931 81.2692 395.944 84.7531C395.951 85.6589 396.035 86.5625 396.195 87.454L372.478 97.5038C371.774 95.4771 370.736 93.7937 369.58 93.0107C369.347 92.8493 369.09 92.725 368.818 92.6422C368.579 92.5565 368.325 92.5222 368.073 92.5417C367.668 92.5886 367.293 92.7769 367.013 93.0735C366.222 93.8607 365.724 95.4729 365.732 97.6419C365.732 101.231 367.126 105.15 368.931 106.938L369.044 142.171C367.172 141.643 365.878 143.682 365.887 147.175ZM372.084 101.951C372.132 102.88 371.936 103.805 371.515 104.635C371.419 104.828 371.278 104.995 371.105 105.123C370.932 105.251 370.731 105.336 370.518 105.372C370.404 105.389 370.289 105.389 370.175 105.372L370.07 105.347C369.883 105.289 369.707 105.203 369.547 105.091C369.309 104.93 369.095 104.737 368.91 104.518C367.805 103.236 366.976 100.77 366.971 98.5004C366.971 97.2441 367.223 96.235 367.65 95.6571C367.779 95.4292 367.983 95.2523 368.226 95.1556C368.47 95.0589 368.739 95.0482 368.99 95.1253C369.174 95.1796 369.348 95.2645 369.505 95.3766C370.192 95.8414 370.82 96.7919 371.284 97.9518C371.598 98.7493 371.821 99.5794 371.95 100.427C372.034 100.933 372.079 101.446 372.084 101.959V101.951ZM383.11 110.326C384.483 113.696 386.08 116.971 387.892 120.128C386.72 125.155 386.14 130.301 386.162 135.463L378.931 130.563C379.002 121.954 380.543 115.02 383.11 110.33V110.326ZM383.729 109.258C386.661 104.585 390.739 102.558 395.387 103.89C396.16 104.117 396.912 104.414 397.632 104.777C393.549 106.791 390.27 111.611 388.285 118.638C386.561 115.616 385.039 112.484 383.729 109.262V109.258ZM399.139 106.327L399.219 131.66C395.617 129.094 392.209 125.099 389.169 120.132C391.229 112.796 394.746 107.956 399.139 106.335V106.327ZM399.227 133.578L399.26 144.344L387.163 136.145C387.145 131.261 387.688 126.392 388.779 121.632C391.941 126.774 395.483 130.915 399.227 133.578ZM399.269 146.044L399.302 156.814C397.921 155.9 396.413 155.194 394.826 154.72C392.895 154.131 390.837 154.098 388.888 154.624C387.836 149.092 387.262 143.48 387.171 137.849L399.269 146.044ZM399.307 158.715L399.39 184.049C394.968 176.457 391.405 166.814 389.286 156.647C391.173 156.124 393.171 156.15 395.044 156.722C396.554 157.17 397.99 157.838 399.307 158.703V158.715ZM397.887 183.567C392.301 178.802 387.335 170.226 383.897 160.181C385.124 158.76 386.669 157.648 388.407 156.936C390.446 166.696 393.771 175.984 397.887 183.563V183.567ZM383.26 158.263C380.585 149.848 379.137 141.092 378.96 132.263L386.187 137.163C386.285 143.12 386.899 149.058 388.021 154.909C386.192 155.634 384.561 156.782 383.26 158.259V158.263ZM378.039 130.806C378.039 132.925 378.139 135.065 378.307 137.209C376.499 138.463 374.885 139.975 373.516 141.698C372.778 142.616 372.091 143.575 371.46 144.57C371.14 144.011 370.75 143.495 370.3 143.033L370.166 107.801C370.538 107.939 370.944 107.95 371.322 107.83C371.984 109.748 372.682 111.64 373.416 113.508C374.934 117.416 376.554 121.101 378.273 124.563C378.122 126.539 378.03 128.62 378.039 130.806ZM402.229 89.0536C402.231 89.474 402.2 89.894 402.137 90.3098C402.068 90.8976 401.854 91.4589 401.513 91.9429C401.377 92.1531 401.177 92.3139 400.943 92.4014C400.708 92.4889 400.451 92.4985 400.211 92.4286C400.025 92.3736 399.85 92.2887 399.692 92.1774C398.976 91.6916 398.327 90.6867 397.862 89.4723C397.555 88.6616 397.342 87.8188 397.225 86.9599C397.163 86.5004 397.129 86.0375 397.125 85.5738C397.125 83.2289 397.987 81.8638 399.147 82.1946C399.331 82.2515 399.505 82.3362 399.662 82.4459C401.069 83.4257 402.221 86.3736 402.229 89.0536ZM427.199 144.084C426.581 145.062 425.908 146.003 425.18 146.903C423.933 148.467 422.48 149.854 420.859 151.027C420.141 144.532 418.775 138.126 416.781 131.903C416.574 131.258 416.362 130.619 416.144 129.985C412.551 119.576 407.397 110.723 401.605 105.766C401.018 105.263 400.406 104.791 399.771 104.35L399.579 104.212L399.39 104.091C398.799 103.694 398.186 103.334 397.552 103.01C396.8 102.631 396.015 102.321 395.207 102.085C390.379 100.703 386.141 102.792 383.085 107.625C382.871 107.964 382.666 108.316 382.461 108.684C380.576 112.084 379.215 116.64 378.533 122.126C377.045 119.055 375.635 115.815 374.304 112.407C373.613 110.64 372.955 108.843 372.327 107.034C372.959 106.172 373.34 104.702 373.336 102.792C373.329 101.838 373.237 100.887 373.06 99.9492L396.756 89.9204C397.46 92.0141 398.519 93.7477 399.688 94.5516C399.923 94.7131 400.181 94.8374 400.454 94.9201C401.316 95.1672 402.074 94.7819 402.615 93.8984L426.483 136.158C426.301 136.973 426.216 137.806 426.227 138.641C426.247 140.497 426.576 142.336 427.199 144.084ZM416.14 132.67C418.838 141.099 420.302 149.875 420.486 158.724L413.255 153.824C413.158 147.851 412.542 141.898 411.412 136.032C413.231 135.3 414.851 134.148 416.14 132.67ZM411.006 133.997C408.967 124.257 405.65 114.982 401.538 107.42C407.108 112.189 412.061 120.723 415.503 130.743C414.281 132.166 412.74 133.281 411.006 133.997ZM420.491 160.424C420.419 169.05 418.87 175.997 416.303 180.687C414.931 177.318 413.338 174.043 411.534 170.884C412.711 165.848 413.293 160.692 413.267 155.52L420.491 160.424ZM415.667 181.75C412.735 186.402 408.665 188.412 404.026 187.085C403.255 186.861 402.507 186.566 401.79 186.206C405.868 184.191 409.143 179.38 411.128 172.387C412.847 175.405 414.363 178.535 415.667 181.754V181.75ZM400.282 184.665L400.203 159.331C403.8 161.906 407.208 165.913 410.252 170.884C408.184 178.203 404.666 183.031 400.282 184.665ZM400.194 157.446L400.161 146.676L412.258 154.875C412.276 159.769 411.731 164.649 410.633 169.418C407.476 164.234 403.938 160.084 400.194 157.417V157.446ZM400.157 144.976L400.123 134.206C401.488 135.106 402.978 135.802 404.545 136.271C406.49 136.863 408.563 136.894 410.525 136.359C411.581 141.904 412.16 147.531 412.254 153.175L400.157 144.976ZM400.115 132.305L400.035 106.971C404.449 114.551 407.991 124.182 410.127 134.336C408.231 134.868 406.223 134.845 404.34 134.269C402.841 133.815 401.418 133.144 400.115 132.276V132.305ZM430.683 146.4L430.574 146.375C430.39 146.316 430.215 146.232 430.055 146.124C429.822 145.959 429.611 145.767 429.426 145.55C429.264 145.357 429.115 145.153 428.983 144.939C428.562 144.267 428.234 143.542 428.007 142.782C427.677 141.731 427.502 140.638 427.488 139.537C427.486 139.077 427.524 138.617 427.601 138.163C427.681 137.59 427.906 137.047 428.254 136.585C428.395 136.395 428.592 136.253 428.816 136.178C429.041 136.103 429.283 136.099 429.51 136.166C429.692 136.223 429.865 136.308 430.021 136.417C430.28 136.598 430.511 136.815 430.708 137.062C431.166 137.644 431.534 138.292 431.797 138.984C432.305 140.264 432.573 141.627 432.588 143.004C432.592 145.236 431.784 146.588 430.679 146.371L430.683 146.4ZM427.651 189.053C427.611 188.174 427.781 187.299 428.145 186.499C428.234 186.297 428.367 186.117 428.533 185.973C428.7 185.828 428.896 185.722 429.108 185.661C429.257 185.628 429.412 185.628 429.56 185.661L429.665 185.686C429.85 185.743 430.025 185.828 430.184 185.938C430.418 186.099 430.629 186.291 430.812 186.507C431.918 187.797 432.743 190.276 432.747 192.52C432.747 193.894 432.462 194.932 431.981 195.485C431.858 195.65 431.692 195.779 431.502 195.859C431.312 195.938 431.105 195.965 430.9 195.937L430.729 195.899C430.546 195.846 430.373 195.762 430.218 195.652C429.543 195.123 429.014 194.429 428.681 193.638C428.016 192.205 427.665 190.646 427.651 189.066V189.053ZM426.164 177.412C424.607 173.412 422.943 169.643 421.173 166.106C421.321 164.238 421.394 162.284 421.391 160.244C421.391 158.125 421.286 155.985 421.119 153.841C422.996 152.567 424.668 151.013 426.077 149.235C426.831 148.3 427.53 147.321 428.17 146.304C428.508 146.93 428.931 147.506 429.426 148.016L429.54 183.253C429.135 183.102 428.688 183.102 428.283 183.253C427.618 181.231 426.906 179.288 426.16 177.383L426.164 177.412ZM397.502 201.959C397.502 201.699 397.502 201.456 397.531 201.226C397.565 200.576 397.733 199.94 398.025 199.358C398.389 198.701 398.913 198.408 399.52 198.583C399.706 198.639 399.881 198.723 400.039 198.835C400.843 199.379 401.564 200.577 402.032 202.005C402.305 202.828 402.482 203.679 402.56 204.542C402.589 204.835 402.602 205.128 402.602 205.422C402.602 207.762 401.744 209.127 400.584 208.797C400.4 208.742 400.226 208.659 400.069 208.55C398.641 207.565 397.506 204.609 397.498 201.929L397.502 201.959ZM372.457 146.727C373.055 145.787 373.707 144.883 374.408 144.017C375.613 142.502 377.012 141.151 378.57 140.002C379.285 146.466 380.643 152.843 382.624 159.038C382.833 159.687 383.043 160.323 383.26 160.96C386.857 171.395 392.02 180.285 397.82 185.247C398.423 185.757 399.039 186.235 399.658 186.666L399.847 186.796L400.035 186.922C400.628 187.312 401.241 187.67 401.873 187.994C402.625 188.371 403.41 188.68 404.218 188.915C409.034 190.297 413.263 188.224 416.316 183.413C416.533 183.073 416.734 182.722 416.948 182.353C418.878 178.882 420.269 174.204 420.939 168.535C422.467 171.675 423.924 174.996 425.285 178.497C426.003 180.331 426.684 182.188 427.329 184.07C426.747 184.945 426.391 186.373 426.395 188.203C426.411 189.367 426.551 190.527 426.814 191.662L403.121 201.527C402.422 199.233 401.296 197.281 400.027 196.423C399.792 196.258 399.532 196.132 399.256 196.05C398.297 195.774 397.472 196.28 396.932 197.378L373.215 154.896C373.413 154.055 373.507 153.193 373.495 152.329C373.473 150.406 373.12 148.501 372.453 146.697L372.457 146.727ZM367.143 148.054C367.143 145.785 367.951 144.432 369.057 144.646L369.166 144.671C369.349 144.727 369.523 144.812 369.681 144.922C369.914 145.085 370.125 145.278 370.309 145.496C370.432 145.638 370.546 145.788 370.652 145.944C371.08 146.593 371.418 147.297 371.657 148.037C372.033 149.154 372.232 150.322 372.248 151.5C372.251 151.986 372.207 152.472 372.118 152.949C372.036 153.515 371.805 154.048 371.448 154.494C371.305 154.673 371.113 154.804 370.895 154.872C370.677 154.94 370.444 154.941 370.225 154.875C370.041 154.821 369.867 154.737 369.71 154.628C369.4 154.407 369.128 154.139 368.902 153.833C368.456 153.218 368.101 152.542 367.847 151.827C367.393 150.61 367.154 149.324 367.139 148.025L367.143 148.054Z" fill="url(#paint83_linear_59_19)"/>
<path opacity="0.2" d="M426.462 236.203L368.031 46.7021L513.388 130.626V286.393L426.462 236.203Z" fill="url(#paint84_linear_59_19)"/>
<path opacity="0.2" d="M355.544 39.4956L382.724 210.953L348.656 191.285L319.147 18.479L355.544 39.4956Z" fill="url(#paint85_linear_59_19)"/>
<path style="mix-blend-mode:multiply" opacity="0.5" d="M279.187 238.828C287.39 238.828 294.039 237.064 294.039 234.888C294.039 232.712 287.39 230.948 279.187 230.948C270.984 230.948 264.334 232.712 264.334 234.888C264.334 237.064 270.984 238.828 279.187 238.828Z" fill="url(#paint86_linear_59_19)"/>
<path d="M282.038 234.888L277.524 232.087L278.002 227.037L281.578 189.409L277.591 188.027L277.478 191.875L276.457 227.355L276.318 232.208L276.276 233.594L282.038 234.888Z" fill="url(#paint87_linear_59_19)"/>
<path d="M276.457 227.355L278.006 227.037L279.195 226.794L282.269 188.048L277.478 191.871L276.457 227.355Z" fill="#1D1D1B"/>
<path d="M276.318 232.208L276.276 233.594L282.038 234.888L277.524 232.087L276.318 232.208Z" fill="#1D1D1B"/>
<path d="M276.046 235.96L271.536 233.159L272.014 228.109L275.586 190.477L271.599 189.095L271.49 192.943L270.469 228.423L270.326 233.276L270.288 234.666L276.046 235.96Z" fill="url(#paint88_linear_59_19)"/>
<path d="M270.469 228.423L272.014 228.109L273.203 227.866L276.276 189.12L271.49 192.943L270.469 228.423Z" fill="#1D1D1B"/>
<path d="M270.326 233.276L270.288 234.666L276.046 235.96L271.536 233.159L270.326 233.276Z" fill="#1D1D1B"/>
<path d="M287.013 175.025L284.777 177.257L279.233 173.782L283.893 167.094L287.013 175.025Z" fill="url(#paint89_linear_59_19)"/>
<path d="M279.543 165.402L276.046 166.03C274.63 166.286 273.349 167.028 272.423 168.13C271.498 169.231 270.987 170.622 270.979 172.06L269.832 194.81C271.704 195.735 273.823 196.036 275.879 195.669C277.934 195.302 279.818 194.286 281.255 192.771L284.722 189.111L284.806 170.113C284.852 169.434 284.742 168.753 284.485 168.122C284.228 167.491 283.831 166.928 283.324 166.473C282.816 166.019 282.212 165.687 281.557 165.501C280.902 165.316 280.213 165.282 279.543 165.402Z" fill="url(#paint90_linear_59_19)"/>
<path d="M280.167 174.364L276.553 186.469L284.722 189.12L288.692 177.437L280.167 174.364Z" fill="url(#paint91_linear_59_19)"/>
<path d="M277.344 163.874C277.344 163.874 277.478 166.144 277.817 166.386C278.157 166.629 279.911 168.514 279.015 164.758C278.119 161.001 277.344 163.874 277.344 163.874Z" fill="url(#paint92_linear_59_19)"/>
<path d="M279.287 165.44C280.506 165.44 281.494 164.452 281.494 163.233C281.494 162.015 280.506 161.027 279.287 161.027C278.068 161.027 277.08 162.015 277.08 163.233C277.08 164.452 278.068 165.44 279.287 165.44Z" fill="url(#paint93_linear_59_19)"/>
<path d="M279.3 184.422L279.811 185.724L281.507 181.955L272.294 181.8L274.329 175.452L272.353 168.216C270.385 170.444 268.881 173.015 268.249 174.971C262.902 191.523 273.019 186.03 277.043 183.647C277.237 183.527 277.455 183.451 277.682 183.425C277.909 183.4 278.139 183.425 278.355 183.499C278.571 183.573 278.768 183.694 278.931 183.854C279.095 184.014 279.22 184.207 279.3 184.422Z" fill="url(#paint94_linear_59_19)"/>
<path d="M268.052 174.296L273.437 178.161L275.02 173.476C275.104 173.107 275.221 172.747 275.33 172.387C275.816 170.741 274.149 167.89 272.374 168.225C270.687 170.061 269.235 172.101 268.052 174.296Z" fill="url(#paint95_linear_59_19)"/>
<path d="M283.558 158.924C283.565 159.803 283.381 160.673 283.02 161.474C282.659 162.275 282.128 162.988 281.465 163.564C281.481 163.393 281.481 163.22 281.465 163.049L279.882 163.083C279.882 163.083 279.614 163.685 279.27 163.648C278.927 163.61 278.852 164.247 278.852 164.247C278.852 164.247 278.332 162.731 278.119 163.828C278.085 163.992 278.091 164.162 278.139 164.323C278.186 164.484 278.273 164.63 278.391 164.749C278.294 164.867 278.172 164.961 278.033 165.025C277.895 165.089 277.744 165.12 277.591 165.118C274.313 165.118 271.654 162.186 271.654 158.908C271.633 158.115 271.77 157.326 272.059 156.587C272.348 155.849 272.782 155.176 273.335 154.607C273.888 154.039 274.55 153.588 275.281 153.279C276.011 152.971 276.796 152.812 277.589 152.812C278.382 152.812 279.167 152.971 279.898 153.279C280.628 153.588 281.29 154.039 281.843 154.607C282.396 155.176 282.83 155.849 283.119 156.587C283.408 157.326 283.546 158.115 283.525 158.908L283.558 158.924Z" fill="#1D1D1B"/>
<path opacity="0.4" d="M371.423 293.118C367.076 290.606 359.962 290.606 355.615 293.118C351.905 295.258 351.373 298.562 353.995 301.045L348.434 304.252L232.623 237.769C235.169 235.294 234.612 232.032 230.948 229.909C226.605 227.397 219.491 227.397 215.145 229.909C210.798 232.422 210.798 236.525 215.145 239.034C218.31 240.863 222.946 241.353 226.907 240.516L295.681 279.999L158.648 359.074L89.6104 318.984C91.3859 316.622 90.6196 313.758 87.2864 311.836C82.9441 309.323 75.8297 309.323 71.4832 311.836C67.1366 314.348 67.1366 318.452 71.4832 320.96C75.009 322.999 80.3604 323.38 84.5772 322.112L158.64 365.141L300.919 283.026L348.446 310.286L359.782 303.754C363.722 304.558 368.295 304.06 371.431 302.247C375.778 299.738 375.777 295.631 371.423 293.118Z" fill="url(#paint96_linear_59_19)"/>
<path opacity="0.4" d="M110.878 249.728L176.763 211.686V154.628L110.878 192.667V249.728Z" fill="url(#paint97_linear_59_19)"/>
<path opacity="0.4" d="M176.763 145.119V154.628L110.878 192.667V183.157L176.763 145.119Z" fill="url(#paint98_linear_59_19)"/>
<g opacity="0.4">
<path opacity="0.4" d="M117.792 230.55C117.849 230.549 117.905 230.533 117.955 230.504L125.911 225.898C125.986 225.853 126.041 225.781 126.064 225.696C126.087 225.612 126.075 225.522 126.032 225.446C125.987 225.371 125.915 225.317 125.831 225.294C125.746 225.272 125.657 225.282 125.58 225.324L117.624 229.93C117.587 229.952 117.554 229.98 117.527 230.014C117.501 230.048 117.481 230.087 117.47 230.129C117.459 230.171 117.456 230.214 117.461 230.257C117.467 230.3 117.481 230.341 117.503 230.378C117.531 230.43 117.573 230.473 117.624 230.504C117.675 230.534 117.733 230.55 117.792 230.55Z" fill="url(#paint99_linear_59_19)"/>
</g>
<g opacity="0.4">
<path opacity="0.4" d="M117.792 232.527C117.849 232.528 117.906 232.512 117.955 232.48L125.911 227.874C125.953 227.855 125.99 227.827 126.021 227.793C126.051 227.758 126.074 227.718 126.088 227.674C126.102 227.63 126.107 227.583 126.102 227.538C126.097 227.492 126.082 227.447 126.059 227.408C126.036 227.368 126.005 227.333 125.967 227.306C125.93 227.279 125.887 227.26 125.842 227.25C125.797 227.241 125.751 227.24 125.705 227.25C125.66 227.259 125.618 227.278 125.58 227.305L117.624 231.911C117.562 231.948 117.514 232.004 117.486 232.07C117.459 232.137 117.454 232.211 117.473 232.281C117.491 232.35 117.532 232.412 117.589 232.456C117.646 232.501 117.715 232.525 117.787 232.527H117.792Z" fill="url(#paint100_linear_59_19)"/>
</g>
<g opacity="0.4">
<path opacity="0.4" d="M117.792 234.495C117.849 234.495 117.905 234.481 117.955 234.453L125.911 229.847C125.986 229.802 126.041 229.73 126.064 229.645C126.087 229.561 126.075 229.471 126.032 229.394C126.011 229.357 125.982 229.324 125.947 229.297C125.913 229.271 125.874 229.251 125.832 229.24C125.79 229.229 125.746 229.226 125.703 229.231C125.659 229.237 125.618 229.251 125.58 229.273L117.624 233.879C117.562 233.916 117.514 233.972 117.486 234.038C117.459 234.105 117.454 234.179 117.473 234.249C117.491 234.318 117.532 234.38 117.589 234.424C117.646 234.469 117.715 234.493 117.787 234.495H117.792Z" fill="url(#paint101_linear_59_19)"/>
</g>
<g opacity="0.4">
<path opacity="0.4" d="M117.792 236.484C117.849 236.483 117.905 236.467 117.955 236.437L125.911 231.831C125.953 231.812 125.99 231.784 126.021 231.75C126.051 231.715 126.074 231.675 126.088 231.631C126.102 231.587 126.107 231.54 126.102 231.495C126.097 231.449 126.082 231.404 126.059 231.365C126.036 231.325 126.005 231.29 125.967 231.263C125.93 231.236 125.887 231.217 125.842 231.207C125.797 231.198 125.751 231.198 125.706 231.207C125.66 231.216 125.618 231.235 125.58 231.262L117.624 235.868C117.587 235.889 117.554 235.918 117.527 235.952C117.501 235.986 117.481 236.025 117.47 236.067C117.459 236.108 117.456 236.152 117.461 236.195C117.467 236.237 117.481 236.279 117.503 236.316C117.531 236.368 117.573 236.411 117.624 236.44C117.675 236.47 117.733 236.485 117.792 236.484Z" fill="url(#paint102_linear_59_19)"/>
</g>
<g opacity="0.4">
<path opacity="0.4" d="M120.652 236.789C120.709 236.79 120.765 236.775 120.815 236.747L125.924 233.816C125.965 233.797 126.003 233.769 126.033 233.735C126.064 233.7 126.087 233.659 126.101 233.616C126.115 233.572 126.119 233.525 126.114 233.479C126.109 233.434 126.095 233.389 126.071 233.349C126.048 233.31 126.017 233.275 125.98 233.248C125.942 233.221 125.9 233.202 125.855 233.192C125.81 233.183 125.763 233.182 125.718 233.192C125.673 233.201 125.63 233.22 125.593 233.247L120.484 236.178C120.409 236.222 120.354 236.295 120.332 236.38C120.31 236.465 120.323 236.555 120.367 236.63C120.396 236.679 120.438 236.72 120.488 236.748C120.538 236.776 120.594 236.79 120.652 236.789Z" fill="url(#paint103_linear_59_19)"/>
</g>
<path opacity="0.4" d="M126.087 220.475C126.087 220.103 125.823 219.948 125.496 220.136L120.091 223.26C119.918 223.371 119.775 223.522 119.672 223.699C119.569 223.877 119.51 224.077 119.5 224.282V226.723C119.5 227.096 119.764 227.25 120.091 227.062L125.496 223.938C125.669 223.827 125.812 223.676 125.915 223.499C126.018 223.321 126.077 223.121 126.087 222.916V220.475Z" fill="url(#paint104_linear_59_19)"/>
<g opacity="0.7">
<path opacity="0.7" d="M148.816 215.651C149.713 215.638 150.598 215.447 151.421 215.09C156.228 213.126 157.601 205.878 158.929 198.86C160.001 193.194 161.106 187.336 163.987 186.168C164.319 186.008 164.686 185.937 165.053 185.963C165.421 185.989 165.775 186.11 166.081 186.314C169.715 188.676 170.917 201.188 171.076 205.811C171.084 206.025 171.176 206.228 171.332 206.374C171.489 206.521 171.697 206.599 171.912 206.592C172.126 206.585 172.329 206.492 172.475 206.336C172.622 206.179 172.7 205.971 172.693 205.756C172.63 203.968 171.952 188.203 166.96 184.958C166.435 184.613 165.832 184.407 165.206 184.357C164.581 184.307 163.953 184.416 163.38 184.673C159.678 186.168 158.539 192.189 157.333 198.558C156.077 205.149 154.8 211.958 150.805 213.595C147.254 215.048 145.508 212.624 143.481 209.827C141.455 207.029 138.926 203.516 134.206 206.334C133.126 206.979 132.184 207.172 131.33 206.941C129.399 206.414 127.934 203.717 126.514 201.113C124.961 198.261 123.495 195.568 121.188 194.97C120.086 194.685 118.91 194.928 117.695 195.698C117.601 195.752 117.518 195.825 117.452 195.912C117.386 195.999 117.339 196.099 117.313 196.205C117.286 196.311 117.282 196.421 117.299 196.528C117.316 196.636 117.355 196.739 117.414 196.831C117.472 196.924 117.548 197.003 117.638 197.065C117.728 197.127 117.829 197.17 117.936 197.192C118.043 197.213 118.153 197.213 118.26 197.191C118.367 197.169 118.468 197.126 118.558 197.063C119.395 196.536 120.12 196.364 120.782 196.536C122.41 196.954 123.775 199.467 125.095 201.887C126.673 204.789 128.31 207.791 130.902 208.499C132.188 208.851 133.578 208.591 135.031 207.72C138.323 205.756 139.817 207.507 142.15 210.769C143.783 213.005 145.722 215.651 148.816 215.651Z" fill="#E57FC8"/>
</g>
<path opacity="0.4" d="M170.708 181.779C170.708 177.558 167.718 175.829 164.062 177.939C160.407 180.05 157.413 185.23 157.413 189.455C157.413 193.68 160.407 195.405 164.062 193.295C167.718 191.184 170.708 186 170.708 181.779Z" fill="#E57FC8"/>
<path opacity="0.6" d="M167.781 183.471C167.781 181.109 166.106 180.142 164.062 181.323C162.019 182.504 160.344 185.401 160.344 187.763C160.344 190.125 162.019 191.113 164.062 189.911C166.106 188.709 167.781 185.833 167.781 183.471Z" fill="#E57FC8"/>
<path d="M165.88 184.568C165.88 183.417 165.042 182.943 164.062 183.517C163.534 183.863 163.094 184.328 162.778 184.875C162.463 185.422 162.28 186.035 162.245 186.666C162.245 187.818 163.083 188.291 164.062 187.713C164.59 187.368 165.03 186.903 165.346 186.357C165.661 185.811 165.844 185.198 165.88 184.568Z" fill="url(#paint105_linear_59_19)"/>
<path d="M190.2 211.749L178.475 204.32L169.816 189.614L165.524 185.82L165.649 187.403C165.683 187.824 165.803 188.234 166.002 188.607C166.201 188.979 166.475 189.307 166.806 189.57C167.137 189.832 167.519 190.024 167.927 190.132C168.335 190.241 168.762 190.264 169.179 190.2L169.401 190.167L175.733 205.082L188.19 214.341L190.2 211.749Z" fill="url(#paint106_linear_59_19)"/>
<path style="mix-blend-mode:multiply" opacity="0.5" d="M185.795 284.17C194.905 284.17 202.289 282.213 202.289 279.798C202.289 277.384 194.905 275.427 185.795 275.427C176.686 275.427 169.301 277.384 169.301 279.798C169.301 282.213 176.686 284.17 185.795 284.17Z" fill="url(#paint107_linear_59_19)"/>
<path d="M181.997 241.764L182.424 279.798H178.677L183.517 281.674L185.113 236.249L181.997 241.764Z" fill="url(#paint108_linear_59_19)"/>
<path d="M185.422 240.688L185.669 258.275L191.465 277.369L188.957 281.477L192.759 278.458L187.797 257.58L189.304 242.999L185.422 240.688Z" fill="url(#paint109_linear_59_19)"/>
<path d="M176.11 240.692L175.272 243.975C175.163 244.418 175.155 244.88 175.249 245.326C175.342 245.773 175.535 246.192 175.812 246.554L176.918 246.186L177.378 244.381L176.11 240.692Z" fill="url(#paint110_linear_59_19)"/>
<path d="M182.876 206.071L180.933 211.38C181.289 213.285 181.382 224.964 180.883 226.836L178.823 234.553C178.823 234.553 179.719 247.928 181.298 247.953H181.419C189.899 248.016 195.849 239.436 192.771 231.53C192.205 229.949 191.406 228.461 190.401 227.116C187.596 223.674 189.178 219.072 190.724 216.158C192.629 212.561 190.858 208.005 186.934 206.946C186.779 206.904 186.62 206.866 186.461 206.833L182.876 206.071Z" fill="url(#paint111_linear_59_19)"/>
<path d="M178.287 213.055L179.962 225.265L175.335 243.853L181.93 226.589L181.951 212.042L180.938 211.38C180.661 211.198 180.338 211.1 180.008 211.097C179.677 211.094 179.352 211.186 179.072 211.363C178.793 211.54 178.57 211.793 178.431 212.093C178.291 212.393 178.241 212.727 178.287 213.055Z" fill="url(#paint112_linear_59_19)"/>
<path d="M178.438 214.156L181.939 217.766V212.042L182.868 206.071L180.025 207.875C179.351 208.305 178.815 208.919 178.479 209.644C178.143 210.369 178.021 211.175 178.128 211.966L178.438 214.156Z" fill="url(#paint113_linear_59_19)"/>
<path d="M183.425 204.823C184.734 204.823 185.795 203.762 185.795 202.453C185.795 201.144 184.734 200.083 183.425 200.083C182.116 200.083 181.055 201.144 181.055 202.453C181.055 203.762 182.116 204.823 183.425 204.823Z" fill="url(#paint114_linear_59_19)"/>
<path d="M181.356 200.836C181.875 201.303 182.278 201.884 182.535 202.532C182.792 203.181 182.896 203.88 182.839 204.575C182.761 205.324 182.486 206.04 182.043 206.648C180.46 208.784 179.501 212.435 181.88 213.051C184.258 213.666 185.577 211.481 186.968 213.118C188.358 214.755 191.925 212.351 189.668 208.361C187.411 204.37 187.106 198.211 183.04 199.149C180.804 199.685 180.858 200.346 181.356 200.836Z" fill="#1D1D1B"/>
<path d="M178.677 279.798H182.424L183.555 280.569L183.517 281.674L178.677 279.798Z" fill="#1D1D1B"/>
<path d="M192.524 277.457L191.465 277.369L188.957 281.477L192.759 278.458L192.524 277.457Z" fill="#1D1D1B"/>
<path d="M0 260.716L48.2389 288.566V316.413L0 288.566V260.716Z" fill="url(#paint115_linear_59_19)"/>
<path d="M96.4778 260.716L48.2389 288.566V316.413L96.482 288.566L96.4778 260.716Z" fill="url(#paint116_linear_59_19)"/>
<path d="M0 260.716L48.2389 232.866L96.4778 260.716L48.2389 288.567L0 260.716Z" fill="url(#paint117_linear_59_19)"/>
<path d="M16.6826 260.716L48.2389 242.497L79.7951 260.716L48.2389 278.935L16.6826 260.716Z" fill="url(#paint118_linear_59_19)"/>
<path d="M23.0768 264.409L48.2389 249.879L73.401 264.409L48.2389 278.936L23.0768 264.409Z" fill="url(#paint119_linear_59_19)"/>
<path d="M6.54077 232.866L48.2389 256.939V281.012L6.54077 256.939V232.866Z" fill="url(#paint120_linear_59_19)"/>
<path d="M89.9412 232.866L48.2389 256.939V281.012L89.9412 256.939V232.866Z" fill="url(#paint121_linear_59_19)"/>
<path d="M0 232.866L48.2389 260.716V275.087L0 247.237V232.866Z" fill="url(#paint122_linear_59_19)"/>
<path d="M96.4778 232.866L48.2389 260.716V275.087L96.482 247.237L96.4778 232.866Z" fill="url(#paint123_linear_59_19)"/>
<path d="M0 232.866L48.2389 205.015L96.4778 232.866L48.2389 260.716L0 232.866Z" fill="url(#paint124_linear_59_19)"/>
<path d="M16.6826 232.866L48.2389 214.646L79.7951 232.866L48.2389 251.085L16.6826 232.866Z" fill="url(#paint125_linear_59_19)"/>
<path d="M23.0768 236.555L48.2389 222.029L73.401 236.555L48.2389 251.085L23.0768 236.555Z" fill="url(#paint126_linear_59_19)"/>
<path d="M6.54077 205.015L48.2389 229.089V253.162L6.54077 229.089V205.015Z" fill="url(#paint127_linear_59_19)"/>
<path d="M89.9412 205.015L48.2389 229.089V253.162L89.9412 229.089V205.015Z" fill="url(#paint128_linear_59_19)"/>
<path d="M0 205.015L48.2389 232.866V247.237L0 219.386V205.015Z" fill="url(#paint129_linear_59_19)"/>
<path d="M96.4778 205.015L48.2389 232.866V247.237L96.482 219.386L96.4778 205.015Z" fill="url(#paint130_linear_59_19)"/>
<path d="M0 205.015L48.2389 177.161L96.4778 205.015L48.2389 232.866L0 205.015Z" fill="url(#paint131_linear_59_19)"/>
<path d="M16.6826 205.015L48.2389 186.796L79.7951 205.015L48.2389 223.235L16.6826 205.015Z" fill="url(#paint132_linear_59_19)"/>
<path d="M23.0768 208.709L48.2389 194.178L73.401 208.709L48.2389 223.235L23.0768 208.709Z" fill="url(#paint133_linear_59_19)"/>
<path d="M48.2389 186.796V194.178L23.0768 208.709L16.6826 205.015L48.2389 186.796Z" fill="url(#paint134_linear_59_19)"/>
<path d="M6.54077 177.161L48.2389 201.238V225.312L6.54077 201.238V177.161Z" fill="url(#paint135_linear_59_19)"/>
<path d="M89.9412 177.161L48.2389 201.238V225.312L89.9412 201.238V177.161Z" fill="url(#paint136_linear_59_19)"/>
<path d="M0 163.238L48.2389 191.092V218.938L0 191.088V163.238Z" fill="url(#paint137_linear_59_19)"/>
<path d="M96.4778 163.238L48.2389 191.092V218.938L96.482 191.088L96.4778 163.238Z" fill="url(#paint138_linear_59_19)"/>
<path d="M0 163.238L48.2389 135.387L96.4778 163.238L48.2389 191.092L0 163.238Z" fill="url(#paint139_linear_59_19)"/>
<path d="M16.6826 163.237L48.2389 145.018L79.7951 163.237L48.2389 181.457L16.6826 163.237Z" fill="url(#paint140_linear_59_19)"/>
<path d="M23.0768 166.931L48.2389 152.405L73.401 166.931L48.2389 181.457L23.0768 166.931Z" fill="url(#paint141_linear_59_19)"/>
<path d="M48.2389 145.018V152.405L23.0768 166.931L16.6826 163.237L48.2389 145.018Z" fill="url(#paint142_linear_59_19)"/>
<path d="M85.042 220.622L89.6188 217.979L88.4966 217.326L85.042 219.324V220.622Z" fill="url(#paint143_linear_59_19)"/>
<path d="M89.6188 214.646V217.979L88.4966 217.326V215.333L89.6188 214.646Z" fill="url(#paint144_linear_59_19)"/>
<path d="M85.042 219.324V217.326L88.4966 215.333V217.326L85.042 219.324Z" fill="url(#paint145_linear_59_19)"/>
<path d="M78.0322 224.466L82.6091 221.823L81.4868 221.17L78.0322 223.168V224.466Z" fill="url(#paint146_linear_59_19)"/>
<path d="M82.609 218.49V221.823L81.4868 221.17V219.177L82.609 218.49Z" fill="url(#paint147_linear_59_19)"/>
<path d="M78.0322 223.168V221.17L81.4868 219.177V221.17L78.0322 223.168Z" fill="url(#paint148_linear_59_19)"/>
<path d="M62.1075 262.157L66.6886 259.514L65.5663 258.861L62.1075 260.858V262.157Z" fill="url(#paint149_linear_59_19)"/>
<path d="M66.6885 256.177V259.514L65.5663 258.861V256.864L66.6885 256.177Z" fill="url(#paint150_linear_59_19)"/>
<path d="M62.1075 260.859V258.861L65.5663 256.864V258.861L62.1075 260.859Z" fill="url(#paint151_linear_59_19)"/>
<path d="M55.1021 266.001L59.6789 263.358L58.5567 262.705L55.1021 264.702V266.001Z" fill="url(#paint152_linear_59_19)"/>
<path d="M59.6789 260.025V263.358L58.5566 262.705V260.708L59.6789 260.025Z" fill="url(#paint153_linear_59_19)"/>
<path d="M55.1021 264.703V262.705L58.5567 260.708V262.705L55.1021 264.703Z" fill="url(#paint154_linear_59_19)"/>
<path d="M11.44 221.468L6.85901 218.825L7.98123 218.172L11.44 220.169V221.468Z" fill="url(#paint155_linear_59_19)"/>
<path d="M6.85901 215.488V218.825L7.98123 218.172V216.175L6.85901 215.488Z" fill="url(#paint156_linear_59_19)"/>
<path d="M11.44 220.169V218.172L7.9812 216.175V218.172L11.44 220.169Z" fill="url(#paint157_linear_59_19)"/>
<path d="M18.4497 225.312L13.8687 222.669L14.9909 222.016L18.4497 224.013V225.312Z" fill="url(#paint158_linear_59_19)"/>
<path d="M13.8687 219.332V222.669L14.9909 222.016V220.019L13.8687 219.332Z" fill="url(#paint159_linear_59_19)"/>
<path d="M18.4496 224.014V222.016L14.9908 220.019V222.016L18.4496 224.014Z" fill="url(#paint160_linear_59_19)"/>
<path d="M34.3702 263.003L29.7892 260.356L30.9114 259.707L34.3702 261.7V263.003Z" fill="url(#paint161_linear_59_19)"/>
<path d="M29.7892 257.023V260.356L30.9114 259.707V257.709L29.7892 257.023Z" fill="url(#paint162_linear_59_19)"/>
<path d="M34.3702 261.7V259.707L30.9114 257.709V259.707L34.3702 261.7Z" fill="url(#paint163_linear_59_19)"/>
<path d="M41.38 266.847L36.799 264.2L37.9212 263.551L41.38 265.544V266.847Z" fill="url(#paint164_linear_59_19)"/>
<path d="M36.799 260.867V264.2L37.9212 263.551V261.553L36.799 260.867Z" fill="url(#paint165_linear_59_19)"/>
<path d="M41.3799 265.544V263.551L37.9211 261.553V263.551L41.3799 265.544Z" fill="url(#paint166_linear_59_19)"/>
<path style="mix-blend-mode:multiply" opacity="0.5" d="M33.9682 340.532C39.9603 340.532 44.8178 337.81 44.8178 334.452C44.8178 331.094 39.9603 328.372 33.9682 328.372C27.9762 328.372 23.1187 331.094 23.1187 334.452C23.1187 337.81 27.9762 340.532 33.9682 340.532Z" fill="url(#paint167_linear_59_19)"/>
<path d="M19.7352 301.43L20.154 302.159C22.7187 306.672 23.5902 311.951 22.612 317.049L20.7653 326.647C20.4578 328.269 20.6627 329.947 21.3515 331.447C22.0402 332.948 23.1788 334.197 24.6094 335.021H24.6387C25.8432 335.712 27.2074 336.075 28.5958 336.075C29.9842 336.075 31.3484 335.712 32.5529 335.021C33.9822 334.197 35.1187 332.947 35.8039 331.446C36.4892 329.944 36.6892 328.267 36.376 326.647L34.5419 317.104C33.5514 311.963 34.4431 306.638 37.0543 302.1L37.4479 301.413L19.7352 301.43Z" fill="url(#paint168_linear_59_19)"/>
<path d="M37.427 301.434C37.427 302.272 36.0703 303.009 33.964 303.478C32.1945 303.846 30.3906 304.023 28.5832 304.006C26.7743 304.022 24.969 303.844 23.1982 303.474C21.1045 303.005 19.7352 302.264 19.7352 301.43C19.7352 300.002 23.6965 298.847 28.5832 298.847C33.4699 298.847 37.427 300.007 37.427 301.434Z" fill="url(#paint169_linear_59_19)"/>
<path d="M33.9682 303.457C32.1981 303.833 30.3927 304.017 28.5832 304.005C26.7744 304.022 24.969 303.843 23.1982 303.474C23.1982 302.603 25.606 301.903 28.5832 301.903C31.5605 301.903 33.9682 302.586 33.9682 303.457Z" fill="url(#paint170_linear_59_19)"/>
<path d="M30.5681 303.197C30.5681 303.197 35.5008 238.9 26.7994 237.526C18.098 236.153 27.8672 303.168 27.8672 303.168L30.5681 303.197Z" fill="url(#paint171_linear_59_19)"/>
<path d="M25.359 303.197C25.359 303.197 8.7936 254.829 17.0805 252.425C25.3673 250.021 29.0606 303.197 29.0606 303.197H25.359Z" fill="url(#paint172_linear_59_19)"/>
<path d="M30.5681 303.197C30.5681 303.197 41.2878 271.876 35.928 270.318C30.5681 268.76 28.1687 303.197 28.1687 303.197H30.5681Z" fill="url(#paint173_linear_59_19)"/>
<path style="mix-blend-mode:multiply" opacity="0.5" d="M320.031 349.426C329.818 349.426 337.752 347.323 337.752 344.728C337.752 342.133 329.818 340.03 320.031 340.03C310.243 340.03 302.309 342.133 302.309 344.728C302.309 347.323 310.243 349.426 320.031 349.426Z" fill="url(#paint174_linear_59_19)"/>
<path d="M336.897 272.018L329.075 270.573L326.542 282.344L334.075 284.467L336.897 272.018Z" fill="url(#paint175_linear_59_19)"/>
<path d="M312.305 272.177L311.819 282.013L314.935 293.65L316.011 294.818L313.373 282.587L314.461 271.846L312.305 272.177Z" fill="url(#paint176_linear_59_19)"/>
<path d="M313.603 295.007L314.997 318.842L313.603 345.243L317.962 344.175L314.725 343.116L317.66 318.28L318.477 295.007H313.603Z" fill="url(#paint177_linear_59_19)"/>
<path d="M313.674 343.865L314.725 343.116L317.962 344.175L313.603 345.243L313.674 343.865Z" fill="#1D1D1B"/>
<path d="M316.748 297.381L319.872 321.22L318.477 347.617L322.84 346.554L319.599 345.494L322.535 320.659L321.471 297.381H316.748Z" fill="url(#paint178_linear_59_19)"/>
<path d="M318.552 346.244L319.599 345.494L322.84 346.554L318.477 347.617L318.552 346.244Z" fill="#1D1D1B"/>
<path d="M310.613 297.946C311.191 300.756 312.313 300.484 312.104 303.344V306.107L314.064 307.02C314.518 307.233 315.016 307.334 315.518 307.314C316.019 307.294 316.508 307.155 316.944 306.907L318.234 306.162C321.978 303.993 324.649 307.347 324.352 303.025L322.698 278.592C324.038 277.21 325.039 274.798 323.762 273.354L320.91 269.56C320.314 268.768 319.506 268.163 318.579 267.815C317.652 267.466 316.645 267.389 315.676 267.592L314.093 267.927C314.093 267.927 311.622 269.099 312.46 274.626C313.13 279.044 316.295 280.489 314.051 285.145C311.928 289.538 310.094 295.4 310.613 297.946Z" fill="url(#paint179_linear_59_19)"/>
<path d="M317.485 266.176C318.891 266.176 320.031 265.036 320.031 263.63C320.031 262.224 318.891 261.084 317.485 261.084C316.079 261.084 314.939 262.224 314.939 263.63C314.939 265.036 316.079 266.176 317.485 266.176Z" fill="url(#paint180_linear_59_19)"/>
<path d="M319.189 259.988C319.359 260.042 319.515 260.134 319.646 260.256C319.777 260.378 319.879 260.527 319.945 260.693C320.011 260.859 320.04 261.038 320.028 261.217C320.017 261.395 319.966 261.569 319.88 261.725C319.277 262.843 318.117 265.142 318.096 266.457C318.055 267.289 318.113 268.122 318.268 268.94C318.321 269.13 318.305 269.332 318.224 269.511C318.143 269.69 318.001 269.835 317.824 269.92C315.885 270.783 311.543 272.433 311.543 269.82C311.543 268.509 312.698 265.163 312.954 263.631C313.419 260.821 314.83 260.067 317.531 259.862C318.086 259.801 318.649 259.843 319.189 259.988Z" fill="#1D1D1B"/>
<path d="M317.719 275.058L321.63 285.158L335.319 281.033L336.898 279.413L335.645 277.591L335.105 279.438L333.527 279.12L334.699 280.43L322.619 283.027L320.169 272.956L317.719 275.058Z" fill="url(#paint181_linear_59_19)"/>
<path d="M319.892 270.439C320.525 271.021 321.149 272.064 321.149 273.885L317.334 276.021C317.334 276.021 314.227 272.302 317.527 270.255C317.887 270.024 318.313 269.917 318.74 269.95C319.167 269.984 319.572 270.155 319.892 270.439Z" fill="url(#paint182_linear_59_19)"/>
<path style="mix-blend-mode:multiply" opacity="0.5" d="M234.185 369.027C243.114 369.027 250.352 367.108 250.352 364.74C250.352 362.371 243.114 360.452 234.185 360.452C225.256 360.452 218.017 362.371 218.017 364.74C218.017 367.108 225.256 369.027 234.185 369.027Z" fill="url(#paint183_linear_59_19)"/>
<path d="M231.082 364.74L235.994 361.691L235.474 356.193L231.58 315.228L235.922 313.72L236.044 317.912L237.158 356.536L237.308 361.817L237.355 363.328L231.082 364.74Z" fill="url(#paint184_linear_59_19)"/>
<path d="M237.158 356.536L235.474 356.193L234.176 355.929L230.831 313.745L236.044 317.908L237.158 356.536Z" fill="#1D1D1B"/>
<path d="M237.308 361.817L237.355 363.328L231.082 364.74L235.994 361.691L237.308 361.817Z" fill="#1D1D1B"/>
<path d="M237.602 365.904L242.513 362.855L241.994 357.353L238.104 316.392L242.442 314.884L242.564 319.072L243.677 357.7L243.832 362.981L243.874 364.497L237.602 365.904Z" fill="url(#paint185_linear_59_19)"/>
<path d="M243.677 357.7L241.994 357.353L240.7 357.089L237.354 314.909L242.564 319.072L243.677 357.7Z" fill="#1D1D1B"/>
<path d="M243.832 362.981L243.874 364.497L237.602 365.904L242.513 362.855L243.832 362.981Z" fill="#1D1D1B"/>
<path d="M229.051 290.932L222.519 297.795L214.73 286.837L211.51 286.297L209.295 287.901L213.093 289.249C213.093 289.249 218.344 318.243 232.401 296.594L229.051 290.932Z" fill="url(#paint186_linear_59_19)"/>
<path d="M225.667 294.5L228.1 301.995L234.134 298.214L229.063 290.932L225.667 294.5Z" fill="url(#paint187_linear_59_19)"/>
<path d="M233.795 289.098L237.606 289.785C239.148 290.062 240.544 290.871 241.551 292.07C242.559 293.27 243.114 294.784 243.121 296.351L244.377 321.115C242.339 322.122 240.032 322.45 237.794 322.051C235.556 321.652 233.504 320.546 231.94 318.896L228.172 314.914L228.079 294.228C228.03 293.49 228.149 292.75 228.428 292.064C228.707 291.379 229.138 290.766 229.689 290.272C230.239 289.777 230.895 289.415 231.607 289.212C232.318 289.008 233.067 288.97 233.795 289.098Z" fill="url(#paint188_linear_59_19)"/>
<path d="M233.121 298.847L237.053 312.024L228.159 314.914L223.838 302.192L233.121 298.847Z" fill="url(#paint189_linear_59_19)"/>
<path d="M236.19 287.432C236.19 287.432 236.048 289.898 235.68 290.162C235.311 290.426 233.389 292.473 234.369 288.387C235.349 284.3 236.19 287.432 236.19 287.432Z" fill="url(#paint190_linear_59_19)"/>
<path d="M234.076 289.132C235.401 289.132 236.475 288.058 236.475 286.732C236.475 285.407 235.401 284.333 234.076 284.333C232.751 284.333 231.676 285.407 231.676 286.732C231.676 288.058 232.751 289.132 234.076 289.132Z" fill="url(#paint191_linear_59_19)"/>
<path d="M231.873 285.778C231.873 285.778 222.954 281.318 224.478 277.428C226.002 273.538 237.04 286.05 237.04 286.05L236.144 287.934C236.144 287.934 236.27 286.36 235.621 286.724C234.972 287.088 235.131 288.303 235.131 288.303L234.712 286.728L231.873 285.778Z" fill="#1D1D1B"/>
<path d="M234.076 309.797L233.519 311.212L231.672 307.1L241.684 306.933L239.461 300.044L241.613 292.164C243.757 294.588 245.382 297.389 246.077 299.517C251.902 317.523 240.889 311.555 236.484 308.963C236.275 308.841 236.042 308.765 235.801 308.741C235.56 308.717 235.316 308.746 235.088 308.825C234.859 308.904 234.65 309.032 234.475 309.2C234.3 309.368 234.164 309.571 234.076 309.797Z" fill="url(#paint192_linear_59_19)"/>
<path d="M246.307 298.771L240.47 302.984L238.745 297.883C238.653 297.465 238.523 297.088 238.406 296.694C237.878 294.906 239.691 291.799 241.626 292.163C243.454 294.164 245.026 296.383 246.307 298.771Z" fill="url(#paint193_linear_59_19)"/>
<path opacity="0.4" d="M217.083 310.211L191.134 295.229L191.138 272.759L217.083 287.737V310.211Z" fill="url(#paint194_linear_59_19)"/>
<g opacity="0.4">
<path opacity="0.4" d="M193.852 280.845V295.015L197.382 297.054V282.792L193.852 280.845Z" fill="url(#paint195_linear_59_19)"/>
<path opacity="0.4" d="M199.144 289.136V298.185L202.674 300.111V291.171L199.144 289.136Z" fill="url(#paint196_linear_59_19)"/>
<path opacity="0.4" d="M204.354 288.813V301.15L207.883 303.076V290.849L204.354 288.813Z" fill="url(#paint197_linear_59_19)"/>
<path opacity="0.4" d="M209.755 287.884V304.165L213.26 306.225L213.285 289.919L209.755 287.884Z" fill="url(#paint198_linear_59_19)"/>
</g>
<path opacity="0.4" d="M191.134 269.016L191.138 272.759L217.083 287.738V283.994L191.134 269.016Z" fill="url(#paint199_linear_59_19)"/>
</g>
<defs>
<linearGradient id="paint0_linear_59_19" x1="259.812" y1="213.273" x2="259.573" y2="210.476" gradientUnits="userSpaceOnUse">
<stop stop-color="#F6F6F6"/>
<stop offset="1" stop-color="#C9D6FF"/>
</linearGradient>
<linearGradient id="paint1_linear_59_19" x1="11070.5" y1="14882.3" x2="9293.19" y2="17265.4" gradientUnits="userSpaceOnUse">
<stop stop-color="#F6F6F6"/>
<stop offset="1" stop-color="#C9D6FF"/>
</linearGradient>
<linearGradient id="paint2_linear_59_19" x1="10588.8" y1="2281.46" x2="11336.3" y2="2281.46" gradientUnits="userSpaceOnUse">
<stop stop-color="#F6F6F6"/>
<stop offset="1" stop-color="#C9D6FF"/>
</linearGradient>
<linearGradient id="paint3_linear_59_19" x1="253.958" y1="168.472" x2="253.493" y2="176.654" gradientUnits="userSpaceOnUse">
<stop stop-color="#3494E6"/>
<stop offset="1" stop-color="#EC6EAD"/>
</linearGradient>
<linearGradient id="paint4_linear_59_19" x1="5593.39" y1="17158.5" x2="1839.8" y2="21880.1" gradientUnits="userSpaceOnUse">
<stop stop-color="#3494E6"/>
<stop offset="1" stop-color="#EC6EAD"/>
</linearGradient>
<linearGradient id="paint5_linear_59_19" x1="8661.05" y1="16205.4" x2="9360.17" y2="21215" gradientUnits="userSpaceOnUse">
<stop stop-color="#3494E6"/>
<stop offset="1" stop-color="#EC6EAD"/>
</linearGradient>
<linearGradient id="paint6_linear_59_19" x1="5899.93" y1="11974.6" x2="7025.39" y2="12931.6" gradientUnits="userSpaceOnUse">
<stop stop-color="#3494E6"/>
<stop offset="1" stop-color="#EC6EAD"/>
</linearGradient>
<linearGradient id="paint7_linear_59_19" x1="51814.6" y1="37818.3" x2="51866.2" y2="36854.5" gradientUnits="userSpaceOnUse">
<stop stop-color="#F6F6F6"/>
<stop offset="1" stop-color="#C9D6FF"/>
</linearGradient>
<linearGradient id="paint8_linear_59_19" x1="27438.2" y1="8173.5" x2="27438.2" y2="8570.31" gradientUnits="userSpaceOnUse">
<stop stop-color="#F6F6F6"/>
<stop offset="1" stop-color="#C9D6FF"/>
</linearGradient>
<linearGradient id="paint9_linear_59_19" x1="94108.5" y1="34066.6" x2="93231.6" y2="36151.3" gradientUnits="userSpaceOnUse">
<stop stop-color="#F6F6F6"/>
<stop offset="1" stop-color="#C9D6FF"/>
</linearGradient>
<linearGradient id="paint10_linear_59_19" x1="29328" y1="20555.7" x2="29357.2" y2="21546.8" gradientUnits="userSpaceOnUse">
<stop stop-color="#F6F6F6"/>
<stop offset="1" stop-color="#C9D6FF"/>
</linearGradient>
<linearGradient id="paint11_linear_59_19" x1="95323.1" y1="23460.7" x2="97544.6" y2="26017.2" gradientUnits="userSpaceOnUse">
<stop stop-color="#F6F6F6"/>
<stop offset="1" stop-color="#C9D6FF"/>
</linearGradient>
<linearGradient id="paint12_linear_59_19" x1="43003.7" y1="22207.6" x2="41700.7" y2="28396.8" gradientUnits="userSpaceOnUse">
<stop stop-color="#3494E6"/>
<stop offset="1" stop-color="#EC6EAD"/>
</linearGradient>
<linearGradient id="paint13_linear_59_19" x1="-275754" y1="17814" x2="-276017" y2="18172.7" gradientUnits="userSpaceOnUse">
<stop stop-color="#3494E6"/>
<stop offset="1" stop-color="#EC6EAD"/>
</linearGradient>
<linearGradient id="paint14_linear_59_19" x1="38225.4" y1="23842.6" x2="35099.2" y2="29568" gradientUnits="userSpaceOnUse">
<stop stop-color="#3494E6"/>
<stop offset="1" stop-color="#EC6EAD"/>
</linearGradient>
<linearGradient id="paint15_linear_59_19" x1="30168.7" y1="30059.7" x2="30220.1" y2="29095.7" gradientUnits="userSpaceOnUse">
<stop stop-color="#F6F6F6"/>
<stop offset="1" stop-color="#C9D6FF"/>
</linearGradient>
<linearGradient id="paint16_linear_59_19" x1="22585.8" y1="6040.83" x2="22585.8" y2="6437.9" gradientUnits="userSpaceOnUse">
<stop stop-color="#F6F6F6"/>
<stop offset="1" stop-color="#C9D6FF"/>
</linearGradient>
<linearGradient id="paint17_linear_59_19" x1="78250.6" y1="25769" x2="77373.2" y2="27853.2" gradientUnits="userSpaceOnUse">
<stop stop-color="#F6F6F6"/>
<stop offset="1" stop-color="#C9D6FF"/>
</linearGradient>
<linearGradient id="paint18_linear_59_19" x1="24489.7" y1="15855.9" x2="24518.9" y2="16847" gradientUnits="userSpaceOnUse">
<stop stop-color="#F6F6F6"/>
<stop offset="1" stop-color="#C9D6FF"/>
</linearGradient>
<linearGradient id="paint19_linear_59_19" x1="79478.9" y1="17729.2" x2="81700.8" y2="20286" gradientUnits="userSpaceOnUse">
<stop stop-color="#F6F6F6"/>
<stop offset="1" stop-color="#C9D6FF"/>
</linearGradient>
<linearGradient id="paint20_linear_59_19" x1="25855.3" y1="16476.1" x2="24552.4" y2="22665.2" gradientUnits="userSpaceOnUse">
<stop stop-color="#3494E6"/>
<stop offset="1" stop-color="#EC6EAD"/>
</linearGradient>
<linearGradient id="paint21_linear_59_19" x1="-285584" y1="13154.7" x2="-285847" y2="13513.5" gradientUnits="userSpaceOnUse">
<stop stop-color="#3494E6"/>
<stop offset="1" stop-color="#EC6EAD"/>
</linearGradient>
<linearGradient id="paint22_linear_59_19" x1="23695.5" y1="17327.3" x2="20568.6" y2="23051.7" gradientUnits="userSpaceOnUse">
<stop stop-color="#3494E6"/>
<stop offset="1" stop-color="#EC6EAD"/>
</linearGradient>
<linearGradient id="paint23_linear_59_19" x1="16992.6" y1="24852.9" x2="22322.7" y2="29785.1" gradientUnits="userSpaceOnUse">
<stop stop-color="#F6F6F6"/>
<stop offset="1" stop-color="#C9D6FF"/>
</linearGradient>
<linearGradient id="paint24_linear_59_19" x1="22299.8" y1="26599.1" x2="26770.6" y2="28078.3" gradientUnits="userSpaceOnUse">
<stop stop-color="#F6F6F6"/>
<stop offset="1" stop-color="#C9D6FF"/>
</linearGradient>
<linearGradient id="paint25_linear_59_19" x1="44148.1" y1="23975" x2="43920.1" y2="28825" gradientUnits="userSpaceOnUse">
<stop stop-color="#F6F6F6"/>
<stop offset="1" stop-color="#C9D6FF"/>
</linearGradient>
<linearGradient id="paint26_linear_59_19" x1="26663.5" y1="17518.3" x2="28361.8" y2="13652.7" gradientUnits="userSpaceOnUse">
<stop stop-color="#F6F6F6"/>
<stop offset="1" stop-color="#C9D6FF"/>
</linearGradient>
<linearGradient id="paint27_linear_59_19" x1="24521.7" y1="12310.3" x2="23156.2" y2="13992.3" gradientUnits="userSpaceOnUse">
<stop stop-color="#F6F6F6"/>
<stop offset="1" stop-color="#C9D6FF"/>
</linearGradient>
<linearGradient id="paint28_linear_59_19" x1="209.822" y1="172.575" x2="151.885" y2="177.324" gradientUnits="userSpaceOnUse">
<stop stop-color="#3494E6"/>
<stop offset="1" stop-color="#DB61A4"/>
</linearGradient>
<linearGradient id="paint29_linear_59_19" x1="26857.5" y1="14559.2" x2="19541.7" y2="20280.7" gradientUnits="userSpaceOnUse">
<stop stop-color="#3494E6"/>
<stop offset="1" stop-color="#DB61A4"/>
</linearGradient>
<linearGradient id="paint30_linear_59_19" x1="17309.5" y1="15662.7" x2="20751.6" y2="19864.6" gradientUnits="userSpaceOnUse">
<stop stop-color="#F6F6F6"/>
<stop offset="1" stop-color="#C9D6FF"/>
</linearGradient>
<linearGradient id="paint31_linear_59_19" x1="22584.9" y1="16785.4" x2="26306" y2="18409.8" gradientUnits="userSpaceOnUse">
<stop stop-color="#F6F6F6"/>
<stop offset="1" stop-color="#C9D6FF"/>
</linearGradient>
<linearGradient id="paint32_linear_59_19" x1="44148.1" y1="20242.5" x2="43920.1" y2="25092.5" gradientUnits="userSpaceOnUse">
<stop stop-color="#F6F6F6"/>
<stop offset="1" stop-color="#C9D6FF"/>
</linearGradient>
<linearGradient id="paint33_linear_59_19" x1="26663.5" y1="15066.5" x2="28361.9" y2="11201.2" gradientUnits="userSpaceOnUse">
<stop stop-color="#F6F6F6"/>
<stop offset="1" stop-color="#C9D6FF"/>
</linearGradient>
<linearGradient id="paint34_linear_59_19" x1="24521.7" y1="10349.9" x2="23156.2" y2="12031.9" gradientUnits="userSpaceOnUse">
<stop stop-color="#F6F6F6"/>
<stop offset="1" stop-color="#C9D6FF"/>
</linearGradient>
<linearGradient id="paint35_linear_59_19" x1="20819.9" y1="16786.1" x2="15040.3" y2="17196.4" gradientUnits="userSpaceOnUse">
<stop stop-color="#3494E6"/>
<stop offset="1" stop-color="#DB61A4"/>
</linearGradient>
<linearGradient id="paint36_linear_59_19" x1="25478" y1="12767.3" x2="18162.2" y2="18488.7" gradientUnits="userSpaceOnUse">
<stop stop-color="#3494E6"/>
<stop offset="1" stop-color="#DB61A4"/>
</linearGradient>
<linearGradient id="paint37_linear_59_19" x1="17309.5" y1="12826.7" x2="20751.6" y2="17028.6" gradientUnits="userSpaceOnUse">
<stop stop-color="#F6F6F6"/>
<stop offset="1" stop-color="#C9D6FF"/>
</linearGradient>
<linearGradient id="paint38_linear_59_19" x1="22584.9" y1="13949.4" x2="26306" y2="15573.8" gradientUnits="userSpaceOnUse">
<stop stop-color="#F6F6F6"/>
<stop offset="1" stop-color="#C9D6FF"/>
</linearGradient>
<linearGradient id="paint39_linear_59_19" x1="44148.1" y1="16510" x2="43920.1" y2="21360" gradientUnits="userSpaceOnUse">
<stop stop-color="#F6F6F6"/>
<stop offset="1" stop-color="#C9D6FF"/>
</linearGradient>
<linearGradient id="paint40_linear_59_19" x1="26663.5" y1="12615.1" x2="28361.9" y2="8749.84" gradientUnits="userSpaceOnUse">
<stop stop-color="#F6F6F6"/>
<stop offset="1" stop-color="#C9D6FF"/>
</linearGradient>
<linearGradient id="paint41_linear_59_19" x1="24521.7" y1="8389.49" x2="23156.2" y2="10071.5" gradientUnits="userSpaceOnUse">
<stop stop-color="#F6F6F6"/>
<stop offset="1" stop-color="#C9D6FF"/>
</linearGradient>
<linearGradient id="paint42_linear_59_19" x1="14092.1" y1="6431.88" x2="13469.6" y2="5869.45" gradientUnits="userSpaceOnUse">
<stop stop-color="#F6F6F6"/>
<stop offset="1" stop-color="#C9D6FF"/>
</linearGradient>
<linearGradient id="paint43_linear_59_19" x1="20593.8" y1="13577.1" x2="14814.3" y2="13987.4" gradientUnits="userSpaceOnUse">
<stop stop-color="#3494E6"/>
<stop offset="1" stop-color="#DB61A4"/>
</linearGradient>
<linearGradient id="paint44_linear_59_19" x1="24098.5" y1="10975.3" x2="16782.6" y2="16696.8" gradientUnits="userSpaceOnUse">
<stop stop-color="#3494E6"/>
<stop offset="1" stop-color="#DB61A4"/>
</linearGradient>
<linearGradient id="paint45_linear_59_19" x1="16992.6" y1="11789.3" x2="22322.6" y2="16721.1" gradientUnits="userSpaceOnUse">
<stop stop-color="#F6F6F6"/>
<stop offset="1" stop-color="#C9D6FF"/>
</linearGradient>
<linearGradient id="paint46_linear_59_19" x1="22299.8" y1="13535.6" x2="26770.1" y2="15014.3" gradientUnits="userSpaceOnUse">
<stop stop-color="#F6F6F6"/>
<stop offset="1" stop-color="#C9D6FF"/>
</linearGradient>
<linearGradient id="paint47_linear_59_19" x1="44148.1" y1="10910.9" x2="43920.1" y2="15761.5" gradientUnits="userSpaceOnUse">
<stop stop-color="#F6F6F6"/>
<stop offset="1" stop-color="#C9D6FF"/>
</linearGradient>
<linearGradient id="paint48_linear_59_19" x1="26663.5" y1="8939.23" x2="28362.2" y2="5073.65" gradientUnits="userSpaceOnUse">
<stop stop-color="#F6F6F6"/>
<stop offset="1" stop-color="#C9D6FF"/>
</linearGradient>
<linearGradient id="paint49_linear_59_19" x1="23205.2" y1="4946.09" x2="23148.1" y2="6992.22" gradientUnits="userSpaceOnUse">
<stop stop-color="#3494E6"/>
<stop offset="1" stop-color="#DB61A4"/>
</linearGradient>
<linearGradient id="paint50_linear_59_19" x1="14092.1" y1="4203.88" x2="13469.6" y2="3641.45" gradientUnits="userSpaceOnUse">
<stop stop-color="#F6F6F6"/>
<stop offset="1" stop-color="#C9D6FF"/>
</linearGradient>
<linearGradient id="paint51_linear_59_19" x1="2748.97" y1="1197.04" x2="2744.68" y2="1236.71" gradientUnits="userSpaceOnUse">
<stop stop-color="#3494E6"/>
<stop offset="1" stop-color="#DB61A4"/>
</linearGradient>
<linearGradient id="paint52_linear_59_19" x1="8969.24" y1="449.811" x2="8980.39" y2="445.283" gradientUnits="userSpaceOnUse">
<stop stop-color="#3494E6"/>
<stop offset="1" stop-color="#DB61A4"/>
</linearGradient>
<linearGradient id="paint53_linear_59_19" x1="2123.26" y1="1387.51" x2="2123.26" y2="1415.17" gradientUnits="userSpaceOnUse">
<stop stop-color="#3494E6"/>
<stop offset="1" stop-color="#DB61A4"/>
</linearGradient>
<linearGradient id="paint54_linear_59_19" x1="2665.27" y1="1229.75" x2="2660.99" y2="1269.37" gradientUnits="userSpaceOnUse">
<stop stop-color="#3494E6"/>
<stop offset="1" stop-color="#DB61A4"/>
</linearGradient>
<linearGradient id="paint55_linear_59_19" x1="8957.1" y1="476.568" x2="8968.24" y2="472.055" gradientUnits="userSpaceOnUse">
<stop stop-color="#3494E6"/>
<stop offset="1" stop-color="#DB61A4"/>
</linearGradient>
<linearGradient id="paint56_linear_59_19" x1="2058.38" y1="1391.36" x2="2058.38" y2="1419.01" gradientUnits="userSpaceOnUse">
<stop stop-color="#3494E6"/>
<stop offset="1" stop-color="#DB61A4"/>
</linearGradient>
<linearGradient id="paint57_linear_59_19" x1="2475.16" y1="1565.45" x2="2470.87" y2="1605.09" gradientUnits="userSpaceOnUse">
<stop stop-color="#3494E6"/>
<stop offset="1" stop-color="#DB61A4"/>
</linearGradient>
<linearGradient id="paint58_linear_59_19" x1="8930.36" y1="738.896" x2="8941.51" y2="734.368" gradientUnits="userSpaceOnUse">
<stop stop-color="#3494E6"/>
<stop offset="1" stop-color="#DB61A4"/>
</linearGradient>
<linearGradient id="paint59_linear_59_19" x1="1910.94" y1="1826.55" x2="1910.94" y2="1854.24" gradientUnits="userSpaceOnUse">
<stop stop-color="#3494E6"/>
<stop offset="1" stop-color="#DB61A4"/>
</linearGradient>
<linearGradient id="paint60_linear_59_19" x1="2391.48" y1="1599.55" x2="2387.19" y2="1639.23" gradientUnits="userSpaceOnUse">
<stop stop-color="#3494E6"/>
<stop offset="1" stop-color="#DB61A4"/>
</linearGradient>
<linearGradient id="paint61_linear_59_19" x1="8918.82" y1="765.651" x2="8929.98" y2="761.123" gradientUnits="userSpaceOnUse">
<stop stop-color="#3494E6"/>
<stop offset="1" stop-color="#DB61A4"/>
</linearGradient>
<linearGradient id="paint62_linear_59_19" x1="1846.03" y1="1830.4" x2="1846.03" y2="1858.08" gradientUnits="userSpaceOnUse">
<stop stop-color="#3494E6"/>
<stop offset="1" stop-color="#DB61A4"/>
</linearGradient>
<linearGradient id="paint63_linear_59_19" x1="52473.6" y1="1204.51" x2="52477.9" y2="1244.18" gradientUnits="userSpaceOnUse">
<stop stop-color="#3494E6"/>
<stop offset="1" stop-color="#DB61A4"/>
</linearGradient>
<linearGradient id="paint64_linear_59_19" x1="595.821" y1="455.671" x2="584.682" y2="451.158" gradientUnits="userSpaceOnUse">
<stop stop-color="#3494E6"/>
<stop offset="1" stop-color="#DB61A4"/>
</linearGradient>
<linearGradient id="paint65_linear_59_19" x1="38319" y1="1397.7" x2="38319" y2="1425.38" gradientUnits="userSpaceOnUse">
<stop stop-color="#3494E6"/>
<stop offset="1" stop-color="#DB61A4"/>
</linearGradient>
<linearGradient id="paint66_linear_59_19" x1="52543" y1="1238.63" x2="52547.3" y2="1278.27" gradientUnits="userSpaceOnUse">
<stop stop-color="#3494E6"/>
<stop offset="1" stop-color="#DB61A4"/>
</linearGradient>
<linearGradient id="paint67_linear_59_19" x1="621.604" y1="483.147" x2="610.444" y2="478.623" gradientUnits="userSpaceOnUse">
<stop stop-color="#3494E6"/>
<stop offset="1" stop-color="#DB61A4"/>
</linearGradient>
<linearGradient id="paint68_linear_59_19" x1="38369.9" y1="1401.55" x2="38369.9" y2="1429.23" gradientUnits="userSpaceOnUse">
<stop stop-color="#3494E6"/>
<stop offset="1" stop-color="#DB61A4"/>
</linearGradient>
<linearGradient id="paint69_linear_59_19" x1="52701.3" y1="1571.15" x2="52705.6" y2="1610.78" gradientUnits="userSpaceOnUse">
<stop stop-color="#3494E6"/>
<stop offset="1" stop-color="#DB61A4"/>
</linearGradient>
<linearGradient id="paint70_linear_59_19" x1="680.204" y1="744.756" x2="669.065" y2="740.243" gradientUnits="userSpaceOnUse">
<stop stop-color="#3494E6"/>
<stop offset="1" stop-color="#DB61A4"/>
</linearGradient>
<linearGradient id="paint71_linear_59_19" x1="38485.2" y1="1833.74" x2="38485.2" y2="1861.4" gradientUnits="userSpaceOnUse">
<stop stop-color="#3494E6"/>
<stop offset="1" stop-color="#DB61A4"/>
</linearGradient>
<linearGradient id="paint72_linear_59_19" x1="52770.7" y1="1607.01" x2="52775" y2="1646.69" gradientUnits="userSpaceOnUse">
<stop stop-color="#3494E6"/>
<stop offset="1" stop-color="#DB61A4"/>
</linearGradient>
<linearGradient id="paint73_linear_59_19" x1="705.993" y1="771.508" x2="694.854" y2="766.995" gradientUnits="userSpaceOnUse">
<stop stop-color="#3494E6"/>
<stop offset="1" stop-color="#DB61A4"/>
</linearGradient>
<linearGradient id="paint74_linear_59_19" x1="38536" y1="1839.33" x2="38536" y2="1867.01" gradientUnits="userSpaceOnUse">
<stop stop-color="#3494E6"/>
<stop offset="1" stop-color="#DB61A4"/>
</linearGradient>
<linearGradient id="paint75_linear_59_19" x1="-311240" y1="84319.8" x2="-310013" y2="78189.5" gradientUnits="userSpaceOnUse">
<stop stop-color="#F6F6F6"/>
<stop offset="1" stop-color="#C9D6FF"/>
</linearGradient>
<linearGradient id="paint76_linear_59_19" x1="-297335" y1="77815.8" x2="-288038" y2="67811.2" gradientUnits="userSpaceOnUse">
<stop stop-color="#F6F6F6"/>
<stop offset="1" stop-color="#C9D6FF"/>
</linearGradient>
<linearGradient id="paint77_linear_59_19" x1="-150040" y1="16006.8" x2="-147292" y2="16006.8" gradientUnits="userSpaceOnUse">
<stop stop-color="#F6F6F6"/>
<stop offset="1" stop-color="#C9D6FF"/>
</linearGradient>
<linearGradient id="paint78_linear_59_19" x1="-970835" y1="173816" x2="-957667" y2="140636" gradientUnits="userSpaceOnUse">
<stop stop-color="#F6F6F6"/>
<stop offset="1" stop-color="#C9D6FF"/>
</linearGradient>
<linearGradient id="paint79_linear_59_19" x1="-248881" y1="20322.1" x2="-174882" y2="231269" gradientUnits="userSpaceOnUse">
<stop stop-color="#3494E6"/>
<stop offset="1" stop-color="#EC6EAD"/>
</linearGradient>
<linearGradient id="paint80_linear_59_19" x1="-24059.1" y1="66835.2" x2="-30337.7" y2="67458.1" gradientUnits="userSpaceOnUse">
<stop stop-color="#F6F6F6"/>
<stop offset="1" stop-color="#C9D6FF"/>
</linearGradient>
<linearGradient id="paint81_linear_59_19" x1="-1.04597e+06" y1="20373.7" x2="-924043" y2="20373.7" gradientUnits="userSpaceOnUse">
<stop stop-color="#F6F6F6"/>
<stop offset="1" stop-color="#C9D6FF"/>
</linearGradient>
<linearGradient id="paint82_linear_59_19" x1="-36411.2" y1="6768.13" x2="-36529.5" y2="6741.94" gradientUnits="userSpaceOnUse">
<stop stop-color="#F6F6F6"/>
<stop offset="1" stop-color="#C9D6FF"/>
</linearGradient>
<linearGradient id="paint83_linear_59_19" x1="-53430.3" y1="20521.9" x2="-97910.1" y2="46227.8" gradientUnits="userSpaceOnUse">
<stop stop-color="#F6F6F6"/>
<stop offset="1" stop-color="#C9D6FF"/>
</linearGradient>
<linearGradient id="paint84_linear_59_19" x1="-636128" y1="-59334.4" x2="-560175" y2="143626" gradientUnits="userSpaceOnUse">
<stop stop-color="#F6F6F6"/>
<stop offset="1" stop-color="#C9D6FF"/>
</linearGradient>
<linearGradient id="paint85_linear_59_19" x1="-290639" y1="-40289.4" x2="-224837" y2="55484.2" gradientUnits="userSpaceOnUse">
<stop stop-color="#F6F6F6"/>
<stop offset="1" stop-color="#C9D6FF"/>
</linearGradient>
<linearGradient id="paint86_linear_59_19" x1="-51785.3" y1="4174.37" x2="-51785.3" y2="4495.58" gradientUnits="userSpaceOnUse">
<stop stop-color="#F6F6F6"/>
<stop offset="1" stop-color="#C9D6FF"/>
</linearGradient>
<linearGradient id="paint87_linear_59_19" x1="280.703" y1="215.881" x2="280.095" y2="198.319" gradientUnits="userSpaceOnUse">
<stop stop-color="#FAD6C7"/>
<stop offset="1" stop-color="#E4857F"/>
</linearGradient>
<linearGradient id="paint88_linear_59_19" x1="-46012.8" y1="25683.4" x2="-45499.6" y2="23859.9" gradientUnits="userSpaceOnUse">
<stop stop-color="#FAD6C7"/>
<stop offset="1" stop-color="#E4857F"/>
</linearGradient>
<linearGradient id="paint89_linear_59_19" x1="59339.4" y1="4092.24" x2="59367.7" y2="4950.52" gradientUnits="userSpaceOnUse">
<stop stop-color="#3494E6"/>
<stop offset="1" stop-color="#DB61A4"/>
</linearGradient>
<linearGradient id="paint90_linear_59_19" x1="117225" y1="13697.2" x2="117114" y2="11750.7" gradientUnits="userSpaceOnUse">
<stop stop-color="#F6F6F6"/>
<stop offset="1" stop-color="#C9D6FF"/>
</linearGradient>
<linearGradient id="paint91_linear_59_19" x1="-20141.5" y1="6139.19" x2="-20437.3" y2="6724.55" gradientUnits="userSpaceOnUse">
<stop stop-color="#3494E6"/>
<stop offset="1" stop-color="#DB61A4"/>
</linearGradient>
<linearGradient id="paint92_linear_59_19" x1="-15199.8" y1="1796.25" x2="-15199.8" y2="1778.14" gradientUnits="userSpaceOnUse">
<stop stop-color="#FAD6C7"/>
<stop offset="1" stop-color="#E4857F"/>
</linearGradient>
<linearGradient id="paint93_linear_59_19" x1="-6579.66" y1="1891.04" x2="-6582.09" y2="1863.1" gradientUnits="userSpaceOnUse">
<stop stop-color="#FAD6C7"/>
<stop offset="1" stop-color="#E4857F"/>
</linearGradient>
<linearGradient id="paint94_linear_59_19" x1="-118562" y1="7312.2" x2="-118648" y2="10066.2" gradientUnits="userSpaceOnUse">
<stop stop-color="#FAD6C7"/>
<stop offset="1" stop-color="#E4857F"/>
</linearGradient>
<linearGradient id="paint95_linear_59_19" x1="55790" y1="4043.56" x2="55818.2" y2="4868.43" gradientUnits="userSpaceOnUse">
<stop stop-color="#3494E6"/>
<stop offset="1" stop-color="#DB61A4"/>
</linearGradient>
<linearGradient id="paint96_linear_59_19" x1="50006.9" y1="97340.8" x2="274294" y2="97340.8" gradientUnits="userSpaceOnUse">
<stop stop-color="#3494E6"/>
<stop offset="1" stop-color="#DB61A4"/>
</linearGradient>
<linearGradient id="paint97_linear_59_19" x1="-358956" y1="43528.8" x2="-347207" y2="46849.9" gradientUnits="userSpaceOnUse">
<stop stop-color="#3494E6"/>
<stop offset="1" stop-color="#DB61A4"/>
</linearGradient>
<linearGradient id="paint98_linear_59_19" x1="-355099" y1="16106" x2="-355019" y2="17179.4" gradientUnits="userSpaceOnUse">
<stop stop-color="#3494E6"/>
<stop offset="1" stop-color="#DB61A4"/>
</linearGradient>
<linearGradient id="paint99_linear_59_19" x1="-44641.9" y1="3071.55" x2="-44635.9" y2="3114.32" gradientUnits="userSpaceOnUse">
<stop stop-color="#3494E6"/>
<stop offset="1" stop-color="#DB61A4"/>
</linearGradient>
<linearGradient id="paint100_linear_59_19" x1="-44780.2" y1="3107.26" x2="-44774.2" y2="3150.22" gradientUnits="userSpaceOnUse">
<stop stop-color="#3494E6"/>
<stop offset="1" stop-color="#DB61A4"/>
</linearGradient>
<linearGradient id="paint101_linear_59_19" x1="-44625" y1="3124.57" x2="-44619.1" y2="3167.33" gradientUnits="userSpaceOnUse">
<stop stop-color="#3494E6"/>
<stop offset="1" stop-color="#DB61A4"/>
</linearGradient>
<linearGradient id="paint102_linear_59_19" x1="-44797" y1="3161.15" x2="-44791.1" y2="3204.1" gradientUnits="userSpaceOnUse">
<stop stop-color="#3494E6"/>
<stop offset="1" stop-color="#DB61A4"/>
</linearGradient>
<linearGradient id="paint103_linear_59_19" x1="-29168.7" y1="2245.97" x2="-29165.8" y2="2266.63" gradientUnits="userSpaceOnUse">
<stop stop-color="#3494E6"/>
<stop offset="1" stop-color="#DB61A4"/>
</linearGradient>
<linearGradient id="paint104_linear_59_19" x1="-33539.2" y1="3898.27" x2="-33374.6" y2="4333.36" gradientUnits="userSpaceOnUse">
<stop stop-color="#3494E6"/>
<stop offset="1" stop-color="#DB61A4"/>
</linearGradient>
<linearGradient id="paint105_linear_59_19" x1="24865.8" y1="2228.47" x2="24885.8" y2="2290.3" gradientUnits="userSpaceOnUse">
<stop stop-color="#F6F6F6"/>
<stop offset="1" stop-color="#C9D6FF"/>
</linearGradient>
<linearGradient id="paint106_linear_59_19" x1="-52620.8" y1="47294.2" x2="-51602.4" y2="48263.3" gradientUnits="userSpaceOnUse">
<stop stop-color="#FAD6C7"/>
<stop offset="1" stop-color="#E4857F"/>
</linearGradient>
<linearGradient id="paint107_linear_59_19" x1="-71034.5" y1="5529.7" x2="-71034.5" y2="5925.43" gradientUnits="userSpaceOnUse">
<stop stop-color="#F6F6F6"/>
<stop offset="1" stop-color="#C9D6FF"/>
</linearGradient>
<linearGradient id="paint108_linear_59_19" x1="-12884.8" y1="28377.4" x2="-11993.4" y2="25000" gradientUnits="userSpaceOnUse">
<stop stop-color="#FAD6C7"/>
<stop offset="1" stop-color="#E4857F"/>
</linearGradient>
<linearGradient id="paint109_linear_59_19" x1="-14733.2" y1="25441.2" x2="-14056.3" y2="22192.4" gradientUnits="userSpaceOnUse">
<stop stop-color="#FAD6C7"/>
<stop offset="1" stop-color="#E4857F"/>
</linearGradient>
<linearGradient id="paint110_linear_59_19" x1="7831.11" y1="1702.04" x2="7780.07" y2="1647.18" gradientUnits="userSpaceOnUse">
<stop stop-color="#FAD6C7"/>
<stop offset="1" stop-color="#E4857F"/>
</linearGradient>
<linearGradient id="paint111_linear_59_19" x1="-31087.8" y1="24505.6" x2="-30795.3" y2="21243.7" gradientUnits="userSpaceOnUse">
<stop stop-color="#F6F6F6"/>
<stop offset="1" stop-color="#C9D6FF"/>
</linearGradient>
<linearGradient id="paint112_linear_59_19" x1="-13420.1" y1="7810.6" x2="-12621.9" y2="7176.51" gradientUnits="userSpaceOnUse">
<stop stop-color="#FAD6C7"/>
<stop offset="1" stop-color="#E4857F"/>
</linearGradient>
<linearGradient id="paint113_linear_59_19" x1="-9263.89" y1="6985.68" x2="-9193.24" y2="6073.08" gradientUnits="userSpaceOnUse">
<stop stop-color="#F6F6F6"/>
<stop offset="1" stop-color="#C9D6FF"/>
</linearGradient>
<linearGradient id="paint114_linear_59_19" x1="-8711.86" y1="495.694" x2="-8691.37" y2="353.932" gradientUnits="userSpaceOnUse">
<stop stop-color="#FAD6C7"/>
<stop offset="1" stop-color="#E4857F"/>
</linearGradient>
<linearGradient id="paint115_linear_59_19" x1="409.55" y1="35720" x2="5739.31" y2="40652.3" gradientUnits="userSpaceOnUse">
<stop stop-color="#F6F6F6"/>
<stop offset="1" stop-color="#C9D6FF"/>
</linearGradient>
<linearGradient id="paint116_linear_59_19" x1="5717.28" y1="37466.1" x2="10187.9" y2="38945.6" gradientUnits="userSpaceOnUse">
<stop stop-color="#F6F6F6"/>
<stop offset="1" stop-color="#C9D6FF"/>
</linearGradient>
<linearGradient id="paint117_linear_59_19" x1="11123.9" y1="34844.8" x2="10896.2" y2="39694.7" gradientUnits="userSpaceOnUse">
<stop stop-color="#F6F6F6"/>
<stop offset="1" stop-color="#C9D6FF"/>
</linearGradient>
<linearGradient id="paint118_linear_59_19" x1="5010.78" y1="24656.8" x2="6709.17" y2="20791.6" gradientUnits="userSpaceOnUse">
<stop stop-color="#F6F6F6"/>
<stop offset="1" stop-color="#C9D6FF"/>
</linearGradient>
<linearGradient id="paint119_linear_59_19" x1="7227.49" y1="18019.3" x2="5861.98" y2="19701.3" gradientUnits="userSpaceOnUse">
<stop stop-color="#F6F6F6"/>
<stop offset="1" stop-color="#C9D6FF"/>
</linearGradient>
<linearGradient id="paint120_linear_59_19" x1="6689.5" y1="29401.1" x2="910.51" y2="29811.4" gradientUnits="userSpaceOnUse">
<stop stop-color="#3494E6"/>
<stop offset="1" stop-color="#DB61A4"/>
</linearGradient>
<linearGradient id="paint121_linear_59_19" x1="12502.2" y1="23965.9" x2="5186.38" y2="29687.3" gradientUnits="userSpaceOnUse">
<stop stop-color="#3494E6"/>
<stop offset="1" stop-color="#DB61A4"/>
</linearGradient>
<linearGradient id="paint122_linear_59_19" x1="725.994" y1="23921.7" x2="4168.11" y2="28123.6" gradientUnits="userSpaceOnUse">
<stop stop-color="#F6F6F6"/>
<stop offset="1" stop-color="#C9D6FF"/>
</linearGradient>
<linearGradient id="paint123_linear_59_19" x1="6001.92" y1="25044.4" x2="9723.75" y2="26669" gradientUnits="userSpaceOnUse">
<stop stop-color="#F6F6F6"/>
<stop offset="1" stop-color="#C9D6FF"/>
</linearGradient>
<linearGradient id="paint124_linear_59_19" x1="11123.9" y1="31112.3" x2="10896.2" y2="35962.2" gradientUnits="userSpaceOnUse">
<stop stop-color="#F6F6F6"/>
<stop offset="1" stop-color="#C9D6FF"/>
</linearGradient>
<linearGradient id="paint125_linear_59_19" x1="5010.78" y1="22205.5" x2="6709.17" y2="18340.2" gradientUnits="userSpaceOnUse">
<stop stop-color="#F6F6F6"/>
<stop offset="1" stop-color="#C9D6FF"/>
</linearGradient>
<linearGradient id="paint126_linear_59_19" x1="7227.49" y1="16058.9" x2="5861.98" y2="17740.9" gradientUnits="userSpaceOnUse">
<stop stop-color="#F6F6F6"/>
<stop offset="1" stop-color="#C9D6FF"/>
</linearGradient>
<linearGradient id="paint127_linear_59_19" x1="6463.5" y1="26192.7" x2="684.505" y2="26602.9" gradientUnits="userSpaceOnUse">
<stop stop-color="#3494E6"/>
<stop offset="1" stop-color="#DB61A4"/>
</linearGradient>
<linearGradient id="paint128_linear_59_19" x1="11122.7" y1="22173.9" x2="3806.87" y2="27895.4" gradientUnits="userSpaceOnUse">
<stop stop-color="#3494E6"/>
<stop offset="1" stop-color="#DB61A4"/>
</linearGradient>
<linearGradient id="paint129_linear_59_19" x1="725.995" y1="21085.7" x2="4168.11" y2="25287.6" gradientUnits="userSpaceOnUse">
<stop stop-color="#F6F6F6"/>
<stop offset="1" stop-color="#C9D6FF"/>
</linearGradient>
<linearGradient id="paint130_linear_59_19" x1="6001.92" y1="22208.4" x2="9723.75" y2="23833" gradientUnits="userSpaceOnUse">
<stop stop-color="#F6F6F6"/>
<stop offset="1" stop-color="#C9D6FF"/>
</linearGradient>
<linearGradient id="paint131_linear_59_19" x1="11123.9" y1="27381.8" x2="10896.1" y2="32232.1" gradientUnits="userSpaceOnUse">
<stop stop-color="#F6F6F6"/>
<stop offset="1" stop-color="#C9D6FF"/>
</linearGradient>
<linearGradient id="paint132_linear_59_19" x1="5010.78" y1="19754.1" x2="6709.17" y2="15888.8" gradientUnits="userSpaceOnUse">
<stop stop-color="#F6F6F6"/>
<stop offset="1" stop-color="#C9D6FF"/>
</linearGradient>
<linearGradient id="paint133_linear_59_19" x1="7227.49" y1="14098.5" x2="5861.98" y2="15780.5" gradientUnits="userSpaceOnUse">
<stop stop-color="#F6F6F6"/>
<stop offset="1" stop-color="#C9D6FF"/>
</linearGradient>
<linearGradient id="paint134_linear_59_19" x1="3194.4" y1="10757.3" x2="2572.22" y2="10194.9" gradientUnits="userSpaceOnUse">
<stop stop-color="#F6F6F6"/>
<stop offset="1" stop-color="#C9D6FF"/>
</linearGradient>
<linearGradient id="paint135_linear_59_19" x1="6237.91" y1="22985.8" x2="458.913" y2="23396" gradientUnits="userSpaceOnUse">
<stop stop-color="#3494E6"/>
<stop offset="1" stop-color="#DB61A4"/>
</linearGradient>
<linearGradient id="paint136_linear_59_19" x1="9742.78" y1="20383.7" x2="2426.45" y2="26105.1" gradientUnits="userSpaceOnUse">
<stop stop-color="#3494E6"/>
<stop offset="1" stop-color="#DB61A4"/>
</linearGradient>
<linearGradient id="paint137_linear_59_19" x1="409.548" y1="22659.1" x2="5739.61" y2="27590.9" gradientUnits="userSpaceOnUse">
<stop stop-color="#F6F6F6"/>
<stop offset="1" stop-color="#C9D6FF"/>
</linearGradient>
<linearGradient id="paint138_linear_59_19" x1="5717.28" y1="24405.3" x2="10187.9" y2="25884.3" gradientUnits="userSpaceOnUse">
<stop stop-color="#F6F6F6"/>
<stop offset="1" stop-color="#C9D6FF"/>
</linearGradient>
<linearGradient id="paint139_linear_59_19" x1="11123.9" y1="21782.4" x2="10896.1" y2="26633.2" gradientUnits="userSpaceOnUse">
<stop stop-color="#F6F6F6"/>
<stop offset="1" stop-color="#C9D6FF"/>
</linearGradient>
<linearGradient id="paint140_linear_59_19" x1="5010.78" y1="16077.1" x2="6709.17" y2="12211.9" gradientUnits="userSpaceOnUse">
<stop stop-color="#F6F6F6"/>
<stop offset="1" stop-color="#C9D6FF"/>
</linearGradient>
<linearGradient id="paint141_linear_59_19" x1="5911.01" y1="10653.3" x2="5853.89" y2="12699.5" gradientUnits="userSpaceOnUse">
<stop stop-color="#3494E6"/>
<stop offset="1" stop-color="#DB61A4"/>
</linearGradient>
<linearGradient id="paint142_linear_59_19" x1="3194.4" y1="8529.25" x2="2572.22" y2="7966.89" gradientUnits="userSpaceOnUse">
<stop stop-color="#F6F6F6"/>
<stop offset="1" stop-color="#C9D6FF"/>
</linearGradient>
<linearGradient id="paint143_linear_59_19" x1="1044.12" y1="1916.44" x2="1039.8" y2="1956.11" gradientUnits="userSpaceOnUse">
<stop stop-color="#3494E6"/>
<stop offset="1" stop-color="#DB61A4"/>
</linearGradient>
<linearGradient id="paint144_linear_59_19" x1="8729.19" y1="1014.31" x2="8740.35" y2="1009.79" gradientUnits="userSpaceOnUse">
<stop stop-color="#3494E6"/>
<stop offset="1" stop-color="#DB61A4"/>
</linearGradient>
<linearGradient id="paint145_linear_59_19" x1="800.907" y1="2241.56" x2="800.907" y2="2269.22" gradientUnits="userSpaceOnUse">
<stop stop-color="#3494E6"/>
<stop offset="1" stop-color="#DB61A4"/>
</linearGradient>
<linearGradient id="paint146_linear_59_19" x1="960.493" y1="1950.54" x2="956.176" y2="1990.22" gradientUnits="userSpaceOnUse">
<stop stop-color="#3494E6"/>
<stop offset="1" stop-color="#DB61A4"/>
</linearGradient>
<linearGradient id="paint147_linear_59_19" x1="8717.53" y1="1041.06" x2="8728.69" y2="1036.53" gradientUnits="userSpaceOnUse">
<stop stop-color="#3494E6"/>
<stop offset="1" stop-color="#DB61A4"/>
</linearGradient>
<linearGradient id="paint148_linear_59_19" x1="736.067" y1="2245.41" x2="736.067" y2="2273.07" gradientUnits="userSpaceOnUse">
<stop stop-color="#3494E6"/>
<stop offset="1" stop-color="#DB61A4"/>
</linearGradient>
<linearGradient id="paint149_linear_59_19" x1="771.156" y1="2284.85" x2="766.867" y2="2324.49" gradientUnits="userSpaceOnUse">
<stop stop-color="#3494E6"/>
<stop offset="1" stop-color="#DB61A4"/>
</linearGradient>
<linearGradient id="paint150_linear_59_19" x1="8690.79" y1="1305.27" x2="8701.95" y2="1300.74" gradientUnits="userSpaceOnUse">
<stop stop-color="#3494E6"/>
<stop offset="1" stop-color="#DB61A4"/>
</linearGradient>
<linearGradient id="paint151_linear_59_19" x1="589.398" y1="2681.43" x2="589.398" y2="2709.12" gradientUnits="userSpaceOnUse">
<stop stop-color="#3494E6"/>
<stop offset="1" stop-color="#DB61A4"/>
</linearGradient>
<linearGradient id="paint152_linear_59_19" x1="686.888" y1="2318.95" x2="682.595" y2="2358.62" gradientUnits="userSpaceOnUse">
<stop stop-color="#3494E6"/>
<stop offset="1" stop-color="#DB61A4"/>
</linearGradient>
<linearGradient id="paint153_linear_59_19" x1="8678.98" y1="1330.15" x2="8690.14" y2="1325.62" gradientUnits="userSpaceOnUse">
<stop stop-color="#3494E6"/>
<stop offset="1" stop-color="#DB61A4"/>
</linearGradient>
<linearGradient id="paint154_linear_59_19" x1="523.927" y1="2685.28" x2="523.927" y2="2712.96" gradientUnits="userSpaceOnUse">
<stop stop-color="#3494E6"/>
<stop offset="1" stop-color="#DB61A4"/>
</linearGradient>
<linearGradient id="paint155_linear_59_19" x1="51107.9" y1="1923.92" x2="51112.2" y2="1963.59" gradientUnits="userSpaceOnUse">
<stop stop-color="#3494E6"/>
<stop offset="1" stop-color="#DB61A4"/>
</linearGradient>
<linearGradient id="paint156_linear_59_19" x1="70.6414" y1="1021.63" x2="59.4984" y2="1017.12" gradientUnits="userSpaceOnUse">
<stop stop-color="#3494E6"/>
<stop offset="1" stop-color="#DB61A4"/>
</linearGradient>
<linearGradient id="paint157_linear_59_19" x1="37335.8" y1="2252.55" x2="37335.8" y2="2280.24" gradientUnits="userSpaceOnUse">
<stop stop-color="#3494E6"/>
<stop offset="1" stop-color="#DB61A4"/>
</linearGradient>
<linearGradient id="paint158_linear_59_19" x1="51177.6" y1="1958.05" x2="51181.9" y2="1997.68" gradientUnits="userSpaceOnUse">
<stop stop-color="#3494E6"/>
<stop offset="1" stop-color="#DB61A4"/>
</linearGradient>
<linearGradient id="paint159_linear_59_19" x1="96.437" y1="1048.46" x2="85.2763" y2="1043.93" gradientUnits="userSpaceOnUse">
<stop stop-color="#3494E6"/>
<stop offset="1" stop-color="#DB61A4"/>
</linearGradient>
<linearGradient id="paint160_linear_59_19" x1="37386.7" y1="2256.38" x2="37386.7" y2="2284.07" gradientUnits="userSpaceOnUse">
<stop stop-color="#3494E6"/>
<stop offset="1" stop-color="#DB61A4"/>
</linearGradient>
<linearGradient id="paint161_linear_59_19" x1="51335.9" y1="2292.34" x2="51340.2" y2="2332.01" gradientUnits="userSpaceOnUse">
<stop stop-color="#3494E6"/>
<stop offset="1" stop-color="#DB61A4"/>
</linearGradient>
<linearGradient id="paint162_linear_59_19" x1="155.024" y1="1309.26" x2="143.885" y2="1304.74" gradientUnits="userSpaceOnUse">
<stop stop-color="#3494E6"/>
<stop offset="1" stop-color="#DB61A4"/>
</linearGradient>
<linearGradient id="paint163_linear_59_19" x1="37502.3" y1="2687.77" x2="37502.3" y2="2715.42" gradientUnits="userSpaceOnUse">
<stop stop-color="#3494E6"/>
<stop offset="1" stop-color="#DB61A4"/>
</linearGradient>
<linearGradient id="paint164_linear_59_19" x1="51405.5" y1="2326.44" x2="51409.8" y2="2366.11" gradientUnits="userSpaceOnUse">
<stop stop-color="#3494E6"/>
<stop offset="1" stop-color="#DB61A4"/>
</linearGradient>
<linearGradient id="paint165_linear_59_19" x1="180.82" y1="1336" x2="169.681" y2="1331.49" gradientUnits="userSpaceOnUse">
<stop stop-color="#3494E6"/>
<stop offset="1" stop-color="#DB61A4"/>
</linearGradient>
<linearGradient id="paint166_linear_59_19" x1="37553.1" y1="2691.63" x2="37553.1" y2="2719.28" gradientUnits="userSpaceOnUse">
<stop stop-color="#3494E6"/>
<stop offset="1" stop-color="#DB61A4"/>
</linearGradient>
<linearGradient id="paint167_linear_59_19" x1="1822.41" y1="10295.9" x2="1818.44" y2="10214.2" gradientUnits="userSpaceOnUse">
<stop stop-color="#F6F6F6"/>
<stop offset="1" stop-color="#C9D6FF"/>
</linearGradient>
<linearGradient id="paint168_linear_59_19" x1="1334.37" y1="25776.9" x2="-443.471" y2="28161.6" gradientUnits="userSpaceOnUse">
<stop stop-color="#F6F6F6"/>
<stop offset="1" stop-color="#C9D6FF"/>
</linearGradient>
<linearGradient id="paint169_linear_59_19" x1="853.549" y1="4013.32" x2="1601.03" y2="4013.32" gradientUnits="userSpaceOnUse">
<stop stop-color="#F6F6F6"/>
<stop offset="1" stop-color="#C9D6FF"/>
</linearGradient>
<linearGradient id="paint170_linear_59_19" x1="765.682" y1="1800.78" x2="765.224" y2="1842" gradientUnits="userSpaceOnUse">
<stop stop-color="#3494E6"/>
<stop offset="1" stop-color="#EC6EAD"/>
</linearGradient>
<linearGradient id="paint171_linear_59_19" x1="667.696" y1="37676" x2="-3084.75" y2="42404.7" gradientUnits="userSpaceOnUse">
<stop stop-color="#3494E6"/>
<stop offset="1" stop-color="#EC6EAD"/>
</linearGradient>
<linearGradient id="paint172_linear_59_19" x1="737.979" y1="32116.3" x2="1436.1" y2="37125.7" gradientUnits="userSpaceOnUse">
<stop stop-color="#3494E6"/>
<stop offset="1" stop-color="#EC6EAD"/>
</linearGradient>
<linearGradient id="paint173_linear_59_19" x1="698.687" y1="22325" x2="1824.22" y2="23281.8" gradientUnits="userSpaceOnUse">
<stop stop-color="#3494E6"/>
<stop offset="1" stop-color="#EC6EAD"/>
</linearGradient>
<linearGradient id="paint174_linear_59_19" x1="221061" y1="7396.91" x2="221061" y2="7853.77" gradientUnits="userSpaceOnUse">
<stop stop-color="#F6F6F6"/>
<stop offset="1" stop-color="#C9D6FF"/>
</linearGradient>
<linearGradient id="paint175_linear_59_19" x1="-57525.6" y1="8995.74" x2="-57829.4" y2="9555.19" gradientUnits="userSpaceOnUse">
<stop stop-color="#3494E6"/>
<stop offset="1" stop-color="#DB61A4"/>
</linearGradient>
<linearGradient id="paint176_linear_59_19" x1="-17680.7" y1="21865" x2="-17294.7" y2="21382" gradientUnits="userSpaceOnUse">
<stop stop-color="#FAD6C7"/>
<stop offset="1" stop-color="#E4857F"/>
</linearGradient>
<linearGradient id="paint177_linear_59_19" x1="-25697.2" y1="39681.2" x2="-24045.5" y2="36422.9" gradientUnits="userSpaceOnUse">
<stop stop-color="#FAD6C7"/>
<stop offset="1" stop-color="#E4857F"/>
</linearGradient>
<linearGradient id="paint178_linear_59_19" x1="-32828.1" y1="38068" x2="-32393.3" y2="34967.2" gradientUnits="userSpaceOnUse">
<stop stop-color="#FAD6C7"/>
<stop offset="1" stop-color="#E4857F"/>
</linearGradient>
<linearGradient id="paint179_linear_59_19" x1="-78674.4" y1="29567.9" x2="-78506.3" y2="25621.4" gradientUnits="userSpaceOnUse">
<stop stop-color="#F6F6F6"/>
<stop offset="1" stop-color="#C9D6FF"/>
</linearGradient>
<linearGradient id="paint180_linear_59_19" x1="28914.1" y1="1369.49" x2="28890.4" y2="1205.86" gradientUnits="userSpaceOnUse">
<stop stop-color="#FAD6C7"/>
<stop offset="1" stop-color="#E4857F"/>
</linearGradient>
<linearGradient id="paint181_linear_59_19" x1="-96089.2" y1="40022.8" x2="-96171.1" y2="39730" gradientUnits="userSpaceOnUse">
<stop stop-color="#FAD6C7"/>
<stop offset="1" stop-color="#E4857F"/>
</linearGradient>
<linearGradient id="paint182_linear_59_19" x1="-27228.2" y1="4266.34" x2="-27226.6" y2="4190.4" gradientUnits="userSpaceOnUse">
<stop stop-color="#F6F6F6"/>
<stop offset="1" stop-color="#C9D6FF"/>
</linearGradient>
<linearGradient id="paint183_linear_59_19" x1="95232" y1="7265" x2="95232" y2="7645.51" gradientUnits="userSpaceOnUse">
<stop stop-color="#F6F6F6"/>
<stop offset="1" stop-color="#C9D6FF"/>
</linearGradient>
<linearGradient id="paint184_linear_59_19" x1="-39467.6" y1="44226.4" x2="-38873.2" y2="42059.8" gradientUnits="userSpaceOnUse">
<stop stop-color="#FAD6C7"/>
<stop offset="1" stop-color="#E4857F"/>
</linearGradient>
<linearGradient id="paint185_linear_59_19" x1="-39362.6" y1="44372.4" x2="-38768.2" y2="42206.4" gradientUnits="userSpaceOnUse">
<stop stop-color="#FAD6C7"/>
<stop offset="1" stop-color="#E4857F"/>
</linearGradient>
<linearGradient id="paint186_linear_59_19" x1="-155772" y1="13506.6" x2="-155813" y2="16262.2" gradientUnits="userSpaceOnUse">
<stop stop-color="#FAD6C7"/>
<stop offset="1" stop-color="#E4857F"/>
</linearGradient>
<linearGradient id="paint187_linear_59_19" x1="-54766.8" y1="8186.39" x2="-54795.2" y2="9203.79" gradientUnits="userSpaceOnUse">
<stop stop-color="#3494E6"/>
<stop offset="1" stop-color="#DB61A4"/>
</linearGradient>
<linearGradient id="paint188_linear_59_19" x1="-108291" y1="25751.1" x2="-108170" y2="23443.4" gradientUnits="userSpaceOnUse">
<stop stop-color="#F6F6F6"/>
<stop offset="1" stop-color="#C9D6FF"/>
</linearGradient>
<linearGradient id="paint189_linear_59_19" x1="37896.6" y1="11552.5" x2="38247.3" y2="12246.4" gradientUnits="userSpaceOnUse">
<stop stop-color="#3494E6"/>
<stop offset="1" stop-color="#DB61A4"/>
</linearGradient>
<linearGradient id="paint190_linear_59_19" x1="-11016.5" y1="3515.35" x2="-11016.6" y2="3493.91" gradientUnits="userSpaceOnUse">
<stop stop-color="#FAD6C7"/>
<stop offset="1" stop-color="#E4857F"/>
</linearGradient>
<linearGradient id="paint191_linear_59_19" x1="13067.2" y1="3581.57" x2="13070" y2="3548.5" gradientUnits="userSpaceOnUse">
<stop stop-color="#FAD6C7"/>
<stop offset="1" stop-color="#E4857F"/>
</linearGradient>
<linearGradient id="paint192_linear_59_19" x1="-106527" y1="14593.4" x2="-106613" y2="17856.9" gradientUnits="userSpaceOnUse">
<stop stop-color="#FAD6C7"/>
<stop offset="1" stop-color="#E4857F"/>
</linearGradient>
<linearGradient id="paint193_linear_59_19" x1="-51272.7" y1="8055.86" x2="-51301.3" y2="9033.8" gradientUnits="userSpaceOnUse">
<stop stop-color="#3494E6"/>
<stop offset="1" stop-color="#DB61A4"/>
</linearGradient>
<linearGradient id="paint194_linear_59_19" x1="69279.6" y1="25948.8" x2="67457.1" y2="26464.1" gradientUnits="userSpaceOnUse">
<stop stop-color="#3494E6"/>
<stop offset="1" stop-color="#DB61A4"/>
</linearGradient>
<linearGradient id="paint195_linear_59_19" x1="-31268.3" y1="11197.4" x2="-31306.7" y2="11190.6" gradientUnits="userSpaceOnUse">
<stop stop-color="#3494E6"/>
<stop offset="1" stop-color="#DB61A4"/>
</linearGradient>
<linearGradient id="paint196_linear_59_19" x1="-31269.1" y1="7703.21" x2="-31306.1" y2="7693.48" gradientUnits="userSpaceOnUse">
<stop stop-color="#3494E6"/>
<stop offset="1" stop-color="#DB61A4"/>
</linearGradient>
<linearGradient id="paint197_linear_59_19" x1="-31251.6" y1="9863.53" x2="-31289.6" y2="9855.84" gradientUnits="userSpaceOnUse">
<stop stop-color="#3494E6"/>
<stop offset="1" stop-color="#DB61A4"/>
</linearGradient>
<linearGradient id="paint198_linear_59_19" x1="-31232.3" y1="12512" x2="-31270.9" y2="12505.9" gradientUnits="userSpaceOnUse">
<stop stop-color="#3494E6"/>
<stop offset="1" stop-color="#DB61A4"/>
</linearGradient>
<linearGradient id="paint199_linear_59_19" x1="68681.4" y1="12216.4" x2="68669" y2="12382.9" gradientUnits="userSpaceOnUse">
<stop stop-color="#3494E6"/>
<stop offset="1" stop-color="#DB61A4"/>
</linearGradient>
<clipPath id="clip0_59_19">
<rect width="520" height="369.027" fill="white"/>
</clipPath>
</defs>
</svg>
