<svg width="520" height="520" viewBox="0 0 520 520" fill="none" xmlns="http://www.w3.org/2000/svg">
<g clip-path="url(#clip0_69_252)">
<path fill-rule="evenodd" clip-rule="evenodd" d="M508.833 376.84V331.63L468.652 306.761C468.584 307.094 468.472 307.417 468.319 307.72C468.042 308.265 467.593 308.705 467.043 308.971C466.456 309.235 465.808 309.329 465.17 309.242C464.564 309.164 463.973 308.993 463.419 308.733V348.739L508.833 376.844V376.84ZM415.616 136.655C415.046 136.157 414.57 135.561 414.21 134.895C413.855 134.276 413.652 133.582 413.618 132.869L370.201 106.015V151.225L415.616 179.33V136.668V136.655ZM413.948 131.651L370.201 104.618V59.404L415.616 87.509V131.072C415.297 131.007 414.967 131.024 414.656 131.122C414.361 131.222 414.106 131.417 413.931 131.676L413.948 131.651ZM416.825 131.539C417.433 131.933 417.963 132.436 418.389 133.023C418.831 133.611 419.155 134.28 419.343 134.991L462.243 161.537V116.339L416.825 88.2345V131.564V131.539ZM419.389 136.417L462.243 162.934V208.168L416.808 180.068V137.435C417.107 137.567 417.428 137.645 417.755 137.664C418.042 137.68 418.329 137.622 418.589 137.497C418.837 137.368 419.043 137.17 419.181 136.926C419.266 136.774 419.331 136.612 419.373 136.442L419.389 136.417ZM322.54 266.372C321.418 265.693 320.457 264.778 319.725 263.69C319.012 262.697 318.529 261.558 318.312 260.354L275.833 234.084L275.883 234.009H275.791V0.371119H276.229L276.463 0C354.3 48.1759 432.138 96.3436 509.976 144.503L509.93 144.578H510.017V235.444C510.691 235.95 511.258 236.585 511.685 237.312C512.121 238.011 512.369 238.811 512.402 239.634C512.409 239.958 512.345 240.28 512.215 240.577C512.093 240.851 511.891 241.083 511.635 241.24C511.376 241.395 511.078 241.474 510.776 241.469C510.521 241.466 510.268 241.423 510.026 241.344V378.208H509.609L509.379 378.575L326.889 265.646C326.845 265.755 326.793 265.861 326.735 265.963C326.479 266.42 326.061 266.764 325.563 266.926C325.018 267.084 324.44 267.084 323.895 266.926C323.423 266.799 322.97 266.61 322.548 266.363L322.54 266.372ZM318.303 258.949C318.354 258.617 318.464 258.296 318.628 258.003C318.833 257.645 319.137 257.355 319.504 257.169C319.893 256.98 320.324 256.895 320.755 256.923C321.336 256.96 321.903 257.115 322.423 257.377V216.262L277.009 188.157V233.367L318.303 258.949ZM323.582 258.115C324.597 258.892 325.448 259.863 326.084 260.972C326.715 262.004 327.073 263.181 327.122 264.391L369.017 290.315V245.101L323.582 217V258.115ZM369.005 201.993C368.035 201.302 367.213 200.424 366.586 199.412C365.977 198.475 365.593 197.411 365.464 196.301L323.582 170.389V215.603L368.996 243.704V202.005L369.005 201.993ZM365.577 194.971C365.618 194.827 365.671 194.688 365.736 194.554C365.936 194.135 366.277 193.8 366.699 193.607C367.145 193.414 367.637 193.354 368.117 193.436C368.421 193.484 368.719 193.567 369.005 193.682V151.883L323.582 123.783V168.992L365.569 194.971H365.577ZM370.201 194.337V152.617L415.616 180.722V225.936L373.742 200.025C373.613 198.916 373.229 197.853 372.62 196.918C371.997 195.903 371.174 195.024 370.201 194.337ZM373.621 201.355C373.581 201.498 373.528 201.638 373.462 201.772C373.262 202.191 372.921 202.528 372.499 202.723C372.052 202.912 371.56 202.97 371.081 202.889C370.777 202.841 370.479 202.759 370.193 202.643V244.442L415.607 272.547V227.333L373.621 201.355ZM508.825 240.714C508.202 240.244 507.672 239.663 507.261 239C506.86 238.382 506.594 237.686 506.481 236.957L463.411 210.308V255.517L508.825 283.622V240.714ZM506.64 235.64L506.669 235.581C506.817 235.243 507.088 234.973 507.428 234.826C507.786 234.68 508.181 234.649 508.558 234.739C508.658 234.757 508.757 234.782 508.854 234.814V191.814L463.44 163.709V208.911L506.64 235.64ZM462.226 308.07C460.73 307.056 459.468 305.733 458.524 304.192C457.601 302.783 457.042 301.167 456.897 299.489L416.808 274.682V319.892L462.226 347.997V308.07ZM456.993 298.146C457.059 297.814 457.172 297.492 457.327 297.191C457.602 296.644 458.051 296.204 458.603 295.94C459.189 295.677 459.838 295.585 460.475 295.673C461.082 295.748 461.673 295.918 462.226 296.178V256.176L416.808 228.092V273.285L456.993 298.146ZM463.419 296.841V256.914L508.833 285.019V330.229L468.748 305.422C468.601 303.745 468.042 302.129 467.122 300.719C466.178 299.178 464.916 297.857 463.419 296.845V296.841ZM508.833 190.396V145.191L463.419 117.09V162.3L508.833 190.401V190.396ZM462.226 254.779V209.565L416.808 181.465V226.674L462.226 254.779ZM415.616 319.154V273.961L370.201 245.839V291.057L415.616 319.162V319.154ZM369.005 150.487V105.277L323.582 77.1719V122.382L368.996 150.487H369.005ZM369.005 103.876V58.666L323.582 30.5652V75.7749L368.996 103.876H369.005ZM322.398 214.861V169.651L276.984 141.546V186.76L322.398 214.861ZM322.398 168.254V123.045L276.984 94.9397V140.149L322.398 168.254ZM322.398 121.644V76.4338L276.984 48.333V93.5428L322.398 121.644ZM322.398 75.0369V29.8271L276.984 1.72216V46.9319L322.398 75.0369Z" fill="white"/>
<path fill-rule="evenodd" clip-rule="evenodd" d="M250.192 423.109H250.726C251.143 423.109 251.514 423.109 251.906 423.134L252.569 423.155L253.587 423.192L254.325 423.226C254.646 423.226 254.963 423.255 255.28 423.276L256.014 423.317L256.989 423.38L257.682 423.43L258.691 423.513L259.349 423.568L260.413 423.672L261.005 423.726L250.192 423.109ZM250.76 443.304H250.739C250.363 443.304 249.984 443.304 249.609 443.279H248.47H247.332C246.957 443.279 246.577 443.279 246.202 443.304C245.827 443.329 245.451 443.324 245.08 443.341C244.709 443.358 244.334 443.374 243.963 443.391L242.853 443.462L241.753 443.541L240.66 443.637C240.299 443.671 239.936 443.708 239.572 443.75L238.496 443.871L237.428 444.012C237.074 444.058 236.72 444.108 236.369 444.163L235.318 444.329L234.28 444.504L233.25 444.696L232.233 444.901L231.224 445.122C230.89 445.193 230.556 445.272 230.227 445.351L229.243 445.593L228.267 445.847L227.304 446.114L226.353 446.393L225.411 446.685L224.485 446.986L223.572 447.298C221.523 448.018 219.517 448.853 217.563 449.8C209.62 453.682 203.894 459.028 201.638 465.116L199.253 466.175C199.253 466.175 202.468 481.012 204.557 485.357C206.646 489.702 224.61 496.303 226.516 498.354C228.421 500.406 259.074 499.251 262.794 498.204L307.987 485.557L304.313 455.488L258.899 439.701L250.747 443.32L250.76 443.304ZM262.61 423.918L250.192 423.109C249.617 423.109 249.046 423.109 248.47 423.109H246.944C245.109 423.134 243.288 423.198 241.482 423.301H240.522H240.41H240.235L239.789 423.33H239.651L239.317 423.355L238.271 423.438L237.645 423.493L236.24 423.626H236.032H235.873L234.434 423.784L233.788 423.868L232.817 423.989L232.166 424.076L231.19 424.214L230.54 424.31L229.631 424.456L228.926 424.568L228.042 424.723L227.371 424.839L226.437 425.015L225.82 425.131C225.453 425.202 225.086 425.277 224.723 425.356L223.947 425.519L222.826 425.765L222.133 425.928L221.366 426.107L220.599 426.299L219.882 426.478L219.123 426.678L218.447 426.858L217.663 427.079L217.025 427.262L216.241 427.491L215.599 427.683L214.836 427.921L214.294 428.096C213.714 428.284 213.139 428.471 212.568 428.672L212.184 428.801L211.35 429.105L210.883 429.276L210.016 429.597L209.574 429.764L208.74 430.098L208.302 430.273L207.468 430.619L207.051 430.79L206.196 431.157L205.883 431.294C204.416 431.945 202.992 432.626 201.613 433.338L201.559 433.367C201.242 433.529 200.93 433.696 200.621 433.863L200.412 433.976C200.108 434.142 199.808 434.305 199.508 434.476L199.332 434.572L198.415 435.101L198.298 435.172C197.977 435.36 197.665 435.548 197.352 435.739C185.718 442.878 178.516 452.448 178.27 462.985V463.327L178.208 470.587C178.208 470.658 178.208 470.729 178.208 470.8C178.208 493.209 209.67 511.373 248.479 511.373C287.158 511.373 318.532 493.325 318.741 471.017L318.808 463.757V463.69V463.34V462.994V462.639V462.522V462.406V462.297V462.176C318.808 461.985 318.783 461.789 318.766 461.593V461.476V461.438V461.359C318.463 458.41 317.643 455.538 316.343 452.873V452.832C316.224 452.582 316.099 452.331 315.968 452.081L315.893 451.939C315.772 451.702 315.643 451.468 315.509 451.231L315.413 451.064C315.284 450.83 315.151 450.605 314.996 450.376L314.892 450.205C314.75 449.971 314.609 449.742 314.475 449.513L314.392 449.383C313.513 448.048 312.546 446.774 311.498 445.568L311.381 445.434C311.198 445.222 311.006 445.017 310.814 444.801L310.664 444.634L310.084 444.021L309.905 443.833C309.713 443.641 309.521 443.445 309.325 443.254L309.113 443.049C308.917 442.853 308.717 442.661 308.516 442.474L308.341 442.311C307.324 441.369 306.245 440.453 305.105 439.563C304.868 439.376 304.626 439.196 304.384 439.013L304.134 438.825L303.467 438.337L303.15 438.112L302.487 437.649L302.137 437.412L301.465 436.961L301.111 436.732L300.419 436.29L300.064 436.065L299.339 435.623L299.072 435.464C298.175 434.931 297.258 434.413 296.311 433.909L296.061 433.775C295.811 433.642 295.552 433.509 295.294 433.358L294.877 433.137L294.135 432.77L293.672 432.545L292.942 432.199L292.429 431.962C292.191 431.849 291.958 431.741 291.716 431.636L291.145 431.382L290.473 431.09L289.844 430.823L289.168 430.544L288.564 430.302C288.334 430.21 288.105 430.114 287.871 430.027C287.454 429.864 287.037 429.706 286.62 429.547L285.882 429.28L285.253 429.051L284.544 428.809L283.877 428.58L283.164 428.346L282.467 428.121L281.763 427.9L281.049 427.683L280.332 427.471C280.086 427.396 279.84 427.325 279.59 427.258L278.902 427.062L278.068 426.837L277.447 426.67L276.488 426.428L275.787 426.257L274.49 425.949L273.952 425.832L272.972 425.615L272.326 425.482L271.442 425.302L270.758 425.169L269.862 425.002L269.211 424.885L268.277 424.723L267.606 424.614C267.293 424.56 266.972 424.514 266.655 424.464L266.034 424.368L264.966 424.218L264.416 424.143L263.036 423.972L262.81 423.943L262.61 423.918Z" fill="white"/>
<path fill-rule="evenodd" clip-rule="evenodd" d="M262.227 436.794C301.036 436.794 332.493 454.958 332.493 477.367C332.493 499.776 301.036 517.94 262.227 517.94C223.418 517.94 191.96 499.776 191.96 477.367C191.96 454.958 223.422 436.794 262.227 436.794ZM262.227 449.721C235.777 449.721 214.332 462.101 214.332 477.376C214.332 492.65 235.777 505.034 262.227 505.034C288.676 505.034 310.126 492.65 310.126 477.376C310.126 462.101 288.68 449.713 262.227 449.713V449.721Z" fill="#CED0ED"/>
<path fill-rule="evenodd" clip-rule="evenodd" d="M254.025 426.624C292.829 426.624 324.291 444.792 324.291 467.197V467.414L324.224 474.673C324.024 496.982 292.642 515.03 253.958 515.03C215.153 515.03 183.691 496.866 183.691 474.457V474.244L183.758 466.984C183.758 466.63 183.796 466.284 183.812 465.933C183.829 465.583 183.833 465.341 183.858 465.045C183.904 464.57 183.975 464.099 184.046 463.623C184.079 463.423 184.096 463.206 184.133 463.015C184.233 462.447 184.363 461.889 184.504 461.347C184.529 461.242 184.546 461.134 184.575 461.03C184.75 460.371 184.952 459.719 185.18 459.074C191.718 440.572 220.048 426.653 254.02 426.653L254.025 426.624ZM254.025 446.802C227.571 446.802 206.125 459.182 206.125 474.457C206.125 489.731 227.571 502.115 254.025 502.115C280.478 502.115 301.92 489.731 301.92 474.457C301.92 459.182 280.478 446.802 254.025 446.802Z" fill="#445BB8"/>
<path fill-rule="evenodd" clip-rule="evenodd" d="M254.025 426.624C292.829 426.624 324.291 444.792 324.291 467.197C324.291 489.602 292.829 507.774 254.025 507.774C215.22 507.774 183.758 489.606 183.758 467.197C183.758 444.788 215.216 426.624 254.025 426.624ZM254.025 439.551C227.571 439.551 206.125 451.931 206.125 467.205C206.125 482.48 227.571 494.864 254.025 494.864C280.478 494.864 301.92 482.484 301.92 467.205C301.92 451.927 280.478 439.542 254.025 439.542V439.551Z" fill="#91B6FF"/>
<path fill-rule="evenodd" clip-rule="evenodd" d="M254.025 426.624C288.464 426.624 317.115 440.931 323.128 459.816L301.194 462.377C297.241 449.4 277.626 439.542 254.025 439.542C250.915 439.541 247.807 439.715 244.717 440.064V426.995C247.761 426.751 250.864 426.627 254.025 426.624Z" fill="white"/>
<path fill-rule="evenodd" clip-rule="evenodd" d="M323.128 459.816C323.893 462.202 324.286 464.691 324.291 467.197C324.291 489.606 292.829 507.774 254.025 507.774H253.991V494.847H254.025C280.478 494.847 301.92 482.467 301.92 467.188C301.917 465.554 301.673 463.93 301.194 462.368L323.128 459.816Z" fill="#618BE0"/>
<path fill-rule="evenodd" clip-rule="evenodd" d="M301.92 467.197C301.92 451.922 280.478 439.542 254.025 439.542C227.571 439.542 206.125 451.922 206.125 467.197C206.13 468.419 206.27 469.637 206.542 470.829C209.62 457.268 229.71 446.802 254.033 446.802C278.356 446.802 298.442 457.268 301.52 470.829C301.789 469.637 301.923 468.418 301.92 467.197Z" fill="#445BB8"/>
<path fill-rule="evenodd" clip-rule="evenodd" d="M254.846 426.995C274.29 426.995 291.9 431.549 304.647 438.913C314.125 444.383 320.909 451.422 323.807 459.282L324.858 459.157L324.912 459.616L323.966 459.729C324.874 462.323 325.339 465.052 325.342 467.802C325.342 479.094 317.419 489.306 304.647 496.69C291.875 504.075 274.29 508.604 254.846 508.604H253.57C234.63 508.412 217.513 503.896 205.045 496.699C192.256 489.314 184.35 479.102 184.35 467.81C184.35 456.518 192.273 446.302 205.045 438.921C217.818 431.54 235.402 426.995 254.846 426.995ZM323.499 459.77L302.062 462.347C302.66 464.092 302.969 465.923 302.975 467.768C302.975 475.491 297.554 482.475 288.831 487.521C280.107 492.566 268.115 495.656 254.846 495.656H254.033V508.116H254.846C274.211 508.116 291.737 503.583 304.417 496.261C317.098 488.939 324.883 478.885 324.883 467.772C324.877 465.041 324.409 462.329 323.499 459.754V459.77ZM301.59 462.402H301.54L301.515 462.176C299.597 456.872 295.01 452.123 288.589 448.416C279.953 443.412 268.019 440.347 254.813 440.347C241.607 440.347 229.693 443.433 221.058 448.416C212.422 453.399 207.147 460.225 207.147 467.777C207.147 475.328 212.463 482.167 221.058 487.133C229.397 491.958 240.856 495.002 253.537 495.193V494.13H254V495.231H254.813C267.998 495.231 279.932 492.145 288.589 487.162C297.245 482.179 302.499 475.353 302.499 467.806C302.496 465.971 302.185 464.15 301.578 462.418L301.59 462.402ZM301.903 461.901L323.336 459.328C320.472 451.602 313.745 444.692 304.417 439.313C291.737 431.991 274.211 427.462 254.846 427.462C235.481 427.462 217.955 431.991 205.275 439.313C192.594 446.635 184.809 456.689 184.809 467.806C184.809 478.923 192.632 488.993 205.275 496.294C217.676 503.458 234.714 507.945 253.57 508.141V495.681C240.81 495.489 229.285 492.42 220.862 487.558C212.105 482.513 206.717 475.528 206.717 467.806C206.717 460.083 212.138 453.094 220.862 448.049C229.585 443.003 241.577 439.918 254.846 439.918C268.115 439.918 280.128 443.024 288.831 448.049C295.285 451.76 299.918 456.543 301.899 461.901H301.903Z" fill="#32417A"/>
<path fill-rule="evenodd" clip-rule="evenodd" d="M297.908 519.783C298.645 519.783 299.365 519.565 299.977 519.156C300.589 518.747 301.067 518.165 301.349 517.485C301.63 516.804 301.704 516.056 301.56 515.333C301.417 514.611 301.062 513.947 300.541 513.427C300.021 512.906 299.357 512.551 298.635 512.407C297.912 512.264 297.164 512.338 296.483 512.619C295.803 512.901 295.221 513.379 294.812 513.991C294.403 514.603 294.185 515.323 294.185 516.06C294.187 517.047 294.58 517.992 295.278 518.69C295.976 519.388 296.921 519.781 297.908 519.783Z" fill="#5F629E"/>
<path fill-rule="evenodd" clip-rule="evenodd" d="M171.995 105.381L76.83 50.4263C32.2999 67.2934 75.579 169.706 63.0694 232.091C98.2006 252.373 123.116 266.747 158.238 287.033C171.661 228.009 130.792 122.594 171.995 105.381Z" fill="white"/>
<path fill-rule="evenodd" clip-rule="evenodd" d="M145.166 107.299L119.942 92.7339L119.367 93.7305L144.59 108.296L145.166 107.299ZM77.8224 187.486L136.284 221.262L136.859 220.265L78.3937 186.489L77.8224 187.486ZM112.324 220.269L112.895 219.273L136.859 233.096L136.284 234.088L112.324 220.257V220.269ZM111.336 163.309L75.137 142.41L74.5657 143.406L110.764 164.293L111.336 163.296V163.309ZM133.599 163.309L133.019 164.293L74.5574 130.538L75.1286 129.541L133.59 163.296L133.599 163.309ZM133.599 150.449L133.019 151.433L74.5574 117.657L75.1286 116.665L133.59 150.42L133.599 150.449ZM140.533 113.337L139.954 114.334L126.531 106.582L127.106 105.59L140.533 113.337Z" fill="#F2F3FF"/>
<path fill-rule="evenodd" clip-rule="evenodd" d="M171.995 105.381C171.995 105.381 180.789 106.82 179.188 116.89L165.773 109.142C167.649 107.587 169.746 106.319 171.995 105.381Z" fill="#CED0ED"/>
<path fill-rule="evenodd" clip-rule="evenodd" d="M158.872 72.6892C160.512 72.6852 162.103 73.2501 163.374 74.2877C164.644 75.3253 165.515 76.7713 165.839 78.3793C166.163 79.9873 165.919 81.6577 165.149 83.106C164.379 84.5542 163.13 85.6906 161.616 86.3215C160.102 86.9523 158.416 87.0386 156.845 86.5656C155.275 86.0926 153.917 85.0896 153.003 83.7276C152.089 82.3655 151.676 80.7287 151.834 79.096C151.991 77.4634 152.711 75.936 153.868 74.7742C154.524 74.1135 155.303 73.5892 156.162 73.2313C157.021 72.8735 157.942 72.6892 158.872 72.6892ZM162.521 76.121C161.676 75.277 160.565 74.752 159.376 74.6354C158.188 74.5188 156.996 74.8178 156.003 75.4816C155.01 76.1453 154.278 77.1327 153.932 78.2756C153.585 79.4184 153.646 80.646 154.103 81.7492C154.56 82.8524 155.386 83.763 156.439 84.3259C157.492 84.8888 158.708 85.0691 159.879 84.8361C161.051 84.6031 162.105 83.9713 162.862 83.0483C163.62 82.1252 164.034 80.968 164.035 79.7738C164.034 79.094 163.898 78.4212 163.635 77.7942C163.373 77.1672 162.988 76.5985 162.504 76.121H162.521Z" fill="white"/>
<path fill-rule="evenodd" clip-rule="evenodd" d="M165.127 58.103C165.704 58.103 166.269 57.9318 166.749 57.611C167.229 57.2903 167.603 56.8344 167.824 56.3011C168.045 55.7677 168.103 55.1808 167.99 54.6146C167.877 54.0484 167.599 53.5283 167.191 53.1201C166.783 52.7119 166.263 52.4339 165.697 52.3212C165.13 52.2086 164.543 52.2664 164.01 52.4873C163.477 52.7083 163.021 53.0824 162.7 53.5624C162.379 54.0424 162.208 54.6067 162.208 55.184C162.208 55.9582 162.516 56.7006 163.063 57.248C163.61 57.7954 164.353 58.103 165.127 58.103Z" fill="white"/>
<path fill-rule="evenodd" clip-rule="evenodd" d="M120.443 415.644C151.934 406.075 180.397 407.972 184.017 419.881C187.636 431.79 165.044 449.204 133.561 458.773C102.079 468.343 73.6066 466.45 69.9872 454.541C66.3677 442.632 88.9518 425.219 120.443 415.644Z" fill="#CED0ED"/>
<path fill-rule="evenodd" clip-rule="evenodd" d="M166.011 415.203L168.196 364.48C168.557 364.365 168.909 364.226 169.251 364.063H169.297H169.347L169.576 363.947H169.61L169.76 363.867L185.276 355.402C188.003 353.918 190.013 350.945 190.855 346.587C190.889 346.421 190.918 346.25 190.947 346.083V346.029C190.972 345.879 190.997 345.72 191.018 345.566V345.491L191.08 345.007V344.978C191.101 344.807 191.118 344.632 191.135 344.461C191.135 344.298 191.164 344.131 191.176 343.965V343.881C191.176 343.727 191.197 343.568 191.205 343.41V343.339C191.205 343.176 191.205 343.01 191.226 342.847V342.784C191.226 342.622 191.226 342.455 191.226 342.288V342.192C191.226 342.034 191.226 341.871 191.226 341.713V341.513C191.226 341.363 191.226 341.212 191.226 341.062V340.95C191.226 340.8 191.226 340.649 191.226 340.495V340.374C191.226 340.224 191.226 340.07 191.197 339.92V339.745L191.16 339.298V339.153L191.122 338.736V338.56C191.122 338.431 191.093 338.302 191.076 338.173L191.051 337.943L191.009 337.622L190.964 337.301L190.926 337.043C190.926 336.93 190.893 336.813 190.872 336.696L190.822 336.375L190.78 336.142L190.722 335.804L190.655 335.45L190.613 335.241C190.588 335.108 190.559 334.974 190.53 334.824L190.497 334.657C190.463 334.511 190.434 334.365 190.401 334.22L190.338 333.948C190.301 333.794 190.267 333.64 190.23 333.486L190.205 333.39L190.092 332.973L190.055 332.814C190.017 332.673 189.979 332.531 189.938 332.397L189.904 332.268C189.863 332.114 189.817 331.959 189.775 331.805L189.696 331.534C189.646 331.367 189.596 331.201 189.542 331.03V330.975C189.433 330.617 189.316 330.262 189.196 329.904C186.76 322.656 182.378 315.593 176.878 310.818C170.852 305.589 164.873 304.313 160.615 306.627L145.112 315.076L144.849 315.226H144.824L144.749 315.276L144.553 315.397L144.444 315.468L144.232 315.618L144.144 315.68L143.923 315.847L143.84 315.914L143.635 316.081L143.556 316.151L143.339 316.343L143.269 316.41L143.064 316.61L142.993 316.681L142.793 316.894L142.735 316.952L142.526 317.194L142.468 317.265C142.401 317.344 142.33 317.427 142.268 317.511L142.218 317.573C142.151 317.657 142.088 317.74 142.026 317.828L141.976 317.894C141.909 317.986 141.847 318.082 141.78 318.178L141.742 318.236L141.551 318.532L141.517 318.587C141.455 318.691 141.392 318.791 141.334 318.895L141.305 318.945C141.242 319.054 141.184 319.166 141.121 319.279L141.092 319.337L140.917 319.679L140.896 319.725L140.733 320.079L140.708 320.13L140.546 320.513V320.551C140.487 320.684 140.437 320.822 140.383 320.968C140.329 321.105 140.283 321.243 140.233 321.385V321.418C140.187 321.564 140.137 321.706 140.091 321.856V321.885L140.066 321.968L117.636 334.228H117.615L117.39 334.357L117.315 334.407L117.148 334.511L117.04 334.582L116.865 334.703L116.777 334.77C116.715 334.812 116.656 334.858 116.598 334.903L116.51 334.974L116.331 335.12L116.256 335.183L116.068 335.354L116.01 335.408L115.827 335.583L115.752 335.662L115.589 335.833L115.526 335.9C115.464 335.967 115.401 336.038 115.343 336.113L115.297 336.167C115.23 336.242 115.172 336.317 115.109 336.396L115.076 336.438L114.901 336.671L114.863 336.721L114.68 336.984L114.655 337.022C114.597 337.113 114.534 337.205 114.476 337.301L114.455 337.339C114.396 337.43 114.342 337.526 114.284 337.622V337.656C114.225 337.756 114.171 337.86 114.113 337.964V337.997L113.95 338.323C113.896 338.431 113.846 338.544 113.796 338.66V338.69L113.646 339.044V339.065C113.596 339.186 113.55 339.307 113.504 339.432C113.458 339.553 113.416 339.678 113.371 339.803V339.828L113.308 340.016C93.1634 349.189 78.131 338.669 78.131 338.669C52.8907 316.335 27.025 320.463 20.349 347.888C20.0571 349.081 19.8111 350.294 19.6026 351.533C19.2801 352.675 19.0021 353.869 18.7686 355.115C13.8565 380.505 28.155 416.954 50.7099 436.523C54.4562 439.842 58.6161 442.662 63.086 444.913C85.1614 458.986 105.881 452.89 111.753 428.771C112.964 423.568 113.487 418.228 113.308 412.888C113.842 390.788 124.208 381.043 130.821 377.282H130.859L130.997 377.34L131.243 377.44L131.397 377.499L131.614 377.582L131.793 377.645L131.993 377.715L132.181 377.774L132.381 377.836L132.577 377.895L132.74 377.941L133.057 378.024H133.09L133.419 378.099H133.465H133.569L130.163 415.023C130.118 415.686 130.264 416.348 130.582 416.932C130.9 417.515 131.378 417.996 131.96 418.318L147.122 427.571L147.18 427.608L147.234 427.637L147.284 427.666L147.338 427.691L147.388 427.716L147.443 427.742L147.493 427.766L147.547 427.792L147.601 427.817L147.655 427.842H147.709H147.764H147.818L147.872 427.862H147.926H147.981H148.035H148.089H148.143H148.197H148.256H148.314H148.372H148.427H148.485H148.543H148.602H149.382H149.44H149.561H149.619H149.678H149.736H149.794H149.853H149.911H149.97H150.028H150.086H150.145L150.203 427.842H150.261H150.32L150.378 427.817L150.432 427.792L150.487 427.766L150.545 427.742L150.603 427.712L150.662 427.687L150.716 427.658L150.774 427.625L162.2 421.424C163.315 420.801 164.252 419.902 164.919 418.812C165.587 417.723 165.963 416.48 166.011 415.203Z" fill="white"/>
<path fill-rule="evenodd" clip-rule="evenodd" d="M169.451 416.245L170.489 361.324C170.504 360.661 170.336 360.008 170.005 359.434C169.673 358.86 169.19 358.389 168.609 358.071L153.226 349.189C152.659 348.852 152.01 348.673 151.35 348.673C150.689 348.673 150.041 348.852 149.473 349.189L140.996 354.085C138.607 355.461 137.427 357.838 137.243 360.59L133.411 417.096C133.381 417.76 133.542 418.419 133.873 418.995C134.205 419.571 134.694 420.04 135.283 420.348L150.666 429.23C151.233 429.569 151.882 429.748 152.542 429.748C153.203 429.748 153.851 429.569 154.419 429.23L165.677 422.754C166.828 422.102 167.784 421.156 168.447 420.012C169.111 418.868 169.457 417.568 169.451 416.245Z" fill="#36396E"/>
<path fill-rule="evenodd" clip-rule="evenodd" d="M171.72 364.91L171.653 364.947C171.444 365.056 171.236 365.16 171.011 365.252H170.99C166.878 366.986 161.316 365.669 155.628 360.969C145.524 352.63 138.865 336.784 140.75 325.592C141.459 321.389 143.252 318.441 145.795 316.835L146.108 316.644L161.428 307.799C165.598 305.381 171.62 306.515 177.77 311.598C187.874 319.938 194.533 335.783 192.648 346.971C191.914 351.349 189.975 354.368 187.286 355.92L171.966 364.768L171.72 364.91Z" fill="#91B6FF"/>
<path fill-rule="evenodd" clip-rule="evenodd" d="M171.72 364.91L171.653 364.947C171.44 365.06 171.236 365.16 171.011 365.252H170.99C168.217 366.419 164.789 366.202 161.103 364.497C158.747 355.703 165.431 333.415 174.109 336.405C182.786 339.394 189.921 334.883 190.555 330.375C192.64 336.117 193.474 342.001 192.64 346.971C191.906 351.349 189.967 354.368 187.277 355.92L171.957 364.764L171.72 364.91Z" fill="#618BE0"/>
<path fill-rule="evenodd" clip-rule="evenodd" d="M162.454 320.45C172.558 328.79 179.221 344.636 177.336 355.823C175.452 367.011 165.732 369.321 155.628 360.977C145.524 352.634 138.865 336.792 140.75 325.6C142.635 314.408 152.355 312.102 162.454 320.45Z" fill="#36396E"/>
<path fill-rule="evenodd" clip-rule="evenodd" d="M141.988 379.183L169.33 363.367C171.715 361.987 173.429 359.314 174.08 355.444C175.748 345.52 169.843 331.471 160.886 324.07C155.428 319.558 150.095 318.557 146.383 320.705L119.037 336.509C118.946 336.559 118.858 336.617 118.766 336.671C116.527 338.093 114.918 340.708 114.288 344.44C112.62 354.364 118.525 368.412 127.486 375.818C132.531 379.988 137.468 381.155 141.117 379.613C141.313 379.529 141.505 379.437 141.692 379.342L141.747 379.312L141.988 379.183Z" fill="#5F629E"/>
<path fill-rule="evenodd" clip-rule="evenodd" d="M133.54 339.878C142.501 347.28 148.41 361.328 146.738 371.252C145.066 381.177 136.447 383.224 127.486 375.839C118.524 368.454 112.616 354.368 114.288 344.432C115.96 334.495 124.579 332.472 133.54 339.878Z" fill="#36396E"/>
<path fill-rule="evenodd" clip-rule="evenodd" d="M79.5403 341.971C105.31 363.684 121.343 403.644 115.326 431.227C109.309 458.811 83.5559 463.561 57.7819 441.848C32.0079 420.135 15.9915 380.167 22.0002 352.588C28.009 325.008 53.7914 320.246 79.5403 341.971Z" fill="#91B6FF"/>
<path d="M90.9239 449.548C108.194 440.599 109.372 408.599 93.5557 378.072C77.739 347.545 50.9167 330.053 33.6464 339.001C16.3762 347.949 15.1978 379.95 31.0146 410.476C46.8313 441.003 73.6536 458.496 90.9239 449.548Z" fill="#618BE0"/>
<path d="M87.8661 443.646C103.292 435.653 104.344 407.07 90.2162 379.802C76.0882 352.535 52.1301 336.91 36.7043 344.903C21.2784 352.895 20.2262 381.479 34.3542 408.746C48.4821 436.013 72.4402 451.639 87.8661 443.646Z" fill="#5F629E"/>
<path fill-rule="evenodd" clip-rule="evenodd" d="M69.2199 353.042C83.8479 365.135 94.9272 384.925 98.726 403.548C98.7484 405.687 98.5852 407.825 98.2381 409.936C95.3484 427.107 80.4369 430.644 64.9375 417.838C49.438 405.032 39.1968 380.734 42.1158 363.563C44.2549 350.861 52.9574 345.632 63.6323 348.935C65.5743 350.192 67.4401 351.564 69.2199 353.042Z" fill="#36396E"/>
<path fill-rule="evenodd" clip-rule="evenodd" d="M64.2369 382.598C70.0747 387.41 73.9068 396.546 72.8185 403.006C71.7302 409.465 66.1467 410.791 60.3089 405.975C54.4711 401.158 50.6348 392.026 51.7231 385.567C52.8115 379.108 58.4074 377.79 64.2369 382.598Z" fill="#91B6FF"/>
<path fill-rule="evenodd" clip-rule="evenodd" d="M55.4594 380.088L80.5912 364.822C88.2993 374.704 94.0098 385.992 97.4041 398.056L68.9406 408.535C70.9004 407.814 72.3265 405.937 72.8185 403.006C73.9069 396.551 70.0664 387.41 64.2369 382.598C60.9969 379.921 57.8237 379.142 55.4594 380.097V380.088Z" fill="#618BE0"/>
<path fill-rule="evenodd" clip-rule="evenodd" d="M79.5403 341.972C79.5403 341.972 96.2198 353.059 117.44 341.05C120.622 338.486 125.605 339.119 130.721 343.343C138.398 349.686 143.465 361.724 142.03 370.231C141.513 373.308 139.436 376.903 136.259 377.737C130.646 379.993 116.502 389.204 116.502 415.336C114.934 388.411 100.123 359.314 79.5403 341.972Z" fill="#F2F3FF"/>
<path fill-rule="evenodd" clip-rule="evenodd" d="M140.416 357.571C142.018 361.945 142.668 366.44 142.03 370.231C141.513 373.308 139.436 376.902 136.259 377.736C130.646 379.992 116.502 389.203 116.502 415.336C115.756 402.518 112.003 389.203 106.052 376.894C116.123 380.034 138.64 366.832 140.416 357.571Z" fill="#CED0ED"/>
<path fill-rule="evenodd" clip-rule="evenodd" d="M169.451 416.245L170.49 361.324C170.504 360.661 170.337 360.008 170.005 359.434C169.673 358.861 169.19 358.389 168.609 358.071C168.042 357.732 167.393 357.553 166.732 357.553C166.072 357.553 165.423 357.732 164.856 358.071L156.37 362.967C153.981 364.343 152.801 366.72 152.617 369.472L148.785 425.978C148.756 426.642 148.916 427.301 149.248 427.877C149.579 428.453 150.068 428.922 150.658 429.23C151.225 429.568 151.874 429.746 152.534 429.746C153.195 429.746 153.843 429.568 154.41 429.23L165.669 422.754C166.821 422.104 167.779 421.157 168.444 420.013C169.109 418.869 169.456 417.568 169.451 416.245Z" fill="#5F629E"/>
<path fill-rule="evenodd" clip-rule="evenodd" d="M59.6292 388.386C63.7991 391.822 66.5345 398.348 65.7589 402.956C64.9833 407.564 60.9803 408.514 56.8187 405.074C52.6572 401.634 49.9176 395.117 50.6932 390.509C51.4688 385.901 55.4594 384.95 59.6292 388.386Z" fill="#618BE0"/>
<path fill-rule="evenodd" clip-rule="evenodd" d="M6.96787 372.17C8.3424 372.173 9.68528 372.582 10.8273 373.347C11.9694 374.112 12.8596 375.198 13.3857 376.468C13.9118 377.738 14.0504 379.135 13.7839 380.483C13.5175 381.832 12.8579 383.071 11.8883 384.045C11.2423 384.693 10.475 385.206 9.63034 385.556C8.78567 385.907 7.88022 386.087 6.96579 386.087C6.05136 386.087 5.14591 385.907 4.30124 385.556C3.45658 385.206 2.68928 384.693 2.04325 384.045C1.07153 383.07 0.41039 381.829 0.143208 380.478C-0.123973 379.127 0.0147647 377.727 0.541928 376.456C1.06909 375.184 1.96107 374.096 3.1054 373.33C4.24973 372.565 5.59516 372.155 6.97204 372.153L6.96787 372.17ZM10.0077 376.123C9.1971 375.361 8.1223 374.945 7.01028 374.961C5.89826 374.977 4.83609 375.425 4.04807 376.21C3.26005 376.994 2.80787 378.055 2.78703 379.167C2.76619 380.279 3.17832 381.355 3.93638 382.169C4.74014 382.972 5.82973 383.423 6.96579 383.423C8.10185 383.423 9.19144 382.972 9.9952 382.169C10.7929 381.366 11.2416 380.28 11.244 379.148C11.2463 378.016 10.8021 376.929 10.0077 376.123Z" fill="#618BE0"/>
<path fill-rule="evenodd" clip-rule="evenodd" d="M6.4216 361.023C6.9989 361.023 7.56325 360.852 8.04326 360.531C8.52327 360.211 8.8974 359.755 9.11832 359.222C9.33925 358.688 9.39705 358.101 9.28442 357.535C9.1718 356.969 8.8938 356.449 8.48558 356.04C8.07736 355.632 7.55726 355.354 6.99105 355.242C6.42484 355.129 5.83794 355.187 5.30458 355.408C4.77122 355.629 4.31535 356.003 3.99461 356.483C3.67388 356.963 3.50269 357.527 3.50269 358.104C3.50269 358.879 3.81021 359.621 4.35762 360.168C4.90502 360.716 5.64745 361.023 6.4216 361.023Z" fill="#618BE0"/>
<path d="M137.31 495.623C147.996 495.623 156.658 491.241 156.658 485.836C156.658 480.431 147.996 476.049 137.31 476.049C126.624 476.049 117.962 480.431 117.962 485.836C117.962 491.241 126.624 495.623 137.31 495.623Z" fill="white"/>
<path fill-rule="evenodd" clip-rule="evenodd" d="M206.409 36.2988L477.534 192.832C485.136 197.218 489.485 204.753 489.485 213.527V427.295C489.513 429.398 488.972 431.469 487.921 433.29C486.869 435.111 485.345 436.614 483.509 437.641C482.031 438.508 480.385 439.05 478.681 439.23C477.661 440.676 476.334 441.879 474.794 442.753C472.988 443.829 470.924 444.397 468.821 444.397C466.718 444.397 464.654 443.829 462.848 442.753L191.702 286.216C184.104 281.829 179.755 274.294 179.755 265.521V51.7607C179.726 49.6577 180.265 47.5859 181.316 45.7642C182.367 43.9424 183.891 42.4384 185.726 41.4111C187.207 40.5428 188.856 40.0011 190.563 39.8223C191.585 38.3776 192.912 37.1748 194.45 36.2988C196.258 35.2206 198.324 34.6514 200.429 34.6514C202.534 34.6514 204.601 35.2206 206.409 36.2988Z" fill="white"/>
<path fill-rule="evenodd" clip-rule="evenodd" d="M485.557 468.152L499.43 460.141C500.338 459.618 501.093 458.864 501.617 457.956C502.142 457.048 502.418 456.017 502.418 454.969C502.418 453.92 502.142 452.89 501.617 451.982C501.093 451.074 500.338 450.32 499.43 449.796L249.504 305.518C247.753 304.476 245.76 303.911 243.723 303.878C241.686 303.845 239.675 304.346 237.891 305.331L223.322 313.116C222.387 313.62 221.604 314.364 221.052 315.272C220.501 316.179 220.201 317.217 220.184 318.279C220.167 319.341 220.433 320.388 220.956 321.313C221.478 322.238 222.237 323.007 223.155 323.541L299.505 367.62L273.873 382.423C272.313 383.324 271.017 384.62 270.116 386.181C269.215 387.741 268.741 389.512 268.741 391.313C268.741 393.115 269.215 394.885 270.116 396.446C271.017 398.007 272.313 399.303 273.873 400.204L320.663 427.229L313.896 431.165L326.255 432.887C330.659 433.412 335.113 432.472 338.927 430.21L373.391 410.316L473.606 468.173C475.415 469.246 477.481 469.811 479.584 469.807C481.688 469.803 483.751 469.232 485.557 468.152Z" fill="#CED0ED"/>
<path fill-rule="evenodd" clip-rule="evenodd" d="M254.913 400.487L303.15 428.321C306.254 430.172 309.8 431.148 313.414 431.148C317.028 431.148 320.574 430.172 323.678 428.321L387.302 391.597L313.387 348.935L254.909 382.711C253.347 383.611 252.05 384.907 251.149 386.468C250.247 388.028 249.772 389.799 249.772 391.601C249.772 393.404 250.247 395.174 251.149 396.735C252.05 398.295 253.347 399.591 254.909 400.491L254.913 400.487Z" fill="#F2F3FF"/>
<path fill-rule="evenodd" clip-rule="evenodd" d="M254.913 395.404L303.15 423.242C306.254 425.093 309.8 426.07 313.414 426.07C317.028 426.07 320.574 425.093 323.678 423.242L387.302 386.518L313.387 343.852L254.909 377.628C253.347 378.529 252.051 379.825 251.149 381.386C250.248 382.947 249.773 384.718 249.773 386.52C249.773 388.323 250.248 390.094 251.149 391.655C252.051 393.216 253.347 394.512 254.909 395.413L254.913 395.404Z" fill="white"/>
<path fill-rule="evenodd" clip-rule="evenodd" d="M363.317 400.346L387.281 386.514L313.387 343.852L289.427 357.688L363.317 400.346Z" fill="#F2F3FF"/>
<path fill-rule="evenodd" clip-rule="evenodd" d="M211.171 45.9521L482.3 202.481C489.898 206.867 494.247 214.402 494.247 223.176V436.944C494.247 439.043 493.695 441.104 492.646 442.922C491.597 444.739 490.088 446.248 488.27 447.297C486.453 448.346 484.391 448.898 482.293 448.898C480.195 448.897 478.133 448.344 476.316 447.294L205.195 290.757C201.523 288.703 198.474 285.696 196.371 282.052C194.267 278.409 193.187 274.265 193.244 270.058V56.2933C193.244 54.1948 193.795 52.133 194.845 50.3155C195.894 48.498 197.403 46.989 199.221 45.9402C201.038 44.8914 203.1 44.34 205.199 44.3413C207.297 44.3427 209.359 44.8968 211.175 45.9479L211.171 45.9521Z" fill="#CED0ED"/>
<path fill-rule="evenodd" clip-rule="evenodd" d="M202.456 51.0601L473.585 207.593C481.183 211.98 485.532 219.515 485.532 228.288V442.057C485.533 444.155 484.981 446.217 483.932 448.034C482.883 449.852 481.373 451.361 479.556 452.41C477.738 453.459 475.676 454.01 473.577 454.009C471.479 454.007 469.418 453.453 467.601 452.402L196.48 295.865C188.895 291.474 184.534 283.943 184.534 275.17V61.4097C184.533 59.3113 185.085 57.2497 186.134 55.4324C187.184 53.6151 188.693 52.106 190.51 51.057C192.327 50.008 194.389 49.456 196.487 49.4565C198.586 49.4571 200.647 50.0101 202.464 51.0601H202.456Z" fill="white"/>
<path fill-rule="evenodd" clip-rule="evenodd" d="M202.456 51.0601L473.585 207.593C481.183 211.98 485.532 219.515 485.532 228.288V417.567L184.534 243.783V61.4097C184.533 59.3113 185.085 57.2497 186.134 55.4324C187.184 53.6151 188.693 52.106 190.51 51.057C192.327 50.008 194.389 49.456 196.487 49.4565C198.586 49.4571 200.647 50.0101 202.464 51.0601H202.456Z" fill="#5F629E"/>
<path fill-rule="evenodd" clip-rule="evenodd" d="M193.007 56.9729L477.063 220.966V399.27L193.007 235.273V56.9729Z" fill="#F2F3FF"/>
<path fill-rule="evenodd" clip-rule="evenodd" d="M463.632 147.551C457.856 144.399 452.373 146.613 451.393 152.497C450.413 158.38 454.287 165.698 460.062 168.851C465.837 172.003 471.321 169.789 472.305 163.91C473.289 158.03 469.407 150.704 463.632 147.551Z" fill="#36396E"/>
<path fill-rule="evenodd" clip-rule="evenodd" d="M463.102 152.697C460.717 151.396 458.453 152.309 458.048 154.736C457.644 157.163 459.245 160.186 461.626 161.487C464.007 162.788 466.271 161.875 466.68 159.448C467.088 157.021 465.483 153.998 463.102 152.697ZM453.737 162.65C455.734 161.42 458.511 161.445 461.372 163.009C464.127 164.591 466.315 166.999 467.626 169.893C465.47 170.631 462.793 170.344 460.054 168.851C457.446 167.367 455.269 165.23 453.737 162.65Z" fill="white"/>
<path fill-rule="evenodd" clip-rule="evenodd" d="M479.573 156.983L500.802 169.247V172.337L479.565 160.073V156.983H479.573ZM479.573 164.335V167.429L489.727 173.292V170.193L479.573 164.335Z" fill="#36396E"/>
<path fill-rule="evenodd" clip-rule="evenodd" d="M255.743 330.079L219.465 309.133C219.127 303.529 218.314 297.963 217.034 292.496L252.478 312.928C254.015 318.55 255.106 324.285 255.743 330.079Z" fill="#F2F3FF"/>
<path fill-rule="evenodd" clip-rule="evenodd" d="M217.034 292.496L252.478 312.928C252.478 312.928 253.249 352.008 236.895 361.011L202.61 341.216C202.61 341.216 224.569 325.383 217.034 292.496Z" fill="#FFC369"/>
<path fill-rule="evenodd" clip-rule="evenodd" d="M222.296 302.053L242.57 313.758L241.874 314.959L221.6 303.254L222.296 302.053ZM222.296 308.404L221.6 309.605L230.652 314.826L231.345 313.625L222.296 308.404Z" fill="#36396E"/>
<path fill-rule="evenodd" clip-rule="evenodd" d="M215.624 79.8865L284.661 120.217C286.808 121.468 288.576 124.825 288.576 127.698V274.207C288.576 277.08 286.808 278.423 284.661 277.167L215.624 236.849C213.477 235.598 211.709 232.237 211.709 229.368V82.8429C211.709 79.974 213.498 78.6313 215.624 79.8865Z" fill="#B3DB4F"/>
<path fill-rule="evenodd" clip-rule="evenodd" d="M300.515 129.479L369.551 169.814C371.698 171.065 373.466 174.422 373.466 177.291V323.803C373.466 326.676 371.698 328.019 369.551 326.764L300.515 286.429C298.367 285.178 296.599 281.842 296.599 278.952V132.439C296.599 129.57 298.367 128.228 300.515 129.479Z" fill="#CED0ED"/>
<path fill-rule="evenodd" clip-rule="evenodd" d="M385.405 179.075L454.441 219.41C456.589 220.661 458.357 224.018 458.357 226.887V373.4C458.357 376.269 456.589 377.611 454.441 376.36L385.405 336.025C383.261 334.774 381.489 331.418 381.489 328.549V182.036C381.489 179.163 383.261 177.824 385.405 179.075Z" fill="#CED0ED"/>
<path fill-rule="evenodd" clip-rule="evenodd" d="M303.308 130.296L302.595 131.514L300.16 130.1L300.869 128.878L303.308 130.304V130.296ZM300.464 128.657C299.264 128.124 298.038 128.14 297.049 129.074L298.042 130.079C298.546 129.554 299.264 129.662 299.872 129.921L300.464 128.641V128.657ZM295.878 133.594H297.312V136.417H295.894V133.594H295.878ZM295.878 140.654H297.312V143.473H295.894V140.654H295.878ZM295.878 147.709H297.312V150.532H295.894V147.709H295.878ZM295.878 154.765H297.312V157.588H295.894V154.765H295.878ZM295.878 161.82H297.312V164.643H295.894V161.82H295.878ZM295.878 168.88H297.312V171.699H295.894V168.88H295.878ZM295.878 175.935H297.312V178.758H295.894V175.935H295.878ZM295.878 182.991H297.312V185.814H295.894V182.991H295.878ZM295.878 190.046H297.312V192.869H295.894V190.046H295.878ZM295.878 197.106H297.312V199.925H295.894V197.106H295.878ZM295.878 204.161H297.312V206.984H295.894V204.161H295.878ZM295.878 211.217H297.312V214.04H295.894V211.217H295.878ZM295.878 218.272H297.312V221.095H295.894V218.272H295.878ZM295.878 225.327H297.312V228.151H295.894V225.327H295.878ZM295.878 232.387H297.312V235.21H295.894V232.387H295.878ZM295.878 239.443H297.312V242.27H295.894V239.447L295.878 239.443ZM295.878 246.498H297.312V249.321H295.894V246.498H295.878ZM295.878 253.553H297.312V256.376H295.894V253.553H295.878ZM295.878 260.613H297.312V263.436H295.894V260.617L295.878 260.613ZM295.878 267.668H297.312V270.491H295.894V267.668H295.878ZM295.878 274.724H297.312V277.547H295.894V274.724H295.878ZM296.399 281.95C296.714 282.906 297.159 283.813 297.721 284.648L298.888 283.856C298.4 283.128 298.013 282.336 297.737 281.504L296.399 281.95ZM301.107 287.605L301.82 286.387L304.259 287.809L303.567 289.027L301.127 287.605H301.107ZM307.203 291.166L307.916 289.944L310.351 291.37L309.638 292.588L307.203 291.166ZM313.295 294.723L314.008 293.505L316.443 294.931L315.735 296.149L313.295 294.723ZM319.412 298.284L320.125 297.066L322.561 298.488L321.852 299.71L319.412 298.284ZM325.505 301.845L326.218 300.623L328.657 302.049L327.944 303.267L325.505 301.845ZM331.601 305.402L332.31 304.184L334.749 305.61L334.036 306.828L331.601 305.402ZM337.693 308.963L338.402 307.745L340.841 309.167L340.128 310.385L337.693 308.963ZM343.785 312.524L344.498 311.302L346.934 312.741L346.22 313.958L343.785 312.536V312.524ZM349.852 316.076L350.565 314.859L353.001 316.281L352.288 317.503L349.852 316.076ZM355.945 319.638L356.658 318.42L359.11 319.829L358.396 321.08L355.961 319.658L355.945 319.638ZM362.037 323.194L362.75 321.977L365.185 323.403L364.476 324.621L362.037 323.194ZM368.129 326.756L368.842 325.538L369.889 326.151L369.18 327.368C369.744 327.716 370.389 327.911 371.052 327.936V326.522C370.638 326.497 370.237 326.369 369.884 326.151L369.176 327.368L368.125 326.756H368.129ZM374.138 324.295C374.192 323.345 374.138 322.377 374.138 321.426H372.728C372.728 322.348 372.766 323.286 372.728 324.208L374.138 324.295ZM374.138 317.207H372.728V314.383H374.138V317.207ZM374.138 310.151H372.728V307.32H374.138V310.143V310.151ZM374.138 303.096H372.728V300.273H374.138V303.096ZM374.138 296.036H372.728V293.213H374.138V296.036ZM374.138 288.981H372.728V286.158H374.138V288.972V288.981ZM374.138 281.925H372.728V279.102H374.138V281.925ZM374.138 274.87H372.728V272.047H374.138V274.87ZM374.138 267.81H372.728V264.987H374.138V267.81ZM374.138 260.755H372.728V257.932H374.138V260.755ZM374.138 253.699H372.728V250.876H374.138V253.699ZM374.138 246.644H372.728V243.813H374.138V246.636V246.644ZM374.138 239.584H372.728V236.761H374.138V239.584ZM374.138 232.529H372.728V229.706H374.138V232.529ZM374.138 225.473H372.728V222.65H374.138V225.473ZM374.138 218.418H372.728V215.583H374.138V218.406V218.418ZM374.138 211.358H372.728V208.54H374.138V211.358ZM374.138 204.303H372.728V201.48H374.138V204.303ZM374.138 197.248H372.728V194.425H374.138V197.235V197.248ZM374.138 190.192H372.728V187.369H374.138V190.192ZM374.138 183.133H372.728V180.305H374.138V183.124V183.133ZM374.063 175.969C373.905 174.972 373.604 174.003 373.17 173.091L371.894 173.692C372.269 174.485 372.53 175.328 372.67 176.194L374.063 175.973V175.969ZM370.372 169.51C369.613 168.959 368.675 168.488 367.87 168.029L367.157 169.247C367.916 169.693 368.825 170.131 369.526 170.656L370.36 169.51H370.372ZM364.234 165.894L363.521 167.112L361.086 165.69L361.799 164.468L364.234 165.894ZM358.142 162.333L357.429 163.551L354.994 162.129L355.703 160.911L358.142 162.333ZM352.05 158.776L351.337 159.994L348.902 158.568L349.611 157.35L352.05 158.776ZM345.958 155.215L345.266 156.429L342.826 155.007L343.539 153.785L345.979 155.211L345.958 155.215ZM339.845 151.65L339.136 152.868L336.696 151.446L337.41 150.228L339.845 151.65ZM333.753 148.093L333.044 149.311L330.604 147.885L331.317 146.667L333.753 148.093ZM327.66 144.532L326.947 145.75L324.512 144.328L325.25 143.11L327.685 144.532H327.66ZM321.568 140.971L320.872 142.193L318.437 140.767L319.15 139.549L321.585 140.971H321.568ZM315.476 137.414L314.763 138.632L312.328 137.21L313.037 135.988L315.476 137.414ZM309.405 133.853L308.692 135.075L306.256 133.649L306.965 132.431L309.405 133.853Z" fill="#36396E"/>
<path fill-rule="evenodd" clip-rule="evenodd" d="M323.903 342.918C327.685 343.931 330.75 347.817 330.75 351.599C330.75 355.382 327.685 357.625 323.903 356.603C320.121 355.582 317.061 351.704 317.061 347.922C317.061 344.14 320.125 341.904 323.903 342.918Z" fill="#36396E"/>
<path fill-rule="evenodd" clip-rule="evenodd" d="M208.344 93.8223L229.585 106.086V109.176L208.344 96.9121V93.8223ZM208.344 101.174V104.247L218.501 110.106V107.012L208.344 101.174Z" fill="#36396E"/>
<path fill-rule="evenodd" clip-rule="evenodd" d="M100.519 235.102C99.5393 235.717 98.5148 236.258 97.4541 236.72L92.738 239.222L92.2001 239.493L92.0666 239.559C91.5968 239.787 91.1215 240 90.6405 240.197L90.5446 240.235C90.0443 240.435 89.5314 240.623 89.0143 240.789C82.4009 242.933 74.5782 242.27 66.4511 238.438C65.0459 240.523 62.5731 241.628 59.7209 241.74L39.8056 276.996C38.6866 278.958 36.8371 280.398 34.6606 281.001C32.4841 281.604 30.1574 281.322 28.1883 280.216C26.2244 279.099 24.7823 277.25 24.1768 275.073C23.5713 272.897 23.8517 270.569 24.9567 268.598L45.3891 232.412C44.5551 230.106 44.5551 227.75 45.6393 225.782C46.1244 224.913 46.7949 224.161 47.6033 223.58C34.5349 208.356 27.1709 186.648 30.2858 168.659C31.9537 159.068 36.3029 152.025 42.3284 147.931C42.7787 147.622 43.2416 147.334 43.7086 147.059L43.7628 147.03C44.0214 146.88 44.2799 146.734 44.5426 146.592L52.7572 142.255C61.3347 137.719 72.6684 138.586 84.2106 145.879C105.394 159.264 119.271 189.221 115.209 212.797C113.358 223.522 108.121 231.082 100.944 234.868L100.527 235.098L100.519 235.102ZM74.4573 159.21C66.8097 154.381 59.2831 153.122 53.0533 154.953C48.8501 158.268 45.8186 163.555 44.6135 170.544C41.4027 189.166 52.3653 212.83 69.099 223.401C76.7507 228.234 84.2773 229.493 90.5071 227.659C94.7062 224.343 97.7418 219.06 98.9469 212.067C102.162 193.428 91.1951 169.764 74.4573 159.189V159.21Z" fill="white"/>
<path fill-rule="evenodd" clip-rule="evenodd" d="M54.2793 223.943L69.0448 232.47L41.0816 280.912C39.9442 282.864 38.0812 284.287 35.8988 284.871C33.7164 285.456 31.3916 285.153 29.431 284.031C27.4784 282.895 26.0545 281.033 25.4701 278.851C24.8857 276.669 25.1884 274.344 26.3119 272.384L54.2793 223.943Z" fill="#36396E"/>
<path fill-rule="evenodd" clip-rule="evenodd" d="M62.3229 228.146C56.5226 224.744 49.8425 225.469 47.4073 229.768C44.9721 234.068 47.695 240.306 53.4953 243.708C59.2956 247.111 65.9757 246.385 68.4151 242.086C70.8545 237.787 68.1232 231.549 62.3229 228.146Z" fill="#B3DB4F"/>
<path fill-rule="evenodd" clip-rule="evenodd" d="M84.7944 151.312C63.7365 137.727 43.1916 145.787 38.9008 169.322C34.61 192.857 48.1996 222.946 69.2574 236.532C90.3153 250.117 110.86 242.057 115.151 218.522C119.442 194.987 105.848 164.898 84.7944 151.312ZM83.164 160.265C99.7934 170.998 110.531 194.766 107.141 213.356C103.751 231.945 87.5215 238.312 70.8879 227.579C54.2542 216.846 43.521 193.065 46.9111 174.488C50.3012 155.912 66.5303 149.532 83.164 160.265Z" fill="#36396E"/>
<path fill-rule="evenodd" clip-rule="evenodd" d="M98.2798 241.094C98.5508 240.877 98.8135 240.677 99.0762 240.427C98.8135 240.656 98.5425 240.881 98.2714 241.098L98.2798 241.094ZM76.8633 163.459C93.4928 174.192 104.23 197.961 100.84 216.55C97.45 235.139 81.2208 241.507 64.5914 230.773C47.9619 220.04 37.2203 196.255 40.6104 177.666C44.0005 159.077 60.2297 152.709 76.8633 163.442V163.459ZM46.2856 150.991C46.5483 150.845 46.8068 150.699 47.0737 150.574L55.3259 146.313C63.9492 141.859 75.2704 142.835 86.7459 150.236C107.8 163.826 121.389 193.916 117.098 217.446C115.147 228.159 109.826 235.665 102.625 239.384L94.3684 243.646L93.8305 243.913L93.6929 243.979C93.2217 244.2 92.7464 244.396 92.2626 244.601L92.1667 244.638C91.6622 244.834 91.1493 245.013 90.6322 245.176C82.6011 247.678 72.8394 246.089 62.9609 239.714C41.9072 226.128 28.3135 196.038 32.6043 172.504C34.3514 162.938 38.784 155.928 44.8428 151.892C45.2974 151.587 45.7602 151.304 46.2314 151.033L46.2856 150.991Z" fill="#F2F3FF"/>
<path fill-rule="evenodd" clip-rule="evenodd" d="M78.4937 154.49C57.44 140.904 36.8909 148.969 32.6001 172.499C28.3093 196.03 41.9031 226.124 62.9568 239.709C84.0105 253.295 104.56 245.234 108.834 221.7C113.108 198.165 99.5349 168.079 78.4771 154.49H78.4937ZM76.8633 163.459C93.4928 174.192 104.23 197.961 100.84 216.55C97.45 235.139 81.2208 241.507 64.5914 230.773C47.9619 220.04 37.2203 196.255 40.6104 177.666C44.0005 159.077 60.2297 152.709 76.8633 163.459Z" fill="#CED0ED"/>
<path fill-rule="evenodd" clip-rule="evenodd" d="M440.138 244.284L511.026 283.635C513.762 285.153 515.705 288.96 515.371 292.062L509.909 342.438C509.734 344.04 508.983 345.161 507.92 345.657L504.434 347.784L501.294 343.598L433.454 305.964C430.719 304.447 428.771 300.639 429.109 297.533L434.53 247.348L433.517 245.997L435.793 244.434C435.996 244.251 436.221 244.097 436.465 243.975C437.495 243.458 438.787 243.521 440.138 244.284Z" fill="#FF983D"/>
<path fill-rule="evenodd" clip-rule="evenodd" d="M436.715 245.918L508.437 286.199C510.71 287.475 512.29 291.057 511.952 294.164L506.49 344.54C506.152 347.643 504.021 349.127 501.753 347.876L430.031 307.591C427.762 306.34 426.178 302.737 426.516 299.631L431.978 249.254C432.312 246.139 434.443 244.642 436.715 245.918Z" fill="#FFC369"/>
<path fill-rule="evenodd" clip-rule="evenodd" d="M436.715 245.918L508.437 286.199C509.38 286.773 510.156 287.584 510.689 288.551L465.074 294.556L434.847 245.476C435.5 245.427 436.153 245.581 436.715 245.918Z" fill="#FFC369"/>
<path fill-rule="evenodd" clip-rule="evenodd" d="M467.047 288.218C470.695 290.265 472.772 294.764 471.679 298.267C470.587 301.77 466.751 302.946 463.102 300.898C459.453 298.851 457.381 294.347 458.469 290.849C459.558 287.35 463.398 286.17 467.047 288.218Z" fill="#36396E"/>
<path fill-rule="evenodd" clip-rule="evenodd" d="M510.693 288.73L464.97 294.752L436.665 248.053L436.982 247.836L465.179 294.364L510.684 288.368L510.693 288.73Z" fill="#36396E"/>
<path fill-rule="evenodd" clip-rule="evenodd" d="M434.476 246.577L506.198 286.862C507.463 287.66 508.444 288.838 509 290.227C509.67 291.717 509.943 293.354 509.792 294.981L504.33 345.361C504.256 346.233 503.98 347.075 503.525 347.821C503.248 348.271 502.87 348.65 502.42 348.926C501.997 349.191 501.509 349.336 501.01 349.343C500.41 349.336 499.821 349.171 499.305 348.864L427.583 308.583C426.317 307.785 425.336 306.607 424.781 305.218C424.114 303.727 423.842 302.09 423.989 300.464L429.451 250.084C429.525 249.212 429.801 248.37 430.256 247.624C430.533 247.174 430.911 246.795 431.361 246.519C431.784 246.254 432.271 246.109 432.77 246.102C433.37 246.109 433.958 246.273 434.476 246.577ZM505.993 287.183L434.272 246.902C433.804 246.63 433.274 246.486 432.733 246.485C432.308 246.488 431.892 246.605 431.528 246.823C431.135 247.067 430.804 247.398 430.56 247.79C430.141 248.488 429.887 249.273 429.818 250.084L424.356 300.46C424.213 302.03 424.477 303.609 425.123 305.047C425.652 306.375 426.586 307.502 427.792 308.27L499.513 348.551C499.981 348.823 500.511 348.967 501.052 348.968C501.477 348.965 501.893 348.849 502.257 348.63C502.65 348.386 502.981 348.055 503.225 347.663C503.645 346.966 503.899 346.181 503.967 345.37L509.429 294.993C509.572 293.424 509.308 291.844 508.662 290.406C508.135 289.078 507.201 287.949 505.993 287.183Z" fill="#36396E"/>
<path fill-rule="evenodd" clip-rule="evenodd" d="M512.986 257.014C514.61 257.014 516.183 257.577 517.438 258.607C518.693 259.637 519.553 261.07 519.87 262.662C520.186 264.255 519.941 265.908 519.176 267.34C518.411 268.772 517.173 269.894 515.673 270.516C514.173 271.137 512.504 271.219 510.95 270.748C509.396 270.277 508.054 269.281 507.152 267.931C506.25 266.581 505.843 264.96 506.003 263.345C506.162 261.729 506.876 260.218 508.024 259.07C508.675 258.418 509.448 257.901 510.298 257.548C511.149 257.196 512.061 257.014 512.982 257.014H512.986ZM516.051 260.963C515.237 260.152 514.134 259.696 512.984 259.696C511.834 259.696 510.731 260.152 509.917 260.963C509.312 261.569 508.899 262.341 508.732 263.181C508.566 264.022 508.652 264.893 508.98 265.684C509.308 266.476 509.863 267.152 510.575 267.628C511.288 268.104 512.125 268.358 512.982 268.358C513.839 268.358 514.676 268.104 515.389 267.628C516.101 267.152 516.656 266.476 516.984 265.684C517.312 264.893 517.398 264.022 517.231 263.181C517.065 262.341 516.652 261.569 516.047 260.963H516.051Z" fill="#FF983D"/>
<path fill-rule="evenodd" clip-rule="evenodd" d="M359.568 461.792L385.355 446.902L411.15 461.792L388.032 475.136L390.667 476.241H386.097L385.355 476.658L384.613 476.241H373.004L378.804 472.905L359.568 461.801V461.792ZM397.706 483.63L416.942 494.73L411.137 498.066L423.488 498.483L439.826 489.051L449.266 483.597L423.488 468.71L397.706 483.63Z" fill="#CED0ED"/>
<path fill-rule="evenodd" clip-rule="evenodd" d="M345.507 458.678L345.512 458.674H345.507L344.411 383.758L369.976 368.867L395.971 383.758H395.967H395.971L397.068 458.674L371.507 473.56L345.507 458.678Z" fill="white"/>
<path fill-rule="evenodd" clip-rule="evenodd" d="M347.217 461.367L347.221 461.363H347.217V386.447L372.999 401.33L398.778 386.447H398.782V461.363L372.999 476.246L347.217 461.367Z" fill="#FFC369"/>
<path fill-rule="evenodd" clip-rule="evenodd" d="M372.999 401.33L398.778 386.447H398.782V461.363L372.999 476.246V401.33Z" fill="#FF983D"/>
<path fill-rule="evenodd" clip-rule="evenodd" d="M347.217 386.447L372.999 371.557L398.782 386.443L372.999 401.33L347.217 386.447Z" fill="#FFE7C2"/>
<path fill-rule="evenodd" clip-rule="evenodd" d="M384.221 481.533H384.225H384.221L382.724 368.154L408.31 353.264L434.284 368.154H434.28H434.284L435.781 481.533L410.199 496.415L384.221 481.533Z" fill="white"/>
<path fill-rule="evenodd" clip-rule="evenodd" d="M385.355 483.201H385.359H385.355V369.822L411.137 384.704L436.911 369.822H436.915V483.201L411.137 498.083L385.355 483.201Z" fill="#5F629E"/>
<path fill-rule="evenodd" clip-rule="evenodd" d="M385.355 369.822L411.137 354.931L436.915 369.822L411.137 384.704L385.355 369.822Z" fill="#5F629E"/>
<path fill-rule="evenodd" clip-rule="evenodd" d="M411.137 384.704L436.911 369.822H436.915V483.201L411.137 498.083V384.704Z" fill="#36396E"/>
</g>
<defs>
<clipPath id="clip0_69_252">
<rect width="520" height="519.783" fill="white"/>
</clipPath>
</defs>
</svg>
