<svg width="48" height="48" viewBox="0 0 48 48" fill="none" xmlns="http://www.w3.org/2000/svg">
<path d="M39.9821 4.00391C39.4516 4.00391 38.9429 4.21462 38.5678 4.58969C38.1928 4.96477 37.9821 5.47347 37.9821 6.00391V7.27791C36.2952 9.36923 34.1633 11.0581 31.7415 12.2216C29.3197 13.3851 26.6689 13.994 23.9821 14.0039H11.9821C10.3912 14.0055 8.86604 14.6381 7.74117 15.763C6.6163 16.8879 5.98364 18.4131 5.98206 20.0039V24.0039C5.98364 25.5947 6.6163 27.1199 7.74117 28.2448C8.86604 29.3697 10.3912 30.0023 11.9821 30.0039H12.9501L8.14406 41.2159C8.01359 41.5202 7.96073 41.8522 7.99023 42.182C8.01972 42.5119 8.13064 42.8292 8.31304 43.1056C8.49543 43.3819 8.74359 43.6087 9.03525 43.7655C9.3269 43.9223 9.65293 44.0042 9.98406 44.0039H17.9841C18.3751 44.0037 18.7575 43.8888 19.0839 43.6734C19.4102 43.4579 19.6662 43.1514 19.8201 42.7919L25.2681 30.0799C27.7292 30.2607 30.1272 30.944 32.314 32.0878C34.5007 33.2316 36.4298 34.8115 37.9821 36.7299V38.0039C37.9821 38.5343 38.1928 39.043 38.5678 39.4181C38.9429 39.7932 39.4516 40.0039 39.9821 40.0039C40.5125 40.0039 41.0212 39.7932 41.3963 39.4181C41.7713 39.043 41.9821 38.5343 41.9821 38.0039V6.00391C41.9821 5.47347 41.7713 4.96477 41.3963 4.58969C41.0212 4.21462 40.5125 4.00391 39.9821 4.00391ZM11.9821 26.0039C11.4516 26.0039 10.9429 25.7932 10.5678 25.4181C10.1928 25.043 9.98206 24.5343 9.98206 24.0039V20.0039C9.98206 19.4735 10.1928 18.9648 10.5678 18.5897C10.9429 18.2146 11.4516 18.0039 11.9821 18.0039H13.9821V26.0039H11.9821ZM16.6641 40.0039H13.0161L17.3001 30.0039H20.9501L16.6641 40.0039ZM37.9841 31.0479C34.0406 27.799 29.0934 26.0166 23.9841 26.0039H17.9841V18.0039H23.9841C29.0934 17.991 34.0405 16.2086 37.9841 12.9599V31.0479Z" fill="url(#paint0_linear_76_10)"/>
<defs>
<linearGradient id="paint0_linear_76_10" x1="42.651" y1="20.1077" x2="5.94615" y2="20.2431" gradientUnits="userSpaceOnUse">
<stop stop-color="#05C7F2"/>
<stop offset="1" stop-color="#0477BF"/>
</linearGradient>
</defs>
</svg>
