<svg width="40" height="41" viewBox="0 0 40 41" fill="none" xmlns="http://www.w3.org/2000/svg">
<path d="M28.3333 18.8333H26.6666C26.2246 18.8333 25.8007 19.0089 25.4881 19.3215C25.1756 19.634 25 20.058 25 20.5C25 20.942 25.1756 21.3659 25.4881 21.6785C25.8007 21.9911 26.2246 22.1667 26.6666 22.1667H28.3333C28.7753 22.1667 29.1993 21.9911 29.5118 21.6785C29.8244 21.3659 30 20.942 30 20.5C30 20.058 29.8244 19.634 29.5118 19.3215C29.1993 19.0089 28.7753 18.8333 28.3333 18.8333ZM28.3333 25.5H26.6666C26.2246 25.5 25.8007 25.6756 25.4881 25.9882C25.1756 26.3007 25 26.7246 25 27.1667C25 27.6087 25.1756 28.0326 25.4881 28.3452C25.8007 28.6577 26.2246 28.8333 26.6666 28.8333H28.3333C28.7753 28.8333 29.1993 28.6577 29.5118 28.3452C29.8244 28.0326 30 27.6087 30 27.1667C30 26.7246 29.8244 26.3007 29.5118 25.9882C29.1993 25.6756 28.7753 25.5 28.3333 25.5ZM18.3333 15.5H28.3333C28.7753 15.5 29.1993 15.3244 29.5118 15.0118C29.8244 14.6993 30 14.2754 30 13.8333C30 13.3913 29.8244 12.9674 29.5118 12.6548C29.1993 12.3423 28.7753 12.1667 28.3333 12.1667H18.3333C17.8913 12.1667 17.4674 12.3423 17.1548 12.6548C16.8422 12.9674 16.6666 13.3913 16.6666 13.8333C16.6666 14.2754 16.8422 14.6993 17.1548 15.0118C17.4674 15.3244 17.8913 15.5 18.3333 15.5ZM35 5.5H11.6666C11.2246 5.5 10.8007 5.67559 10.4881 5.98816C10.1756 6.30072 9.99998 6.72464 9.99998 7.16667V12.1667H4.99998C4.55795 12.1667 4.13403 12.3423 3.82147 12.6548C3.50891 12.9674 3.33331 13.3913 3.33331 13.8333V30.5C3.33331 31.8261 3.8601 33.0979 4.79778 34.0355C5.73546 34.9732 7.00723 35.5 8.33331 35.5H30C31.7681 35.5 33.4638 34.7976 34.714 33.5474C35.9643 32.2971 36.6666 30.6014 36.6666 28.8333V7.16667C36.6666 6.72464 36.4911 6.30072 36.1785 5.98816C35.8659 5.67559 35.442 5.5 35 5.5ZM9.99998 30.5C9.99998 30.942 9.82438 31.366 9.51182 31.6785C9.19926 31.9911 8.77534 32.1667 8.33331 32.1667C7.89129 32.1667 7.46736 31.9911 7.1548 31.6785C6.84224 31.366 6.66665 30.942 6.66665 30.5V15.5H9.99998V30.5ZM33.3333 28.8333C33.3333 29.7174 32.9821 30.5652 32.357 31.1904C31.7319 31.8155 30.884 32.1667 30 32.1667H13.0333C13.2274 31.6322 13.3288 31.0686 13.3333 30.5V8.83333H33.3333V28.8333ZM18.3333 22.1667H20C20.442 22.1667 20.8659 21.9911 21.1785 21.6785C21.4911 21.3659 21.6666 20.942 21.6666 20.5C21.6666 20.058 21.4911 19.634 21.1785 19.3215C20.8659 19.0089 20.442 18.8333 20 18.8333H18.3333C17.8913 18.8333 17.4674 19.0089 17.1548 19.3215C16.8422 19.634 16.6666 20.058 16.6666 20.5C16.6666 20.942 16.8422 21.3659 17.1548 21.6785C17.4674 21.9911 17.8913 22.1667 18.3333 22.1667ZM18.3333 28.8333H20C20.442 28.8333 20.8659 28.6577 21.1785 28.3452C21.4911 28.0326 21.6666 27.6087 21.6666 27.1667C21.6666 26.7246 21.4911 26.3007 21.1785 25.9882C20.8659 25.6756 20.442 25.5 20 25.5H18.3333C17.8913 25.5 17.4674 25.6756 17.1548 25.9882C16.8422 26.3007 16.6666 26.7246 16.6666 27.1667C16.6666 27.6087 16.8422 28.0326 17.1548 28.3452C17.4674 28.6577 17.8913 28.8333 18.3333 28.8333Z" fill="white"/>
</svg>
