<svg width="22" height="28" viewBox="0 0 22 28" fill="none" xmlns="http://www.w3.org/2000/svg">
<path d="M9.83265 27.6268L0.343249 18.1373C-0.114417 17.6797 -0.114417 16.9377 0.343249 16.4801L1.45004 15.3733C1.90692 14.9164 2.6474 14.9155 3.10536 15.3713L10.6613 22.8919L18.2172 15.3713C18.6752 14.9155 19.4157 14.9164 19.8725 15.3733L20.9793 16.4801C21.437 16.9377 21.437 17.6797 20.9793 18.1373L11.49 27.6268C11.0323 28.0844 10.2903 28.0844 9.83265 27.6268Z" fill="#05C7F2"/>
<path opacity="0.5" d="M9.83265 12.6268L0.343249 3.13733C-0.114417 2.67966 -0.114417 1.93767 0.343249 1.48005L1.45004 0.373268C1.90692 -0.0836171 2.6474 -0.0844964 3.10536 0.371314L10.6613 7.89187L18.2172 0.371314C18.6752 -0.0844964 19.4157 -0.0836171 19.8725 0.373268L20.9793 1.48005C21.437 1.93772 21.437 2.67971 20.9793 3.13733L11.49 12.6268C11.0323 13.0844 10.2903 13.0844 9.83265 12.6268Z" fill="#05C7F2"/>
</svg>
