<svg width="48" height="48" viewBox="0 0 48 48" fill="none" xmlns="http://www.w3.org/2000/svg">
<path d="M41.18 13.7999C41.1382 13.73 41.0914 13.6632 41.04 13.5999C38.4532 9.34249 34.3705 6.20374 29.5912 4.79806C24.8119 3.39238 19.68 3.82097 15.2 5.99994H15.06C11.9692 7.59163 9.34659 9.96154 7.45099 12.8759C5.55538 15.7903 4.45222 19.1485 4.25031 22.6193C4.04841 26.09 4.75473 29.5535 6.29961 32.668C7.8445 35.7826 10.1746 38.4406 13.06 40.3799L13.72 40.7799L13.92 40.9199C16.9413 42.8357 20.424 43.8999 24 43.9999H24.42C27.9127 43.923 31.3243 42.9325 34.3151 41.1271C37.3059 39.3217 39.7717 36.7644 41.4669 33.7098C43.1622 30.6552 44.0277 27.2098 43.9774 23.7166C43.927 20.2235 42.9626 16.8045 41.18 13.7999ZM38 16.1199C38.5343 17.0451 38.97 18.0238 39.3 19.0399C37.3617 18.4094 35.3383 18.0789 33.3 18.0599C33.0953 18.02 32.8848 18.02 32.68 18.0599C30.2228 18.0925 27.7938 18.5878 25.52 19.5199C24.1342 18.6515 22.8925 17.5718 21.84 16.3199C24.2845 14.8865 27.06 14.1142 29.8935 14.0792C32.7271 14.0441 35.5209 14.7474 38 16.1199ZM24 7.99994C26.81 7.98543 29.5726 8.7244 32 10.1399C31.3371 10.0503 30.669 10.0035 30 9.99994C26.3293 10.007 22.7312 11.0241 19.6 12.9399C19.0093 11.7066 18.5791 10.4027 18.32 9.05994C20.1324 8.36135 22.0577 8.00204 24 7.99994ZM12 13.4199C12.7981 12.5329 13.69 11.7349 14.66 11.0399C15.3278 13.5896 16.498 15.9803 18.1018 18.0718C19.7056 20.1633 21.7109 21.9136 24 23.2199C23.8574 25.2204 23.3347 27.1752 22.46 28.9799C19.396 27.8491 16.7515 25.8076 14.8816 23.1298C13.0118 20.4519 12.0062 17.266 12 13.9999V13.4199ZM8.00004 23.9999C8.00362 22.393 8.24628 20.7955 8.72004 19.2599C9.51072 22.1636 10.9465 24.8514 12.9203 27.1231C14.8942 29.3947 17.3552 31.1916 20.12 32.3799C18.5282 34.2452 16.5212 35.7111 14.26 36.6599C12.3175 35.1694 10.7429 33.2529 9.65759 31.058C8.57229 28.8632 8.00522 26.4485 8.00004 23.9999ZM23.72 39.9999C21.9368 39.9741 20.1712 39.6426 18.5 39.0199C21.1234 37.403 23.335 35.1983 24.96 32.5799C26.8017 29.6449 27.8493 26.2817 28 22.8199C29.1542 22.4405 30.3492 22.1989 31.56 22.0999C32.4145 25.5305 32.1086 29.1475 30.6902 32.3859C29.2718 35.6243 26.8208 38.3017 23.72 39.9999ZM32.16 37.7599C34.6582 34.3481 36.0033 30.2286 36 25.9999C35.9912 24.7384 35.8707 23.4802 35.64 22.2399C37.144 22.5057 38.6043 22.9768 39.98 23.6399V23.9999C39.9781 26.7713 39.2564 29.4947 37.8856 31.9033C36.5148 34.3118 34.5418 36.3231 32.16 37.7399V37.7599Z" fill="url(#paint0_linear_76_16)"/>
<defs>
<linearGradient id="paint0_linear_76_16" x1="44.7183" y1="20.095" x2="4.17701" y2="20.2601" gradientUnits="userSpaceOnUse">
<stop stop-color="#05C7F2"/>
<stop offset="1" stop-color="#0477BF"/>
</linearGradient>
</defs>
</svg>
